<svg width="24" height="24" version="1.1" viewBox="0 0 24 24" xmlns="http://www.w3.org/2000/svg">
 <path d="m11 4a4 4 0 0 1 4 4 4 4 0 0 1-4 4 4 4 0 0 1-4-4 4 4 0 0 1 4-4m0 2a2 2 0 0 0-2 2 2 2 0 0 0 2 2 2 2 0 0 0 2-2 2 2 0 0 0-2-2m0 7c1.1 0 2.66 0.23 4.11 0.69-0.61 0.38-1.11 0.91-1.5 1.54-0.82-0.2-1.72-0.33-2.61-0.33-2.97 0-6.1 1.46-6.1 2.1v1.1h8.14c0.09 0.7 0.34 1.34 0.72 1.9h-10.76v-3c0-2.66 5.33-4 8-4m7.5-3h1.5 2v2h-2v5.5a2.5 2.5 0 0 1-2.5 2.5 2.5 2.5 0 0 1-2.5-2.5 2.5 2.5 0 0 1 2.5-2.5c0.36 0 0.69 0.07 1 0.21v-5.21z" fill="#000"/>
</svg>
