<?xml version="1.0" encoding="UTF-8"?>
<svg id="svg20" width="24" height="24" version="1.1" viewBox="0 0 24 24" xml:space="preserve" xmlns="http://www.w3.org/2000/svg">
<path id="path2" d="m4.93 2c-1.81 1.81-2.93 4.31-2.93 7.07 0 2.76 1.12 5.26 2.93 7.07l1.41-1.41c-1.45-1.44-2.34-3.44-2.34-5.66 0-2.21 0.89-4.22 2.34-5.66l-1.41-1.41m14.14 0-1.41 1.41c1.45 1.44 2.34 3.45 2.34 5.66 0 2.22-0.89 4.22-2.34 5.66l1.41 1.41c1.81-1.81 2.93-4.31 2.93-7.07 0-2.76-1.12-5.26-2.93-7.07m-11.31 2.83c-1.09 1.09-1.76 2.59-1.76 4.24 0 1.65 0.67 3.15 1.76 4.24l1.41-1.41c-0.72-0.72-1.17-1.72-1.17-2.83 0-1.11 0.45-2.11 1.17-2.83l-1.41-1.41m8.48 0-1.41 1.41c0.72 0.72 1.17 1.72 1.17 2.83 0 1.11-0.45 2.11-1.17 2.83l1.41 1.41c1.09-1.09 1.76-2.59 1.76-4.24 0-1.65-0.67-3.15-1.76-4.24m-4.24 2.24a2 2 0 0 0-2 2 2 2 0 0 0 2 2 2 2 0 0 0 2-2 2 2 0 0 0-2-2z" fill="#000"/><path id="path12" d="m15.547 18.507h-3.0403v3.0403h-1.0134v-3.0403h-3.0403v-1.0134h3.0403v-3.0403h1.0134v3.0403h3.0403z" stroke="#000" stroke-width=".90603" fill="#000"/></svg>
