<svg id="svg6" width="24" height="24" fill="#000000" version="1.1" viewBox="0 0 32 32" xmlns="http://www.w3.org/2000/svg">
 <path id="polygon4" transform="matrix(.95 0 0 1.7852 4.6632 -9.9401)" d="m18 22-6-6-6 6zm1.9335-7.8535c0-2.345-3.5867-4.2507-8-4.2507-4.4133 0-8 1.9057-8 4.2507 0 1.5728 1.6133 2.9401 4 3.6768l1.3333-1.2327c-1.5867-0.49591-2.6667-1.3956-2.6667-2.4441 0-1.5657 2.3867-2.8338 5.3333-2.8338 2.9467 0 5.3333 1.2681 5.3333 2.8338 0 1.0485-1.08 1.9482-2.6667 2.4441l1.3333 1.2327c2.3867-0.73678 4-2.1041 4-3.6768zm-8-7.0845c-7.36 0-13.333 3.1738-13.333 7.0845 0 2.6213 2.68 4.9025 6.6533 6.1281l1.3333-1.2256c-3.1733-0.98474-5.32-2.8055-5.32-4.9025 0-3.1313 4.7733-5.6676 10.667-5.6676 5.8933 0 10.667 2.5362 10.667 5.6676 0 2.097-2.1467 3.9177-5.3333 4.9025l1.3333 1.2256c3.9867-1.2256 6.6667-3.5068 6.6667-6.1281 0-3.9106-5.9733-7.0845-13.333-7.0845z" fill="#000"/>
</svg>
