<svg id="svg14" width="24" height="24" version="1.1" viewBox="0 0 24 24" xmlns="http://www.w3.org/2000/svg">
 <g id="g62" transform="matrix(.87876 0 0 .87876 1.5137 2.2722)">
  <path id="path2" d="m13.644 9.261a0.80678 0.80678 0 0 0-0.80678 0.80678 0.80678 0.80678 0 0 0 0.80678 0.80678 0.80678 0.80678 0 0 0 0.80678-0.80678 0.80678 0.80678 0 0 0-0.80678-0.80678m0 4.4373c-2.0169 0-3.6305-1.6136-3.6305-3.6305 0-2.0169 1.6136-3.6305 3.6305-3.6305s3.6305 1.6136 3.6305 3.6305c0 2.017-1.6136 3.6305-3.6305 3.6305m0-11.698a8.0678 8.0678 0 0 0-8.0678 8.0678 8.0678 8.0678 0 0 0 8.0678 8.0678 8.0678 8.0678 0 0 0 8.0678-8.0678 8.0678 8.0678 0 0 0-8.0678-8.0678z" fill="#000"/>
  <path id="path12" d="M 4.93,5.82 C 3.08,7.34 2,9.61 2,12 a 8,8 0 0 0 8,8 c 0.64,0 1.27,-0.08 1.88,-0.23 C 10.12,19.38 8.5,18.5 7.17,17.29 5.22,16.25 4,14.21 4,12 4,11.7 4.03,11.41 4.07,11.11 4.03,10.74 4,10.37 4,10 4,8.56 4.32,7.13 4.93,5.82 Z" fill="#000"/>
 </g>
</svg>
