<svg id="svg14" width="24" height="24" version="1.1" viewBox="0 0 24 24" xmlns="http://www.w3.org/2000/svg">
 <path id="path12" d="m4.9728 6.7451c-1.877 1.5422-2.9728 3.8453-2.9728 6.2702a8.117 8.1167 0 0 0 8.117 8.1167c0.64936 0 1.2886-0.08117 1.9075-0.23336-1.7857-0.39569-3.4294-1.2885-4.7789-2.5162-1.9785-1.0552-3.2163-3.1249-3.2163-5.3672 0-0.30438 0.030439-0.59861 0.071023-0.90298-0.040585-0.3754-0.071023-0.7508-0.071023-1.1262 0-1.461 0.32468-2.9119 0.9436-4.241zm8.8414 3.4912a0.81858 0.81855 0 0 0-0.81858 0.81855 0.81858 0.81855 0 0 0 0.81858 0.81855 0.81858 0.81855 0 0 0 0.81858-0.81855 0.81858 0.81855 0 0 0-0.81858-0.81855m0 4.502c-2.0464 0-3.6836-1.6371-3.6836-3.6835 0-2.0463 1.6372-3.6835 3.6836-3.6835 2.0464 0 3.6836 1.6371 3.6836 3.6835 0 2.0464-1.6372 3.6835-3.6836 3.6835m0-11.869a8.1858 8.1855 0 0 0-8.1858 8.1855 8.1858 8.1855 0 0 0 8.1858 8.1855 8.1858 8.1855 0 0 0 8.1858-8.1855 8.1858 8.1855 0 0 0-8.1858-8.1855z" stroke-width="1.0146" fill="#000"/>
</svg>
