<svg id="svg4" width="24" height="24" version="1.1" viewBox="0 0 24 24" xmlns="http://www.w3.org/2000/svg">
 <path id="path9-3" d="m17.594 15.485c-0.22079 0-0.40887 0.07973-0.5765 0.2392-0.16355 0.15946-0.24124 0.35163-0.24124 0.57855 0 0.2208 0.07768 0.40888 0.24124 0.57651 0.16764 0.16355 0.35572 0.24124 0.5765 0.24124 0.22692 0 0.41909-0.07769 0.57855-0.24124 0.15945-0.16764 0.23919-0.35572 0.23919-0.57651 0-0.22692-0.07973-0.4191-0.23919-0.57855-0.15945-0.15946-0.35162-0.2392-0.57855-0.2392m0.0034 0.37135a0.44029 0.44029 0 0 0-0.44029 0.44029 0.44029 0.44029 0 0 0 0.44029 0.44029 0.44029 0.44029 0 0 0 0.44029-0.44029 0.44029 0.44029 0 0 0-0.44033-0.44029m0 2.4216c-1.1007 0-1.9813-0.8806-1.9813-1.9813 0-1.1007 0.88059-1.9813 1.9813-1.9813 1.1007 0 1.9813 0.8806 1.9813 1.9813 0 1.1007-0.88059 1.9813-1.9813 1.9813m0-6.3843a4.4029 4.4029 0 0 0-4.4029 4.4029 4.4029 4.4029 0 0 0 4.4029 4.4029 4.4029 4.4029 0 0 0 4.4029-4.4029 4.4029 4.4029 0 0 0-4.4029-4.4029zm-7.8944-0.87491c-1.0399 0-1.9257-0.37552-2.7153-1.1266-0.77028-0.75104-1.1362-1.6561-1.1362-2.7249 0-1.0399 0.36588-1.9258 1.1362-2.7153 0.78954-0.77029 1.6754-1.1362 2.7153-1.1362 1.0688 0 1.9738 0.36589 2.7249 1.1362 0.75103 0.78955 1.1266 1.6754 1.1266 2.7153 0 1.0688-0.37552 1.9739-1.1266 2.7249-0.75102 0.75103-1.6561 1.1266-2.7249 1.1266m0 1.9261c0.96285 0 1.9738 0.15405 3.0811 0.42366-0.77991 0.83769-1.1554 1.8198-1.1554 2.9464 0 0.85695 0.24071 1.6658 0.75102 2.4072h-10.379v-1.9258c0-1.1458 0.87619-2.0702 2.6382-2.773 1.762-0.71252 3.4566-1.0784 5.0646-1.0784" stroke-width="1.1185" fill="#000"/>
</svg>
