<svg id="svg4" width="24" height="24" version="1.1" viewBox="0 0 24 24" xmlns="http://www.w3.org/2000/svg">
 <path id="path11" d="m10.904 13.465c0.86084 0 1.7647 0.13773 2.7547 0.37877-0.69728 0.74893-1.033 1.627-1.033 2.6342 0 0.76615 0.21521 1.4893 0.67145 2.1521h-9.2798v-1.7217c0-1.0244 0.78336-1.8508 2.3587-2.4792 1.5753-0.63702 3.0904-0.96414 4.528-0.96414" fill="#fff"/>
 <path id="path9" d="m10.904 11.743c-0.9297 0-1.7217-0.33573-2.4276-1.0072-0.68867-0.67146-1.0158-1.4806-1.0158-2.4362 0-0.92971 0.32712-1.7217 1.0158-2.4276 0.70589-0.68867 1.4979-1.0158 2.4276-1.0158 0.95553 0 1.7647 0.32712 2.4362 1.0158 0.67146 0.70589 1.0072 1.4979 1.0072 2.4276 0 0.95553-0.33573 1.7647-1.0072 2.4362-0.67145 0.67145-1.4806 1.0072-2.4362 1.0072" fill="#fff"/>
 <path id="path70" d="m17.962 16.068a0.39364 0.39364 0 0 0-0.39364 0.39364 0.39364 0.39364 0 0 0 0.39364 0.39364 0.39364 0.39364 0 0 0 0.39364-0.39364 0.39364 0.39364 0 0 0-0.39364-0.39364m0 2.165c-0.98411 0-1.7714-0.78729-1.7714-1.7714s0.78729-1.7714 1.7714-1.7714c0.98411 0 1.7714 0.78729 1.7714 1.7714s-0.78729 1.7714-1.7714 1.7714m0-5.7078a3.9364 3.9364 0 0 0-3.9364 3.9364 3.9364 3.9364 0 0 0 3.9364 3.9364 3.9364 3.9364 0 0 0 3.9364-3.9364 3.9364 3.9364 0 0 0-3.9364-3.9364z" fill="#fff"/>
 <path id="path9-3" d="m17.959 15.736c-0.1974 0-0.36555 0.07128-0.51542 0.21385-0.14622 0.14256-0.21568 0.31437-0.21568 0.51725 0 0.1974 0.06945 0.36555 0.21568 0.51542 0.14988 0.14622 0.31803 0.21568 0.51542 0.21568 0.20288 0 0.37469-0.06946 0.51725-0.21568 0.14256-0.14988 0.21385-0.31803 0.21385-0.51542 0-0.20288-0.07128-0.37469-0.21385-0.51725-0.14256-0.14256-0.31437-0.21385-0.51725-0.21385" fill="#fff"/>
</svg>
