<svg id="svg4" width="24" height="24" version="1.1" viewBox="0 0 24 24" xmlns="http://www.w3.org/2000/svg">
 <path id="path2" d="m11.29 20h-6.29c-1.11 0-2-0.9-2-2v-12c0-1.11 0.9-2 2-2h14c1.11 0 2 0.9 2 2v7.4931c-0.44023-0.43382-1.29-0.97869-2-1.0787v-4.4144h-14v10h6c0 0.7 0.11 1.37 0.29 2zm5.627-0.857c-0.66096 0-1.2393-0.57143-1.2393-1.2245 0-0.65306 0.57834-1.2245 1.2393-1.2245s1.2393 0.57143 1.2393 1.2245c0 0.65306-0.57834 1.2245-1.2393 1.2245m3.057-0.73469v-0.81633l0.90882-0.65306c0.08262-0.08163 0.16524-0.16327 0.08262-0.2449l-0.8262-1.3878c0-0.08163-0.16524-0.08163-0.24786-0.08163l-0.99144 0.40816c-0.24786-0.16327-0.49572-0.32653-0.74358-0.40816l-0.16524-1.0612c0-0.08163-0.08262-0.16326-0.16524-0.16326h-1.6524c-0.16524 0-0.24786 0.08163-0.24786 0.16326l-0.16524 1.0612c-0.24786 0.16326-0.4131 0.2449-0.66096 0.40816l-0.99144-0.40816c-0.08262 0-0.16524 0-0.24786 0.08163l-0.8262 1.3878c0 0.08163 0 0.16326 0.08262 0.2449l0.90882 0.65306v0.81633l-0.90882 0.65306c-0.08262 0.08163-0.16524 0.16327-0.08262 0.2449l0.8262 1.3878c0.08262 0.08163 0.16524 0.08163 0.24786 0.08163l0.99144-0.40816c0.16524 0.16326 0.4131 0.32653 0.66096 0.40816l0.16524 1.0612c0.08262 0.08164 0.16524 0.16327 0.24786 0.16327h1.6524c0.08262 0 0.16524-0.08163 0.16524-0.16326l0.16524-1.0612c0.24786-0.16326 0.4131-0.2449 0.66096-0.40816l0.99144 0.32653c0.08262 0 0.16524 0 0.24786-0.08163l0.8262-1.3878c0.08262-0.08163 0.08262-0.16327 0-0.16327l-0.90882-0.65306" fill="#000"/>
</svg>
