<svg width="24" height="24" version="1.1" viewBox="0 0 24 24" xmlns="http://www.w3.org/2000/svg">
 <path d="m21.7 18.6v-1l1.1-0.8c0.1-0.1 0.2-0.2 0.1-0.3l-1-1.7c0-0.1-0.2-0.1-0.3-0.1l-1.2 0.5c-0.3-0.2-0.6-0.4-0.9-0.5l-0.2-1.3c0-0.1-0.1-0.2-0.2-0.2h-2c-0.2 0-0.3 0.1-0.3 0.2l-0.2 1.3c-0.3 0.2-0.5 0.3-0.8 0.5l-1.2-0.5c-0.1 0-0.2 0-0.3 0.1l-1 1.7c0 0.1 0 0.2 0.1 0.3l1.1 0.8v1l-1.1 0.8c-0.1 0.1-0.2 0.2-0.1 0.3l1 1.7c0.1 0.1 0.2 0.1 0.3 0.1l1.2-0.5c0.2 0.2 0.5 0.4 0.8 0.5l0.2 1.3c0.1 0.1 0.2 0.2 0.3 0.2h2c0.1 0 0.2-0.1 0.2-0.2l0.2-1.3c0.3-0.2 0.5-0.3 0.8-0.5l1.2 0.4c0.1 0 0.2 0 0.3-0.1l1-1.7c0.1-0.1 0.1-0.2 0-0.2l-1.1-0.8m-3.7 0.9c-0.8 0-1.5-0.7-1.5-1.5s0.7-1.5 1.5-1.5 1.5 0.7 1.5 1.5-0.7 1.5-1.5 1.5m-6.71 0.5h-6.29c-1.11 0-2-0.9-2-2v-12c0-1.11 0.9-2 2-2h14c1.11 0 2 0.9 2 2v5.68c-0.62-0.29-1.29-0.5-2-0.6v-3.08h-14v10h6c0 0.7 0.11 1.37 0.29 2z" fill="#000"/>
</svg>
