<svg width="24" height="24" version="1.1" viewBox="0 0 24 24" xmlns="http://www.w3.org/2000/svg">
 <path d="m15.9 18.45c1.35 0 2.45-1.1 2.45-2.45s-1.1-2.45-2.45-2.45c-1.36 0-2.45 1.1-2.45 2.45s1.09 2.45 2.45 2.45m5.2-1.77 1.48 1.16c0.13 0.11 0.17 0.29 0.08 0.45l-1.4 2.42c-0.09 0.15-0.26 0.21-0.43 0.15l-1.74-0.7c-0.36 0.28-0.76 0.51-1.18 0.69l-0.27 1.85c-0.02 0.17-0.17 0.3-0.34 0.3h-2.8c-0.18 0-0.32-0.13-0.35-0.3l-0.26-1.85c-0.43-0.18-0.82-0.41-1.18-0.69l-1.75 0.7c-0.15 0.06-0.34 0-0.42-0.15l-1.4-2.42c-0.09-0.16-0.05-0.34 0.08-0.45l1.48-1.16-0.05-0.68 0.05-0.69-1.48-1.15c-0.13-0.11-0.17-0.3-0.08-0.45l1.4-2.42c0.08-0.16 0.27-0.22 0.42-0.16l1.75 0.71c0.36-0.28 0.75-0.52 1.18-0.69l0.26-1.86c0.03-0.16 0.17-0.29 0.35-0.29h2.8c0.17 0 0.32 0.13 0.34 0.29l0.27 1.86c0.42 0.17 0.82 0.41 1.18 0.69l1.74-0.71c0.17-0.06 0.34 0 0.43 0.16l1.4 2.42c0.09 0.15 0.05 0.34-0.08 0.45l-1.48 1.15 0.05 0.69-0.05 0.68m-14.41-8.61c0.87 0 1.57-0.7 1.57-1.57s-0.7-1.58-1.57-1.58a1.58 1.58 0 0 0-1.58 1.58c0 0.87 0.71 1.57 1.58 1.57m3.34-1.13 0.97 0.74c0.07 0.07 0.09 0.19 0.03 0.29l-0.9 1.56c-0.05 0.1-0.17 0.14-0.27 0.1l-1.12-0.45-0.74 0.44-0.19 1.19c-0.02 0.11-0.11 0.19-0.22 0.19h-1.8c-0.12 0-0.21-0.08-0.23-0.19l-0.16-1.19-0.76-0.44-1.14 0.45c-0.09 0.04-0.2 0-0.26-0.1l-0.9-1.56c-0.06-0.1-0.03-0.22 0.05-0.29l0.95-0.74-0.03-0.44 0.03-0.44-0.95-0.74c-0.08-0.07-0.11-0.19-0.05-0.29l0.9-1.56c0.06-0.1 0.17-0.14 0.26-0.1l1.13 0.45 0.77-0.44 0.16-1.19c0.02-0.11 0.11-0.19 0.23-0.19h1.8c0.11 0 0.2 0.08 0.22 0.19l0.19 1.19 0.74 0.44 1.12-0.45c0.1-0.04 0.22 0 0.27 0.1l0.9 1.56c0.06 0.1 0.04 0.22-0.03 0.29l-0.97 0.74 0.03 0.44-0.03 0.44z" fill="#000"/>
</svg>
