<svg width="24" height="24" version="1.1" viewBox="0 0 24 24" xmlns="http://www.w3.org/2000/svg">
 <path d="m18.71 19.5c-0.83 1.24-1.71 2.45-3.05 2.47-1.34 0.03-1.77-0.79-3.29-0.79-1.53 0-2 0.77-3.27 0.82-1.31 0.05-2.3-1.32-3.14-2.53-1.71-2.47-3.02-7.02-1.26-10.08 0.87-1.52 2.43-2.48 4.12-2.51 1.28-0.02 2.5 0.87 3.29 0.87 0.78 0 2.26-1.07 3.81-0.91 0.65 0.03 2.47 0.26 3.64 1.98-0.09 0.06-2.17 1.28-2.15 3.81 0.03 3.02 2.65 4.03 2.68 4.04-0.03 0.07-0.42 1.44-1.38 2.83m-5.71-16c0.73-0.83 1.94-1.46 2.94-1.5 0.13 1.17-0.34 2.35-1.04 3.19-0.69 0.85-1.83 1.51-2.95 1.42-0.15-1.15 0.41-2.35 1.05-3.11z" fill="#000"/>
</svg>
