<svg width="24" height="24" version="1.1" viewBox="0 0 24 24" xmlns="http://www.w3.org/2000/svg">
 <path d="m2.09 16.8h1.66v-7.04h-1.66m0.83-0.92c0.52 0 0.92-0.4 0.92-0.9s-0.4-0.9-0.92-0.9-0.92 0.4-0.92 0.9 0.4 0.9 0.92 0.9m6.33-1.78c-2.79 0-4.55 1.9-4.55 4.94 0 3.06 1.76 4.96 4.55 4.96s4.55-1.9 4.55-4.96c0-3.04-1.76-4.94-4.55-4.94m0 1.44c1.71 0 2.8 1.37 2.8 3.5 0 2.15-1.09 3.5-2.8 3.5s-2.79-1.35-2.79-3.5c0-2.13 1.08-3.5 2.79-3.5m5.25 5.61c0.07 1.76 1.5 2.85 3.72 2.85 2.32 0 3.78-1.14 3.78-2.96 0-1.43-0.82-2.23-2.77-2.68l-1.1-0.25c-1.18-0.28-1.66-0.65-1.66-1.29 0-0.78 0.73-1.33 1.81-1.33 1.1 0 1.85 0.55 1.93 1.44h1.63c-0.04-1.69-1.43-2.83-3.55-2.83-2.08 0-3.56 1.15-3.56 2.85 0 1.37 0.83 2.22 2.6 2.62l1.24 0.29c1.21 0.29 1.7 0.68 1.7 1.38 0 0.8-0.8 1.37-1.96 1.37s-2.05-0.57-2.15-1.46h-1.66z" fill="#000"/>
</svg>
