<svg id="svg931" width="24" height="24" version="1.1" viewBox="0 0 24 24" xmlns="http://www.w3.org/2000/svg">
 <path id="path929" d="m11.998 2c-0.89035 2.1825-1.4274 3.6101-2.4187 5.7277 0.60778 0.64414 1.3538 1.3943 2.5654 2.2415-1.3025-0.53589-2.191-1.0739-2.855-1.6322-1.2687 2.6467-3.2563 6.4169-7.2898 13.663 3.1702-1.8299 5.6277-2.958 7.918-3.3885-0.09835-0.4229-0.15426-0.88035-0.15047-1.3576l0.00377-0.10154c0.050301-2.0307 1.1069-3.5923 2.3585-3.4863 1.2516 0.10603 2.2245 1.8392 2.1742 3.8699-0.0095 0.38211-0.05257 0.7497-0.12789 1.0906 2.2654 0.44306 4.6966 1.5683 7.824 3.3734-0.61664-1.1351-1.1671-2.1583-1.6927-3.1328-0.82794-0.64158-1.6915-1.4766-3.4531-2.3806 1.2108 0.31456 2.0777 0.67746 2.7534 1.0831-5.3441-9.948-5.7769-11.27-7.6096-15.57z" fill-rule="evenodd" stroke-width=".011147" fill="#000"/>
</svg>
