<?xml version="1.0" encoding="UTF-8"?>
<svg id="svg4" width="24" height="24" version="1.1" viewBox="0 0 24 24" xmlns="http://www.w3.org/2000/svg">
 <path id="path3-7" d="m18 20.09 2.45 1.49-0.65-2.81 2.2-1.88-2.89-0.25-1.11-2.64-1.13 2.64-2.87 0.25 2.18 1.88-0.68 2.81zm-7.579-5.985c1.0526 0 2.1579 0.16842 3.3684 0.46318-0.85263 0.91583-1.2632 1.9896-1.2632 3.2212 0 0.93689 0.26316 1.8212 0.82105 2.6317h-11.347v-2.1054c0-1.2527 0.95789-2.2633 2.8842-3.0317 1.9263-0.77898 3.7789-1.179 5.5368-1.179m0-2.1054c-1.1368 0-2.1053-0.41055-2.9685-1.2317-0.84211-0.8211-1.2421-1.8106-1.2421-2.9791 0-1.1369 0.4-2.1054 1.2421-2.9686 0.86316-0.84214 1.8316-1.2422 2.9685-1.2422 1.1684 0 2.1579 0.40002 2.979 1.2422 0.82106 0.8632 1.2316 1.8317 1.2316 2.9686 0 1.1685-0.41053 2.158-1.2316 2.9791-0.82105 0.82108-1.8105 1.2317-2.979 1.2317" fill="#000"/>
</svg>
