<svg id="svg4" width="24" height="24" version="1.1" viewBox="0 0 24 24" xmlns="http://www.w3.org/2000/svg">
 <path id="path2" d="m10.904 13.465c0.86084 0 1.7647 0.13773 2.7547 0.37877-0.69728 0.74893-1.033 1.627-1.033 2.6342 0 0.76615 0.21521 1.4893 0.67145 2.1521h-9.2798v-1.7217c0-1.0244 0.78336-1.8508 2.3587-2.4792 1.5753-0.63702 3.0904-0.96414 4.528-0.96414m0-1.7217c-0.9297 0-1.7217-0.33573-2.4276-1.0072-0.68867-0.67146-1.0158-1.4806-1.0158-2.4362 0-0.92971 0.32712-1.7217 1.0158-2.4276 0.70589-0.68867 1.4979-1.0158 2.4276-1.0158 0.95553 0 1.7647 0.32712 2.4362 1.0158 0.67146 0.70589 1.0072 1.4979 1.0072 2.4276 0 0.95553-0.33573 1.7647-1.0072 2.4362-0.67145 0.67145-1.4806 1.0072-2.4362 1.0072m6.4563-1.7217h3.0129v1.7217h-1.7217v4.7346a2.1521 2.1521 0 0 1-2.1521 2.1521 2.1521 2.1521 0 0 1-2.1521-2.1521 2.1521 2.1521 0 0 1 2.1521-2.1521c0.3099 0 0.59398 0.06025 0.86084 0.18078z" fill="#444"/>
</svg>
