<svg id="svg4" width="24" height="24" version="1.1" viewBox="0 0 24 24" xmlns="http://www.w3.org/2000/svg">
 <path id="path2" d="m10.421 14.105c1.0526 0 2.1579 0.16842 3.3684 0.46318-0.85263 0.91583-1.2632 1.9896-1.2632 3.2212 0 0.93689 0.26316 1.8212 0.82105 2.6317h-11.347v-2.1054c0-1.2527 0.95789-2.2633 2.8842-3.0317 1.9263-0.77898 3.7789-1.179 5.5368-1.179m0-2.1054c-1.1368 0-2.1053-0.41055-2.9685-1.2317-0.84211-0.8211-1.2421-1.8106-1.2421-2.9791 0-1.1369 0.4-2.1054 1.2421-2.9686 0.86316-0.84214 1.8316-1.2422 2.9685-1.2422 1.1684 0 2.1579 0.40002 2.979 1.2422 0.82106 0.8632 1.2316 1.8317 1.2316 2.9686 0 1.1685-0.41053 2.158-1.2316 2.9791-0.82105 0.82108-1.8105 1.2317-2.979 1.2317m7.8948-2.1054h3.6842v2.1054h-2.1053v5.7897a2.6316 2.6317 0 0 1-2.6316 2.6317 2.6316 2.6317 0 0 1-2.6316-2.6317 2.6316 2.6317 0 0 1 2.6316-2.6317c0.37895 0 0.72632 0.07367 1.0526 0.22107z" stroke-width="1.2228" fill="#000"/>
</svg>
