<?xml version="1.0" encoding="UTF-8"?>
<svg id="svg4" width="24" height="24" version="1.1" viewBox="0 0 24 24" xmlns="http://www.w3.org/2000/svg">
 <path id="path2" d="m10.421 14.105c1.0526 0 2.1579 0.16842 3.3684 0.46318-0.85263 0.91583-1.2632 1.9896-1.2632 3.2212 0 0.93689 0.26316 1.8212 0.82105 2.6317h-11.347v-2.1054c0-1.2527 0.95789-2.2633 2.8842-3.0317 1.9263-0.77898 3.7789-1.179 5.5368-1.179m0-2.1054c-1.1368 0-2.1053-0.41055-2.9685-1.2317-0.84211-0.8211-1.2421-1.8106-1.2421-2.9791 0-1.1369 0.4-2.1054 1.2421-2.9686 0.86316-0.84214 1.8316-1.2422 2.9685-1.2422 1.1684 0 2.1579 0.40002 2.979 1.2422 0.82106 0.8632 1.2316 1.8317 1.2316 2.9686 0 1.1685-0.41053 2.158-1.2316 2.9791-0.82105 0.82108-1.8105 1.2317-2.979 1.2317" fill="#000"/>
 <path id="path2-6" d="m18.514 14.21a3.776 3.7898 0 0 0-3.776 3.7898h-1.2587l1.6618 1.6967 1.6946-1.6967h-1.2587a2.9369 2.9477 0 0 1 2.9369-2.9477 2.9369 2.9477 0 0 1 2.9369 2.9477 2.9369 2.9477 0 0 1-2.9369 2.9477c-0.80974 0-1.5437-0.33289-2.0724-0.86768l-0.59574 0.59792c0.68388 0.69059 1.6192 1.1119 2.6681 1.1119a3.776 3.7898 0 0 0 3.776-3.7898 3.776 3.7898 0 0 0-3.776-3.7898zm-0.41956 2.1055v2.1055l1.7954 1.0692 0.37776-0.71224-1.4398-0.82327 0.0056-1.6276-0.1098-0.01151z" stroke="#000" stroke-width=".42032" fill="#000"/>
</svg>
