<?xml version="1.0" encoding="UTF-8"?>
<svg id="svg4" width="24" height="24" version="1.1" viewBox="0 0 24 24" xmlns="http://www.w3.org/2000/svg">
 <path id="path2" d="m10.421 12c-1.1368 0-2.1053-0.41055-2.9685-1.2317-0.84211-0.8211-1.2421-1.8106-1.2421-2.9791 0-1.1369 0.4-2.1054 1.2421-2.9686 0.86316-0.84214 1.8316-1.2422 2.9685-1.2422 1.1684 0 2.1579 0.40002 2.979 1.2422 0.82106 0.8632 1.2316 1.8317 1.2316 2.9686 0 1.1685-0.41053 2.158-1.2316 2.9791-0.82105 0.82108-1.8105 1.2317-2.979 1.2317"/>
 <path id="path1" d="m10.421 14.105c1.0526 0 2.1579 0.16842 3.3684 0.46318-0.85263 0.91583-1.2632 1.9896-1.2632 3.2212 0 0.93689 0.26316 1.8212 0.82105 2.6317h-11.347v-2.1054c0-1.2527 0.95789-2.2633 2.8842-3.0317 1.9263-0.77898 3.7789-1.179 5.5368-1.179"/>
 <path id="path2-5" d="m16.199 15c0.696 0 1.3648 0.35257 1.8008 0.90625 0.436-0.55368 1.1048-0.90625 1.8008-0.90625 1.232 0 2.1992 1.0513 2.1992 2.3984 0 1.6436-1.3599 2.9894-3.4199 5.0254l-0.58008 0.57617-0.58008-0.57617c-2.06-2.036-3.4199-3.3818-3.4199-5.0254 0-1.3471 0.96722-2.3984 2.1992-2.3984z"/>
</svg>
