<svg width="24" height="24" version="1.1" viewBox="0 0 24 24" xmlns="http://www.w3.org/2000/svg">
 <g id="g6881" transform="matrix(.26017 0 0 -.23645 10.519 15.146)">
  <path id="path6883" d="m0 0h14.723l-16.806 21.905c-2.415 3.15-2.967 5.978-3.002 7.808 0.211 5.826 4.057 10.981 9.578 12.831 1.445 0.484 2.944 0.73 4.456 0.73 6.056 0 11.416-3.853 13.339-9.589 0.7-2.083 0.886-4.265 0.577-6.414h12.385c2e-3 0.024 4e-3 0.041 4e-3 0.046 0.253 3.469-0.173 6.976-1.283 10.285-3.609 10.764-13.667 17.996-25.03 17.996-2.839 0-5.654-0.461-8.366-1.371-10.197-3.418-17.236-12.578-17.936-23.382-0.102-3.029 0.458-9.053 5.36-15.363zm31.069 11.131c4.903-6.31 5.463-12.333 5.361-15.363-0.7-10.803-7.739-19.963-17.937-23.382-2.711-0.911-5.527-1.371-8.366-1.371-11.362 0-21.421 7.232-25.029 17.996-1.11 3.309-1.537 6.816-1.284 10.286 0 0.014 0.018 0.184 0.043 0.422h12.41c-0.389-2.269-0.226-4.585 0.513-6.792 1.924-5.734 7.284-9.588 13.34-9.588 1.511 0 3.011 0.245 4.456 0.73 5.52 1.85 9.366 7.005 9.578 12.831-0.035 1.831-0.587 4.658-3.002 7.808l-17.096 22.283h14.72z" fill="#000"/>
 </g>
</svg>
