<svg height="682.66669" viewBox="0 0 682.66669 682.66669" width="682.66669" xmlns="http://www.w3.org/2000/svg" xmlns:xlink="http://www.w3.org/1999/xlink"><clipPath id="a"><path clip-rule="evenodd" d="m2560 0c1413.85 0 2560 1146.15 2560 2560s-1146.15 2560-2560 2560-2560-1146.15-2560-2560 1146.15-2560 2560-2560z"/></clipPath><clipPath id="b"><path d="m0 0h5120v5120h-5120z"/></clipPath><clipPath id="c"><path clip-rule="evenodd" d="m3057.78 1754.95h-1867.81l872.23 1610.1h1867.83z"/></clipPath><clipPath id="d"><path d="m0 0h5120v5120h-5120z"/></clipPath><g clip-path="url(#a)" transform="matrix(.13333333 0 0 -.13333333 0 682.66667)"><g clip-path="url(#b)"><path d="m-50-50h5220v5220h-5220z" fill="#fff"/></g></g><g clip-path="url(#c)" transform="matrix(.13333333 0 0 -.13333333 0 682.66667)"><g clip-path="url(#d)"><path d="m1139.97 1704.95h2840.06v1710.1h-2840.06z" fill="#61929c"/></g></g></svg>