<svg id="svg30" width="24" height="24" enable-background="new 0 0 192 235" version="1.1" viewBox="0 0 24 24" xml:space="preserve" xmlns="http://www.w3.org/2000/svg"><path id="path26" d="m19.521 7.8787-3.3927-0.00152-7.04e-4 -3.3932c1.875 0 3.3934 1.5191 3.3934 3.3947m-15.774 7.1945 9.393e-4 -6.1429c-1.0464 0.62362-1.7471 1.7643-1.7471 3.0703s0.69982 2.4478 1.7462 3.0726m11.827-7.1914c0-1.9746-1.5986-3.5752-3.5733-3.5752-1.9738 0-3.5739 1.6006-3.5739 3.5752h7.1472m0.5554 7.6914c1.9732 0 3.5732-1.5992 3.5732-3.5729 0-1.9731-1.6-3.5748-3.5732-3.5748v7.1476m-0.5554 0.55384c0 1.9737-1.5986 3.5734-3.5733 3.5734-1.9738 0-3.5739-1.5998-3.5739-3.5734h7.1472m-0.54718 4.1286-6.1426-0.0013c0.6242 1.046 1.7653 1.7464 3.0714 1.7464 1.3061 0 2.4476-0.70043 3.0712-1.7451m-6.0964-16.509 6.1426 0.00152c-0.62385-1.0462-1.7651-1.7484-3.0722-1.7484-1.3044 0-2.4477 0.70137-3.0704 1.7469m11.326 11.326-0.0015-6.1429c1.0455 0.62362 1.7463 1.7643 1.7463 3.0703s-0.69971 2.4478-1.7447 3.0726m-12.383 4.4436 5.871e-4 -3.3906-3.3957 0.0015c0 1.8751 1.52 3.3891 3.3951 3.3891m5.871e-4 -15.035v3.3955l-3.3963 8.196e-4c0-1.8757 1.5206-3.3963 3.3963-3.3963m8.2535 15.035 7.04e-4 -3.3906 3.392 0.0015c5.87e-4 1.8751-1.5179 3.3891-3.3927 3.3891m-8.2535-3.9436c-1.9738 0-3.5739-1.5992-3.5739-3.5729 0-1.9731 1.6001-3.5748 3.5739-3.5748v7.1476m4.126 0.0012c1.9747 0 3.574-1.5999 3.574-3.5736 0-1.9731-1.5993-3.5739-3.574-3.5739-1.9738 0-3.573 1.6009-3.573 3.5739 0 1.9737 1.5991 3.5736 3.573 3.5736" stroke-width=".11726" fill="#000"/></svg>
