<svg id="svg4" width="28" height="28" version="1.1" viewBox="0 0 28 28" xmlns="http://www.w3.org/2000/svg">
 <path id="path2" d="m16.5 12.37c1.04 0 1.88-0.84 1.88-1.87 0-1.04-0.84-1.87-1.88-1.87s-1.87 0.83-1.87 1.87a1.87 1.87 0 0 0 1.87 1.87m0-9.37a7.5 7.5 0 0 1 7.5 7.5c0 2.17-0.92 4.13-2.4 5.5h-10.2c-1.47-1.37-2.4-3.33-2.4-5.5 0-4.15 3.36-7.5 7.5-7.5m-8.5 20v1h-2v-1h-2v-6h20v6h-2v1h-2v-1h-12m-2-3v1h9v-1h-9m11-1v2h2v-2h-2m4 0a1 1 0 0 0-1 1 1 1 0 0 0 1 1 1 1 0 0 0 1-1 1 1 0 0 0-1-1z" fill="#000"/>
</svg>
