<?xml version="1.0" encoding="UTF-8"?>
<svg id="svg2994" width="24" height="24" version="1.1" viewBox="0 0 24 24" xmlns="http://www.w3.org/2000/svg">
 <path id="path2" d="m7.5961 10.182v-2.8636l1.8001-1.8082c0.65459-0.64636 0.77732-1.6773 0.31911-2.4791-0.36821-0.64636-1.0392-1.0309-1.751-1.0309-0.17183 0-0.36821 0.024546-0.52367 0.073636-0.8837 0.23727-1.481 1.0555-1.481 1.9718v2.6509l-2.5693 2.5936c-1.3583 1.3827-1.7674 3.4527-1.0228 5.2609 0.63004 1.5545 2.0047 2.6264 3.5921 2.9045v0.49909c0 0.21273-0.18819 0.40909-0.40912 0.40909h-1.2274v1.6364h1.2274c1.1046 0 2.0456-0.90818 2.0456-2.0455v-0.40909c1.661 0 3.4039-1.5709 3.4039-3.8864 0-1.8818-1.571-3.4773-3.4039-3.4773m0-6.1364c0-0.18818 0.090006-0.33545 0.26184-0.38455 0.18001-0.049091 0.36821 0.024545 0.45821 0.18818 0.098188 0.16364 0.065459 0.36818-0.065459 0.49909l-0.65459 0.70364v-1.0064m-1.6365 6.5455c-0.79369 0.52364-1.391 1.4236-1.6037 2.2582l1.6037 0.42545v2.4955c-0.92461-0.24546-1.7183-0.91636-2.1029-1.8491-0.48276-1.1945-0.22092-2.5527 0.67914-3.4691l1.4237-1.4973v1.6364m1.6365 5.3182v-4.14c0.95734 0 1.7838 0.9 1.7838 1.89 0 1.4318-1.0392 2.25-1.7838 2.25zm13.404-2.29a1 1.0476 0 0 1 1 1.0476v6.2857a1 1.0476 0 0 1-1 1.0476h-8a1 1.0476 0 0 1-1-1.0476v-6.2857c0-0.44524 0.265-0.82762 0.64-0.97952l6.215-2.6871 0.38 0.95857-3.82 1.6605h5.585m0 1.0476h-8v2.0952h6v-1.0476h1v1.0476h1v-2.0952m-6.5 3.1429a1.5 1.5714 0 0 0-1.5 1.5714 1.5 1.5714 0 0 0 1.5 1.5714 1.5 1.5714 0 0 0 1.5-1.5714 1.5 1.5714 0 0 0-1.5-1.5714z" fill="#000"/>
</svg>
