<svg id="svg52" width="24" height="24" version="1.1" viewBox="0 0 24 24" xmlns="http://www.w3.org/2000/svg">
 <path id="path2" d="m15 3c4.977 0 9 4.023 9 9s-4.023 9-9 9-9-4.023-9-9 4.023-9 9-9m3.231 4.5-3.231 3.231-3.231-3.231-1.269 1.269 3.231 3.231-3.231 3.231 1.269 1.269 3.231-3.231 3.231 3.231 1.269-1.269-3.231-3.231 3.231-3.231zm-16.231 4.5c0-2.79 1.64-5.2 4-6.32v-2.18c-3.5 1.26-6 4.59-6 8.5s2.5 7.24 6 8.5v-2.18c-2.36-1.12-4-3.53-4-6.32" stroke-width=".9" fill="#000" stroke="#000"/>
</svg>
