<?xml version="1.0" encoding="UTF-8"?>
<svg id="svg308" version="1.1" viewBox="0 0 24 24" xmlns="http://www.w3.org/2000/svg">
 <path id="path306" d="m21.384 13.421-1.0528 1.0527-2.1582-2.1581 1.0528-1.0527c0.22108-0.22108 0.58956-0.22108 0.81064 0l1.3476 1.3475c0.22108 0.22108 0.22108 0.58954 0 0.81062m-10.212 5.8849 6.3798-6.3797 2.1582 2.1581-6.3693 6.3902h-2.1687v-2.1687m0-5.2006c-4.6533 0-8.4222 1.8844-8.4222 4.211v2.1055h6.3167v-1.9897l4.2111-4.211c-0.69483-0.08422-1.4002-0.1158-2.1056-0.1158m0-10.527a4.2111 4.211 0 0 0-4.2111 4.211 4.2111 4.211 0 0 0 4.2111 4.211 4.2111 4.211 0 0 0 4.2111-4.211 4.2111 4.211 0 0 0-4.2111-4.211z" stroke-width="1.0528" fill="#000"/>
</svg>
