<svg id="svg3717" width="24" height="24" version="1.1" viewBox="0 0 24 24" xmlns="http://www.w3.org/2000/svg">
 <g id="g3970" transform="matrix(.79134 0 0 .79134 2.5986 1.7011)">
  <path id="path3715" d="m14.37 7.29 2.34 2.34c0.39 0.37 0.39 1.02 0 1.41l-11.67 11.67c-0.39 0.39-1.04 0.39-1.41 0l-2.34-2.34c-0.39-0.37-0.39-1.02 0-1.41l11.67-11.67c0.39-0.39 1.04-0.39 1.41 0z" fill="#272727"/>
  <path id="path3875" d="M 7.5,5.6 5,7 6.4,4.5 5,2 7.5,3.4 10,2 8.6,4.5 10,7 7.5,5.6" fill="#272727"/>
  <path id="path3873" d="m19.5 15.4 2.5-1.4-1.4 2.5 1.4 2.5-2.5-1.4-2.5 1.4 1.4-2.5-1.4-2.5 2.5 1.4" fill="#272727"/>
  <path id="path3871" d="M 22,2 20.6,4.5 22,7 19.5,5.6 17,7 18.4,4.5 17,2 19.5,3.4 22,2" fill="#272727"/>
 </g>
</svg>
