<svg xmlns="http://www.w3.org/2000/svg" version="1" viewBox="0 0 24 24">
 <path d="M 16.90625 1.71875 L 16.09375 2.28125 L 18.53125 5.96875 L 17.3125 7.59375 C 17.0125 7.99375 16.4 8.1125 16 7.8125 C 15.654359 7.5532692 15.268053 7.1687585 14.40625 7.0625 C 14.284375 7.015625 14.15 7 14 7 L 13 7 L 12 14 L 11 7 L 10 7 C 9.85 7 9.715625 7.015625 9.59375 7.0625 C 8.7319472 7.1687585 8.345641 7.5532692 8 7.8125 C 7.6 8.1125 6.9875 7.99375 6.6875 7.59375 L 4.8125 5.09375 L 3.1875 6.3125 L 5.09375 8.8125 C 5.69375 9.6125 6.6 10 7.5 10 C 7.9267241 10 8.427264 9.8541866 8.9375 9.625 L 8 17 L 9.5 17 L 10 15 L 10 22 L 14 22 L 14 15 L 14.5 17 L 16 17 L 15.0625 9.625 C 15.572736 9.8541866 16.073276 10 16.5 10 C 17.4 10 18.30625 9.6125 18.90625 8.8125 L 20.8125 6.3125 L 19.1875 5.09375 L 19.15625 5.125 L 16.90625 1.71875 z M 12 2 C 10.895431 2 10 2.8954305 10 4 C 10 5.1045695 10.895431 6 12 6 C 13.104569 6 14 5.1045695 14 4 C 14 2.8954305 13.104569 2 12 2 z" fill="#000"/>
</svg>
