<svg id="svg6" width="24" height="24" version="1.1" viewBox="0 0 24 24" xmlns="http://www.w3.org/2000/svg">
 <path id="path4" d="m15.333 2.75c-1.5533 0-2.8592 1.0718-3.2292 2.5227h-10.104v1.6818h10.104c0.36994 1.4509 1.6759 2.5227 3.2292 2.5227 1.5533 0 2.8592-1.0718 3.2292-2.5227h3.4375v-1.6818h-3.4375c-0.36994-1.4509-1.6759-2.5227-3.2292-2.5227zm-8.3333 11.773c-1.5533 0-2.8592 1.0718-3.2292 2.5227h-1.7708v1.6818h1.7708c0.36994 1.4509 1.6759 2.5227 3.2292 2.5227s2.8592-1.0718 3.2292-2.5227h11.771v-1.6818h-11.771c-0.36994-1.4509-1.6759-2.5227-3.2292-2.5227zm0 1.6818c0.92047 0 1.6667 0.75298 1.6667 1.6818 0 0.92883-0.7462 1.6818-1.6667 1.6818s-1.6667-0.75298-1.6667-1.6818c0-0.92884 0.7462-1.6818 1.6667-1.6818z" fill="#000"/>
</svg>
