<svg id="svg4" width="24" height="24" version="1.1" viewBox="0 0 24 24" xmlns="http://www.w3.org/2000/svg">
 <path id="path819" d="m14.5 10.714h2.5v-2.5714h2.5v2.5714h2.5v2.5714h-2.5v2.5714h-2.5v-2.5714h-2.5v-2.5714m-0.625 6.39 0.5125 3.1371c-0.325 0.18-0.85 0.34715-1.55 0.50143-0.7125 0.16714-1.55 0.25714-2.5125 0.25714-2.7625-0.051427-4.8375-0.9-6.225-2.52-1.4-1.6329-2.1-3.7029-2.1-6.21 0.0625-2.97 0.9-5.2457 2.5-6.84 1.65-1.6071 3.7-2.43 6.175-2.43 0.9375 0 1.75 0.09 2.425 0.24429 0.675 0.15429 1.175 0.32143 1.5 0.51429l-0.725 3.2014-1.325-0.43714c-0.5-0.12857-1.075-0.19286-1.7375-0.19286-1.45-0.012857-2.65 0.46286-3.5875 1.4143-0.95 0.93857-1.4375 2.3786-1.475 4.2943 0 1.7486 0.4625 3.1114 1.35 4.1143 0.8875 0.99 2.1375 1.5043 3.7375 1.5171l1.6625-0.15429c0.5375-0.10287 0.9875-0.24429 1.375-0.41143" stroke-width="1.2677" fill="#000"/>
</svg>
