<svg id="svg4" width="24" height="24" version="1.1" viewBox="0 0 24 24" xmlns="http://www.w3.org/2000/svg">
 <path id="path819" d="m14 11h2v-2h2v2h2v2h-2v2h-2v-2h-2v-2m-0.5 4.97 0.41 2.44c-0.26 0.14-0.68 0.27-1.24 0.39-0.57 0.13-1.24 0.2-2.01 0.2-2.21-0.04-3.87-0.7-4.98-1.96-1.12-1.27-1.68-2.88-1.68-4.83 0.05-2.31 0.72-4.08 2-5.32 1.32-1.25 2.96-1.89 4.94-1.89 0.75 0 1.4 0.07 1.94 0.19s0.94 0.25 1.2 0.4l-0.58 2.49-1.06-0.34c-0.4-0.1-0.86-0.15-1.39-0.15-1.16-0.01-2.12 0.36-2.87 1.1-0.76 0.73-1.15 1.85-1.18 3.34 0 1.36 0.37 2.42 1.08 3.2 0.71 0.77 1.71 1.17 2.99 1.18l1.33-0.12c0.43-0.08 0.79-0.19 1.1-0.32" fill="#000"/>
</svg>
