<?xml version="1.0" encoding="UTF-8"?>
<!DOCTYPE svg  PUBLIC '-//W3C//DTD SVG 1.1//EN'  'http://www.w3.org/Graphics/SVG/1.1/DTD/svg11.dtd'>
<svg width="24" height="24" version="1.1" viewBox="0 0 24 24" xmlns="http://www.w3.org/2000/svg">
 <path d="m18.68 12.32c-1.76-1.76-4.61-1.75-6.36 0.01-1.76 1.76-1.76 4.61 0 6.36 1.49 1.48 3.79 1.74 5.57 0.63l3.11 3.07 1.39-1.39-3.09-3.11c1.13-1.77 0.87-4.09-0.62-5.57m-1.41 4.95c-0.98 0.98-2.56 0.97-3.54 0-0.97-0.98-0.97-2.56 0.01-3.54 0.97-0.97 2.55-0.97 3.53 0 0.97 0.98 0.97 2.56 0 3.54m-6.37 2.83c-0.65-0.66-1.16-1.45-1.48-2.32-3.15-0.53-5.42-2.02-5.42-3.78v3c0 2.21 3.58 4 8 4-0.4-0.26-0.77-0.56-1.1-0.9m-6.9-11.1v3c0 1.68 2.07 3.12 5 3.7v-0.2c0-0.93 0.2-1.85 0.58-2.69-3.24-0.51-5.58-2.02-5.58-3.81m8-6c-4.42 0-8 1.79-8 4 0 2 3 3.68 6.85 4h0.05c1.2-1.26 2.86-2 4.6-2 0.91 0 1.81 0.19 2.64 0.56 1.03-0.47 1.73-1.44 1.86-2.56 0-2.21-3.58-4-8-4z" fill="#000"/>
</svg>
