<?xml version="1.0" encoding="UTF-8"?>
<svg id="svg5" width="24" height="24" version="1.1" viewBox="0 0 6.35 6.35" xml:space="preserve" xmlns="http://www.w3.org/2000/svg"><path id="path372" d="m3.1189 5.8124c-0.24661-0.16618-0.29169-0.4958-0.36186-0.76458-0.038391-0.12638-0.049334-0.4116-0.085631-0.43828-0.025864 0.16421-0.15283 0.70802-0.3655 0.42188-0.17734-0.3803-0.1917-0.8103-0.24113-1.2206-0.071021 0.2192-0.082455 0.528-0.31643 0.63771-0.27069-0.088346-0.27951-0.46076-0.34846-0.6969-0.039662-0.11478-0.030014-0.52417-0.11594-0.20346-0.11479 0.23604-0.27822-0.091772-0.27921-0.23644-0.129-0.6836-0.12618-1.3935-0.0069682-2.0784-0.017058-0.19461 0.22138-0.52949 0.31081-0.2096 0.04838 0.10687 0.07255 0.39893 0.10476 0.13043 0.063134-0.21801 0.083912-0.53663 0.32465-0.62504 0.22142 0.078351 0.25146 0.36417 0.30891 0.56491 0.042191 0.12479 0.057617 0.44161 0.090422 0.45728 0.052543-0.22909 0.065207-0.49438 0.22789-0.67684 0.2717-0.030631 0.26275 0.41755 0.32815 0.61138 0.045031 0.24729 0.065818 0.49807 0.087399 0.74816 0.088537-0.22538 0.12728-0.62504 0.4282-0.64431 0.23755 0.11506 0.28084 0.41991 0.35622 0.64845 0.051247-0.44395 0.05643-0.91641 0.26533-1.3214 0.21278-0.20103 0.29547 0.24041 0.33235 0.39121 0.025177 0.1115 0.06117 0.39563 0.075772 0.12795 0.050961-0.29479 0.090294-0.61197 0.26839-0.86145 0.20358-0.15669 0.32687 0.18417 0.36828 0.34079 0.053994 0.10439 0.077721 0.58218 0.1236 0.23993-0.015042-0.25712 0.27087-0.38444 0.30807-0.082272 0.16465 0.64834 0.15386 1.3311 0.078887 1.9919-0.040738 0.16199-0.059723 0.68354-0.30466 0.51843-0.060968-0.12483-0.09006-0.26094-0.10056-0.02827-0.05957 0.29568-0.081666 0.63684-0.29605 0.86738-0.24614 0.095767-0.30969-0.29502-0.36456-0.45729-0.060794-0.35477-0.05259 0.16912-0.086947 0.29642-0.048514 0.28428-0.066557 0.59746-0.24204 0.83689-0.25392 0.082125-0.26268-0.37988-0.32727-0.51677-0.062408 0.40071-0.098931 0.84255-0.35541 1.1737-0.046189 0.053932-0.12089 0.08129-0.18947 0.057049zm-1.8868-2.183c0.011761-0.016993 0.00576 0.01744 0 0zm-0.57032-0.89172c-0.14019-0.15671-0.11963-0.39994-0.13261-0.59941 0.007123-0.2098-0.006032-0.46588 0.12952-0.63174 0.20351 0.079819 0.16183 0.40987 0.17759 0.60733-0.021704 0.19333 0.03312 0.54693-0.1745 0.62383zm4.9712-0.00642c-0.15115-0.21401-0.11777-0.51667-0.11945-0.76975 0.0038571-0.1318 0.05045-0.60458 0.2264-0.38558 0.11216 0.34071 0.10432 0.72103 0.011492 1.0655-0.020871 0.041649-0.055746 0.12845-0.11845 0.0898zm-2.3416-1.1126c0.013745-0.00911 0.011122 0.016409 0 0zm0.55839-0.77812c0.012186-0.017146 0.012186 0.017146 0 0z" fill="#000"/></svg>
