<svg id="svg4" width="24" height="24" version="1.1" viewBox="0 0 24 24" xmlns="http://www.w3.org/2000/svg">
 <path id="path2-3" d="m15.521 7.8105a0.54313 0.54313 0 0 0-0.54313 0.54313 0.54313 0.54313 0 0 0 0.54313 0.54313 0.54313 0.54313 0 0 0 0.54313-0.54313 0.54313 0.54313 0 0 0-0.54313-0.54313m0 2.9872c-1.3578 0-2.4441-1.0863-2.4441-2.4441 0-1.3578 1.0863-2.4441 2.4441-2.4441s2.4441 1.0863 2.4441 2.4441c0 1.3578-1.0863 2.4441-2.4441 2.4441m0-7.8753a5.4313 5.4313 0 0 0-5.4313 5.4313 5.4313 5.4313 0 0 0 5.4313 5.4313 5.4313 5.4313 0 0 0 5.4313-5.4313 5.4313 5.4313 0 0 0-5.4313-5.4313z" stroke-width=".54313" fill="#272727"/>
 <path id="path2" d="m11.55 17.33c-0.67 0-1.22 0.55-1.22 1.22s0.55 1.22 1.22 1.22a1.22 1.22 0 0 0 1.22-1.22c0-0.67-0.54-1.21-1.21-1.22zm-6.11-6.11c-0.67 0-1.22 0.55-1.22 1.22a1.22 1.22 0 0 0 1.22 1.22c0.67 0 1.22-0.55 1.22-1.22s-0.55-1.22-1.22-1.22m3.06 3.06c-0.67 0-1.22 0.55-1.22 1.22s0.55 1.22 1.22 1.22 1.22-0.55 1.22-1.22a1.22 1.22 0 0 0-1.22-1.22m-4.28-4.28h8.56a1.22 1.22 0 0 1 1.22 1.22v8.56c0 0.67-0.55 1.22-1.22 1.22h-8.56c-0.67 0-1.22-0.55-1.22-1.22v-8.56c0-0.67 0.55-1.22 1.22-1.22" fill="#272727"/>
</svg>
