<?xml version="1.0" encoding="UTF-8"?>
<svg id="svg4" width="24" height="24" version="1.1" viewBox="0 0 24 24" xmlns="http://www.w3.org/2000/svg">
 <path id="path2-3" d="m16 2a6 6 0 0 0-6 6 6 6 0 0 0 0.29492 1.8301h-6.9355c-0.74647 0-1.3594 0.60836-1.3594 1.3496v9.4707c0 0.74121 0.61296 1.3496 1.3594 1.3496h9.5352c0.74647 0 1.3594-0.60836 1.3594-1.3496v-6.9141a6 6 0 0 0 1.7461 0.26367 6 6 0 0 0 6-6 6 6 0 0 0-6-6zm0 3.3008c1.5 0 2.6992 1.1992 2.6992 2.6992 0 1.5-1.1992 2.6992-2.6992 2.6992s-2.6992-1.1992-2.6992-2.6992c0-1.5 1.1992-2.6992 2.6992-2.6992zm0 2.0996a0.6 0.6 0 0 0-0.59961 0.59961 0.6 0.6 0 0 0 0.59961 0.59961 0.6 0.6 0 0 0 0.59961-0.59961 0.6 0.6 0 0 0-0.59961-0.59961zm-11.281 3.7793c0.74647 0 1.3594 0.6084 1.3594 1.3496s-0.61296 1.3496-1.3594 1.3496a1.3592 1.3497 0 0 1-1.3594-1.3496c0-0.74121 0.61296-1.3496 1.3594-1.3496zm3.4082 3.3867a1.3592 1.3497 0 0 1 1.3594 1.3496c0 0.74121-0.61291 1.3496-1.3594 1.3496-0.74647 0-1.3594-0.6084-1.3594-1.3496 0-0.74121 0.61296-1.3496 1.3594-1.3496zm3.3984 3.373h0.011718c0.74641 0.011 1.3477 0.60836 1.3477 1.3496a1.3592 1.3497 0 0 1-1.3594 1.3496c-0.74646 0-1.3594-0.60836-1.3594-1.3496 0-0.74121 0.61296-1.3496 1.3594-1.3496z" fill="#000"/>
</svg>
