<svg id="svg4" width="24" height="24" version="1.1" viewBox="0 0 24 24" xmlns="http://www.w3.org/2000/svg">
 <path id="path2-3" d="m15.949 7.4079a0.60508 0.60089 0 0 0-0.60508 0.60089 0.60508 0.60089 0 0 0 0.60508 0.60089 0.60508 0.60089 0 0 0 0.60508-0.60089 0.60508 0.60089 0 0 0-0.60508-0.60089m0 3.3049c-1.5127 0-2.7229-1.2018-2.7229-2.704 0-1.5022 1.2102-2.704 2.7229-2.704s2.7229 1.2018 2.7229 2.704c0 1.5022-1.2102 2.704-2.7229 2.704m0-8.7128a6.0508 6.0089 0 0 0-6.0508 6.0089 6.0508 6.0089 0 0 0 6.0508 6.0089 6.0508 6.0089 0 0 0 6.0508-6.0089 6.0508 6.0089 0 0 0-6.0508-6.0089z" stroke-width=".60298" fill="#000"/>
 <path id="path2" d="m11.525 17.94c-0.74642 0-1.3592 0.60849-1.3592 1.3497 0 0.74125 0.61274 1.3497 1.3592 1.3497a1.3592 1.3497 0 0 0 1.3592-1.3497c0-0.74125-0.60159-1.3387-1.348-1.3497zm-6.8069-6.7597c-0.74642 0-1.3592 0.60849-1.3592 1.3497a1.3592 1.3497 0 0 0 1.3592 1.3497c0.74642 0 1.3592-0.60849 1.3592-1.3497s-0.61273-1.3497-1.3592-1.3497m3.409 3.3854c-0.74642 0-1.3592 0.60849-1.3592 1.3497s0.61273 1.3497 1.3592 1.3497 1.3592-0.60849 1.3592-1.3497a1.3592 1.3497 0 0 0-1.3592-1.3497m-4.7682-4.7351h9.5364a1.3592 1.3497 0 0 1 1.3592 1.3497v9.4703c0 0.74125-0.61273 1.3497-1.3592 1.3497h-9.5364c-0.74642 0-1.3592-0.60849-1.3592-1.3497v-9.4703c0-0.74125 0.61273-1.3497 1.3592-1.3497" stroke-width="1.1102" fill="#000"/>
</svg>
