<svg width="24" height="24" version="1.1" viewBox="0 0 24 24" xmlns="http://www.w3.org/2000/svg">
 <path d="m19.78 3h-8.56c-0.67 0-1.22 0.55-1.22 1.22v3.78h6v6h3.78c0.67 0 1.22-0.55 1.22-1.22v-8.56c0-0.67-0.55-1.22-1.22-1.22m-7.34 3.67c-0.68 0-1.23-0.55-1.23-1.23s0.55-1.23 1.23-1.23a1.23 1.23 0 0 1 1.23 1.23c0 0.68-0.55 1.23-1.23 1.23m6.12 6.11c-0.68 0.01-1.23-0.54-1.24-1.22s0.54-1.23 1.22-1.24 1.23 0.54 1.24 1.24c-0.01 0.67-0.55 1.21-1.22 1.22m0-6.11c-0.68 0.01-1.23-0.54-1.24-1.22s0.54-1.23 1.22-1.24 1.23 0.54 1.24 1.23c0 0.68-0.54 1.22-1.22 1.23m-14.34 3.33h8.56a1.22 1.22 0 0 1 1.22 1.22v8.56c0 0.67-0.55 1.22-1.22 1.22h-8.56c-0.67 0-1.22-0.55-1.22-1.22v-8.56c0-0.67 0.55-1.22 1.22-1.22m4.28 4.28c-0.67 0-1.22 0.55-1.22 1.22s0.55 1.22 1.22 1.22 1.22-0.55 1.22-1.22a1.22 1.22 0 0 0-1.22-1.22m-3.06-3.06c-0.67 0-1.22 0.55-1.22 1.22a1.22 1.22 0 0 0 1.22 1.22c0.67 0 1.22-0.55 1.22-1.22s-0.55-1.22-1.22-1.22m6.11 6.11c-0.67 0-1.22 0.55-1.22 1.22s0.55 1.22 1.22 1.22a1.22 1.22 0 0 0 1.22-1.22c0-0.67-0.54-1.21-1.21-1.22h-0.01z" fill="#444"/>
</svg>
