<svg id="svg4" width="24" height="24" version="1.1" viewBox="0 0 24 24" xmlns="http://www.w3.org/2000/svg">
 <path id="path2" d="m11.525 17.261c-0.67 0-1.22 0.55-1.22 1.22s0.55 1.22 1.22 1.22a1.22 1.22 0 0 0 1.22-1.22c0-0.67-0.54-1.21-1.21-1.22zm-6.11-6.11c-0.67 0-1.22 0.55-1.22 1.22a1.22 1.22 0 0 0 1.22 1.22c0.67 0 1.22-0.55 1.22-1.22s-0.55-1.22-1.22-1.22m3.06 3.06c-0.67 0-1.22 0.55-1.22 1.22s0.55 1.22 1.22 1.22c0.67 0 1.22-0.55 1.22-1.22a1.22 1.22 0 0 0-1.22-1.22m-4.28-4.28h8.56a1.22 1.22 0 0 1 1.22 1.22v8.56c0 0.67-0.55 1.22-1.22 1.22h-8.56c-0.67 0-1.22-0.55-1.22-1.22v-8.56c0-0.67 0.55-1.22 1.22-1.22m11.519 9.0687v-2h5.2858v2h-5.2858m-11.714-14.5a1.5 1.5 0 0 1 1.5 1.5 1.5 1.5 0 0 1-1.5 1.5 1.5 1.5 0 0 1-1.5-1.5 1.5 1.5 0 0 1 1.5-1.5m11.746 8.5v-2h5.2542v2h-5.2542m-8.7458-8h14v2h-14v-2" fill="#444"/>
</svg>
