<svg id="svg4" width="24" height="24" version="1.1" viewBox="0 0 24 24" xmlns="http://www.w3.org/2000/svg">
 <path id="path2" d="m11.757 16.924c-0.72432 0-1.3189 0.59581-1.3189 1.3216 0 0.72581 0.59459 1.3216 1.3189 1.3216a1.3189 1.3216 0 0 0 1.3189-1.3216c0-0.72581-0.58378-1.3108-1.3081-1.3216zm-6.6053-6.619c-0.72432 0-1.3189 0.59581-1.3189 1.3216a1.3189 1.3216 0 0 0 1.3189 1.3216c0.72432 0 1.3189-0.59581 1.3189-1.3216s-0.59459-1.3216-1.3189-1.3216m3.3081 3.3149c-0.72432 0-1.3189 0.59582-1.3189 1.3216 0 0.72581 0.59459 1.3216 1.3189 1.3216 0.72432 0 1.3189-0.59581 1.3189-1.3216a1.3189 1.3216 0 0 0-1.3189-1.3216m-4.627-4.6365h9.254a1.3189 1.3216 0 0 1 1.3189 1.3216v9.273c0 0.72581-0.59459 1.3216-1.3189 1.3216h-9.254c-0.72432 0-1.3189-0.59581-1.3189-1.3216v-9.273c0-0.72581 0.59459-1.3216 1.3189-1.3216m12.453 9.8241v-2.1666h5.7143v2.1666h-5.7143m-12.664-15.708a1.6216 1.6249 0 0 1 1.6216 1.6249 1.6216 1.6249 0 0 1-1.6216 1.6249 1.6216 1.6249 0 0 1-1.6216-1.6249 1.6216 1.6249 0 0 1 1.6216-1.6249m12.698 9.208v-2.1666h5.6802v2.1666h-5.6802m-9.4548-8.6664h15.135v2.1666h-15.135v-2.1666" stroke-width="1.0822" fill="#000"/>
</svg>
