<?xml version="1.0" encoding="UTF-8"?>
<svg id="svg4" width="24" height="24" version="1.1" viewBox="0 0 24 24" xmlns="http://www.w3.org/2000/svg">
 <path id="path140" d="m16 14a6 6 0 0 1-6-6 6 6 0 0 1 6-6 6 6 0 0 1 6 6 6 6 0 0 1-6 6zm-0.0012-1.2012v-0.7746c-2.1346 0-3.8731-1.7384-3.8731-3.8731h-0.7746c0 2.563 2.0846 4.6477 4.6477 4.6477zm0.0012-2.0988c1.5 0 2.7-1.2 2.7-2.7s-1.2-2.7-2.7-2.7-2.7 1.2-2.7 2.7 1.2 2.7 2.7 2.7zm0-2.1a0.6 0.6 0 0 1-0.6-0.6 0.6 0.6 0 0 1 0.6-0.6 0.6 0.6 0 0 1 0.6 0.6 0.6 0.6 0 0 1-0.6 0.6zm3.934-0.69138h0.7746c0-2.563-2.0846-4.6477-4.6477-4.6477v0.7746c2.1346 0 3.8731 1.7384 3.8731 3.8731zm-8.409 10.031c-0.74642 0-1.3592 0.60849-1.3592 1.3497 0 0.74125 0.61274 1.3497 1.3592 1.3497 0.75066 0 1.3592-0.60428 1.3592-1.3497 0-0.74125-0.60159-1.3387-1.348-1.3497zm-6.8069-6.7597c-0.74642 0-1.3592 0.60849-1.3592 1.3497 0 0.74542 0.60853 1.3497 1.3592 1.3497 0.74642 0 1.3592-0.60849 1.3592-1.3497s-0.61273-1.3497-1.3592-1.3497m3.409 3.3854c-0.74642 0-1.3592 0.60849-1.3592 1.3497s0.61273 1.3497 1.3592 1.3497 1.3592-0.60849 1.3592-1.3497c0-0.74542-0.60853-1.3497-1.3592-1.3497m-4.7682-4.7351 6.9793-0.012091c0.98363-0.0017 3.9166 3.058 3.9165 3.8239l-2.14e-4 7.0082c-2.3e-5 0.74125-0.61273 1.3497-1.3592 1.3497h-9.5364c-0.74642 0-1.3592-0.60849-1.3592-1.3497v-9.4703c0-0.74125 0.61273-1.3497 1.3592-1.3497" fill="#000"/>
</svg>
