<svg width="24" height="24" version="1.1" viewBox="0 0 24 24" xmlns="http://www.w3.org/2000/svg">
 <path d="m21.38 12.56h-8.53c-0.88 0-1.75 0.4-2.24 1.05v-0.01c-0.49 0.68-1.29 1.12-2.2 1.12-1.49 0-2.7-1.22-2.7-2.72s1.21-2.69 2.7-2.69c0.91 0 1.71 0.44 2.2 1.12v-0.01c0.49 0.65 1.36 1.08 2.24 1.08h8.44c0.16 0 0.71-0.1 0.71-0.83-0.74-4.24-4.9-7.49-9.94-7.49-3.1 0-5.87 1.23-7.72 3.17-0.29 0.44 0.01 0.57 0.29 0.61h5.51c0.86 0 1.75-0.42 2.24-1.07v0.02c0.5-0.68 1.29-1.13 2.2-1.13 1.49 0 2.7 1.22 2.7 2.72s-1.21 2.7-2.7 2.7c-0.91 0-1.7-0.45-2.2-1.13v0.01c-0.49-0.64-1.38-1.05-2.24-1.05h-6.01 0.02s-0.89-0.03-1.43 0.72c-0.42 0.67-0.72 2.1-0.72 3.25 0 1.16 0.17 2.21 0.72 3.27 0.47 0.76 1.43 0.73 1.43 0.73h-0.04 6.03c0.86 0 1.75-0.42 2.24-1.07v0.01c0.5-0.68 1.29-1.13 2.2-1.13 1.49 0 2.7 1.22 2.7 2.69 0 1.5-1.21 2.73-2.7 2.73-0.91 0-1.7-0.45-2.2-1.13v0.02c-0.49-0.65-1.38-1.07-2.24-1.07h-5.5c-0.28 0.04-0.58 0.17-0.32 0.59 1.85 1.94 4.63 3.18 7.74 3.18 5.05 0 9.22-3.25 9.94-7.51 0-0.59-0.41-0.73-0.62-0.75" fill="#000"/>
</svg>
