<?xml version="1.0" encoding="UTF-8"?>
<svg id="svg8" width="24" height="24" version="1.1" xmlns="http://www.w3.org/2000/svg">
  <path id="svg_2" d="m22.937 10.936h-9.1606c0.57079-1.6195 2.1054-2.7776 3.9113-2.7776 1.2164 0 2.3206 0.53669 3.0879 1.3841h1.5907c-0.94507-1.6006-2.6855-2.674-4.6786-2.674-3.0036 0-5.4272 2.448-5.4272 5.461h9.5911c0 2.3068-1.8527 4.1805-4.1452 4.1805-1.8059 0-3.3311-1.1581-3.9113-2.7776h-1.3568c0.60821 2.3445 2.7323 4.0675 5.2587 4.0675 3.0036 0 5.4272-2.448 5.4272-5.461 0-0.4802-0.0655-0.95097-0.17779-1.3935m-16.945 4.7335c-1.755 0-3.1736-1.4642-3.1736-3.2548s1.4277-3.2548 3.1736-3.2548c1.0548 0 2.0005 0.53159 2.5734 1.3616h-2.5734v1.9025h5.2742c0-2.9937-2.3643-5.4092-5.2742-5.4092s-5.2742 2.3968-5.2742 5.3905 2.3734 5.4092 5.2742 5.4092c2.2642 0 4.192-1.4642 4.9468-3.516h-2.3643c-0.57288 0.8207-1.5186 1.3616-2.5734 1.3616" fill="#000"/>
</svg>
