<?xml version="1.0" encoding="UTF-8"?>
<svg id="svg553" width="24" height="24" version="1.1" viewBox="0 0 24 24" xmlns="http://www.w3.org/2000/svg">
 <path id="path678" d="m12 2a10 10 0 0 0-10 10 10 10 0 0 0 10 10 10 10 0 0 0 10-10 10 10 0 0 0-10-10zm0 2c4.41 0 8 3.59 8 8 0 4.41-3.59 8-8 8-4.41 0-8-3.59-8-8 0-4.41 3.59-8 8-8zm-0.007812 2.5v2h1.5938l-2.0859 2.0859 1.4141 1.4141 2.0781-2.0781v1.5781h2v-5h-5zm-1.4141 5-2.0781 2.0781v-1.5781h-2v3 2h5v-2h-1.5938l2.0859-2.0859-1.4141-1.4141z" fill="#000"/>
</svg>
