<svg id="svg2" width="24" height="24" version="1.1" viewBox="0 0 24 24" xmlns="http://www.w3.org/2000/svg">
 <g id="g837" transform="matrix(.015309 0 0 .015309 1.9985 1.9975)" stroke-width="1.3333">
  <path id="path839" d="m130.67 1305.2c-48.438-5.671-92.466-36.754-114.07-80.536-8.8307-17.892-13.374-33.428-15.307-52.339-1.0307-10.084-1.315-95.098-0.95972-286.99 0.45535-245.93 0.72794-274.69 2.7802-293.26 9.9316-89.887 31.137-162.19 69.429-236.74 87.869-171.06 246.01-294.53 432.82-337.93 94.723-22.007 194.35-22.446 290.97-1.2822 86.918 19.038 175.72 59.999 248.34 114.55 120.46 90.486 206.16 219.58 242.05 364.64 26.004 105.09 26.004 210.96 0 316.05-62.56 252.83-272 445.32-529.38 486.54-51.615 8.2655-37.111 7.9153-340 8.2107-152.36 0.1486-281.16-0.2562-286.67-0.901zm288.78-71.211c122.87-17.91 221.79-106.2 253.93-226.62 9.2027-34.483 9.6354-40.593 10.274-145.04l0.57676-94.333 66.886-0.0232c75-0.026 78.201-0.32741 94.562-8.9039 23.701-12.424 38.368-36.728 38.304-63.472-0.0725-30.443-18.911-56.643-48.511-67.469l-9.4694-3.4633-64.238-0.66775c-62.555-0.65024-64.337-0.74081-68-3.457-2.069-1.5341-5.1117-4.7728-6.7617-7.1972l-3-4.4079v-81.628c0-89.592 0.29524-93.86 8.1075-117.18 16.099-48.054 53.413-85.358 101.44-101.41 26.028-8.7004 49.28-10.52 84.179-6.5875 32.865 3.7032 52.168 0.71732 69.428-10.739 9.859-6.544 16.145-13.915 21.658-25.395 13.822-28.782 7.7321-58.485-16.596-80.943-14.698-13.568-28.035-19.499-58.385-25.966-15.904-3.3887-19.461-3.6591-48.496-3.6872-35.233-0.0341-48.214 1.5162-78.457 9.3707-72.414 18.807-135.53 64.178-178.25 128.13-16.598 24.848-33.215 62.185-40.772 91.607-8.4313 32.826-8.2459 29.897-8.8088 139.16l-0.51688 100.33h-69.404c-76.519 0-77.962 0.12946-93.789 8.41-10.285 5.3811-24.224 19.341-29.669 29.714-20.062 38.22-1.7013 85.489 39.204 100.93 7.5493 2.8494 9.8621 2.9645 72.565 3.6119l64.767 0.66864 5.3582 3.5477c10.173 6.7355 9.775 2.9032 9.775 94.146 0 89.296-0.29404 93.516-8.1496 116.97-23.917 71.4-94.017 115.92-171.18 108.71-31.883-2.9778-49.867-3.2289-59.386-0.8293-24.274 6.1189-41.001 20.655-49.175 42.735-3.7421 10.108-5.0378 27.208-2.792 36.848 5.4961 23.593 26.647 45.901 52.375 55.24 11.376 4.1292 37.008 9.7538 51.239 11.244 15.816 1.6557 51.323 0.6558 69.189-1.9485zm263.53-299.32c0-2.5667 0.2744-3.6167 0.60977-2.3333 0.33536 1.2833 0.33536 3.3833 0 4.6667-0.33537 1.2833-0.60977 0.23334-0.60977-2.3333zm-145.02-73.34c0-40.7 0.16937-57.35 0.37639-37 0.20701 20.35 0.20701 53.65 0 74-0.20702 20.35-0.37639 3.7-0.37639-37zm145.34-12c0-45.1 0.16767-63.55 0.3726-41 0.20492 22.55 0.20492 59.45 0 82-0.20493 22.55-0.3726 4.1-0.3726-41zm-4.88 456.47c0.9625-0.3852 2.1125-0.3378 2.5556 0.1052 0.44306 0.443-0.34445 0.7582-1.75 0.7003-1.5533-0.064-1.8692-0.3799-0.80556-0.8056zm-306.71-69.4c3.136-0.2817 7.936-0.2777 10.667 0.01 2.7306 0.2865 0.16476 0.5169-5.7019 0.5121-5.8667-0.01-8.1008-0.2392-4.9648-0.5209zm-105.83-32.689-2.54-3 3 2.54c2.8192 2.3869 3.607 3.46 2.54 3.46-0.25302 0-1.603-1.35-3-3zm271.57-267.11c0.064-1.5533 0.37992-1.8692 0.80555-0.80556 0.38516 0.9625 0.3378 2.1125-0.1052 2.5556-0.44305 0.44306-0.75819-0.34445-0.70029-1.75zm768-257.33c0.064-1.5533 0.38-1.8692 0.8056-0.80556 0.3851 0.9625 0.3378 2.1125-0.1052 2.5556-0.4431 0.44306-0.7582-0.34445-0.7003-1.75zm-1305.3-52c0.063979-1.5533 0.37992-1.8692 0.80556-0.80556 0.38516 0.9625 0.33779 2.1125-0.10526 2.5556-0.44306 0.44306-0.75819-0.34445-0.70029-1.75zm1305.3 0c0.064-1.5533 0.38-1.8692 0.8056-0.80556 0.3851 0.9625 0.3378 2.1125-0.1052 2.5556-0.4431 0.44306-0.7582-0.34445-0.7003-1.75zm-571.77-2.8874c15.217-0.21392 40.117-0.21392 55.333 0s2.7667 0.38896-27.667 0.38896c-30.433 0-42.883-0.17504-27.667-0.38896zm-50.377-93.668c0-40.7 0.16937-57.35 0.37638-37 0.20702 20.35 0.20702 53.65 0 74-0.20701 20.35-0.37638 3.7-0.37638-37zm-56.873-530.24c0.9625-0.38516 2.1125-0.33779 2.5556 0.10526 0.44306 0.44306-0.34445 0.75819-1.75 0.70029-1.5533-0.063978-1.8692-0.37992-0.80556-0.80556zm52 0c0.9625-0.38516 2.1125-0.33779 2.5556 0.10526 0.44306 0.44306-0.34445 0.75819-1.75 0.70029-1.5533-0.063978-1.8692-0.37992-0.80556-0.80556zm-85.76 1146.2c1.3273-1.4667 2.7133-2.6667 3.08-2.6667 0.36666 0-0.41932 1.2-1.7466 2.6667s-2.7133 2.6667-3.08 2.6667c-0.36666 0 0.41932-1.2 1.7466-2.6667zm90.105-691.44c0.064-1.5533 0.37992-1.8692 0.80555-0.80556 0.38516 0.96249 0.3378 2.1125-0.1052 2.5556-0.44306 0.44305-0.75819-0.34446-0.7003-1.75zm-65.439-199.73c0-0.27686 1.05-1.3269 2.3333-2.3333 2.1148-1.6585 2.1619-1.6113 0.50342 0.50341-1.7418 2.221-2.8368 2.9273-2.8368 1.8299zm493.36 863.77c1.7223-1.8334 3.4315-3.3334 3.7982-3.3334 0.3666 0-0.7425 1.5-2.4649 3.3334-1.7223 1.8333-3.4315 3.3333-3.7981 3.3333-0.3667 0 0.7425-1.5 2.4648-3.3333zm8.6667-8.6667c1.3273-1.4667 2.7133-2.6667 3.0799-2.6667 0.3667 0-0.4193 1.2-1.7466 2.6667s-2.7133 2.6667-3.08 2.6667c-0.3666 0 0.4193-1.2 1.7467-2.6667zm-403.67-343.67c17.783-0.21002 46.883-0.21002 64.667 0 17.783 0.21003 3.2333 0.38188-32.333 0.38188s-50.117-0.17185-32.333-0.38188zm181.42-463.91c0.96249-0.38516 2.1125-0.3378 2.5556 0.1052 0.44305 0.44306-0.34446 0.75819-1.75 0.7003-1.5533-0.064-1.8692-0.37992-0.80556-0.80555zm-709.75-108.42c1.3273-1.4667 2.7133-2.6667 3.08-2.6667s-0.41932 1.2-1.7466 2.6667-2.7133 2.6667-3.08 2.6667c-0.36667 0 0.41932-1.2 1.7466-2.6667zm931.16 0.33333c-1.6585-2.1147-1.6113-2.1619 0.5034-0.50341 2.221 1.7418 2.9273 2.8368 1.8299 2.8368-0.2768 0-1.3268-1.05-2.3333-2.3333zm-6.5975-6.6667-3.2324-3.6667 3.6667 3.2324c2.0166 1.7778 3.6666 3.4278 3.6666 3.6667 0 1.0457-1.0797 0.19464-4.1009-3.2324zm-917.9-0.33334c1.3273-1.4667 2.7133-2.6667 3.08-2.6667s-0.41932 1.2-1.7466 2.6667c-1.3273 1.4667-2.7133 2.6667-3.08 2.6667-0.36666 0 0.41932-1.2 1.7466-2.6667zm910.67 937.33c1.3273-1.4667 2.7133-2.6667 3.08-2.6667 0.3666 0-0.4194 1.2-1.7467 2.6667-1.3273 1.4666-2.7133 2.6666-3.0799 2.6666-0.3667 0 0.4193-1.2 1.7466-2.6666zm18-17.837c0-0.2769 1.05-1.3269 2.3333-2.3333 2.1148-1.6585 2.1619-1.6114 0.5034 0.5034-1.7418 2.221-2.8367 2.9273-2.8367 1.8299zm-394.67-758.67c0-0.27687 1.05-1.3269 2.3333-2.3333 2.1148-1.6585 2.1619-1.6113 0.50342 0.50341-1.7418 2.221-2.8368 2.9273-2.8368 1.8299zm173-45.713c0.91667-0.36988 2.4167-0.36988 3.3333 0 0.91666 0.36988 0.16666 0.67252-1.6667 0.67252s-2.5833-0.30264-1.6667-0.67252zm-278.33-52.954c0-0.27687 1.05-1.3269 2.3333-2.3333 2.1147-1.6585 2.1619-1.6113 0.50341 0.50341-1.7418 2.221-2.8368 2.9273-2.8368 1.8299zm-440.67-50.163c1.3273-1.4667 2.7133-2.6667 3.08-2.6667 0.36666 0-0.41932 1.2-1.7466 2.6667-1.3273 1.4667-2.7133 2.6667-3.08 2.6667-0.36666 0 0.41932-1.2 1.7466-2.6667zm941.21-0.33334-2.54-3 3 2.54c1.65 1.397 3 2.747 3 3 0 1.067-1.0731 0.27927-3.46-2.54zm-923.87-17c1.3273-1.4667 2.7133-2.6667 3.08-2.6667 0.36667 0-0.41932 1.2-1.7466 2.6667s-2.7133 2.6667-3.08 2.6667 0.41932-1.2 1.7466-2.6667zm906.54-0.33333-2.5399-3 3 2.54c2.8192 2.387 3.6069 3.46 2.5399 3.46-0.253 0-1.603-1.35-3-3zm-1060.7 1083.4c-1.6585-2.1147-1.6113-2.1619 0.50341-0.5034 1.2833 1.0065 2.3333 2.0565 2.3333 2.3333 0 1.0974-1.0949 0.3911-2.8367-1.8299zm-5.3333-5.3333c-1.6585-2.1148-1.6113-2.1619 0.50341-0.5034 2.221 1.7418 2.9273 2.8367 1.8299 2.8367-0.27688 0-1.3269-1.05-2.3333-2.3333zm205.61-103.78c0.064-1.5533 0.37992-1.8692 0.80554-0.8056 0.38516 0.9625 0.3378 2.1125-0.1052 2.5556-0.44306 0.443-0.75818-0.3445-0.70029-1.75zm92-461.33c0.064-1.5533 0.37992-1.8692 0.80555-0.80556 0.38516 0.9625 0.3378 2.1125-0.1052 2.5556-0.44307 0.44306-0.75819-0.34445-0.7003-1.75zm386.56-342.39c0-0.27687 1.05-1.3269 2.3333-2.3333 2.1148-1.6585 2.1619-1.6113 0.50342 0.50341-1.7418 2.221-2.8368 2.9273-2.8368 1.8299zm8-8c0-0.27687 1.05-1.3269 2.3333-2.3333 2.1148-1.6585 2.1619-1.6113 0.50342 0.50341-1.7418 2.221-2.8368 2.9273-2.8368 1.8299zm107.03-45.754c1.2973-0.33805 3.0973-0.31583 4 0.0495 0.90271 0.36524-0.1587 0.64182-2.3587 0.61465-2.2-0.0272-2.9386-0.326-1.6413-0.66405zm8.6568-0.0191c1.6586-0.31892 4.0586-0.30681 5.3333 0.0269 1.2748 0.33372-0.0823 0.59466-3.0156 0.57986s-3.9763-0.28785-2.3178-0.60677zm-221.02-52.894c0-0.27687 1.05-1.3269 2.3333-2.3333 2.1147-1.6585 2.1619-1.6113 0.50341 0.50341-1.7418 2.221-2.8368 2.9273-2.8368 1.8299zm207.75-91.074c0.96249-0.38516 2.1125-0.3378 2.5556 0.1052 0.44305 0.44307-0.34446 0.75819-1.75 0.70029-1.5533-0.064-1.8692-0.37992-0.80556-0.80554zm18.667 0c0.96249-0.38516 2.1125-0.3378 2.5556 0.1052 0.44305 0.44307-0.34446 0.75819-1.75 0.70029-1.5533-0.064-1.8692-0.37992-0.80556-0.80554z" fill="#000"/>
 </g>
</svg>
