<svg id="svg4" width="24" height="24" version="1.1" viewBox="0 0 24 24" xmlns="http://www.w3.org/2000/svg">
 <path id="path2" d="m13.595 4.1102h-6.3703a1.5926 1.5926 0 0 0-1.5926 1.5926v12.741a1.5926 1.5926 0 0 0 1.5926 1.5926h9.5555a1.5926 1.5926 0 0 0 1.5926-1.5926v-9.5555l-4.7778-4.7778m-0.79629 8.7592h-1.5926v3.9815a1.5926 1.5926 0 0 1-1.5926 1.5926 1.5926 1.5926 0 0 1-1.5926-1.5926 1.5926 1.5926 0 0 1 1.5926-1.5926c0.31852 0 0.5574 0.07963 0.79629 0.23889v-4.2204h2.3889v1.5926m0-3.1852v-4.3796l4.3796 4.3796z" fill="#000"/>
</svg>
