<svg width="24" height="24" version="1.1" viewBox="0 0 24 24" xmlns="http://www.w3.org/2000/svg">
 <path d="m12 20 0.76-3c-3.26-0.21-6.17-1.6-7.01-3.42-0.09 0.48-0.22 0.92-0.42 1.25-0.66 1.17-2 1.17-3.33 1.17 1.1 0 1.5-1.57 1.5-3.5s-0.4-3.5-1.5-3.5c1.33 0 2.67 0 3.33 1.17 0.2 0.33 0.33 0.77 0.42 1.25 0.65-1.42 2.57-2.57 4.91-3.1l-1.66-3.32c2 0 4 0 5.33 0.67 1.13 0.56 1.78 1.6 2.36 2.71 2.92 0.7 5.31 2.28 5.31 4.12 0 1.88-2.5 3.5-5.5 4.16-0.83 1.1-1.64 2.12-2.33 2.67-0.84 0.67-1.5 0.67-2.17 0.67m5-9a1 1 0 0 0-1 1 1 1 0 0 0 1 1 1 1 0 0 0 1-1 1 1 0 0 0-1-1z" fill="#000"/>
</svg>
