<?xml version="1.0" encoding="UTF-8"?>
<svg id="svg4" version="1.1" viewBox="0 0 24 24" xmlns="http://www.w3.org/2000/svg">
 <path id="path185" d="m4 4c-1.11 0-2 0.89-2 2v12c0 1.1 0.89 2 2 2h16c1.1 0 2-0.9 2-2v-10c0-1.1-0.9-2-2-2h-8l-2-2h-6zm3 7h1.334v1.1992h-1.334v-1.1992zm2.666 0h9.334v1.1992h-9.334v-1.1992zm-2.666 2.4004h1.334v1.1992h-1.334v-1.1992zm2.666 0h9.334v1.1992h-9.334v-1.1992zm-2.666 2.4004h1.334v1.1992h-1.334v-1.1992zm2.666 0h9.334v1.1992h-9.334v-1.1992z" stroke-width=".63246" fill="#000"/>
</svg>
