<svg id="svg4" width="24" height="24" version="1.1" viewBox="0 0 24 24" xmlns="http://www.w3.org/2000/svg">
 <path id="path4" d="m13.168 2c-0.13646 0-1.3305 0.21871-1.3305 0.21871-0.05544 1.7879-1.2964 3.3722-3.8508 3.6472l-0.54585-0.99129-1.0704 0.10656 0.48189 2.582-4.8526-0.21055 0.52027 1.7832c5.2278 1.6973 4.989 6.5527 3.8504 10.893 2.0043 2.2773 6.047 2.0539 7.9319 1.852 0.1322-2.6727 2.2346-2.7715 5.7954-1.3836 0.48189-0.75625 0.80172-1.5469 1.902-2.1785l-1.9872-5.9942-1.1727 0.26641c0.46909-0.90664 1.3732-2.1441 2.1493-2.7242l0.66526-3.734c-3.7783-0.2707-6.2432-1.992-8.4863-4.1323z" stroke-width=".042806" fill="#000"/>
</svg>
