<?xml version="1.0" encoding="UTF-8"?>
<svg id="svg4" version="1.1" viewBox="0 0 24 24" xmlns="http://www.w3.org/2000/svg">
 <path id="path2" d="m15.26 2.75c-0.26 0-0.52906 0.040391-0.78906 0.15039l-7.3711 3.0488c-0.75 0.31-1.2105 1.0508-1.2305 1.8008-0.01 0.25 0.04086 0.54078 0.13086 0.80078l5 11.949c0.29 0.78 1.0305 1.24 1.8105 1.25 0.26 0 0.51953-0.050391 0.76953-0.15039l7.3594-3.0488c1.02-0.42 1.5098-1.5916 1.0898-2.6016l-4.959-11.949c-0.31-0.77-1.0405-1.23-1.8105-1.25zm0.10352 2.75 1.0566 2.4473-2.4473 1.0586 2.6426 6.1191c0.58414 1.3526-0.03805 2.9217-1.3906 3.5059-1.3526 0.58414-2.9217-0.038039-3.5059-1.3906-0.58414-1.3526 0.038051-2.9217 1.3906-3.5059 0.44678-0.19295 0.92013-0.24355 1.3711-0.19141l-2.7891-6.457 3.6719-1.5859zm-7.4824 1.25c0.55 0 1 0.45 1 1 0 0.55-0.45 1-1 1a1 1 0 0 1-1-1 1 1 0 0 1 1-1zm-4.0117 4.4297-2.4297 5.8594c-0.41 1.02 0.059845 2.1913 1.0898 2.6113l1.3398 0.56055v-9.0312zm2.0117 2.2305v6.3398a2 2 0 0 0 2 2h1.4492l-3.4492-8.3398z" fill="#000"/>
</svg>
