<svg width="24" height="24" version="1.1" viewBox="0 0 24 24" xmlns="http://www.w3.org/2000/svg">
 <path d="m12 20 3.46-6h-0.01c0.34-0.6 0.55-1.27 0.55-2 0-1.2-0.54-2.27-1.38-3h4.79c0.38 0.93 0.59 1.94 0.59 3a8 8 0 0 1-8 8m-8-8c0-1.46 0.39-2.82 1.07-4l3.47 6h0.01c0.69 1.19 1.95 2 3.45 2 0.45 0 0.88-0.09 1.29-0.23l-2.4 4.14c-3.89-0.54-6.89-3.87-6.89-7.91m11 0a3 3 0 0 1-3 3 3 3 0 0 1-3-3 3 3 0 0 1 3-3 3 3 0 0 1 3 3m-3-8c2.96 0 5.54 1.61 6.92 4h-6.92c-1.94 0-3.55 1.38-3.92 3.21l-2.38-4.13c1.46-1.87 3.74-3.08 6.3-3.08m0-2a10 10 0 0 0-10 10 10 10 0 0 0 10 10 10 10 0 0 0 10-10 10 10 0 0 0-10-10z" stroke="#000"/>
</svg>
