<?xml version="1.0" encoding="UTF-8"?>
<svg id="svg14" width="24" height="24" version="1.1" viewBox="0 0 24 24" xmlns="http://www.w3.org/2000/svg">
 <path id="path12" d="m4.9728 6.7451c-1.877 1.5422-2.9728 3.8453-2.9728 6.2702a8.117 8.1167 0 0 0 8.117 8.1167c0.64936 0 1.2886-0.08117 1.9075-0.23336-1.7857-0.39569-3.4294-1.2885-4.7789-2.5162-1.9785-1.0552-3.2163-3.1249-3.2163-5.3672 0-0.30438 0.030439-0.59861 0.071023-0.90298-0.040585-0.3754-0.071023-0.7508-0.071023-1.1262 0-1.461 0.32468-2.9119 0.9436-4.241zm12.116 1.8541v-1.6372h-3.2744v4.5023c-0.34381-0.25377-0.7613-0.4093-1.2279-0.4093a2.0465 2.0465 0 0 0-2.0465 2.0465 2.0465 2.0465 0 0 0 2.0465 2.0465 2.0465 2.0465 0 0 0 2.0465-2.0465v-4.5023h2.4558m-3.2744-5.7302c-1.1324 0-2.1969 0.21456-3.1929 0.64432-0.99597 0.42976-1.8614 1.014-2.598 1.7507-0.73662 0.73674-1.321 1.6022-1.7507 2.598-0.42976 0.99597-0.64432 2.0604-0.64432 3.1929s0.21455 2.1969 0.64432 3.1929c0.42976 0.99597 1.014 1.8614 1.7507 2.598 0.73674 0.73662 1.6022 1.321 2.598 1.7507 0.99597 0.42976 2.0604 0.64432 3.1929 0.64432s2.1969-0.21456 3.1929-0.64432c0.99597-0.42976 1.8614-1.014 2.598-1.7507 0.73662-0.73674 1.321-1.6022 1.7507-2.598 0.42976-0.99597 0.64432-2.0604 0.64432-3.1929s-0.21456-2.1969-0.64432-3.1929c-0.42976-0.99597-1.014-1.8614-1.7507-2.598-0.73674-0.73662-1.6022-1.321-2.598-1.7507-0.99597-0.42976-2.0604-0.64432-3.1929-0.64432zm0 1.6372c1.8282 0 3.3773 0.63378 4.6462 1.9026s1.9026 2.818 1.9026 4.6462-0.63378 3.3773-1.9026 4.6462c-1.2688 1.2688-2.818 1.9026-4.6462 1.9026s-3.3773-0.63378-4.6462-1.9026c-1.2688-1.2688-1.9026-2.818-1.9026-4.6462s0.63378-3.3773 1.9026-4.6462c1.2688-1.2688 2.818-1.9026 4.6462-1.9026z" fill="#000"/>
</svg>
