<?xml version="1.0" encoding="UTF-8"?>
<svg id="svg14" width="24" height="24" version="1.1" viewBox="0 0 24 24" xmlns="http://www.w3.org/2000/svg">
 <path id="path12" d="m4.9728 6.7451c-1.877 1.5422-2.9728 3.8453-2.9728 6.2702a8.117 8.1167 0 0 0 8.117 8.1167c0.64936 0 1.2886-0.08117 1.9075-0.23336-1.7857-0.39569-3.4294-1.2885-4.7789-2.5162-1.9785-1.0552-3.2163-3.1249-3.2163-5.3672 0-0.30438 0.030439-0.59861 0.071023-0.90298-0.040585-0.3754-0.071023-0.7508-0.071023-1.1262 0-1.461 0.32468-2.9119 0.9436-4.241zm12.116 1.8541v-1.6372h-3.2744v4.5023c-0.34381-0.25377-0.7613-0.4093-1.2279-0.4093a2.0465 2.0465 0 0 0-2.0465 2.0465 2.0465 2.0465 0 0 0 2.0465 2.0465 2.0465 2.0465 0 0 0 2.0465-2.0465v-4.5023h2.4558m-3.2744-5.7302a8.186 8.186 0 0 1 8.186 8.186 8.186 8.186 0 0 1-8.186 8.186 8.186 8.186 0 0 1-8.186-8.186 8.186 8.186 0 0 1 8.186-8.186z"/>
</svg>
