<?xml version="1.0" encoding="UTF-8"?>
<svg id="svg14" width="24" height="24" version="1.1" viewBox="0 0 24 24" xmlns="http://www.w3.org/2000/svg">
 <path id="path476" d="m12 2a10 10 0 0 0-10 10 10 10 0 0 0 10 10 10 10 0 0 0 10-10 10 10 0 0 0-10-10zm3.5 4h4v2h-3v5.5a2.5 2.5 0 0 1-2.5 2.5 2.5 2.5 0 0 1-2.5-2.5 2.5 2.5 0 0 1 2.5-2.5c0.57 0 1.08 0.19 1.5 0.5v-5.5zm-7 2h4v2h-3v5.5a2.5 2.5 0 0 1-2.5 2.5 2.5 2.5 0 0 1-2.5-2.5 2.5 2.5 0 0 1 2.5-2.5c0.57 0 1.08 0.19 1.5 0.5v-5.5z" stroke-width="1.2216" fill="#000"/>
</svg>
