<svg id="svg2405" width="24" height="24" version="1.1" viewBox="0 0 24 24" xmlns="http://www.w3.org/2000/svg">
<g id="g2403" transform="matrix(-1 0 0 1 1e3 0)"><g id="g2401" transform="matrix(.1 0 0 -.1 0 511)"><path id="path2399" d="m9794 5089.5c-12.398-3.0928-18.404-19.559-10.161-29.604 6.8611-6.7899 12.758-15.939 22.35-18.957 5.015-0.2763 9.3748-0.028 12.231-4.8263 12.829-12.828 25.64-25.672 38.449-38.521-8.7155-12.22-11.049-29.979-1.4396-42.429 5.4284-7.6611 13.593-13.029 22.468-15.87-0.7001-25.734 22.034-51.551 48.688-49.269 22.807 1.5647 42.453 19.314 50.608 40.036 6.2798 16.026 2.245 35.377-10.469 47.144-9.3939 9.4678-22.656 15.084-36.013 14.94-4.9028 16.841-21.506 31.57-39.871 28.436-7.4912 1.8999-15.394-10.835-20.7-5.082-13.355 13.625-27.4 26.631-40.113 40.844 0.5916 9.0139-4.9135 16.584-11.571 22.174-6.3153 7.0612-14.205 13.832-24.455 10.983zm104.57-96.873c11.03-3.9398 13.528-20.231 4.4536-27.446-7.9354-7.0795-22.226-3.7327-25.688 6.5411-4.9787 11.388 6.8195 24.926 18.786 21.625l1.2259-0.3138z" fill="#000"/></g></g>
</svg>
