<?xml version="1.0" encoding="UTF-8"?>
<svg id="svg181" version="1.1" viewBox="0 0 24 24" xmlns="http://www.w3.org/2000/svg">
 <path id="rect509" d="m3.5 12h3v8h-3zm4-4.5a2.5 2.5 0 0 0-2.5-2.5 2.5 2.5 0 0 0-2.5 2.5 2.5 2.5 0 0 0 2.5 2.5 2.5 2.5 0 0 0 2.5-2.5zm9.1512 9.6429h-3.5814v-3.4286h3.5814a1.5349 1.7143 0 0 1 1.5349 1.7143 1.5349 1.7143 0 0 1-1.5349 1.7143m-3.5814-10.286h3.0698a1.5349 1.7143 0 0 1 1.5349 1.7143 1.5349 1.7143 0 0 1-1.5349 1.7143h-3.0698m5.7302 1.4743c0.99256-0.77714 1.6884-2.0457 1.6884-3.1886 0-2.5829-1.7907-4.5714-4.093-4.5714h-6.3954v16h7.2037c2.1488 0 3.7963-1.9429 3.7963-4.3314 0-1.7371-0.88-3.2229-2.2-3.9086z" fill="#000"/>
</svg>
