<?xml version="1.0" encoding="UTF-8"?>
<svg id="svg9192" width="128" height="128" version="1.1" viewBox="0 0 33.867 33.867" xmlns="http://www.w3.org/2000/svg">
 <rect id="rect9275" x="1.0583" y="1.0583" width="31.75" height="31.75" ry="4.6535" fill="#456ac8" stroke-width=".93749"/>
 <path id="path151-3" d="m30.778 15.838c0.39076 0 0.70752 0.36682 0.70752 0.81933v2.1408c0 0.45248-0.31677 0.81933-0.70752 0.81933-0.39075 0-0.70752-0.36684-0.70752-0.81933v-2.1408c0-0.45251 0.31677-0.81933 0.70752-0.81933zm-5.8004-2.0888c0.39076 0 0.70752 0.36682 0.70752 0.81933v6.3184c0 0.45248-0.31676 0.81933-0.70752 0.81933-0.39075 0-0.7075-0.36684-0.7075-0.81933v-6.3184c0-0.45251 0.31675-0.81933 0.7075-0.81933zm2.9002-4.6727c0.39075 0 0.70751 0.36681 0.70751 0.8193v15.664c0 0.45248-0.31676 0.81933-0.70751 0.81933-0.39076 0-0.70752-0.36684-0.70752-0.81933v-15.664c0-0.45249 0.31676-0.8193 0.70752-0.8193zm-5.8004 0.48065c0.39076 0 0.70752 0.36679 0.70752 0.81927v14.703c0 0.45249-0.31676 0.81929-0.70752 0.81929-0.39075 0-0.70752-0.3668-0.70752-0.81929v-14.703c0-0.45248 0.31677-0.81927 0.70752-0.81927zm-5.8004 2.1895c0.39075 0 0.70752 0.3668 0.70752 0.81929v10.324c0 0.45251-0.31677 0.81933-0.70752 0.81933-0.39075 0-0.70752-0.36682-0.70752-0.81933v-10.324c0-0.45249 0.31677-0.81929 0.70752-0.81929zm-2.9002 2.1895c0.39075 0 0.70752 0.36684 0.70752 0.81933v5.9445c0 0.45248-0.31678 0.81933-0.70752 0.81933-0.39075 0-0.70752-0.36684-0.70752-0.81933v-5.9445c0-0.45248 0.31677-0.81933 0.70752-0.81933zm5.8004-7.8502c0.39075 0 0.70751 0.36681 0.70751 0.81929v21.645c0 0.45248-0.31676 0.81933-0.70751 0.81933-0.39076 0-0.70752-0.36684-0.70752-0.81933v-21.645c0-0.45248 0.31676-0.81929 0.70752-0.81929zm-8.7006 1.5487c0.39075 0 0.70751 0.3668 0.70751 0.81928v18.548c0 0.45249-0.31676 0.8193-0.70751 0.8193-0.39076 0-0.70752-0.36681-0.70752-0.8193v-18.548c0-0.45248 0.31676-0.81928 0.70752-0.81928zm-2.9002 4.112c0.39075 0 0.70752 0.3668 0.70752 0.81929v10.324c0 0.45251-0.31676 0.81933-0.70752 0.81933-0.39075 0-0.70752-0.36682-0.70752-0.81933v-10.324c0-0.45249 0.31677-0.81929 0.70752-0.81929zm-2.9002 4.112c0.39075 0 0.70752 0.36681 0.70752 0.81929v2.0996c0 0.45248-0.31677 0.81933-0.70752 0.81933-0.39075 0-0.70752-0.36684-0.70752-0.81933v-2.0996c0-0.45248 0.31677-0.81929 0.70752-0.81929z" fill="#404040" fill-opacity=".4" stroke-width=".82046"/>
 <path id="path151" d="m29.984 15.044c0.39076 0 0.70752 0.36682 0.70752 0.81933v2.1408c0 0.45248-0.31677 0.81933-0.70752 0.81933-0.39075 0-0.70752-0.36684-0.70752-0.81933v-2.1408c0-0.45251 0.31677-0.81933 0.70752-0.81933zm-5.8004-2.0888c0.39076 0 0.70752 0.36682 0.70752 0.81933v6.3184c0 0.45248-0.31676 0.81933-0.70752 0.81933-0.39075 0-0.7075-0.36684-0.7075-0.81933v-6.3184c0-0.45251 0.31675-0.81933 0.7075-0.81933zm2.9002-4.6727c0.39075 0 0.70751 0.36681 0.70751 0.8193v15.664c0 0.45248-0.31676 0.81933-0.70751 0.81933-0.39076 0-0.70752-0.36684-0.70752-0.81933v-15.664c0-0.45249 0.31676-0.8193 0.70752-0.8193zm-5.8004 0.48065c0.39076 0 0.70752 0.36679 0.70752 0.81927v14.703c0 0.45249-0.31676 0.81929-0.70752 0.81929-0.39075 0-0.70752-0.3668-0.70752-0.81929v-14.703c0-0.45248 0.31677-0.81927 0.70752-0.81927zm-5.8004 2.1895c0.39075 0 0.70752 0.3668 0.70752 0.81929v10.324c0 0.45251-0.31677 0.81933-0.70752 0.81933-0.39075 0-0.70752-0.36682-0.70752-0.81933v-10.324c0-0.45249 0.31677-0.81929 0.70752-0.81929zm-2.9002 2.1895c0.39075 0 0.70752 0.36684 0.70752 0.81933v5.9445c0 0.45248-0.31678 0.81933-0.70752 0.81933-0.39075 0-0.70752-0.36684-0.70752-0.81933v-5.9445c0-0.45248 0.31677-0.81933 0.70752-0.81933zm5.8004-7.8502c0.39075 0 0.70751 0.36681 0.70751 0.81929v21.645c0 0.45248-0.31676 0.81933-0.70751 0.81933-0.39076 0-0.70752-0.36684-0.70752-0.81933v-21.645c0-0.45248 0.31676-0.81929 0.70752-0.81929zm-8.7006 1.5487c0.39075 0 0.70751 0.3668 0.70751 0.81928v18.548c0 0.45249-0.31676 0.8193-0.70751 0.8193-0.39076 0-0.70752-0.36681-0.70752-0.8193v-18.548c0-0.45248 0.31676-0.81928 0.70752-0.81928zm-2.9002 4.112c0.39075 0 0.70752 0.3668 0.70752 0.81929v10.324c0 0.45251-0.31676 0.81933-0.70752 0.81933-0.39075 0-0.70752-0.36682-0.70752-0.81933v-10.324c0-0.45249 0.31677-0.81929 0.70752-0.81929zm-2.9002 4.112c0.39075 0 0.70752 0.36681 0.70752 0.81929v2.0996c0 0.45248-0.31677 0.81933-0.70752 0.81933-0.39075 0-0.70752-0.36684-0.70752-0.81933v-2.0996c0-0.45248 0.31677-0.81929 0.70752-0.81929z" fill="#f4f4f4" stroke-width=".82046"/>
</svg>
