<svg id="svg81" width="24" height="24" version="1.1" viewBox="0 0 24 24" xmlns="http://www.w3.org/2000/svg">
 <path id="path2" d="m7.4474 4c-3.0093 0-5.4474 2.638-5.4474 5.8938 0 2.0657 1.209 3.555 2.472 4.9331l4.9388 5.0523c0.25878 0.2647 0.68455 0.06606 0.68455-0.31928v-3.9362c0-1.1388 0.85222-2.0624 1.9044-2.0642 1.0521 0 1.9048 0.92542 1.9048 2.0642v3.9362c0 0.38535 0.42577 0.58399 0.68455 0.31928l4.9384-5.0523c1.2631-1.3781 2.4724-2.8674 2.4724-4.9331 0-3.2557-2.4377-5.8936-5.4471-5.8938h-3.84e-4c-1.8883 1.657e-4 -3.5754 1.0825-4.5524 2.6634-0.97705-1.5809-2.6641-2.6634-4.5528-2.6634zm-1.3022 1.7987c0.12126 0.00552 0.23803 0.072031 0.30713 0.19157 0.11086 0.19057 0.057522 0.44296-0.11917 0.56294-0.84591 0.57377-1.5082 1.9185-1.5082 3.0612v0.01989c0 1.4076 0.73928 2.8302 2.1972 4.2278 0.15648 0.14997 0.17071 0.4081 0.032704 0.5768-0.074678 0.0912-0.17876 0.13705-0.28269 0.13705-0.089114 0-0.17838-0.03315-0.25036-0.10208-1.6264-1.5601-2.4514-3.1881-2.4514-4.8395v-0.01988c0-1.419 0.80065-3.0329 1.8615-3.7535 0.06621-0.044743 0.14058-0.064906 0.21315-0.062199zm11.709 0c0.07275 0 0.14694 0.017676 0.21315 0.062199 1.0611 0.72059 1.8615 2.3345 1.8615 3.7535v0.01989c0 1.6515-0.8248 3.2795-2.4514 4.8395-0.07179 0.06872-0.16125 0.10208-0.25036 0.10208-0.10374 0-0.20801-0.04585-0.28269-0.13705-0.13839-0.1687-0.12396-0.42683 0.03233-0.5768 1.458-1.3976 2.1972-2.8202 2.1972-4.2278v-0.01989c0-1.1427-0.66247-2.4878-1.5082-3.0616-0.17669-0.11998-0.22966-0.37198-0.11879-0.56255 0.0691-0.11954 0.18606-0.1872 0.30712-0.19157zm-8.9593 1.0441c0.14666-0.013258 0.29282 0.067281 0.36577 0.21676 0.097006 0.19974 0.026511 0.44639-0.15826 0.55156-0.75622 0.43048-1.227 1.2706-1.2289 2.1936 0.00209 1.0042 0.5902 2.0333 1.4638 2.5629 0.18208 0.10976 0.24673 0.35883 0.1451 0.55559-0.0691 0.13351-0.19727 0.20908-0.32931 0.20908-0.062938 0-0.12626-0.01657-0.18458-0.05193-1.1027-0.66811-1.8451-1.9806-1.8499-3.2691v-0.012149c0.00445-1.2254 0.6287-2.3396 1.6322-2.9107 0.046192-0.025963 0.095089-0.040876 0.14398-0.045296zm6.209 0c0.04889 0.00552 0.09798 0.019333 0.14398 0.045296 1.0035 0.57106 1.6276 1.6853 1.6322 2.9107v0.01215c-0.0048 1.2885-0.74723 2.601-1.8499 3.2691-0.05832 0.03535-0.12164 0.05193-0.18458 0.05193-0.13204 0-0.26039-0.07556-0.32968-0.20908-0.10162-0.19676-0.03659-0.44583 0.14548-0.55559 0.87382-0.52963 1.4611-1.5587 1.4635-2.5629-0.0019-0.92304-0.47209-1.7632-1.2285-2.1936-0.18458-0.10512-0.25583-0.35181-0.15864-0.5515 0.07276-0.14953 0.21968-0.23013 0.36614-0.21681zm-3.1047 1.4923c0.90442 0 1.6375 0.79406 1.6375 1.7726 0 0.97861-0.73308 1.772-1.6375 1.7726-0.90423 0-1.6371-0.794-1.6371-1.7726 0-0.97856 0.7329-1.772 1.6371-1.7726z" stroke-width=".25026" fill="#000"/>
</svg>
