<?xml version="1.0" encoding="UTF-8"?>
<svg id="svg4" version="1.1" viewBox="0 0 24 24" xmlns="http://www.w3.org/2000/svg">
 <path id="path2184" d="m11 9h2v-2h-2m0 10 0.81105-0.018 1.189-2.8886v-3.0934h-2zm1-15c5.5 0 10 4.5 10 10l0.0307 1c-0.41793-0.42979-1.3007-1-2.0307-1 0-4.42-3.58-8-8-8s-8 3.58-8 8 3.58 8 8 8c0.71 0-0.36403 0.0022 0.2184-0.03846 0.08 0.68 0.53736 1.3377 0.96967 1.9632-0.90251 0.09939-0.28808 0.0753-1.1881 0.0753-5.53 0-10-4.5-10-10s4.47-10 10-10z" fill="#000"/>
 <path id="path2" d="m18 13a5 5 0 1 0 5 5 5 5 0 0 0-5-5zm0.001953 1.8008a3.1996 3.2012 0 0 1 2.2852 0.96289l0.96289-0.96289v2.707h-2.707l0.98047-0.98047a2.1331 2.1342 0 0 0-1.5215-0.64453 2.1656 2.1667 0 1 0 2.0898 2.709h1.1094a3.2484 3.25 0 1 1-3.1992-3.791z" fill="#fff"/>
</svg>
