<?xml version="1.0" encoding="UTF-8"?>
<svg id="svg4" width="24" height="24" version="1.1" viewBox="0 0 24 24" xmlns="http://www.w3.org/2000/svg">
 <path id="path2" d="m4 4v16h16v-16h-15.385zm14.769 1.2308v13.538h-13.538l3.2692-3.2692c-0.86154-0.92308-1.4231-2.1462-1.4231-3.5 0-2.7077 2.2154-4.9231 4.9231-4.9231 1.3538 0 2.5769 0.56154 3.5 1.4231zm-3.2692 3.2692-7 7c0.92308 0.86154 2.1462 1.4231 3.5 1.4231 2.7077 0 4.9231-2.2154 4.9231-4.9231 0-1.3538-0.56154-2.5769-1.4231-3.5zm3.5 10.5h-14v-14h14v14m0-16h-14a2 2 0 0 0-2 2v14a2 2 0 0 0 2 2h14a2 2 0 0 0 2-2v-14a2 2 0 0 0-2-2" stroke-width="0" fill="#000" stroke="#000"/>
</svg>
