<svg width="24" height="24" version="1.1" viewBox="0 0 24 24" xmlns="http://www.w3.org/2000/svg">
 <path d="m20 20c-1.39 0-2.78-0.47-4-1.33-2.44 1.71-5.56 1.71-8 0-1.22 0.86-2.61 1.33-4 1.33h-2v2h2c1.37 0 2.74-0.35 4-1 2.5 1.3 5.5 1.3 8 0 1.26 0.65 2.62 1 4 1h2v-2h-2m0.78-1h-0.78c-1.18 0-2.36-0.4-3.42-1.15l-0.58-0.4-0.58 0.4c-1.03 0.72-2.21 1.1-3.42 1.1-1.23 0-2.41-0.38-3.44-1.1l-0.56-0.4-0.57 0.4c-1.07 0.75-2.25 1.15-3.43 1.15h-0.78c0.53-1.46 2.36-4 8.78-4 2 0 3 0.24 3 0.24 0.68-1.37 1.83-4.47 1-8.42l1.06 0.71c0.33 1.43 0.94 4.22-0.26 8.12 2.63 0.85 3.62 2.35 3.98 3.35m1.22-11.41c-0.79-1.09-2-1.88-3.42-2.06 0.12 0.14 0.23 0.3 0.34 0.47 1.2 1.91 0.95 4.32-0.45 5.95 0.59-1.45 0.53-3.16-0.39-4.59-0.08-0.08-0.12-0.16-0.18-0.25-0.4-0.58-0.94-1.05-1.52-1.39-2.03 0.65-3.5 2.55-3.5 4.78 0 0.53 0.08 1.03 0.22 1.5-0.6-0.83-0.94-1.83-0.94-2.93 0-1.66 0.8-3.12 2.04-4.04-1.04-0.08-2.11 0.15-3.06 0.75-0.44 0.27-0.82 0.6-1.14 0.98 0.39-0.94 1.05-1.76 2-2.36 1.04-0.66 2.25-0.9 3.39-0.71-0.29-0.4-0.64-0.77-1.06-1.09-0.41-0.31-0.86-0.55-1.33-0.72 1 0.03 2.04 0.36 2.91 1.01 0.44 0.33 0.79 0.73 1.09 1.16 0.06 0 0.12-0.01 0.19-0.01 2.26 0 4.18 1.49 4.81 3.55z" fill="#000"/>
</svg>
