<?xml version="1.0" encoding="UTF-8"?>
<svg id="svg2994" width="24" height="24" version="1.1" viewBox="0 0 24 24" xmlns="http://www.w3.org/2000/svg">
 <path id="path4016" d="m13.333 2a0.66667 0.7 0 0 1 0.66667 0.7 0.66667 0.7 0 0 1-0.66667 0.7 2 2.1 0 0 0-2 2.1v5.95c0 2.52-1.9333 4.55-4.3333 4.55s-4.3333-2.03-4.3333-4.55v-1.75a0.66667 0.7 0 0 1-0.66667-0.7 0.66667 0.7 0 0 1 0.66667-0.7h4a0.66667 0.7 0 0 1 0.66667 0.7 0.66667 0.7 0 0 1-0.66667 0.7v1.4a0.66667 0.7 0 0 0 0.66667 0.7 0.66667 0.7 0 0 0 0.66667-0.7v-2.8a0.66667 0.7 0 0 1-0.66667-0.7 0.66667 0.7 0 0 1 0.66667-0.7v-0.7a0.66667 0.7 0 0 1-0.66667-0.7 0.66667 0.7 0 0 1 0.66667-0.7v-0.35a2.3333 2.45 0 0 1 2.3333-2.45zm7.6667 11.619a1 1.0476 0 0 1 1 1.0476v6.2857a1 1.0476 0 0 1-1 1.0476h-8a1 1.0476 0 0 1-1-1.0476v-6.2857c0-0.44524 0.265-0.82762 0.64-0.97952l6.215-2.6871 0.38 0.95857-3.82 1.6605h5.585m0 1.0476h-8v2.0952h6v-1.0476h1v1.0476h1v-2.0952m-6.5 3.1429a1.5 1.5714 0 0 0-1.5 1.5714 1.5 1.5714 0 0 0 1.5 1.5714 1.5 1.5714 0 0 0 1.5-1.5714 1.5 1.5714 0 0 0-1.5-1.5714z" fill="#000"/>
</svg>
