<svg id="svg4" width="24" height="24" version="1.1" viewBox="0 0 24 24" xmlns="http://www.w3.org/2000/svg">
 <path id="path2" d="m16.319 8.6304q0 0.073137 0.10906 0.49978 0.10907 0.35351 0.27268 0.60339 0.16361 0.24989 0.44718 0.41446 0.28358 0.16456 0.4799 0.2438 0.19632 0.07924 0.59988 0.20113 3.5447 1.1093 3.5447 4.0471 0 1.7797-1.1507 2.956-1.1507 1.1763-2.7758 1.1763-0.64351 0-1.2161-0.22552-0.57263-0.22552-0.99798-0.55464-0.42537-0.32912-0.83983-0.90815-0.41447-0.57902-0.68714-1.0666-0.27268-0.48759-0.58352-1.2616-0.31085-0.77405-0.47445-1.2555-0.1636-0.4815-0.43082-1.2982-0.26722-0.81672-0.3872-1.158-0.34903-0.98738-0.67077-1.6273-0.32176-0.63997-0.80166-1.1763-0.4799-0.53636-1.1343-0.78015-0.65442-0.2438-1.5488-0.2438-1.047 0-1.996 0.67654-0.94891 0.67654-1.5052 1.7614-0.55626 1.0849-0.55626 2.2552 0 1.9504 1.1616 3.4071 1.1616 1.4567 2.8739 1.4567 1.9305 0 2.814-1.158 0.61079-0.76796 0.90528-1.414l0.91618 1.8529q-0.1636 0.41446-0.4799 0.85329l0.01092 0.0122q-1.4289 1.8529-4.2319 1.8529-1.6033 0-2.9394-0.963-1.3361-0.963-2.0777-2.5293-0.74167-1.5664-0.74167-3.3461 0-1.2799 0.47445-2.5112 0.47445-1.2311 1.2652-2.1515 0.79075-0.92033 1.8759-1.4811 1.0852-0.56074 2.2305-0.56074 0.9489 0 1.7342 0.23161 0.78529 0.23161 1.347 0.60949 0.5617 0.37789 1.0362 0.97519 0.47445 0.5973 0.79076 1.2068 0.3163 0.60949 0.63805 1.4262 0.32175 0.81672 0.5508 1.5176 0.22904 0.70092 0.54535 1.5908 0.3163 0.88986 0.59988 1.5481 1.047 2.438 2.5413 2.438 0.88346 0 1.5106-0.5912 0.62715-0.5912 0.62715-1.5664 0-0.51197-0.20723-0.87767-0.20723-0.3657-0.55079-0.56074-0.34357-0.19504-0.79076-0.38398-0.44718-0.18894-0.92163-0.32913-0.47445-0.14018-0.95435-0.41446-0.4799-0.27427-0.88346-0.63387-0.40356-0.3596-0.70895-0.99957-0.30539-0.63997-0.42536-1.4932-0.03269-0.19504-0.03269-0.40227 0-1.3409 0.95435-2.3405 0.95435-0.99957 2.165-0.95081 0.85075 0.036572 1.3143 0.17675 0.46354 0.14018 0.98703 0.65216h-0.01093q0.13088 0.13409 0.25086 0.29865 0.11997 0.16456 0.28357 0.43883t0.20724 0.33522l-1.407 1.2068q-0.28358-0.5973-0.58897-0.85329v-0.01219q-0.25086-0.25598-1.058-0.25598-0.53444 0-0.91618 0.40227-0.38175 0.40227-0.38175 1.0118z" stroke="#000" stroke-width=".45479" fill="#000"/>
</svg>
