<svg id="svg4" width="24" height="24" version="1.1" viewBox="0 0 24 24" xmlns="http://www.w3.org/2000/svg">
 <path id="path2" d="m16.42 9.015q0 0.06479 0.1116 0.44277 0.11161 0.31318 0.27902 0.53456 0.16742 0.22138 0.45759 0.36718 0.29018 0.14579 0.49107 0.21599 0.20089 0.07019 0.61384 0.17819 3.6272 0.98273 3.6272 3.5854 0 1.5767-1.1775 2.6188-1.1775 1.0421-2.8404 1.0421-0.65848 0-1.2444-0.19979-0.58595-0.19979-1.0212-0.49137-0.43527-0.29158-0.85937-0.80455-0.42411-0.51297-0.70313-0.94494t-0.5971-1.1177q-0.31808-0.68575-0.48549-1.1123-0.16741-0.42657-0.44084-1.1501-0.27344-0.72355-0.39621-1.0259-0.35715-0.87474-0.68638-1.4417-0.32925-0.56696-0.82031-1.0421-0.49107-0.47517-1.1607-0.69115-0.66965-0.21599-1.5848-0.21599-1.0714 0-2.0424 0.59936-0.97099 0.59936-1.5402 1.5605-0.5692 0.96114-0.5692 1.9979 0 1.7279 1.1886 3.0184 1.1886 1.2905 2.9408 1.2905 1.9754 0 2.8795-1.0259 0.625-0.68035 0.92635-1.2527l0.9375 1.6415q-0.16741 0.36718-0.49107 0.75595l0.01118 0.0108q-1.4621 1.6415-4.3304 1.6415-1.6406 0-3.0078-0.85314-1.3672-0.85314-2.1261-2.2408-0.75893-1.3877-0.75893-2.9644 0-1.1339 0.48549-2.2247 0.48549-1.0907 1.2946-1.9061 0.80915-0.81534 1.9196-1.3121 1.1105-0.49677 2.2824-0.49677 0.97098 0 1.7746 0.20519 0.80356 0.20519 1.3783 0.53996 0.57477 0.33478 1.0603 0.86394 0.48549 0.52916 0.80916 1.0691 0.32366 0.53996 0.6529 1.2635 0.32924 0.72355 0.56362 1.3445 0.23437 0.62096 0.55804 1.4093 0.32366 0.78835 0.61384 1.3715 1.0714 2.1599 2.6004 2.1599 0.90402 0 1.5458-0.52376 0.64174-0.52376 0.64174-1.3877 0-0.45357-0.21205-0.77755-0.21205-0.32398-0.56361-0.49677-0.35156-0.17279-0.80916-0.34018-0.45759-0.16739-0.94308-0.29158-0.48549-0.12419-0.97656-0.36718-0.49107-0.24298-0.90402-0.56156-0.41295-0.31858-0.72545-0.88554-0.3125-0.56696-0.43526-1.3229-0.03346-0.17279-0.03346-0.35638 0-1.1879 0.97656-2.0735 0.97656-0.88554 2.2154-0.84234 0.87054 0.0324 1.3449 0.15659 0.47433 0.12419 1.01 0.57776h-0.01118q0.13393 0.11879 0.2567 0.26458 0.12276 0.14579 0.29017 0.38877 0.16741 0.24298 0.21206 0.29698l-1.4397 1.0691q-0.29018-0.52916-0.60268-0.75595v-0.0108q-0.2567-0.22678-1.0826-0.22678-0.54687 0-0.9375 0.35638t-0.39063 0.89634z" stroke-width=".010979" fill="#000"/>
</svg>
