<?xml version="1.0" encoding="UTF-8"?>
<svg id="svg4" width="24" height="24" version="1.1" viewBox="0 0 24 24" xmlns="http://www.w3.org/2000/svg">
 <path id="path1763" d="m15.889 15.679v-6.0584h1.1977v6.0584zm-2.8762 0.12239q-0.93542 0-1.5998-0.36718-0.66441-0.36718-1.0141-1.0753t-0.34969-1.7135q0-0.75184 0.2273-1.3376 0.23604-0.59448 0.64693-0.99662 0.41089-0.41089 0.96165-0.6207 0.55076-0.20981 1.189-0.20981 0.50705 0 0.88297 0.087423t0.61196 0.19233q0.24478 0.10491 0.34095 0.17485l-0.34969 0.97039q-0.26227-0.14862-0.62944-0.25353-0.36718-0.11365-0.83926-0.11365-0.49831 0-0.9092 0.2273-0.40214 0.21856-0.64693 0.6819-0.24478 0.46334-0.24478 1.1802 0 0.61196 0.18359 1.0928 0.19233 0.47208 0.59448 0.75184 0.41089 0.27101 1.0491 0.27101 0.60322 0 0.96165-0.11365 0.35843-0.11365 0.57699-0.2273l0.33221 0.97039q-0.25353 0.14862-0.76932 0.2885-0.50705 0.13988-1.2064 0.13988zm-7.3173-0.12239v-6.0584h1.1977v5.0268h2.7188v1.0316zm13.29-5.1448h1.8985v-4.2138s-0.85-2.1069-1.8985-2.1069h-13.29v2.1069h13.29m-15.344 8.4276h-1.8985v4.2138s0.85 2.1069 1.8985 2.1069h13.29v-2.1069h-13.29" fill="#000"/>
</svg>
