<svg width="24" height="24" version="1.1" viewBox="0 0 24 24" xmlns="http://www.w3.org/2000/svg">
 <path d="m14.62 8.35c-0.42 0.28-1.75 1.04-1.95 1.19-0.39 0.31-0.75 0.29-1.14-0.01-0.2-0.16-1.53-0.92-1.95-1.19-0.48-0.31-0.45-0.7 0.08-0.92 1.64-0.69 3.28-0.64 4.91 0.03 0.49 0.21 0.51 0.6 0.05 0.9m7.22 7.28c-0.93-2.09-2.2-3.99-3.84-5.66-0.53-0.55-0.86-1.17-1.06-1.88-0.1-0.33-0.17-0.67-0.24-1.01-0.2-0.88-0.29-1.78-0.7-2.61-0.73-1.58-2-2.4-3.84-2.47-1.81 0.05-3.16 0.81-3.95 2.4-0.21 0.43-0.36 0.88-0.46 1.34-0.17 0.76-0.32 1.55-0.5 2.32-0.15 0.65-0.45 1.21-0.96 1.71-1.61 1.57-2.9 3.37-3.88 5.35-0.14 0.29-0.28 0.58-0.37 0.88-0.19 0.66 0.29 1.12 0.99 0.96 0.44-0.09 0.88-0.18 1.3-0.31 0.41-0.15 0.57-0.05 0.67 0.35 0.65 2.15 2.07 3.66 4.24 4.5 4.12 1.56 8.93-0.66 9.97-4.58 0.07-0.27 0.17-0.37 0.47-0.27 0.46 0.14 0.93 0.24 1.4 0.35 0.49 0.09 0.85-0.16 0.92-0.64 0.03-0.26-0.06-0.49-0.16-0.73" fill="#000"/>
</svg>
