<?xml version="1.0" encoding="UTF-8"?>
<svg id="svg185" version="1.1" viewBox="0 0 24 24" xmlns="http://www.w3.org/2000/svg">
 <path id="path1" d="m14.84 11c-0.2 0-0.29883 0.10117-0.29883 0.20117l-0.20117 1.2988c-0.3 0.2-0.49883 0.3-0.79883 0.5l-1.2012-0.5c-0.1 0-0.19883 0.0016-0.29883 0.10156l-1 1.6992c0 0.1-3.9e-4 0.20078 0.09961 0.30078l1.0996 0.79883v1l-1.0996 0.80078c-0.1 0.1-0.19961 0.19883-0.09961 0.29883l1 1.7012c0.1 0.1 0.19883 0.09961 0.29883 0.09961l1.2012-0.5c0.2 0.2 0.49883 0.4 0.79883 0.5l0.20117 1.3008c0.1 0.1 0.19883 0.19922 0.29883 0.19922h2c0.1 0 0.20117-0.09922 0.20117-0.19922l0.19922-1.3008c0.3-0.2 0.50078-0.3 0.80078-0.5l1.1992 0.40039c0.1 0 0.20078 3.9e-4 0.30078-0.09961l1-1.7012c0.1-0.1 0.1-0.19922 0-0.19922l-1.1016-0.80078v-1l1.1016-0.79883c0.1-0.1 0.19961-0.20078 0.09961-0.30078l-1-1.6992c0-0.1-0.20078-0.10156-0.30078-0.10156l-1.1992 0.5c-0.3-0.2-0.60039-0.4-0.90039-0.5l-0.19922-1.2988c0-0.1-0.10117-0.20117-0.20117-0.20117zm0.90039 3.3008c0.8 0 1.5 0.7 1.5 1.5s-0.7 1.5-1.5 1.5-1.5-0.7-1.5-1.5 0.7-1.5 1.5-1.5zm-12.741-8.3008h18v2h-18v-2m0 5h6.5v2h-6.5v-2m0 5h6.5v2h-6.5z" fill="#000"/>
</svg>
