<svg id="svg85" width="24" height="24" version="1.1" viewBox="0 0 6.35 6.35" xmlns="http://www.w3.org/2000/svg">
 <g id="layer1">
  <path id="path30" d="m0.95797 5.8168c-0.062055-0.018427-0.11557-0.063557-0.14559-0.12278l-0.01863-0.036751v-4.961l0.017336-0.035714c0.020815-0.042881 0.069666-0.091198 0.11237-0.11114 0.023645-0.011043 0.04692-0.015238 0.096512-0.017395l0.065353-0.002841v1.3484c0 1.3305 1.774e-4 1.3488 0.013254 1.3736 0.016256 0.030869 0.042418 0.049646 0.081256 0.058319 0.019608 0.00438 0.75798 0.00664 2.2029 0.00674l2.1735 1.482e-4 -0.00174 1.1705-0.00174 1.1705-0.017391 0.035715c-0.021017 0.043165-0.063924 0.085942-0.10966 0.10933l-0.03382 0.017293-2.2086 0.00108c-1.2147 6.177e-4 -2.2161-0.001155-2.2253-0.0038829zm3.3047-0.42936c0.29588-0.035629 0.51726-0.19244 0.58874-0.41702 0.079915-0.25108-0.033952-0.48778-0.27324-0.568-0.045367-0.015208-0.061328-0.017113-0.14643-0.017476-0.088059-3.704e-4 -0.09551-0.00135-0.095516-0.012335-6.4e-6 -0.017806 0.019995-0.1751 0.023484-0.18465 0.00236-0.00646 0.047135-0.00816 0.20502-0.00777 0.1111 2.646e-4 0.20265-3.969e-4 0.20344-0.00148 7.857e-4 -0.00108 0.012901-0.067361 0.026903-0.14728 0.014001-0.079924 0.026933-0.15078 0.028738-0.15747 0.00318-0.011777-0.00949-0.012152-0.4096-0.012152h-0.41288l-0.00305 0.01461c-0.00522 0.02499-0.065176 0.8308-0.062044 0.83383 0.00162 0.00159 0.026686-0.00297 0.055684-0.010107 0.11208-0.027581 0.24968-0.034359 0.33151-0.016327 0.059931 0.013205 0.096995 0.039626 0.12223 0.087129 0.017356 0.032674 0.018733 0.040375 0.016409 0.091688-0.00214 0.047051-0.00601 0.062848-0.02422 0.098684-0.034866 0.06861-0.10612 0.11851-0.20217 0.14159-0.047879 0.011504-0.23283 0.01011-0.3033-0.0023-0.02857-0.00503-0.051947-0.00675-0.051947-0.00383 0 0.010612 0.081659 0.27489 0.086425 0.27971 0.015526 0.015684 0.19981 0.022498 0.29581 0.010935zm-2.383-0.028658c0.31998-0.044326 0.53506-0.1813 0.59573-0.37939 0.037423-0.12219 0.006075-0.26316-0.077588-0.34885-0.04381-0.044876-0.064217-0.059161-0.11062-0.077431l-0.036308-0.014295 0.035587-0.01951c0.06931-0.038 0.12367-0.10795 0.15038-0.19348 0.018588-0.059543 0.016965-0.17458-0.00327-0.23197-0.040663-0.11534-0.13831-0.20091-0.27909-0.24457-0.15362-0.047648-0.34817-0.041559-0.51277 0.01605-0.085753 0.030013-0.21449 0.097955-0.21449 0.1132 0 0.00543 0.15616 0.25694 0.16529 0.26621 0.00166 0.00169 0.00511 1.228e-4 0.00768-0.00347 0.010291-0.014401 0.067044-0.054252 0.10028-0.070413 0.052164-0.025363 0.11134-0.038153 0.1792-0.038725 0.066711-5.556e-4 0.10303 0.012004 0.12973 0.044888 0.032731 0.040311 0.02339 0.1293-0.017992 0.1714-0.036491 0.037124-0.063618 0.042613-0.21061 0.042613h-0.12569l1.8e-6 0.15505 1.7e-6 0.15505 0.025136-0.00383c0.013824-0.00212 0.056997-0.0058 0.095939-0.0082 0.18482-0.011411 0.27268 0.045127 0.25774 0.16586-0.013566 0.10966-0.10044 0.18399-0.25146 0.21516-0.074372 0.015351-0.26975 0.023683-0.33012 0.014079-0.021198-0.00337-0.038672-0.00438-0.038832-0.00225-1.596e-4 0.00214 0.014064 0.065844 0.031609 0.14157l0.031899 0.13768 0.027041 0.00241c0.075951 0.00679 0.31377 0.00373 0.37559-0.00484zm1.4813-0.12668c0.1934-0.050159 0.33975-0.18758 0.38588-0.36233 0.01856-0.0703 0.017955-0.19397-0.001314-0.26809-0.022356-0.086024-0.059159-0.15024-0.11903-0.20769-0.090458-0.086802-0.18957-0.12296-0.33727-0.12305-0.0856-4.92e-5 -0.13547 0.00768-0.17519 0.027152l-0.025727 0.01261 0.00482-0.015034c0.00973-0.030388 0.042646-0.087599 0.072599-0.1262 0.070194-0.090462 0.19069-0.16476 0.37286-0.22992 0.042395-0.015163 0.079373-0.029536 0.082171-0.031938 0.00393-0.00337-0.06539-0.26171-0.073035-0.27219-0.00265-0.00364-0.091148 0.022709-0.17671 0.052601-0.30465 0.10643-0.55349 0.30705-0.67063 0.54067-0.067975 0.13556-0.092922 0.23562-0.098169 0.39374-0.00439 0.13243 0.0028 0.19538 0.032055 0.28061 0.066712 0.19433 0.2197 0.31037 0.45085 0.34195 0.070346 0.00961 0.21515 0.00284 0.27583-0.012898zm-0.21312-0.26883c-0.087431-0.023627-0.12986-0.12921-0.11478-0.28561l0.00617-0.064007 0.033514-0.012345c0.051288-0.018894 0.13566-0.033697 0.16777-0.029434 0.062617 0.00831 0.10697 0.047807 0.12465 0.11099 0.00983 0.035118 0.00372 0.14969-0.00954 0.17896-0.038675 0.085361-0.12014 0.12514-0.20778 0.10145zm2.1114-2.9375c0.00157-1.2382 0.00527-1.1453-0.047269-1.1862l-0.025757-0.020012-3.9099-0.006494-0.00181-0.14128-0.00181-0.14128 4.1192 0.003328 0.03382 0.017294c0.045735 0.023387 0.088641 0.066164 0.10966 0.10933l0.01739 0.035714 0.00174 1.2159 0.00174 1.2159h-0.14919l-0.14919 2e-7zm-3.6176 0.030844v-0.82468h0.2413v1.4089l0.47925 0.00342 0.00183 0.11851 0.00183 0.11851h-0.72422zm0.89148 0v-0.82468h0.2413v1.6494h-0.2413zm0.70858 0.67711c-0.016927-0.081336-0.063967-0.30568-0.10453-0.49853-0.15892-0.75552-0.20858-0.99315-0.20858-0.9981 0-0.00283 0.057252-0.00515 0.12723-0.00515 0.12647 0 0.12725 8.6e-5 0.13059 0.01461 0.00185 0.00804 0.044272 0.26007 0.094273 0.56007 0.050001 0.3 0.093257 0.55267 0.096123 0.56149 0.00534 0.016431 0.00984-0.00861 0.13881-0.77253 0.031053-0.18393 0.058023-0.34099 0.059936-0.34903 0.00346-0.01452 0.00427-0.01461 0.1307-0.01461 0.069975 0 0.12723 0.00211 0.12723 0.0047 0 0.00258-0.043608 0.21078-0.096907 0.46266-0.053299 0.25188-0.12273 0.58069-0.1543 0.73069-0.031566 0.15-0.065852 0.31218-0.076194 0.36039l-0.018803 0.087662-0.21479 0.00354zm0.73924-0.67711v-0.82468h0.72391v0.22078h-0.48277l0.00176 0.24188 0.00176 0.24188 0.41893 0.00343v0.2206h-0.42228v0.48036l0.47925 0.00342 0.00368 0.23701h-0.72425z" stroke-width=".0065974" fill="#000"/>
 </g>
</svg>
