<?xml version="1.0" encoding="UTF-8"?>
<svg id="svg2758" width="128" height="26" version="1.1" viewBox="232 508.37 128 26" xmlns="http://www.w3.org/2000/svg">
 <path id="path2754" d="m280.47 528.77v-15.183h2.1882v13.296h8.2933v1.887zm15.092 0v-5.8129l0.50328 1.3448-6.5865-10.715h2.3414l5.5361 9.0447h-1.2692l5.558-9.0447h2.1663l-6.5646 10.715 0.4814-1.3448v5.8129zm10.188 0v-15.183h5.9738q2.0131 0 3.4355 0.629 1.4223 0.62901 2.1882 1.822t0.76587 2.8414-0.76587 2.8414q-0.76587 1.1712-2.1882 1.8002-1.4223 0.62901-3.4355 0.62901h-4.7703l0.98469-0.99773v5.6177zm10.241 0-3.895-5.5092h2.3414l3.9388 5.5092zm-8.0526-5.4008-0.98469-1.0628h4.7046q2.1007 0 3.1729-0.88928 1.0941-0.91097 1.0941-2.5377t-1.0941-2.516q-1.0722-0.88929-3.1729-0.88929h-4.7046l0.98469-1.0845zm13.72 5.4008v-15.183h2.1882v15.183zm13.698 0.17352q-1.7506 0-3.2604-0.58562-1.488-0.58563-2.5821-1.6267-1.0941-1.0628-1.7068-2.4726-0.61269-1.4098-0.61269-3.08t0.61269-3.08q0.6127-1.4098 1.7068-2.451 1.0941-1.0628 2.5821-1.6484 1.488-0.58563 3.2604-0.58563 1.7506 0 3.2166 0.58563 1.488 0.56393 2.5821 1.6267 1.116 1.0411 1.7068 2.451 0.61269 1.4098 0.61269 3.1016t-0.61269 3.1016q-0.59081 1.4098-1.7068 2.4726-1.0941 1.0411-2.5821 1.6267-1.4661 0.56393-3.2166 0.56393zm0-1.9304q1.2692 0 2.3414-0.4338 1.0941-0.4338 1.8818-1.2146 0.80963-0.80252 1.2473-1.8653 0.45952-1.0628 0.45952-2.3208t-0.45952-2.3208q-0.43764-1.0628-1.2473-1.8436-0.78775-0.80252-1.8818-1.2363-1.0722-0.43379-2.3414-0.43379-1.291 0-2.3851 0.43379-1.0722 0.4338-1.8818 1.2363-0.80963 0.78084-1.2692 1.8436-0.43764 1.0628-0.43764 2.3208t0.43764 2.3208q0.45952 1.0628 1.2692 1.8653 0.80963 0.78083 1.8818 1.2146 1.0941 0.4338 2.3851 0.4338zm11.466 1.7569v-15.183h1.7943l10.131 12.472h-0.94092v-12.472h2.1882v15.183h-1.7943l-10.131-12.472h0.94092v12.472zm-79.853-9.5045c0.50976 0 0.923 0.40961 0.923 0.91491v2.3906c0 0.50527-0.41324 0.91492-0.923 0.91492-0.50975 0-0.92299-0.40965-0.92299-0.91492v-2.3906c0-0.5053 0.41324-0.91491 0.92299-0.91491zm-7.5669-2.3324c0.50976 0 0.92299 0.40961 0.92299 0.91492v7.0555c0 0.50528-0.41323 0.91492-0.92299 0.91492-0.50975 0-0.92297-0.40964-0.92297-0.91492v-7.0555c0-0.50531 0.41322-0.91492 0.92297-0.91492zm3.7835-5.2179c0.50975 0 0.92298 0.4096 0.92298 0.91488v17.491c0 0.50527-0.41323 0.91492-0.92298 0.91492-0.50976 0-0.92299-0.40965-0.92299-0.91492v-17.491c0-0.50528 0.41323-0.91488 0.92299-0.91488zm-7.5669 0.53672c0.50976 0 0.92299 0.40959 0.92299 0.91486v16.418c0 0.50529-0.41323 0.91488-0.92299 0.91488-0.50975 0-0.92299-0.40959-0.92299-0.91488v-16.418c0-0.50527 0.41324-0.91486 0.92299-0.91486zm-7.5669 2.4449c0.50975 0 0.92299 0.40959 0.92299 0.91488v11.528c0 0.5053-0.41324 0.91491-0.92299 0.91491s-0.92299-0.40961-0.92299-0.91491v-11.528c0-0.50529 0.41324-0.91488 0.92299-0.91488zm-3.7835 2.4449c0.50975 0 0.923 0.40964 0.923 0.91491v6.6381c0 0.50527-0.41325 0.91492-0.923 0.91492s-0.92299-0.40965-0.92299-0.91492v-6.6381c0-0.50527 0.41324-0.91491 0.92299-0.91491zm7.567-8.766c0.50975 0 0.92298 0.4096 0.92298 0.91488v24.17c0 0.50528-0.41323 0.91492-0.92298 0.91492-0.50977 0-0.923-0.40964-0.923-0.91492v-24.17c0-0.50528 0.41323-0.91488 0.923-0.91488zm-11.35 1.7294c0.50975 0 0.92298 0.40959 0.92298 0.91487v20.712c0 0.50529-0.41323 0.91489-0.92298 0.91489-0.50976 0-0.92299-0.4096-0.92299-0.91489v-20.712c0-0.50528 0.41323-0.91487 0.92299-0.91487zm-3.7835 4.5917c0.50976 0 0.92299 0.40959 0.92299 0.91488v11.528c0 0.5053-0.41323 0.91491-0.92299 0.91491-0.50975 0-0.92299-0.40961-0.92299-0.91491v-11.528c0-0.50529 0.41324-0.91488 0.92299-0.91488zm-3.7835 4.5917c0.50975 0 0.92299 0.4096 0.92299 0.91488v2.3445c0 0.50527-0.41324 0.91492-0.92299 0.91492s-0.92299-0.40965-0.92299-0.91492v-2.3445c0-0.50528 0.41324-0.91488 0.92299-0.91488z" fill="#000" stroke-width=".99026"/>
</svg>
