<?xml version="1.0" encoding="UTF-8"?>
<svg width="30" height="24" version="1.1" viewBox="0 0 7.9376 6.3501" xmlns="http://www.w3.org/2000/svg">
 <path id="path151" d="m7.2315 2.7455c0.09769 0 0.17688 0.083368 0.17688 0.18621v0.48654c0 0.10284-0.079193 0.18621-0.17688 0.18621-0.097689 0-0.17688-0.083373-0.17688-0.18621v-0.48654c0-0.10284 0.079191-0.18621 0.17688-0.18621zm-1.4501-0.47473c0.09769 0 0.17688 0.083368 0.17688 0.18621v1.436c0 0.10284-0.079191 0.18621-0.17688 0.18621-0.097688 0-0.17688-0.083373-0.17688-0.18621v-1.436c0-0.10284 0.079189-0.18621 0.17688-0.18621zm0.72505-1.062c0.097689 0 0.17688 0.083366 0.17688 0.1862v3.56c0 0.10284-0.07919 0.18621-0.17688 0.18621-0.09769 0-0.17688-0.083373-0.17688-0.18621v-3.56c0-0.10284 0.07919-0.1862 0.17688-0.1862zm-1.4501 0.10924c0.09769 0 0.17688 0.083361 0.17688 0.1862v3.3416c0 0.10284-0.07919 0.1862-0.17688 0.1862-0.097687 0-0.17688-0.083363-0.17688-0.1862v-3.3416c0-0.10284 0.079191-0.1862 0.17688-0.1862zm-1.4501 0.49761c0.097687 0 0.17688 0.083363 0.17688 0.1862v2.3464c0 0.10284-0.079192 0.18621-0.17688 0.18621-0.097687 0-0.17688-0.083368-0.17688-0.18621v-2.3464c0-0.10284 0.079191-0.1862 0.17688-0.1862zm-0.72505 0.49761c0.097687 0 0.17688 0.083373 0.17688 0.18621v1.351c0 0.10284-0.079196 0.18621-0.17688 0.18621-0.097687 0-0.17688-0.083372-0.17688-0.18621v-1.351c0-0.10284 0.079191-0.18621 0.17688-0.18621zm1.4501-1.7841c0.097687 0 0.17688 0.083366 0.17688 0.1862v4.9193c0 0.10284-0.07919 0.18621-0.17688 0.18621-0.09769 0-0.17688-0.083373-0.17688-0.18621v-4.9193c0-0.10284 0.07919-0.1862 0.17688-0.1862zm-2.1752 0.35198c0.097687 0 0.17688 0.083363 0.17688 0.1862v4.2154c0 0.10284-0.07919 0.1862-0.17688 0.1862-0.09769 0-0.17688-0.083366-0.17688-0.1862v-4.2154c0-0.10284 0.07919-0.1862 0.17688-0.1862zm-0.72505 0.93454c0.097688 0 0.17688 0.083363 0.17688 0.1862v2.3464c0 0.10284-0.07919 0.18621-0.17688 0.18621-0.097687 0-0.17688-0.083368-0.17688-0.18621v-2.3464c0-0.10284 0.079193-0.1862 0.17688-0.1862zm-0.72505 0.93454c0.097688 0 0.17688 0.083366 0.17688 0.1862v0.47718c0 0.10284-0.079193 0.18621-0.17688 0.18621-0.097688 0-0.17688-0.083373-0.17688-0.18621v-0.47718c0-0.10284 0.079193-0.1862 0.17688-0.1862z" fill="#000" stroke-width=".19557"/>
</svg>
