<?xml version="1.0" encoding="UTF-8"?>
<svg id="svg185" version="1.1" viewBox="0 0 24 24" xmlns="http://www.w3.org/2000/svg">
 <path id="path716" d="m22 11v2.2h-2.2857v6.05c0 1.518-1.28 2.75-2.8571 2.75s-2.8571-1.232-2.8571-2.75 1.28-2.75 2.8571-2.75c0.41143 0 0.78857 0.077 1.1429 0.231v-5.731zm-10.377-9c-5.314 0-9.623 4.2539-9.623 9.5 0 5.2461 4.309 9.5 9.623 9.5 0.44907 0 0.88779-0.04292 1.3262-0.0957-0.16038-0.475-0.25781-0.9605-0.25781-1.4883 0-2.2589 1.6038-4.1473 3.7422-4.6328v-5.3945h4.5664c-0.33124-1.4135-0.97281-2.7113-1.8594-3.8086l-2e-3 -0.00195c-0.4805-0.53746-0.97098-1.0049-1.5156-1.4688l0.0098 0.00195c-1.6573-1.33-3.7431-2.1113-6.0098-2.1113zm-0.62305 4h2v2h-2zm0 4h2v6h-2z" stroke-width="1.1212" fill="#000"/>
</svg>
