<?xml version="1.0" encoding="UTF-8"?>
<svg id="svg4" version="1.1" viewBox="0 0 24 24" xmlns="http://www.w3.org/2000/svg">
 <path id="path308" d="m11 8h2v-2h-2m0 10h2v-6h-2zm11-5v2.2h-2.2857v6.05c0 1.518-1.28 2.75-2.8571 2.75s-2.8571-1.232-2.8571-2.75 1.28-2.75 2.8571-2.75c0.41143 0 0.78857 0.077 1.1429 0.231v-5.731zm-9.2544 7.7939c-0.36354 0.06334-0.73776 0.095-1.1227 0.095-4.1379 0-7.4845-3.3039-7.4845-7.3889s3.3467-7.3889 7.4845-7.3889c3.3894 0 6.2549 2.2272 7.1745 5.2778h2.2026c-0.33146-1.4144-0.97299-2.7128-1.8604-3.8106l0.0023 0.00149c-0.4812-0.53834-0.88737-0.9658-1.4327-1.4302l-0.07723-0.038464c-1.6573-1.33-3.7423-2.1111-6.009-2.1111-5.314 0-9.623 4.2539-9.623 9.5 0 5.2461 4.3089 9.5 9.623 9.5 0.44907 0 0.88745-0.04222 1.3258-0.095-0.16038-0.475-0.25661-0.96056-0.25661-1.4883 0-0.21111 0.03207-0.41167 0.05346-0.62278" fill="#000"/>
</svg>
