<svg id="svg4" width="24" height="24" version="1.1" viewBox="0 0 24 24" xmlns="http://www.w3.org/2000/svg">
 <path id="path2" d="m16.28 13.785q0-0.5214-0.29514-0.94114t-0.75521-0.60523q-0.06076 0.39763-0.19965 0.81291-0.06076 0.21206-0.23872 0.33583-0.17795 0.12369-0.38628 0.12369-0.10417 0-0.20833-0.02657-0.2691-0.08837-0.39062-0.3402-0.12153-0.25192-0.03472-0.51694 0.19965-0.62743 0.19965-1.2637 0-1.0869-0.52951-2.0103-0.52952-0.9234-1.441-1.4625t-1.9792-0.53906q-1.1632 0-2.1441 0.64508-0.9809 0.64509-1.4497 1.7143 0.9375 0.24746 1.6319 0.93669 0.19097 0.20323 0.19097 0.486 0 0.28277-0.19097 0.47717t-0.46875 0.1944-0.47743-0.1944q-0.65104-0.66274-1.5625-0.66274-0.92014 0-1.5712 0.65829-0.65104 0.65837-0.65104 1.5951 0 0.9366 0.65104 1.595 0.65104 0.65828 1.5712 0.65828h9.0799q0.68576 0 1.1675-0.49037 0.48177-0.49046 0.48177-1.1797zm1.3281 0q0 1.2548-0.8724 2.1384t-2.105 0.88363h-9.0799q-1.467 0-2.5087-1.0559-1.0417-1.056-1.0417-2.5493 0-1.3521 0.86806-2.3594 0.86806-1.0074 2.1615-1.2018 0.53819-1.6259 1.9184-2.6332 1.3802-1.0074 3.0729-1.0074 2.0399 0 3.546 1.4006 1.5061 1.4006 1.7057 3.4419 1.0069 0.22088 1.671 1.0471 0.66406 0.82629 0.66406 1.8955zm2.1701 0q0 1.5464-0.84201 2.8188-0.19965 0.2916-0.55556 0.2916-0.20833 0-0.37326-0.11486-0.22569-0.15017-0.27778-0.42857-0.05208-0.27831 0.10417-0.50811 0.61632-0.91894 0.61632-2.0589t-0.61632-2.0589q-0.15625-0.22971-0.10417-0.50366 0.05208-0.27394 0.27778-0.43303 0.2257-0.159 0.49913-0.10157 0.27344 0.05743 0.42969 0.28714 0.84201 1.2548 0.84201 2.8101zm2.2222 0q0 2.1561-1.1632 3.9146-0.19965 0.30043-0.55556 0.30043-0.19965 0-0.36458-0.11486-0.2257-0.15909-0.28212-0.43303-0.05642-0.27394 0.09983-0.50366 0.9375-1.4492 0.9375-3.1635 0-1.7231-0.9375-3.1546-0.15625-0.2298-0.09983-0.50811 0.05642-0.2784 0.28212-0.42857 0.22569-0.15909 0.49479-0.10603 0.2691 0.05314 0.42535 0.2916 1.1632 1.7496 1.1632 3.9057z" stroke-width=".5" stroke="#000" fill="#000"/>
</svg>
