<?xml version="1.0" encoding="UTF-8"?>
<svg id="svg6" width="24" height="24" version="1.1" viewBox="0 0 24 24" xmlns="http://www.w3.org/2000/svg">
 <path id="path4" d="m4.4709 3.0801c-1.1987 0.47504-1.4551 2.032-0.99334 3.1169 0.56134 1.5876 1.2097 3.1991 2.2898 4.5113 0.50799 0.28856 0.85304-0.49701 1.2387-0.77154 0.3953-0.19049 0.13724-0.47227-0.020347-0.74001-0.61299-1.1633-1.4492-2.2816-1.5723-3.6249 0.26803-1.2563 1.5654 0.036182 2.3327-0.060868 0.82538 0.0021305 1.7386 0.04504 2.4731-0.37495-0.47909-0.80842-1.7428-1.0762-2.5907-1.5285-0.99055-0.41398-2.0767-0.77276-3.1575-0.5275zm11.784 0.75614c-0.39124 0.24219-1.7465 0.65829-1.2599 1.1564 1.0679-0.30403 0.35648 1.6516 1.342 0.94106 0.67449-0.27769 1.6687-1.045 2.3166-0.39108 0.21329 0.89286-0.40138 1.7286-0.79166 2.4876-1.0263 1.7901-2.4939 3.2706-3.6009 5.0031 0.59331 0.30411 1.7354 0.67685 2.3661 0.06373 1.616-1.6597 2.8672-3.6721 3.7419-5.8122 0.32886-1.0158 0.85354-2.2477 0.14128-3.2254-0.74388-1.0565-2.257-0.90601-3.3423-0.56895-0.31146 0.095406-0.61606 0.21252-0.9132 0.34576zm-4.8533 1.92c-0.94662 0.15087-1.9194 0.23492-2.8304 0.53944 0.11131 0.52483 0.72777 0.79419 1.1307 1.1226 0.16491 0.19395 0.78892 0.34287 0.3932 0.59182-2.4558 2.6165-5.0885 5.2215-6.4395 8.6138-0.41627 1.0935-1.09 2.4546-0.26503 3.5333 0.69134 1.0599 2.1632 0.94109 3.2192 0.60621 0.89349-0.31794 1.8589-0.63851 2.5418-1.3253 0.53588-0.7136-0.049928-2.2392-1.0669-1.4547-0.84806 0.3896-1.6499 1.0328-2.6088 1.079-0.82906-0.39108-0.10808-1.5191 0.13594-2.1158 1.5494-2.9409 3.9623-5.2628 6.2429-7.6326 0.62319 0.52683 1.2463 1.0537 1.8694 1.5807 0.48572-1.6926 0.67669-3.4651 0.66927-5.2221-0.17865-0.69017-1.3523 0.035854-1.9435-0.05805-0.34941 0.047279-0.69883 0.094443-1.0483 0.14151zm6.4845 7.9345c-0.22869 0.24461-0.45738 0.48922-0.68607 0.73383 0.66332 1.2558 1.5184 2.4462 1.8678 3.836-0.3456 1.0488-1.7649 0.18867-2.4369-0.10657-1.0216-0.52768-1.918-1.2522-2.8348-1.9375 0.56832-0.50106 1.1937-0.94526 1.7149-1.4931-0.31766-0.64779-1.5115-0.46722-2.1919-0.70161-0.93958-0.11701-1.8674-0.42586-2.819-0.39214-0.86335 0.44891-0.31596 1.6833-0.37788 2.4834 0.08933 1.0829 0.12252 2.1782 0.3241 3.2466 0.64939-0.24465 1.1001-0.86563 1.6214-1.322 0.20243-0.393 0.47463-0.12944 0.73726 0.04399 1.8701 1.136 3.7332 2.4748 5.9519 2.7784 0.88345 0.12736 2.0518-0.23427 2.1926-1.2446 0.29646-1.9828-0.77723-3.8059-1.6637-5.4943-0.30307-0.66412-0.82594-1.4103-1.3996-0.43039z" fill-rule="evenodd" stroke-width=".30487" fill="#000"/>
</svg>
