<svg width="24" height="24" fill="#000000" version="1.1" viewBox="0 0 32 32" xmlns="http://www.w3.org/2000/svg">
 <path id="path16" transform="scale(1.3333)" d="m11.977 3c-2.4746 0-4.7013 0.99931-6.2578 2.5957-1.0887-0.28548-1.9414-0.30859-1.9414-0.30859v2.5859c-1.0715 0.68186-1.7773 1.8414-1.7773 3.1563 0 1.3069 0.69705 2.4591 1.7578 3.1426 0.33741 3.8214 3.8877 6.8281 8.2187 6.8281 4.3197 0 7.8634-2.9917 8.2168-6.7988 1.088-0.67931 1.8066-1.8452 1.8066-3.1719 0-1.3149-0.7058-2.4744-1.7773-3.1563v-2.5859s-0.87067 0.023824-1.9766 0.31836c-1.5569-1.6021-3.7899-2.6055-6.2695-2.6055zm0 1.5547c1.7883 0 3.4227 0.61786 4.6816 1.6406-0.27722 0.13777-0.55118 0.29783-0.81445 0.48047-1.1132-0.68564-2.4406-1.0859-3.8672-1.0859-1.4163 0-2.7336 0.39378-3.8418 1.0703-0.26567-0.18253-0.54282-0.34119-0.82227-0.47852 1.2565-1.0143 2.884-1.627 4.6641-1.627zm-6.6055 2.5039c1.2858 0.2656 2.2294 0.97423 2.6973 1.3965 1.0948-0.74189 2.4449-1.1816 3.9082-1.1816 1.4634 0 2.8154 0.43975 3.9102 1.1816 0.46793-0.4222 1.4114-1.1309 2.6973-1.3965v6.3008c0 3.3614-2.959 6.0859-6.6074 6.0859-3.6482 0-6.6055-2.7246-6.6055-6.0859v-6.3008zm1.6406 6.0859c0.22775 1.8561 1.7774 2.0273 1.7773 2.0273l2.6875 0.087891c-0.18222-2.2878-2.0508-2.0723-2.0508-2.0723l-2.4141-0.042969zm9.8867 0-2.6895 0.085938c-5.8e-5 0-1.5476 0.17324-1.7754 2.0293l2.4141-0.042969s1.8686 0.21554 2.0508-2.0723zm-6.9258 2.8906c0.50122 0.60428 2.0508 1.166 2.0508 1.166 0 0 1.5027-0.56173 2.0039-1.166h-4.0547zm0.45508 1.4688c-0.27329 0.1295-0.45508 0.68945-0.45508 0.68945 0.41009 0.34535 1.5522 0.51953 2.0508 0.51953 0.49853 0 1.549-0.17419 1.959-0.51953 0 0-0.18362-0.55996-0.45703-0.68945 0 0-0.48398 0.25781-1.502 0.25781-1.0181 0-1.5957-0.25781-1.5957-0.25781z" fill="#000"/>
</svg>
