<svg width="24" height="24" version="1.1" viewBox="0 0 24 24" xmlns="http://www.w3.org/2000/svg">
 <path id="path2147" d="m19.548 16-1.1799-1.1966c1.2134-1.2221 1.9582-2.9279 1.9582-4.8034 0-1.884-0.74477-3.5813-1.9582-4.8034l1.1799-1.1966c1.5146 1.5361 2.4519 3.6577 2.4519 6 0 2.3423-0.93724 4.4639-2.4519 6m-2.3682-2.4017-1.1799-1.1966c0.60251-0.61103 0.97908-1.4597 0.97908-2.4017 0-0.94201-0.37657-1.7907-0.97908-2.4017l1.1799-1.1966c0.91213 0.92504 1.4728 2.198 1.4728 3.5983 0 1.4003-0.56067 2.6733-1.4728 3.5983m-2.1799-3.2983c-0.48006 0.22-0.99852 0.38-1.5362 0.44 0.55687-0.34 0.97932-0.88 1.1713-1.54-0.51846 0.32-1.0945 0.54-1.6898 0.68-0.48006-0.54-1.1713-0.88-1.9394-0.88-1.4786 0-2.6691 1.24-2.6691 2.78 0 0.22 0.019202 0.42 0.07681 0.64-2.2275-0.12-4.2053-1.24-5.5111-2.92-0.23043 0.4-0.36484 0.88-0.36484 1.4 0 0.96 0.46086 1.82 1.1905 2.32-0.44165-0.02-0.8449-0.14-1.2097-0.34v0.02c0 1.34 0.92171 2.46 2.1315 2.72-0.23043 0.06-0.46086 0.1-0.71049 0.1-0.17282 0-0.34564-0.02-0.49926-0.04 0.34564 1.1 1.325 1.9 2.4963 1.92-0.90251 0.74-2.0547 1.2-3.3028 1.2-0.21123 0-0.42245-0.02-0.63368-0.04 1.1905 0.8 2.5923 1.24 4.0901 1.24 4.8966 0 7.5849-4.24 7.5849-7.9v-0.36c0.49926-0.4 0.96012-0.88 1.325-1.44z" fill="#000"/>
</svg>
