<svg width="24" height="24" version="1.1" viewBox="0 0 24 24" xml:space="preserve" xmlns="http://www.w3.org/2000/svg">
<g id="g6" transform="matrix(.043478 0 0 .038159 .86969 2.2281)">
 <path id="path2" d="m479.1 173.22c-9.248-97.152-96.544-173.22-198.66-173.22h-232.45c-8.832 0-16 7.168-16 16v480c0 8.832 7.168 16 16 16h112c17.632 0 32-14.336 32-32v-96h96c53.984 0 105.79-22.944 142.14-62.848 36.8-40.544 54.176-93.088 48.96-147.94zm-72.672 126.37c-30.272 33.312-73.44 52.416-118.43 52.416h-112c-8.832 0-16 7.168-16 16v112h-96v-448h216.45c85.792 0 159.07 63.36 166.75 144.22 4.384 45.792-10.08 89.6-40.768 123.36z" stroke="#000" fill="#000" stroke-width="25"/>
</g>
</svg>
