<svg id="svg6" width="24" height="24" version="1.1" viewBox="0 0 24 24" xmlns="http://www.w3.org/2000/svg">
 <path id="path4-6" d="m15.333 14.5c-1.5533 0-2.8592 1.0718-3.2292 2.5227h-10.104v1.6818h10.104c0.36994 1.4509 1.6759 2.5227 3.2292 2.5227 1.5533 0 2.8592-1.0718 3.2292-2.5227h3.4375v-1.6818h-3.4375c-0.36994-1.4509-1.6759-2.5227-3.2292-2.5227zm-6.7533-6c1.5533 0 2.8592 1.0718 3.2292 2.5227h10.104v1.6818h-10.104c-0.36994 1.4509-1.6759 2.5227-3.2292 2.5227-1.5533 0-2.8592-1.0718-3.2292-2.5227h-3.4375v-1.6818h3.4375c0.36994-1.4509 1.6759-2.5227 3.2292-2.5227zm6.753-5.75c-1.5533 0-2.8592 1.0718-3.2292 2.5227h-10.104v1.6818h10.104c0.36994 1.4509 1.6759 2.5227 3.2292 2.5227s2.8592-1.0718 3.2292-2.5227h3.4375v-1.6818h-3.4375c-0.36994-1.4509-1.6759-2.5227-3.2292-2.5227z" fill="#000"/>
</svg>
