<svg id="svg4" width="24" height="24" version="1.1" viewBox="0 0 24 24" xmlns="http://www.w3.org/2000/svg">
 <path id="path2" d="m20.486 19c0-0.8-0.7-1.5-1.5-1.5s-1.5 0.7-1.5 1.5 0.7 1.5 1.5 1.5 1.5-0.7 1.5-1.5zm3.3 1.4c0.1 0 0.1 0.1 0 0.2l-1 1.7c-0.1 0.1-0.2 0.1-0.3 0.1l-1.2-0.4c-0.3 0.2-0.5 0.3-0.8 0.5l-0.2 1.3c0 0.1-0.1 0.2-0.2 0.2h-2c-0.1 0-0.2-0.1-0.3-0.2l-0.2-1.3c-0.3-0.1-0.6-0.3-0.8-0.5l-1.2 0.5c-0.1 0-0.2 0-0.3-0.1l-1-1.7c-0.1-0.1 0-0.2 0.1-0.3l1.1-0.8v-1l-1.1-0.8c-0.1-0.1-0.1-0.2-0.1-0.3l1-1.7c0.1-0.1 0.2-0.1 0.3-0.1l1.2 0.5c0.3-0.2 0.5-0.3 0.8-0.5l0.2-1.3c0-0.1 0.1-0.2 0.3-0.2h2c0.1 0 0.2 0.1 0.2 0.2l0.2 1.3c0.3 0.1 0.6 0.3 0.9 0.5l1.2-0.5c0.1 0 0.3 0 0.3 0.1l1 1.7c0.1 0.1 0 0.2-0.1 0.3l-1.1 0.8v1l1.1 0.8m-16.786-18.4h10c1.1 0 2 0.9 2 2v8.0867c-1.1079 0.21236-1.1329-0.06307-2.7 0.63363-0.39664-1.6876-2.5-2.7203-4.3-2.7203-2.8 0-5 2.2-5 5s2.2 5 5 5h0.22002c0.18764 0.77191 0.31407 1.264 0.67361 2h-5.8936c-1.1 0-2-0.9-2-2v-16c0-1.1 0.9-2 2-2m5 5.9999c1.1 0 2-0.9 2-2s-0.9-2-2-2-2 0.9-2 2 0.9 2 2 2m0 10c0.2 0 0.06003 0 0.26002-0.1 0.06854-1.7157 1.0534-3.1628 2.1332-4.1471-0.24356-1.1313-1.0932-1.8529-2.3932-1.8529-1.7 0-3 1.3-3 3s1.3 3.1 3 3.1" fill="#000"/>
</svg>
