<svg id="svg4" width="24" height="24" version="1.1" viewBox="0 0 24 24" xmlns="http://www.w3.org/2000/svg">
 <path id="path12" d="m17.041 16.8c0.65536 0 1.196 0.528 1.196 1.232 0 0.64-0.54067 1.168-1.196 1.168-0.72089 0-1.2616-0.528-1.2616-1.168 0-0.704 0.54067-1.232 1.2616-1.232zm-0.85196-2.8c-0.13107 0-0.19661 0.064-0.19661 0.192l-0.21299 1.008c-0.18022 0.144-0.44237 0.272-0.63897 0.4l-1.0486-0.4c-0.06553 0-0.19661 0-0.26214 0.08l-0.78643 1.408c-0.06553 0.064-0.06553 0.192 0.06553 0.256l0.85196 0.656v0.8l-0.85196 0.656c-0.06553 0.064-0.13107 0.192-0.06553 0.256l0.78643 1.408c0.06553 0.08 0.19661 0.08 0.26214 0.08l1.0486-0.4c0.19661 0.128 0.45875 0.256 0.63897 0.4l0.21299 1.008c0 0.128 0.06553 0.192 0.19661 0.192h1.6384c0.06553 0 0.19661-0.064 0.19661-0.192l0.13107-1.008c0.26214-0.144 0.52429-0.272 0.72089-0.4l0.99942 0.4c0.11469 0 0.24576 0 0.24576-0.08l0.85196-1.408c0.06553-0.064 0-0.192-0.06553-0.256l-0.85197-0.656v-0.8l0.85196-0.656c0.06553-0.064 0.13107-0.192 0.06553-0.256l-0.85196-1.408c0-0.08-0.13107-0.08-0.24576-0.08l-0.99942 0.4c-0.19661-0.128-0.45875-0.256-0.72089-0.4l-0.13107-1.008c0-0.128-0.13107-0.192-0.19661-0.192h-1.6384m-6.1888 4c0.2 0 0.96741 0 1.1674-0.1 0.06854-1.7157 0.55282-2.9438 1.6326-3.9281-0.4-1.1-1.5-2.0719-2.8-2.0719-1.7 0-3 1.3-3 3s1.3 3.1 3 3.1m0-10c1.1 0 2-0.9 2-2s-0.9-2-2-2-2 0.9-2 2 0.9 2 2 2m-5-6h10c1.1 0 2 0.9 2 2v8.118c-1.1079 0.21236-0.56968-0.09436-2.7 0.82136-0.39664-1.6876-2.5-2.9393-4.3-2.9393-2.8 0-5 2.2-5 5s2.2 5 5 5h1.409c0.18764 0.77191 0.62696 1.264 0.9865 2h-7.3955c-1.1 0-2-0.9-2-2v-16c0-1.1 0.9-2 2-2" stroke-width=".80954" fill="#000"/>
</svg>
