<svg id="svg364" version="1.1" viewBox="0 0 24 24" xmlns="http://www.w3.org/2000/svg">
 <path id="path549" d="m12 2a10 10 0 0 0-10 10 10 10 0 0 0 10 10 10 10 0 0 0 10-10 10 10 0 0 0-10-10zm0 2c4.41 0 8 3.59 8 8 0 4.41-3.59 8-8 8-4.41 0-8-3.59-8-8 0-4.41 3.59-8 8-8zm2.8887 2v2h-1.623l-5.334 6h-1.9316v2h2.666l5.334-6h0.88867v2l3.1113-3-3.1113-3zm0 6v2h-0.88867l-1.1504-1.293-1.2559 1.4121 1.6719 1.8809h1.623v2l3.1113-3-3.1113-3zm-8.8887-4v2h1.9316l1.1504 1.293 1.2559-1.4121-1.6719-1.8809h-2.666z" fill="#000"/>
</svg>
