<?xml version="1.0" encoding="UTF-8"?>
<svg id="svg1" version="1.1" viewBox="0 0 24 24" xmlns="http://www.w3.org/2000/svg">
 <path id="path6" d="m12 2a10 10 0 0 0-10 10 10 10 0 0 0 10 10 10 10 0 0 0 10-10 10 10 0 0 0-10-10zm0.10156 2.1016c4.2717 0 7.7461 3.4744 7.7461 7.7461h-1.291c0-3.5577-2.8974-6.4551-6.4551-6.4551v-1.291zm-1.9023 3.8984c0.696 0 1.3648 0.35257 1.8008 0.90625 0.436-0.55368 1.1048-0.90625 1.8008-0.90625 1.232 0 2.1992 1.0513 2.1992 2.3984 0 1.6436-1.3599 2.9894-3.4199 5.0254l-0.58008 0.57617-0.58008-0.57617c-2.06-2.036-3.4199-3.3818-3.4199-5.0254 0-1.3471 0.96722-2.3984 2.1992-2.3984zm-5.9473 4.252h1.291c-1e-7 3.5577 2.8974 6.4551 6.4551 6.4551v1.291c-4.2717 0-7.7461-3.4744-7.7461-7.7461z" fill="#000"/>
</svg>
