<svg id="svg81" width="24" height="24" version="1.1" viewBox="0 0 24 24" xmlns="http://www.w3.org/2000/svg">
 <g id="g4" transform="matrix(.042918 0 0 .044613 -.71245 -.52063)">
  <path id="path2" d="m422.5 462.7c-18.3 11.8-38.4 21-60.4 27.8s-45.1 10.1-69.5 10.1c-32.9 0-63.4-5.8-91.5-17.4s-52.3-27.3-72.6-47.3c-20.3-19.9-36.3-43.3-47.9-70.1s-17.4-55.5-17.4-86v-1.2c0-30.5 5.8-59.3 17.4-86.3s27.8-50.6 48.5-70.8c20.7-20.1 45.1-36 73.2-47.6s58.6-17.4 91.5-17.4 63.4 5.8 91.5 17.4 52.3 27.4 72.6 47.3 36.3 43.3 47.9 70.1 17.4 55.5 17.4 86v1.2c0 22.8-3.3 44.5-9.8 65.3-6.5 20.7-15.9 39.9-28.1 57.3l43.9 37.2-59.8 66.5zm-128.9-67.1c15.1 0 29.6-2.6 43.5-7.9l-59.2-50.6 59.8-67.1 58 52.5c4.5-12.6 6.7-26.4 6.7-41.5v-1.2c0-15.5-2.6-30.2-7.9-44.2s-12.8-26.4-22.6-37.2-21.5-19.3-35.1-25.6-28.6-9.5-44.8-9.5c-16.3 0-31 3.2-44.2 9.5s-24.6 14.7-34.2 25.3-16.9 22.8-22 36.6-7.6 28.5-7.6 43.9v1.2c0 15.5 2.6 30.2 8 44.2 5.3 14 12.8 26.3 22.4 36.9s21.1 19 34.6 25.3c13.4 6.3 28.3 9.4 44.6 9.4z" fill="#000"/>
 </g>
</svg>
