<svg id="svg81" width="24" height="24" version="1.1" viewBox="0 0 24 24" xmlns="http://www.w3.org/2000/svg">
 <g id="g6" transform="matrix(.0089644 0 0 -.0088993 1.9372 22)">
  <path id="path4" d="m971 2239c-152-18-352-94-487-187-225-153-395-405-456-674-16-72-21-126-21-238 0-203 31-340 115-505 183-364 541-595 948-612 237-10 450 47 648 173 29 19 56 34 61 34 4 0 56-52 115-115l108-115 116 111c65 61 118 117 120 124s-49 62-113 122l-116 110 37 54c222 325 244 785 54 1137-58 107-126 196-217 283-246 234-564 338-912 298zm395-104c204-51 333-125 484-275 112-111 176-207 229-336 86-212 100-446 40-665-26-95-105-258-163-334l-45-60 117-117 116-118-59-52c-32-29-62-53-66-53-3 0-135 126-293 279-279 271-304 302-297 351 4 27 37 62 66 69 40 10 69-9 172-114l100-102 32 44c43 58 106 189 127 263 21 78 30 274 15 359-59 339-318 604-655 672-124 26-294 15-416-24-282-92-497-330-556-617-20-96-15-299 10-390 38-142 152-319 264-414 105-87 250-156 382-181 131-25 342-6 462 41 58 23 62 23 55 5-3-7 3-20 14-29 10-9 19-23 19-31s7-16 15-20c8-3 15-12 15-20s7-19 17-24c29-17 6-38-78-70-323-124-696-74-970 129-518 383-570 1127-111 1571 259 251 615 349 958 263zm-54-260c32-10 55-22 52-26-3-5 0-9 6-9 8 0 8-6 0-20-6-11-8-25-5-30 4-6 0-13-8-16-9-3-18-17-21-32-16-65-39-132-47-132-5 0-9-7-9-15 0-9-7-27-16-40s-13-28-10-34c4-6-8-6-31 1-40 11-196 6-227-7-14-6-17-5-12 4 8 12-80 202-96 209-4 2-8 12-8 22s-7 26-16 34c-14 15-14 16 0 16 26 0 18 17-11 25l-28 8 42 19c111 49 321 60 445 23zm-47-445c62-30 125-94 156-157 19-40 24-64 24-138 0-111-21-163-94-234-156-152-423-108-517 85-32 66-44 179-24 240 31 99 111 183 204 216 72 26 184 20 251-12z" fill="#000"/>
 </g>
</svg>
