<svg width="24" height="24" version="1.1" viewBox="0 0 24 24" xmlns="http://www.w3.org/2000/svg">
 <path d="m12 10a2 2 0 0 1 2 2c0 0.5-0.18 0.94-0.47 1.29l3.17 8.71h-2.13l-2.57-7.07-2.57 7.07h-2.13l3.17-8.71c-0.29-0.35-0.47-0.79-0.47-1.29a2 2 0 0 1 2-2m0-2a4 4 0 0 0-4 4c0 0.5 0.1 1 0.28 1.46l-0.88 2.4c-0.87-1.05-1.4-2.39-1.4-3.86a6 6 0 0 1 6-6 6 6 0 0 1 6 6c0 1.47-0.53 2.81-1.4 3.86l-0.88-2.4c0.18-0.46 0.28-0.96 0.28-1.46a4 4 0 0 0-4-4m0-4a8 8 0 0 0-8 8c0 2.36 1 4.5 2.64 5.94l-0.72 2c-2.38-1.83-3.92-4.71-3.92-7.94a10 10 0 0 1 10-10 10 10 0 0 1 10 10c0 3.23-1.54 6.11-3.92 7.94l-0.72-2c1.64-1.44 2.64-3.58 2.64-5.94a8 8 0 0 0-8-8z" fill="#000"/>
</svg>
