<svg id="svg20" width="24" height="24" version="1.1" viewBox="0 0 24 24" xml:space="preserve" xmlns="http://www.w3.org/2000/svg">
<path id="path18" d="m11.807 12.017c-0.33005 0.0724-0.60785 0.33007-0.8114 0.75204-0.0908 0.18661-0.16228 0.38855-0.25579 0.72139-0.04533 0.16155-0.13616 0.47211-0.20079 0.69075-0.11 0.37741-0.18153 0.61973-0.40295 1.3718-0.24067 0.81748-0.29431 0.99992-0.40432 1.3718-0.06333 0.21864-0.23792 0.81052-0.38645 1.316-0.14852 0.50553-0.3218 1.0946-0.38507 1.3091-0.37544 1.2729-0.46071 1.5667-0.46071 1.582 0 0.03627 0.1128 0.16573 0.20079 0.23257 0.42495 0.32171 1.2487 0.52643 2.4809 0.61833 0.30943 0.02227 1.3464 0.02227 1.6572 0 1.3656-0.1016 2.2348-0.34537 2.5827-0.72556 0.0592-0.06547 0.0784-0.09613 0.0784-0.12813 0-0.0236-0.43733-1.5347-0.97092-3.3591-0.5336-1.8244-0.9888-3.3772-1.0094-3.4496-0.02067-0.0724-0.07013-0.24232-0.11-0.37601-0.03987-0.13369-0.09627-0.32727-0.1252-0.43033-0.19116-0.65732-0.36169-1.0013-0.61611-1.2436-0.18704-0.17965-0.37269-0.26043-0.61887-0.27017-0.09907-0.0027-0.17603 0.0013-0.24204 0.01667zm-0.16927-6.4868c-0.70862 0.098774-1.3789 0.5655-1.6873 1.1716-0.67005 1.3241 0.1977 2.8414 1.7403 3.0432 1.504 0.19306 2.8058-1.0235 2.5743-2.4149-0.1977-1.1759-1.3644-1.9796-2.6274-1.8zm4.0591-1.5575c-0.22181 0.076326-0.30861 0.14367-0.40023 0.30081-0.11091 0.20204-0.08197 0.36816 0.10126 0.60591 0.27486 0.3502 0.63629 1.0863 0.75684 1.5216 0.09162 0.34571 0.11091 0.52061 0.11091 1.212 0 0.68673-0.01929 0.86632-0.11091 1.203-0.14466 0.54305-0.34719 0.97407-0.66522 1.4228-0.24592 0.3502-0.26521 0.39959-0.24592 0.58346 0.05304 0.4353 0.64594 0.6553 1.1474 0.42183 0.1977-0.0898 0.72791-0.64632 0.97866-1.019 1.2485-1.8673 0.95937-4.4977-0.6558-5.943-0.39979-0.35449-0.64572-0.43081-1.017-0.30959zm-7.8676-0.022449c-0.23146 0.053877-0.3279 0.11673-0.6604 0.44428-1.7644 1.7461-1.7548 4.7803 0.028932 6.5087 0.35683 0.3502 0.5061 0.42652 0.82435 0.42652 0.29897 0 0.52538-0.10326 0.65076-0.29632 0.15431-0.23347 0.12537-0.37714-0.16395-0.78101-0.30379-0.43081-0.52078-0.89325-0.66522-1.4363-0.091619-0.33673-0.11091-0.51612-0.11091-1.203 0-0.70468 0.014466-0.86183 0.11573-1.212 0.13502-0.48918 0.39541-1.0235 0.69898-1.4363 0.25075-0.34122 0.27486-0.49816 0.12537-0.72713-0.14948-0.22898-0.5256-0.35918-0.84364-0.28734zm10.779-1.9212c-0.24592 0.067346-0.37108 0.16163-0.46292 0.34122-0.13502 0.2604-0.07715 0.45775 0.25557 0.85734 0.92561 1.1177 1.4558 2.2532 1.6535 3.5506 0.07715 0.5251 0.02893 1.7057-0.09644 2.2263-0.26521 1.1177-0.75684 2.0694-1.5571 3.0389-0.3325 0.39938-0.39037 0.59693-0.25535 0.85734 0.1543 0.3053 0.54467 0.43979 0.96419 0.32326 0.22664-0.05837 0.30861-0.11673 0.67487-0.48469 0.22664-0.22898 0.55432-0.59693 0.72309-0.81693 0.35683-0.45795 0.92561-1.4902 1.104-2.002 0.51574-1.4812 0.51574-3.0345 0.0048-4.5516-0.17357-0.50714-0.74236-1.5486-1.0944-2.0065-0.38094-0.48918-0.95937-1.0863-1.1908-1.2255-0.20713-0.12571-0.49645-0.16612-0.72309-0.10775zm-13.682-0.0089795c-0.086797 0.022449-0.20735 0.067346-0.27486 0.10775-0.18806 0.11673-0.82917 0.7855-1.1619 1.221-0.35683 0.45795-0.92561 1.4902-1.104 2.002-0.89668 2.5808-0.21195 5.3548 1.8273 7.3883 0.36648 0.36367 0.44845 0.42632 0.67487 0.48469 0.41952 0.11673 0.80988-0.01796 0.96419-0.32326 0.13502-0.2604 0.077153-0.45795-0.25557-0.85734-0.87257-1.0504-1.3885-2.1143-1.6101-3.3081-0.12537-0.69122-0.10126-1.8314 0.053042-2.4777 0.26521-1.1088 0.83882-2.2083 1.6439-3.142 0.25075-0.28734 0.29897-0.53407 0.15431-0.77203-0.14948-0.25592-0.569-0.39959-0.91115-0.32326z" fill="#000"/></svg>
