<?xml version="1.0" encoding="UTF-8"?>
<svg id="svg1" version="1.1" viewBox="0 0 24 24" xmlns="http://www.w3.org/2000/svg">
 <path id="path19" d="m12 5.9881c-3.8766 0-7.0195 3.2489-7.0195 7.2559 0 4.0077 3.1429 7.2559 7.0195 7.2559 3.8764 0 7.0176-3.2481 7.0176-7.2559 0-4.0069-3.1412-7.2559-7.0176-7.2559zm-0.29297 0.57227v3.6152c-0.85434-0.015463-1.621-0.12114-2.2734-0.25977-0.20166-0.043188-0.39625-0.089085-0.58398-0.13867 0.4059-1.5353 0.97489-2.5814 1.1621-2.9023 0.53793-0.17995 1.1066-0.28726 1.6953-0.31445zm0.58594 0c0.07788 0.00347 0.15532 0.00701 0.23242 0.013671 0.52555 0.71128 1.244 1.9765 1.1465 3.4785-0.47784 0.06931-0.93846 0.10554-1.3789 0.11914zm-3.1387 0.67383c-0.26329 0.54625-0.59848 1.3568-0.86719 2.3789-0.5271-0.16609-0.98483-0.34891-1.3613-0.51953 0.5975-0.77819 1.3579-1.4176 2.2285-1.8594zm-2.5801 2.3633c0.42162 0.19648 0.95064 0.41245 1.5703 0.60547-0.01702 0.07891-0.03453 0.15946-0.05078 0.24023-0.16633 0.82778-0.25627 1.6625-0.27148 2.498h-2.2891c0.02708-0.62063 0.13589-1.2194 0.31641-1.7852 0.17639-0.55479 0.42109-1.0779 0.72461-1.5586zm8.3672 0.66992h2.25v1.4453h-1.5v3.6094c0 0.79806-0.67125 1.4453-1.5 1.4453-0.82875 0-1.5-0.64726-1.5-1.4453 0-0.79806 0.67125-1.4434 1.5-1.4434 0.27375 0 0.52875 0.07644 0.75 0.19922zm-6.2324 0.09766c0.1867 0.04932 0.38192 0.09575 0.58203 0.13867 0.80018 0.17195 1.6078 0.26552 2.416 0.28125v2.1562h-3.2949c0.01547-0.8835 0.1159-1.6754 0.25-2.3496 0.01547-0.07625 0.03089-0.15192 0.04688-0.22656zm4.875 0.31641c-0.15705 0.72221-0.51879 1.4853-1.1836 2.2598h-0.10742v-2.1582c0.39223-0.01013 0.7851-0.04017 1.1758-0.08789 0.03817-0.0045 0.07681-0.0081 0.11524-0.01367zm-8.0508 2.8652h2.291c0.01006 0.40549 0.03808 0.8129 0.08398 1.2168 0.05802 0.5076 0.14553 1.0126 0.25977 1.5156-0.62973 0.19462-1.167 0.41165-1.5938 0.61133-0.30352-0.4804-0.54822-1.0038-0.72461-1.5586-0.18051-0.56572-0.28933-1.1645-0.31641-1.7852zm2.8809 0h3.293v0.13281c-0.02089 0.02319-0.04213 0.04517-0.0625 0.06836-0.01702 0.01946-0.03376 0.03913-0.05078 0.05859-0.0196 0.02213-0.03925 0.0457-0.05859 0.06836-0.01753 0.02026-0.0335 0.04029-0.05078 0.06055-0.0085 0.01013-0.0174 0.0197-0.02539 0.0293-0.01857 0.02239-0.03664 0.04454-0.05469 0.06641-0.01547 0.01946-0.02997 0.03913-0.04492 0.05859-0.07453 0.09411-0.14687 0.18821-0.21289 0.28125-0.0294 0.04079-0.05691 0.08226-0.08399 0.12305-0.01341 0.01946-0.02643 0.0386-0.03906 0.05859v0.0019h-2e-3l-2e-3 2e-3c-0.01289 0.01973-0.02473 0.03913-0.03711 0.05859-0.01289 0.02053-0.02643 0.04224-0.03906 0.0625-0.01289 0.02026-0.02525 0.04055-0.03711 0.06055-0.01238 0.02026-0.02473 0.04055-0.03711 0.06055-0.0116 0.02-0.02355 0.04002-0.03516 0.06055-0.0116 0.02026-0.02433 0.04029-0.03516 0.06055-0.0077 0.0136-0.01426 0.026-0.02148 0.03906-0.0077 0.0144-0.0157 0.02911-0.02344 0.04297-0.0067 0.01253-0.01257 0.02458-0.01953 0.03711-0.01599 0.02986-0.03218 0.05998-0.04687 0.08984-0.01238 0.02319-0.02407 0.04712-0.03516 0.07031-0.0031 0.0067-0.0072 0.01287-0.0098 0.01953-0.0095 0.01973-0.01858 0.03966-0.02734 0.05859-0.01238 0.02586-0.02381 0.052-0.03516 0.07813-0.0018 0.0043-0.0038 0.0091-0.0059 0.01367-0.0075 0.01733-0.01426 0.03345-0.02148 0.05078-0.01109 0.02533-0.02237 0.05111-0.0332 0.07617-0.01006 0.02506-0.01976 0.05085-0.0293 0.07617-0.0077 0.01946-0.01426 0.03798-0.02148 0.05664l-2e-3 0.0019v0.0019c-7e-3 0.01893-0.01309 0.03629-0.01953 0.05469-0.0075 0.01946-0.01452 0.0394-0.02148 0.05859-0.0057 0.01706-0.0119 0.03345-0.01758 0.05078-0.37418 0.04505-0.74585 0.10832-1.1172 0.1875-0.19083 0.04106-0.3765 0.08643-0.55469 0.13281-0.2038-0.90927-0.29965-1.7731-0.32208-2.5702zm1.8379 2.8828c-0.0046 0.02559-0.01006 0.05031-0.01367 0.07617-0.0041 0.02559-0.0084 0.05253-0.01172 0.07813-0.0036 0.02586-0.0064 0.05058-0.0098 0.07617-0.0026 0.02533-0.0055 0.05111-0.0078 0.07617-0.0049 0.05039-0.0069 0.10027-0.0098 0.15039-0.0028 0.04985-0.0048 0.09965-0.0059 0.14844-0.0013 0.04932-0.0027 0.09743-2e-3 0.14648 0.0015 0.07945 6e-3 0.15902 0.01172 0.23633 0.0021 0.02559 0.0033 0.05058 0.0059 0.07617 0.0015 0.02026 0.0035 0.04028 0.0059 0.06055 0.0021 0.02026 0.0047 0.04197 0.0078 0.0625 0.0021 0.01786 0.0052 0.03514 0.0078 0.05274 0.0023 0.01786 0.0052 0.03487 0.0078 0.05273 0.01341 0.08798 0.02831 0.17446 0.04687 0.25977 0.0036 0.0168 0.0076 0.03399 0.01172 0.05078 8e-3 0.03386 0.01637 0.06629 0.02539 0.09961 8e-3 0.03333 0.01585 0.06709 0.02539 0.09961 0.0044 0.01626 0.01073 0.03256 0.01563 0.04883l0.01367 0.04883c0.0049 0.016 0.01098 0.03141 0.01563 0.04687l0.01562 0.04687c0.0054 0.01546 0.01021 0.03088 0.01563 0.04687 0.01083 0.03119 0.0216 0.06283 0.0332 0.09375 0.0057 0.01546 0.01191 0.02919 0.01758 0.04492 0.01186 0.02986 0.02447 0.05972 0.03711 0.08984 0.0062 0.01466 0.01308 0.02999 0.01953 0.04492 0.01109 0.02586 0.02186 0.052 0.0332 0.07813 0.0077 0.01733 0.01519 0.03372 0.02344 0.05078 0.01289 0.02746 0.02591 0.05511 0.03906 0.08203 0.0021 4e-3 0.0043 8e-3 0.0059 0.01172 9e-3 0.01733 0.01832 0.03398 0.02734 0.05078 0.01057 0.02106 0.02016 0.04171 0.03125 0.0625 0.01057 0.01973 0.02186 0.04055 0.0332 0.06055 0.01057 0.01973 0.02016 0.03913 0.03125 0.05859 0.0075 0.01306 0.0157 0.026 0.02344 0.03906 0.01367 0.02319 0.02658 0.04543 0.04101 0.06836 0.01006 0.01626 0.02068 0.03425 0.03125 0.05078l2e-3 0.0019c0.01547 0.02426 0.02919 0.04712 0.04492 0.07031 0.01289 0.02026 0.02709 0.04224 0.04102 0.0625 0.0052 0.0083 0.01165 0.01544 0.01758 0.02344 0.01754 0.02613 0.03494 0.05138 0.05274 0.07617 0.0077 0.01093 0.0157 0.0228 0.02344 0.0332 0.0077 0.01093 0.01765 0.02085 0.02539 0.03125 0.0147 0.01946 0.02801 0.03966 0.04297 0.05859 0.02037 0.02613 0.04213 0.05085 0.0625 0.07617 0.01006 0.0128 0.02093 0.02485 0.03125 0.03711 0.01805 0.02159 0.03494 0.04224 0.05273 0.0625-0.4224-0.05065-0.83135-0.14281-1.2246-0.27344-0.52013-1.0048-0.88868-1.9815-1.1406-2.9141 0.17768-0.04612 0.36073-0.09087 0.55078-0.13086 0.25504-0.05438 0.52928-0.10232 0.81836-0.14258zm-1.9375 0.43555c0.22126 0.81445 0.51652 1.6203 0.88477 2.4121-0.88915-0.44308-1.6656-1.0905-2.2734-1.8828 0.38243-0.17355 0.84997-0.36054 1.3887-0.5293zm13.685-3.408c0 1.4204-0.72669 2.6313-1.7456 3.096-0.28805 0.13116-0.59956 0.20315-0.92422 0.20315h-0.45205c0.50672-1.0587 0.79142-2.2514 0.79142-3.5124 0-1.0941-0.21429-2.1368-0.60188-3.085h0.26252c0.09748 0 0.19289 0.0064 0.28727 0.01893-1.3593-3.49-4.2632-5.9067-7.6176-5.9067s-6.2581 2.4167-7.6174 5.9067c0.09438-0.01253 0.19031-0.01893 0.28753-0.01893h0.26226c-0.38759 0.94828-0.60214 1.9909-0.60214 3.085 0 1.261 0.28469 2.4537 0.79168 3.5124h-0.4518c-0.32518 0-0.63669-0.07198-0.92474-0.20315-1.0191-0.46468-1.7453-1.6756-1.7453-3.096 0-1.2999 0.6091-2.4252 1.4944-2.9621 0.45231-1.3743 1.1318-2.6358 2.0156-3.7161 1.7311-2.1144 4.0357-3.2789 6.4899-3.2789 2.4545 0 4.7596 1.1645 6.4899 3.2789 0.88425 1.0802 1.5638 2.3418 2.0156 3.7161v2.66e-4c0.88528 0.53692 1.4946 1.662 1.4946 2.9619" stroke-width=".2622" fill="#000"/>
</svg>
