<?xml version="1.0" encoding="UTF-8"?>
<svg id="svg20" width="24" height="24" version="1.1" viewBox="0 0 24 24" xml:space="preserve" xmlns="http://www.w3.org/2000/svg">
<path id="path2" d="m4.93 2c-1.81 1.81-2.93 4.31-2.93 7.07 0 2.76 1.12 5.26 2.93 7.07l1.41-1.41c-1.45-1.44-2.34-3.44-2.34-5.66 0-2.21 0.89-4.22 2.34-5.66l-1.41-1.41m14.14 0-1.41 1.41c1.45 1.44 2.34 3.45 2.34 5.66 0 2.22-0.89 4.22-2.34 5.66l1.41 1.41c1.81-1.81 2.93-4.31 2.93-7.07 0-2.76-1.12-5.26-2.93-7.07m-11.31 2.83c-1.09 1.09-1.76 2.59-1.76 4.24 0 1.65 0.67 3.15 1.76 4.24l1.41-1.41c-0.72-0.72-1.17-1.72-1.17-2.83 0-1.11 0.45-2.11 1.17-2.83l-1.41-1.41m8.48 0-1.41 1.41c0.72 0.72 1.17 1.72 1.17 2.83 0 1.11-0.45 2.11-1.17 2.83l1.41 1.41c1.09-1.09 1.76-2.59 1.76-4.24 0-1.65-0.67-3.15-1.76-4.24m-4.24 2.24a2 2 0 0 0-2 2 2 2 0 0 0 2 2 2 2 0 0 0 2-2 2 2 0 0 0-2-2zm-0.193 5.9458c-0.33005 0.06516-0.60785 0.29706-0.8114 0.67684-0.0908 0.16795-0.16228 0.3497-0.25579 0.64925-0.04533 0.1454-0.13616 0.4249-0.20079 0.62168-0.11 0.33967-0.18153 0.55776-0.40295 1.2346-0.24067 0.73573-0.29431 0.89993-0.40432 1.2346-0.06333 0.19678-0.23792 0.72947-0.38645 1.1844-0.14852 0.45498-0.3218 0.98514-0.38507 1.1782-0.37544 1.1456-0.46071 1.41-0.46071 1.4238 0 0.03264 0.1128 0.14916 0.20079 0.20931 0.42495 0.28954 1.2487 0.47379 2.4809 0.5565 0.30943 0.02004 1.3464 0.02004 1.6572 0 1.3656-0.09144 2.2348-0.31083 2.5827-0.653 0.0592-0.05892 0.0784-0.08652 0.0784-0.11532 0-0.02124-0.43733-1.3812-0.97092-3.0232-0.5336-1.642-0.9888-3.0395-1.0094-3.1046-0.02067-0.06516-0.07013-0.21809-0.11-0.33841-0.03987-0.12032-0.09627-0.29454-0.1252-0.3873-0.19116-0.59159-0.36169-0.90117-0.61611-1.1192-0.18704-0.16168-0.37269-0.23439-0.61887-0.24315-0.09907-0.0024-0.17603 0.0012-0.24204 0.015z" fill="#000"/></svg>
