<svg id="svg2" width="24" height="24" version="1.1" viewBox="0 0 24 24" xmlns="http://www.w3.org/2000/svg">
 <g id="g10">
  <g id="g903" transform="matrix(.077377 0 0 .077329 34.051 4.2581)">
   <path id="path905" d="m-303.6 227.63c-16.55-4.6126-29.526-15.294-36.551-30.089l-4.1154-8.6667v-50.667c0-50.664 1.7e-4 -50.667 3.209-57.771l3.209-7.1041 31.433 31.351 0.40799 37.429c0.59925 54.974-3.1473 51.637 57.387 51.122l42.313-0.35998 10.041-10.041 0.38475-43.039 0.38474-43.039-3.078-4.6068c-5.9807-8.9512-7.7428-9.2691-51.401-9.2714-41.005-0.0027-46.386 0.67089-50.653 6.3365-1.5033 1.9957-5.9914-2.0416-39.486-35.521-34.26-34.244-38.047-37.634-40.55-36.295-3.5072 1.877-13.627 1.907-18.515 0.05492-8.1786-3.0988-15.028-13.389-15.028-22.578 0-17.606 19.801-29.568 35.601-21.507 10.32 5.265 15.73 18.36 12.003 29.052l-1.9328 5.5446 48.438 48.385 6.583-3.2603c3.6207-1.7932 9.7626-3.9248 13.649-4.7371 9.4857-1.9826 89.731-1.9803 99.202 0.0028 10.058 2.1061 24.076 9.8149 30.479 16.762 3.0148 3.2706 7.3801 9.9544 9.7008 14.853l4.2194 8.9061 0.41236 46.387c0.44807 50.405-0.0257 54.791-7.252 67.121-4.0771 6.957-14.417 16.711-21.597 20.374-12.204 6.2259-17.877 6.7916-66.844 6.6648-32.514-0.0841-47.817-0.61084-52.053-1.7914zm-2.083-86.756c-7.2e-4 -19.8 0.18484-28.086 0.41234-18.413 0.22751 9.6728 0.2281 25.873 1e-3 36-0.22679 10.127-0.41294 2.2131-0.41364-17.587zm-39.996-3.3333c0-20.9 0.18431-29.45 0.40959-19 0.22527 10.45 0.22527 27.55 0 38-0.22528 10.45-0.40959 1.9-0.40959-19z" stroke-width="1.3333" fill="#000"/>
  </g>
 </g>
</svg>
