<?xml version="1.0" encoding="UTF-8"?>
<svg id="svg24" width="24" height="24" version="1.2" viewBox="0 0 24 24" xmlns="http://www.w3.org/2000/svg">
 <path id="path4" d="m11.801 3.502c-2.427 0.068088-4.6898 1.5731-5.9414 3.9375-0.059008 0.029007-0.11767 0.075341-0.17188 0.13672-0.55123 0.61755-0.91571 1.3644-1.082 2.2402-0.06177 0.32562-0.086459 0.66752-0.10547 0.83594 0.00327 0.33109 0.025707 0.64339 0.068359 0.93945-0.44383 0.33861-0.63726 0.83719-0.58984 1.4941 0.028512 0.39298 0.047398 0.78084 0.066406 1.1738 0.090288 1.5832 0.1672 3.1707 0.28125 4.7539 0.033264 0.48842 0.19952 0.85479 0.49414 1.1074 0.18533 0.18526 0.41774 0.31275 0.69336 0.36328 0.37066 0.06736 0.76872-0.099674 1.0586-0.41406 0.29938-0.28632 0.47604-0.72374 0.45703-1.2402-0.028512-0.64-0.07136-1.276-0.10938-1.916h-0.0097657c0-0.0014-0.0015031-0.002606-0.0019531-0.003906 0.039444 0.0064 0.080144 0.009766 0.12109 0.009766 0.4847 0 0.87891-0.46472 0.87891-1.043 0-0.57264-0.3942-1.0391-0.87891-1.0391-0.077425 0-0.15313 0.011313-0.22461 0.033203-0.031508-0.61393-0.063018-1.2301-0.097656-1.8477-0.028516-0.54459-0.18071-1.0218-0.53711-1.3867-0.24796-0.25183-0.54034-0.34685-0.86133-0.33984-0.016065-0.15154-0.025391-0.30606-0.025391-0.46484 0-0.17463 0.012141-0.34429 0.03125-0.50976 0.0085319-0.073885 0.016992-0.14864 0.029297-0.2207 0.063362-0.37105 0.17825-0.7164 0.33984-1.0391 0.085171 0.45266 0.28492 0.67446 0.60352 0.69922 0.39442 0.02807 0.64181-0.21911 0.75586-0.76367 0.30888-1.4709 1.1123-2.4354 2.2812-2.9688 1.5159-0.70176 3.0742-0.73012 4.6328-0.23047 1.5016 0.4772 2.6234 1.4652 3.0273 3.3516 0.07128 0.31439 0.32927 0.51636 0.61914 0.5332 0.27086 0.01684 0.52182-0.15729 0.64062-0.44922 8.77e-4 -0.0022454 0.001084-0.0055561 0.001953-0.0078125 0.24242 0.50923 0.36719 1.0777 0.36719 1.7051 0 0.11745-0.004864 0.23222-0.013672 0.3457-0.82144 0.18302-1.2429 0.71104-1.2969 1.6406-0.03299 0.6459-0.069716 1.3246-0.10742 1.9766-0.10034-0.04727-0.20981-0.074219-0.32422-0.074219-0.4847 0-0.87891 0.46667-0.87891 1.0449 0 0.57264 0.3942 1.0391 0.87891 1.0391 0.07184 0 0.1421-0.01195 0.20898-0.03125-0.03319 0.65367-0.076783 1.3073-0.095703 1.9609-0.0047 0.20772 0.020251 0.42656 0.082031 0.62305 0.20909 0.6793 0.83601 1.1245 1.4062 1.0234 0.7033-0.12351 1.179-0.74138 1.2266-1.5723 0.1093-1.9649 0.20737-3.9355 0.32617-5.9004 0.042393-0.69001-0.20932-1.1706-0.67188-1.5234 0.025839-0.23404 0.040449-0.47738 0.042968-0.73242-0.019009-0.16842-0.041755-0.51032-0.10352-0.83594-0.15953-0.84013-0.50336-1.5616-1.0176-2.1641-1.1968-2.5101-3.5168-4.1783-6.1152-4.25-0.11935-0.00329-0.23894-0.003519-0.35938 0zm-1.3926 7.8242c-0.10395-0.0056-0.20437 0.038231-0.28516 0.13086-0.15682 0.18526-0.15184 0.45488 0.009765 0.67383 0.06177 0.07859 0.12852 0.15212 0.18555 0.23633 0.91238 1.2463 1.2727 2.6903 1.0684 4.3184-0.14256 1.106-0.55516 2.0485-1.2109 2.8457-0.1283 0.1572-0.21386 0.32451-0.14258 0.55469 0.11405 0.3593 0.45628 0.40985 0.71289 0.089843 0.52747-0.64562 0.9264-1.3852 1.1973-2.2891 0.06177 0.18526 0.10482 0.30227 0.15234 0.42578 0.26136 0.72422 0.62721 1.3583 1.0977 1.9141 0.13306 0.15158 0.29911 0.23704 0.45117 0.11914 0.1093-0.08421 0.21426-0.26419 0.22852-0.41016 0.01425-0.12912-0.086341-0.29788-0.17188-0.41016-0.75081-0.95439-1.188-2.0767-1.2402-3.3848-0.06177-1.5439 0.37642-2.8691 1.2793-3.9863 0.18533-0.23018 0.19393-0.50053 0.03711-0.69141-0.16632-0.19649-0.41428-0.18501-0.59961 0.050781-0.20909 0.27509-0.42157 0.54474-0.58789 0.85352-0.24235 0.44351-0.44156 0.92075-0.66016 1.3867-0.01901-0.05053-0.04459-0.11842-0.06836-0.19141-0.26611-0.78035-0.64948-1.4637-1.1484-2.0645-0.09266-0.10948-0.20074-0.16626-0.30469-0.17188zm-1.1289 1.1016c-0.13729-0.0064-0.26181 0.07452-0.33398 0.23242-0.11405 0.25825-0.034615 0.45341 0.12695 0.63867 0.61301 0.70176 0.93164 1.5556 0.93164 2.5605 0 0.98808-0.3142 1.8356-0.9082 2.543-0.099792 0.12351-0.18835 0.31937-0.18359 0.47656 0.0095 0.13474 0.15132 0.34302 0.25586 0.37109 0.13306 0.02807 0.33771-0.038105 0.4375-0.15039 0.78408-0.88141 1.1693-1.9771 1.1836-3.4199-0.01901-0.16842-0.043698-0.51032-0.10547-0.83594-0.16632-0.8758-0.53275-1.6227-1.084-2.2402-0.099793-0.11298-0.21353-0.17079-0.32031-0.17578zm5.3398 0c-0.10678 5e-3 -0.21857 0.062791-0.31836 0.17578-0.55123 0.61755-0.91766 1.3644-1.084 2.2402-0.06177 0.32562-0.086459 0.66752-0.10547 0.83594 0.01425 1.4428 0.39952 2.5385 1.1836 3.4199 0.09979 0.11228 0.30444 0.17846 0.4375 0.15039 0.1093-0.02807 0.24636-0.23636 0.25586-0.37109 0.0047-0.15719-0.085753-0.35305-0.18555-0.47656-0.594-0.70737-0.90625-1.5549-0.90625-2.543 0-1.0049 0.31863-1.8588 0.93164-2.5605 0.16157-0.18526 0.241-0.38042 0.12695-0.63867-0.07217-0.1579-0.19864-0.23884-0.33594-0.23242zm-11.535 0.81055c-0.17639 0.0033-0.33683 0.093843-0.45117 0.26367-0.19483 0.2807-0.39383 0.6009-0.47461 0.94336-0.25661 1.1228-0.18044 2.25 0.076172 3.3672 0.1093 0.46035 0.23749 0.89263 0.66992 1.1172 0.28037 0.14035 0.51878 0.1794 0.77539-0.00586 0.21384-0.15158 0.32676-0.43683 0.3125-0.73438-0.033264-0.65685-0.065238-1.3136-0.09375-1.875-0.014256-0.3986-0.023961-0.69684-0.042969-1-0.019008-0.44912-0.038155-0.90439-0.076172-1.3535-0.028512-0.32562-0.18115-0.56521-0.44727-0.67188-0.084645-0.03508-0.16787-0.052291-0.24805-0.050781zm17.834 0c-0.07962-0.0015-0.16294 0.015691-0.24609 0.050781-0.27086 0.10667-0.42266 0.34626-0.45117 0.67188-0.03802 0.44913-0.052402 0.90439-0.076172 1.3535-0.01425 0.30316-0.023959 0.6014-0.042969 1-0.02851 0.56141-0.060479 1.2182-0.09375 1.875-0.01425 0.33123 0.094691 0.58914 0.3418 0.75195 0.2471 0.16281 0.47998 0.12302 0.74609-0.011718 0.43243-0.22456 0.56538-0.65683 0.66992-1.1172 0.25661-1.1172 0.33278-2.2444 0.076172-3.3672-0.07603-0.34246-0.28062-0.66266-0.4707-0.94336-0.11761-0.16983-0.27796-0.26036-0.45312-0.26367zm-12.777 0.29688c-0.10999-4.9e-5 -0.21422 0.057444-0.28906 0.16797-0.13781 0.20211-0.11834 0.4556 0.052734 0.64648 0.052272 0.06175 0.11374 0.11793 0.16602 0.17969 0.32314 0.3593 0.48828 0.80236 0.48828 1.3301 0 0.57825-0.17922 1.0164-0.58789 1.4375-0.23285 0.2414-0.27596 0.49419-0.11914 0.71875 0.14731 0.21895 0.38434 0.22423 0.61719-0.005859 0.71755-0.69617 0.988-1.5993 0.83594-2.666-0.10454-0.70176-0.40729-1.2801-0.90625-1.7012-0.08316-0.07123-0.17227-0.10738-0.25781-0.10742zm7.627 0.003906c-0.10632-0.0028-0.223 0.051787-0.3418 0.16406-0.57024 0.55579-0.85515 1.2738-0.87891 1.998-0.0047 0.98808 0.33184 1.8248 0.89258 2.3301 0.23285 0.21895 0.46708 0.2026 0.61914-0.033203 0.14256-0.22456 0.094439-0.48198-0.12891-0.69531-0.80309-0.76351-0.80228-2.1112-0.003907-2.8691 0.23285-0.21895 0.27511-0.48833 0.12305-0.71289-0.07841-0.1179-0.17492-0.17883-0.28125-0.18164z" stroke-width=".051651" fill="#000"/>
</svg>
