<svg id="svg8" width="24" height="24" version="1.1" viewBox="0 0 6.35 6.35" xmlns="http://www.w3.org/2000/svg">
 <g id="layer1" transform="translate(0,-290.65)">
  <g id="text825-3" transform="rotate(-14.914 .092367 -.35505)" stroke="#000" stroke-opacity=".99606" stroke-width=".17" aria-label="r">
   <path id="path906" d="m-74.108 283.26 0.70487-0.0417v0.48507q0.09474-0.26148 0.24632-0.4017 0.15537-0.144 0.34485-0.144 0.15916 0 0.2539 0.0872 0.09474 0.0834 0.09474 0.22738 0 0.12126-0.06821 0.19705-0.06821 0.0758-0.17432 0.0758-0.09474 0-0.15916-0.0606-0.06063-0.0606-0.06063-0.15916 0-0.0568 0.01516-0.091 0.01516-0.0379 0.05684-0.0872-0.2539 0.0303-0.4017 0.3638-0.07579 0.17053-0.11369 0.38654-0.03411 0.21222-0.03411 0.43959v0.19706q0 0.0606 0.0076 0.0985 0.01137 0.0341 0.04169 0.0568 0.03411 0.0189 0.09095 0.0265 0.05684 4e-3 0.15158 4e-3h0.07958v0.14401h-1.0611v-0.14401h0.01895q0.09474 0 0.15158-4e-3 0.06063-8e-3 0.09095-0.0265 0.03032-0.0227 0.04169-0.0568 0.01137-0.0379 0.01137-0.0985v-1.1066q0-0.0644-0.0076-0.10232-0.0038-0.0417-0.02274-0.0606-0.01516-0.0227-0.04926-0.0303-0.03032-8e-3 -0.08716-8e-3h-0.16295zm1.4247 4.3257 0.05707-3.4928 0.31044 0.0137-0.01025 0.2346c0.0772-0.0886 0.16286-0.15348 0.25697-0.19474 0.09415-0.0424 0.20686-0.0607 0.3381-0.0549 0.17163 8e-3 0.32133 0.0539 0.44911 0.13905 0.12778 0.0851 0.22194 0.20171 0.28248 0.34973 0.06059 0.14688 0.08713 0.30645 0.0796 0.47872-0.0081 0.18472-0.05258 0.34968-0.13353 0.49485-0.07964 0.14409-0.19185 0.25269-0.33666 0.32578-0.1435 0.0721-0.29286 0.10459-0.44808 0.0977-0.11358-5e-3 -0.21486-0.0311-0.30384-0.0781-0.08772-0.047-0.15917-0.10468-0.21434-0.17298l-0.05672 1.8602zm0.32572-2.5663c-0.01015 0.23233 0.03471 0.40634 0.1346 0.52203 0.09989 0.11569 0.22429 0.17682 0.3732 0.1834 0.15144 7e-3 0.28329-0.0448 0.39556-0.15456 0.11358-0.11081 0.17565-0.28691 0.1862-0.5283 0.01005-0.23006-0.03541-0.40466-0.13642-0.52381-0.09974-0.11909-0.22281-0.18186-0.3692-0.18833-0.14513-6e-3 -0.27652 0.0491-0.39419 0.16653-0.11635 0.11637-0.17961 0.29072-0.18976 0.52304z" stroke="#000" stroke-opacity="1" stroke-width=".15" fill="#000"/>
  </g>
  <ellipse id="path863" transform="matrix(.99077 .13555 -.22601 .97413 0 0)" cx="69.783" cy="291.87" rx="2.3741" ry="2.3187" fill="none" stroke="#000" stroke-linejoin="round" stroke-opacity="1" stroke-width=".6"/>
 </g>
</svg>
