<svg id="svg4" width="24" height="24" version="1.1" viewBox="0 0 24 24" xmlns="http://www.w3.org/2000/svg">
 <path id="path2" d="m12.076 10.285a1.7407 1.7407 0 0 1 1.7407 1.7407c0 0.43517-0.15666 0.81812-0.40906 1.1227l2.759 7.5807h-1.8538l-2.2368-6.1533-2.2368 6.1533h-1.8538l2.759-7.5807c-0.2524-0.30462-0.40906-0.68757-0.40906-1.1227a1.7407 1.7407 0 0 1 1.7407-1.7407m0-1.7407a3.4814 3.4814 0 0 0-3.4814 3.4814c0 0.43517 0.087034 0.87034 0.2437 1.2707l-0.7659 2.0888c-0.7572-0.91386-1.2185-2.0801-1.2185-3.3595a5.222 5.222 0 0 1 5.222-5.222 5.222 5.222 0 0 1 5.222 5.222c0 1.2794-0.46128 2.4457-1.2185 3.3595l-0.7659-2.0888c0.15666-0.40036 0.2437-0.83553 0.2437-1.2707a3.4814 3.4814 0 0 0-3.4814-3.4814m0-3.4814a6.9627 6.9627 0 0 0-6.9627 6.9627c0 2.054 0.87034 3.9165 2.2977 5.1698l-0.62664 1.7407c-2.0714-1.5927-3.4117-4.0993-3.4117-6.9105a8.7034 8.7034 0 0 1 8.7034-8.7034 8.7034 8.7034 0 0 1 8.7034 8.7034c0 2.8112-1.3403 5.3178-3.4117 6.9105l-0.62664-1.7407c1.4274-1.2533 2.2977-3.1158 2.2977-5.1698a6.9627 6.9627 0 0 0-6.9627-6.9627z" stroke-width=".87034" fill="#000"/>
</svg>
