<?xml version="1.0" encoding="UTF-8"?>
<svg id="svg4" width="24" height="24" version="1.1" viewBox="0 0 24 24" xmlns="http://www.w3.org/2000/svg">
 <path id="path420" d="m11.221 3c-0.67 0-1.2207 0.5507-1.2207 1.2207v3.7793h6v6h3.7793c0.67 0 1.2207-0.5507 1.2207-1.2207v-8.5586c0-0.67-0.5507-1.2207-1.2207-1.2207zm1.1562 1.2109c0.02098-0.00106 0.04125 0 0.0625 0a1.23 1.23 0 0 1 1.2305 1.2285c0 0.68-0.55047 1.2305-1.2305 1.2305s-1.2285-0.55047-1.2285-1.2305c0-0.65875 0.51553-1.1956 1.166-1.2285zm6.1621 0c0.68-0.01 1.2302 0.53852 1.2402 1.2285 0 0.68-0.53875 1.2205-1.2188 1.2305s-1.2302-0.5407-1.2402-1.2207c-0.01-0.68 0.53875-1.2283 1.2188-1.2383zm0 6.1094c0.68-0.01 1.2302 0.54024 1.2402 1.2402-0.01 0.67-0.54875 1.2088-1.2188 1.2188-0.68 0.01-1.2302-0.53875-1.2402-1.2188s0.53875-1.2302 1.2188-1.2402zm-14.318-0.32031c-0.67 0-1.2207 0.5507-1.2207 1.2207v8.5586c0 0.67 0.5507 1.2207 1.2207 1.2207h8.5586c0.67 0 1.2207-0.5507 1.2207-1.2207v-8.5586a1.22 1.22 0 0 0-1.2207-1.2207zm3.5684 1.75c0.52578 0 0.9723 0.17772 1.3418 0.55273 0.36948 0.38437 0.55273 0.81602 0.55273 1.3223 0 0.52032-0.18325 0.96055-0.55273 1.3262-0.36947 0.36561-0.81597 0.54883-1.3418 0.54883-0.51156 0-0.9475-0.18318-1.3359-0.54883-0.37895-0.36562-0.55859-0.80585-0.55859-1.3262 0-0.50624 0.17965-0.9379 0.55859-1.3223 0.38842-0.37499 0.82433-0.55273 1.3359-0.55273zm3.5527 2.8125h1.6582v0.9375h-0.94727v2.5781a1.1842 1.1719 0 0 1-1.1836 1.1719 1.1842 1.1719 0 0 1-1.1855-1.1719 1.1842 1.1719 0 0 1 1.1855-1.1719c0.17053 0 0.32583 0.03203 0.47266 0.09766zm-3.5527 1.875c0.47367 0 0.9709 0.07577 1.5156 0.20703-0.38368 0.40781-0.56836 0.88518-0.56836 1.4336 0 0.41718 0.11809 0.81097 0.36914 1.1719h-5.1055v-0.9375c0-0.55781 0.43199-1.0075 1.2988-1.3496 0.86683-0.34687 1.6992-0.52539 2.4902-0.52539z" fill="#000"/>
</svg>
