<?xml version="1.0" encoding="UTF-8"?>
<svg id="svg4" width="24" height="24" version="1.1" viewBox="0 0 24 24" xmlns="http://www.w3.org/2000/svg">
 <path id="path420" d="m11.221 3c-0.67 0-1.2207 0.5507-1.2207 1.2207v3.7793h6v6h3.7793c0.67 0 1.2207-0.5507 1.2207-1.2207v-8.5586c0-0.67-0.5507-1.2207-1.2207-1.2207zm1.1562 1.2109c0.02098-0.00106 0.04125 0 0.0625 0a1.23 1.23 0 0 1 1.2305 1.2285c0 0.68-0.55047 1.2305-1.2305 1.2305s-1.2285-0.55047-1.2285-1.2305c0-0.65875 0.51553-1.1956 1.166-1.2285zm6.1621 0c0.68-0.01 1.2302 0.53852 1.2402 1.2285 0 0.68-0.53875 1.2205-1.2188 1.2305s-1.2302-0.5407-1.2402-1.2207c-0.01-0.68 0.53875-1.2283 1.2188-1.2383zm0 6.1094c0.68-0.01 1.2302 0.54024 1.2402 1.2402-0.01 0.67-0.54875 1.2088-1.2188 1.2188-0.68 0.01-1.2302-0.53875-1.2402-1.2188s0.53875-1.2302 1.2188-1.2402zm-14.318-0.32031c-0.67 0-1.2207 0.5507-1.2207 1.2207v8.5586c0 0.67 0.5507 1.2207 1.2207 1.2207h8.5586c0.67 0 1.2207-0.5507 1.2207-1.2207v-8.5586a1.22 1.22 0 0 0-1.2207-1.2207zm5.418 1c0.55367 0 1.0749 0.19244 1.3613 0.51562 0.35639 0.40091 0.26108 0.91705-0.24805 1.2402l-1.3984 0.90234v1.4336c1.4255 0 2.6465 0.79737 2.6465 1.7383 0 1.1577-1.3546 1.9434-2.6465 1.9434v0.20312c0 0.56864-0.73265 1.0234-1.5918 1.0234h-0.95508v-0.81836h0.95508c0.17183 0 0.31836-0.09871 0.31836-0.20508v-0.24805c-1.2346-0.13909-2.3049-0.67585-2.7949-1.4531-0.57913-0.90409-0.25956-1.9395 0.79688-2.6309l1.998-1.2969v-1.3242c0-0.45818 0.46502-0.86769 1.1523-0.98633 0.12092-0.02455 0.27261-0.037109 0.40625-0.037109zm0.021484 0.82422c-0.034505-0.0013-0.068513-2.76e-4 -0.10352 0.0059-0.13365 0.02455-0.20312 0.09927-0.20312 0.19336v0.50195l0.50781-0.35156c0.10182-0.06546 0.12715-0.16818 0.050781-0.25-0.052503-0.06137-0.14844-0.09577-0.25195-0.09961zm-1.5801 2.6523-1.1074 0.75c-0.70005 0.45818-0.90478 1.1371-0.5293 1.7344 0.29911 0.46636 0.91758 0.8011 1.6367 0.92383v-1.248l-1.248-0.21289c0.16547-0.41727 0.63073-0.86709 1.248-1.1289zm1.2734 1.4082v2.0703c0.57913 0 1.3867-0.40909 1.3867-1.125 0-0.495-0.64212-0.94531-1.3867-0.94531z" fill="#000"/>
</svg>
