<?xml version="1.0" encoding="UTF-8"?>
<svg id="svg4" width="24" height="24" version="1.1" viewBox="0 0 24 24" xmlns="http://www.w3.org/2000/svg">
 <path id="path420" d="m11.221 3c-0.67 0-1.2207 0.5507-1.2207 1.2207v3.7793h6v6h3.7793c0.67 0 1.2207-0.5507 1.2207-1.2207v-8.5586c0-0.67-0.5507-1.2207-1.2207-1.2207zm1.1562 1.2109c0.02098-0.00106 0.04125 0 0.0625 0a1.23 1.23 0 0 1 1.2305 1.2285c0 0.68-0.55047 1.2305-1.2305 1.2305s-1.2285-0.55047-1.2285-1.2305c0-0.65875 0.51553-1.1956 1.166-1.2285zm6.1621 0c0.68-0.01 1.2302 0.53852 1.2402 1.2285 0 0.68-0.53875 1.2205-1.2188 1.2305s-1.2302-0.5407-1.2402-1.2207c-0.01-0.68 0.53875-1.2283 1.2188-1.2383zm0 6.1094c0.68-0.01 1.2302 0.54024 1.2402 1.2402-0.01 0.67-0.54875 1.2088-1.2188 1.2188-0.68 0.01-1.2302-0.53875-1.2402-1.2188s0.53875-1.2302 1.2188-1.2402zm-14.318-0.32031c-0.67 0-1.2207 0.5507-1.2207 1.2207v8.5586c0 0.67 0.5507 1.2207 1.2207 1.2207h8.5586c0.67 0 1.2207-0.5507 1.2207-1.2207v-8.5586a1.22 1.22 0 0 0-1.2207-1.2207zm4.2793 1a4.5 4.5 0 0 1 4.5 4.5 4.5 4.5 0 0 1-4.5 4.5 4.5 4.5 0 0 1-4.5-4.5 4.5 4.5 0 0 1 4.5-4.5zm0.044922 0.94531v0.58203c1.601 0 2.9063 1.3033 2.9063 2.9043h0.58008c0-1.9223-1.5641-3.4863-3.4863-3.4863zm-0.044922 1.5293c-1.125 0-2.0254 0.90039-2.0254 2.0254s0.90039 2.0254 2.0254 2.0254 2.0254-0.90039 2.0254-2.0254-0.90039-2.0254-2.0254-2.0254zm0 1.5762a0.45 0.45 0 0 1 0.44922 0.44922 0.45 0.45 0 0 1-0.44922 0.44922 0.45 0.45 0 0 1-0.44922-0.44922 0.45 0.45 0 0 1 0.44922-0.44922zm-3.4863 0.5625c0 1.9223 1.5641 3.4863 3.4863 3.4863v-0.58203c-1.601 0-2.9062-1.3033-2.9062-2.9043z" fill="#000"/>
</svg>
