<?xml version="1.0" encoding="UTF-8"?>
<svg id="svg4" width="24" height="24" version="1.1" viewBox="0 0 24 24" xmlns="http://www.w3.org/2000/svg">
 <path id="path420" d="m11.221 3c-0.67 0-1.2207 0.5507-1.2207 1.2207v3.7793h6v6h3.7793c0.67 0 1.2207-0.5507 1.2207-1.2207v-8.5586c0-0.67-0.5507-1.2207-1.2207-1.2207zm1.1562 1.2109c0.02098-0.00106 0.04125 0 0.0625 0a1.23 1.23 0 0 1 1.2305 1.2285c0 0.68-0.55047 1.2305-1.2305 1.2305s-1.2285-0.55047-1.2285-1.2305c0-0.65875 0.51553-1.1956 1.166-1.2285zm6.1621 0c0.68-0.01 1.2302 0.53852 1.2402 1.2285 0 0.68-0.53875 1.2205-1.2188 1.2305s-1.2302-0.5407-1.2402-1.2207c-0.01-0.68 0.53875-1.2283 1.2188-1.2383zm0 6.1094c0.68-0.01 1.2302 0.54024 1.2402 1.2402-0.01 0.67-0.54875 1.2088-1.2188 1.2188-0.68 0.01-1.2302-0.53875-1.2402-1.2188s0.53875-1.2302 1.2188-1.2402zm-14.318-0.32031c-0.67 0-1.2207 0.5507-1.2207 1.2207v8.5586c0 0.67 0.5507 1.2207 1.2207 1.2207h8.5586c0.67 0 1.2207-0.5507 1.2207-1.2207v-8.5586a1.22 1.22 0 0 0-1.2207-1.2207zm1.2793 1h1v0.90039h4v-0.90039h1v0.90039h0.5a1 0.9 0 0 1 1 0.90039v6.2988a1 0.9 0 0 1-1 0.90039h-7a1 0.9 0 0 1-1-0.90039v-6.2988c0-0.495 0.445-0.90039 1-0.90039h0.5zm-0.5 3.1504v4.9492h7v-4.9492zm1 0.90039h1v0.89844h-1zm2 0h1v0.89844h-1zm2 0h1v0.89844h-1z" fill="#000"/>
</svg>
