<svg id="svg17" width="24" height="24" version="1.1" viewBox="0 0 24 24" xmlns="http://www.w3.org/2000/svg" xmlns:cc="http://creativecommons.org/ns#" xmlns:dc="http://purl.org/dc/elements/1.1/" xmlns:rdf="http://www.w3.org/1999/02/22-rdf-syntax-ns#">
 <path id="surface1" d="m8.3502 2c0.081731 0.12192 0.24993 0.23904 0.086466 0.39972-0.20373-0.16069-0.41062-0.28101-0.9006-0.36215 0.12319 0.11992 0.31902 0.24023 0.19741 0.36215-0.24558-0.079945-0.52473-0.15909-0.85164-0.19986 0.16346 0.16069 0.2823 0.28101 0.1603 0.36215-0.24479-0.11992-0.64436-0.20426-1.0115-0.12471l0.23453 0.24983c0.039877 0.040372-0.57092 0.037174-0.93772 0.037174 0.12161 0.20146 0.28822 0.40292 0.36995 0.7247-0.039878 0.040772-0.24361 0-0.40707 0 0.16346 0.40292 0.49038 0.47767 0.65384 0.59959-0.12319 0.079945-0.28033 0.040772-0.44418 0 0.122 0.28101 0.39957 0.48567 0.60448 0.68713-0.041457 0.040372-0.12477 0.090338-0.36995 0.049966 0.20373 0.24183 0.45484 0.4385 0.7403 0.59959-0.081729 0.079545-0.24361 0.074749-0.40707 0.074749 0.24361 0.28261 0.57369 0.41372 0.9006 0.5748-0.16346 0.11992-0.29612 0.074749-0.4197 0.074749 0.20531 0.20146 0.58316 0.27981 0.95035 0.39972-0.081729 0.12032-0.13266 0.12192-0.29612 0.16229 0.36719 0.20146 0.93772 0.12671 1.0609 0.2878 0 0.11992-0.11253 0.19626-0.23453 0.23704 0.61238 0 2.241-0.035975 2.5664-1.2867-0.61198-0.68353-1.7597-1.4942-3.6766-2.4607 1.5098 0.48367 2.8546 1.1728 3.9976 2.0986 1.3464-0.60438 0.40549-2.1785-0.24677-2.8233-0.04027 0.16109-0.06949 0.24703-0.11095 0.2878-0.20373-0.24223-0.36877-0.48607-0.65423-0.68753 0 0.12192 0.07738 0.24223-0.08607 0.36255-0.16346-0.20146-0.37193-0.36375-0.61712-0.52484 0.122 0.20146 0.04501 0.28101-0.03672 0.36215-0.20373-0.20066-0.40588-0.36375-0.81453-0.52444zm7.2427 0c-0.37035 0.12192-0.5725 0.32498-0.77742 0.48726-0.08173-0.081144-0.1603-0.15949-0.03711-0.36255a1.9611 1.9854 0 0 0-0.61672 0.52484c-0.16346-0.081144-0.08647-0.24063-0.08647-0.36215-0.28704 0.24383-0.44892 0.44369-0.65384 0.68713-0.04185 0-0.08331-0.12511-0.12358-0.2878-0.65699 0.60918-1.5544 2.1877-0.1603 2.836 1.149-0.93256 2.5032-1.5725 4.0225-2.0986-1.9295 0.97253-3.0848 1.7844-3.7019 2.4731 0.32889 1.2571 1.9757 1.3271 2.5913 1.2867-0.12358-0.081144-0.20531-0.11592-0.24677-0.23744 0.16504-0.081144 0.69253 0.0032 1.0613-0.19986-0.16386-0.040772-0.20215-0.040772-0.28428-0.16229 0.32889-0.12192 0.7328-0.20946 0.93811-0.41212-0.122 0-0.24361 0.046768-0.40746-0.075148 0.28704-0.16069 0.65542-0.33097 0.901-0.5748-0.16346-0.040372-0.36561-0.033977-0.40746-0.074748a5.8849 5.9579 0 0 0 0.7407-0.61198c-0.20531 0.040372-0.32889 0.0032-0.37035-0.037574 0.20531-0.24383 0.49354-0.40292 0.61712-0.68713-0.16385 0.081144-0.33324 0.081144-0.45682 0 0.08173-0.16229 0.41654-0.24383 0.58-0.64955-0.16346 0-0.36561 0.040772-0.40707 0 0.08291-0.32458 0.24677-0.53403 0.36996-0.73709-0.36996 0-0.94522 0.0032-0.98707-0.037174l0.24677-0.23744c-0.36995-0.081144-0.73556 0.031179-1.0238 0.11232-0.12358-0.12152-0.0032-0.24023 0.1603-0.36215a4.5603 4.6168 0 0 0-0.86388 0.19986c-0.12319-0.12192 0.086468-0.24063 0.21005-0.36215-0.49235 0.12152-0.69569 0.24023-0.901 0.36215-0.16346-0.16229-0.009081-0.27781 0.074227-0.39972zm-3.48 5.2964c-1.098 0-2.196 0.85421-2.196 1.3243 0 0.59799 0.88836 1.2491 2.196 1.2491 1.3511 0 2.1964-0.47008 2.1964-1.112 0-0.7259-1.2263-1.4614-2.1964-1.4614zm-3.3312 0.44969c-1.5426 0.010792-2.7393 1.0912-2.6651 2.8856 0.041457 0.81184 4.0194-2.6949 3.3438-2.8233a3.7015 3.7474 0 0 0-0.6791-0.062357zm6.4653 0.062357a3.6751 3.7206 0 0 0-0.67871 0.049966c-0.67516 0.085941 3.2897 3.5803 3.3316 2.8105 0.03672-1.7564-1.1185-2.8197-2.6532-2.8604zm-0.77702 2.1861a1.9982 2.023 0 0 0-1.0487 0.29979c-0.97167 0.64156-1.1411 2.1265-0.38259 3.3229 0.8019 1.196 2.2485 1.6329 3.2202 0.94935 0.97009-0.64196 1.1308-2.1393 0.37035-3.3353-0.52275-0.79345-1.3558-1.2415-2.1593-1.2367zm-4.9231 0.099931c-0.73438 0.06396-1.4743 0.51365-1.9493 1.2615-0.8019 1.196-0.63094 2.6937 0.38259 3.3353 0.97128 0.64156 2.4057 0.21705 3.2076-0.93696 0.80229-1.196 0.63094-2.6933-0.38219-3.3349a1.9536 1.9778 0 0 0-1.2587-0.32498zm8.5875 1.2991c-0.9547 8e-3 -0.25427 4.4809 0.60488 4.1096 0.92824-0.76987 1.2662-3.0291-0.50617-4.0972a0.37627 0.38094 0 0 0-0.09871-0.01239zm-12.252 0.07515a0.37627 0.38094 0 0 0-0.098707 0.01199c-1.7736 1.0265-1.4774 3.3405-0.50578 4.11 0.85915 0.37334 1.5592-4.1144 0.60448-4.1224zm6.2801 3.0479c-1.3511 0-2.4057 1.0333-2.4057 2.2732v0.03757c0 1.2395 1.0546 2.2233 2.4057 2.2233 1.3495 0 2.4061-1.0209 2.4061-2.2608 0-1.2383-1.098-2.2297-2.4061-2.2736zm5.3428 0.88659c-0.56776 0.0096-1.254 0.56241-1.8881 1.2991-0.76044 0.85421-1.1782 2.4719-0.62896 2.9855 0.54881 0.38374 1.937 0.34056 2.9486-1.1116 0.7174-0.98372 0.4659-2.5578 0.08647-2.9855-0.15872-0.12791-0.3285-0.19067-0.51841-0.18747zm-10.969 0.33737c-0.14609 0.01599-0.29296 0.07035-0.41931 0.1499-0.42247 0.34376-0.49827 1.4942 0.13582 2.6482 0.92824 1.3679 2.2268 1.491 2.7756 1.1492 0.59106-0.42771 0.25664-1.9239-0.41931-2.7357-0.65226-0.76348-1.4372-1.2755-2.0728-1.2116zm5.2437 3.9972c-0.92508 0.06076-2.0235 0.4389-2.0235 0.88699 0 0.38374 1.1754 1.4162 2.3571 1.3739 1.1395 0.04397 2.3192-0.98652 2.3192-1.499-0.04146-0.47168-1.3002-0.80385-2.2703-0.76188a3.514 3.5576 0 0 0-0.38219 0z" stroke-width=".39727" fill="#000"/>
</svg>
