<svg id="Layer_1" version="1.1" viewBox="0 0 24 24" xml:space="preserve" xmlns="http://www.w3.org/2000/svg"><path id="path2951" d="m13.919 14.109c-0.96369 0-1.9831-0.13844-3.0033-0.42694-2.124-0.59932-3.9765-1.7676-5.082-3.202l0.68189-0.55466c0.99327 1.2897 2.6806 2.3446 4.6297 2.8948 2.805 0.79136 5.6587 0.35459 6.9459-1.0602l0.6358 0.60915c-1.0281 1.1325-2.7954 1.7399-4.808 1.7399zm1.6691 4.891c-2.5293 0-5.0794-0.60111-6.6224-1.1647-3.1477-1.1513-7.3121-4.1033-6.9424-6.2978 0.1957-1.1674 1.5325-1.7676 3.9739-1.7864l0.019135-0.10004c0.31572-1.6649 0.84367-4.4507 3.486-4.4507 0.45315 0 0.95326 0.089318 1.489 0.26259l0.12959-0.045552c1.3072-0.46088 5.9239-1.9936 7.5147 6.2263 1.042 0.16613 2.5267 0.77885 3.1164 2.0025 0.3079 0.64219 0.48533 1.7078-0.43575 3.144-0.9263 1.4443-2.9067 2.2097-5.7282 2.2097zm-9.4726-8.3557c-1.9448 0-3.1242 0.38049-3.2364 1.0441-0.22875 1.3621 3.0494 4.089 6.3771 5.3046 1.4742 0.53948 3.9122 1.1129 6.331 1.1129 1.7543 0 4.0453-0.31261 5.0029-1.8051 0.55665-0.87085 0.68537-1.6292 0.3827-2.2571-0.49142-1.0191-1.9387-1.4898-2.7363-1.547l-0.3366-0.02322-0.06088-0.34119c-0.74017-4.1515-2.2718-6.2567-4.5567-6.2567-0.77931 0-1.4682 0.24294-1.8813 0.38853-0.12786 0.044659-0.23223 0.080386-0.30703 0.10182l-0.12612 0.033941-0.12351-0.042872c-0.49663-0.17238-0.94891-0.26081-1.3446-0.26081-1.7787 0-2.2605 1.764-2.6319 3.729l-0.16612 0.82887z" fill="#000" stroke="#000" stroke-width=".88139"/></svg>
