<?xml version="1.0" encoding="UTF-8"?>
<!DOCTYPE svg  PUBLIC '-//W3C//DTD SVG 1.1//EN'  'http://www.w3.org/Graphics/SVG/1.1/DTD/svg11.dtd'>
<svg width="24" height="24" version="1.1" viewBox="0 0 24 24" xmlns="http://www.w3.org/2000/svg">
 <path d="m15.34 13.16c1.32 0 3.22-0.27 3.22-1.84 0.01-0.12 0-0.24-0.03-0.36l-0.78-3.4c-0.18-0.75-0.34-1.09-1.66-1.75-1.02-0.52-3.24-1.38-3.9-1.38-0.61 0-0.79 0.79-1.52 0.79-0.7 0-1.22-0.59-1.88-0.59-0.63 0-1.04 0.43-1.36 1.31 0 0-0.88 2.5-1 2.86-0.01 0.07-0.02 0.13-0.02 0.2 0 0.97 3.82 4.15 8.93 4.15m3.43-1.19c0.18 0.86 0.18 0.95 0.18 1.04 0 1.5-1.66 2.31-3.83 2.31-4.92 0-9.23-2.88-9.23-4.78 0-0.27 0.06-0.53 0.16-0.77-1.77 0.08-4.05 0.4-4.05 2.42 0 3.32 7.84 7.39 14.05 7.39 4.76 0 5.95-2.15 5.95-3.85 0-1.34-1.15-2.86-3.23-3.76" fill="#000"/>
</svg>
