<?xml version="1.0" encoding="UTF-8"?>
<svg id="svg14" width="24" height="24" version="1.1" viewBox="0 0 24 24" xmlns="http://www.w3.org/2000/svg">
 <path id="path12" d="m4.9728 6.7451c-1.877 1.5422-2.9728 3.8453-2.9728 6.2702a8.117 8.1167 0 0 0 8.117 8.1167c0.64936 0 1.2886-0.08117 1.9075-0.23336-1.7857-0.39569-3.4294-1.2885-4.7789-2.5162-1.9785-1.0552-3.2163-3.1249-3.2163-5.3672 0-0.30438 0.030439-0.59861 0.071023-0.90298-0.040585-0.3754-0.071023-0.7508-0.071023-1.1262 0-1.461 0.32468-2.9119 0.9436-4.241zm8.8412 12.496a8.186 8.186 0 0 1-8.186-8.186 8.186 8.186 0 0 1 8.186-8.186 8.186 8.186 0 0 1 8.186 8.186 8.186 8.186 0 0 1-8.186 8.186zm-0.0016-1.6388v-1.0568c-2.9123 0-5.2841-2.3718-5.2841-5.2841h-1.0569c0 3.4968 2.8441 6.341 6.341 6.341zm0.0016-2.8635c2.0465 0 3.6837-1.6372 3.6837-3.6837 0-2.0465-1.6372-3.6837-3.6837-3.6837s-3.6837 1.6372-3.6837 3.6837c0 2.0465 1.6372 3.6837 3.6837 3.6837zm0-2.8651a0.8186 0.8186 0 0 1-0.8186-0.8186 0.8186 0.8186 0 0 1 0.8186-0.8186 0.8186 0.8186 0 0 1 0.8186 0.8186 0.8186 0.8186 0 0 1-0.8186 0.8186zm5.3672-0.94327h1.0568c0-3.4968-2.8441-6.341-6.341-6.341v1.0568c2.9123 0 5.2841 2.3718 5.2841 5.2841z" fill="#000"/>
</svg>
