<?xml version="1.0" encoding="UTF-8"?>
<svg id="svg450" version="1.1" viewBox="0 0 24 24" xmlns="http://www.w3.org/2000/svg">
 <path id="path577" d="m12 2a10 10 0 0 0-10 10 10 10 0 0 0 10 10 10 10 0 0 0 10-10 10 10 0 0 0-10-10zm0 4c0.19444 0 0.37876 0.054063 0.55469 0.16406l3.8906 2.416c0.17593 0.11 0.31098 0.25555 0.4082 0.43555 0.097222 0.18 0.14648 0.37961 0.14648 0.59961v4.7695c0 0.22-0.049262 0.41961-0.14648 0.59961-0.097223 0.18-0.23228 0.32555-0.4082 0.43555l-3.8906 2.416c-0.17593 0.11-0.36024 0.16406-0.55469 0.16406s-0.37876-0.054063-0.55469-0.16406l-3.8906-2.416c-0.17593-0.11-0.31098-0.25555-0.4082-0.43555-0.097222-0.18-0.14648-0.37961-0.14648-0.59961v-4.7695c0-0.22 0.049262-0.41961 0.14648-0.59961 0.097222-0.18 0.23228-0.32555 0.4082-0.43555l3.8906-2.416c0.17593-0.11 0.36024-0.16406 0.55469-0.16406zm0 1.1992-1.084 0.67578 3.3066 2.0391 1.0684-0.6582-3.291-2.0566zm-2.209 1.3809-1.082 0.67578 3.291 2.0547 1.084-0.67578-3.293-2.0547zm-1.6797 1.6797v4.1094l3.334 2.0859v-4.1094l-3.334-2.0859zm7.7773 0-3.334 2.0859v4.1094l3.334-2.0859v-4.1094z" fill="#000"/>
</svg>
