<?xml version="1.0" encoding="UTF-8"?>
<svg id="svg4" width="24" height="24" version="1.1" viewBox="0 -960 960 960" xmlns="http://www.w3.org/2000/svg">
 <path id="path792" d="m480-680c-132 0-240 80-240 177.78 0 46.667 24 91.111 67.2 122.22 0 13.333-9.6 48.889-67.2 100 0 0 84 0 156-55.556 26.4 6.6667 55.2 11.111 84 11.111 132 0 240-80 240-177.78s-108-177.78-240-177.78m24 266.67h-48v-44.444h48v44.444m43.2-111.11c-7.2 8.8889-16.8 13.333-26.4 17.778-7.2 4.4445-9.6 6.6667-12 11.111-4.8 4.4444-4.8 8.8889-4.8 15.556h-48c0-11.111 2.4-17.778 7.2-24.444 4.8-4.4444 14.4-11.111 26.4-17.778 7.2-2.2222 12-6.6667 14.4-11.111 2.4-4.4444 4.8-11.111 4.8-15.556 0-6.6667-2.4-11.111-7.2-15.556-4.8-4.4444-12-6.6667-19.2-6.6667s-12 2.2222-16.8 4.4444c-4.8 2.2222-7.2 6.6667-7.2 13.333h-48c2.4-15.556 9.6-28.889 21.6-37.778s28.8-11.111 50.4-11.111 40.8 4.4444 52.8 13.333c12 8.8889 19.2 22.222 19.2 37.778 2.4 8.8889 0 17.778-7.2 26.667zm-67.2-355.56c-55.333 0-107.35 10.484-156.02 31.484-48.667 21-90.956 49.547-126.95 85.547s-64.547 78.29-85.547 126.95c-21 48.667-31.484 100.68-31.484 156.02s10.484 107.35 31.484 156.02c21 48.667 49.547 90.956 85.547 126.95s78.29 64.547 126.95 85.547c48.667 21 100.68 31.484 156.02 31.484s107.35-10.484 156.02-31.484c48.667-21 90.956-49.547 126.95-85.547s64.547-78.29 85.547-126.95c21-48.667 31.484-100.68 31.484-156.02s-10.484-107.35-31.484-156.02c-21-48.667-49.547-90.956-85.547-126.95s-78.29-64.547-126.95-85.547c-48.667-21-100.68-31.484-156.02-31.484zm0 80c89.333 0 165.03 30.969 227.03 92.969s92.969 137.7 92.969 227.03-30.969 165.03-92.969 227.03-137.7 92.969-227.03 92.969-165.03-30.969-227.03-92.969-92.969-137.7-92.969-227.03 30.969-165.03 92.969-227.03 137.7-92.969 227.03-92.969z" stroke-width="23.094" fill="#000"/>
</svg>
