<?xml version="1.0" encoding="UTF-8"?>
<svg id="svg142" version="1.1" viewBox="0 0 24 24" xmlns="http://www.w3.org/2000/svg">
 <path id="path140" d="m12 22a10 10 0 0 1-10-10 10 10 0 0 1 10-10 10 10 0 0 1 10 10 10 10 0 0 1-10 10zm-2e-3 -2.002v-1.291c-3.5577 0-6.4551-2.8974-6.4551-6.4551h-1.291c0 4.2717 3.4744 7.7461 7.7461 7.7461zm2e-3 -3.498c2.5 0 4.5-2 4.5-4.5s-2-4.5-4.5-4.5-4.5 2-4.5 4.5 2 4.5 4.5 4.5zm0-3.5a1 1 0 0 1-1-1 1 1 0 0 1 1-1 1 1 0 0 1 1 1 1 1 0 0 1-1 1zm6.5566-1.1523h1.291c0-4.2717-3.4744-7.7461-7.7461-7.7461v1.291c3.5577 0 6.4551 2.8974 6.4551 6.4551z" fill="#000"/>
</svg>
