<?xml version="1.0" encoding="UTF-8"?>
<svg id="svg4" width="24" height="24" version="1.1" viewBox="0 -960 960 960" xmlns="http://www.w3.org/2000/svg">
 <path id="path1787" d="m480-720a77.144 75.788 0 0 1 77.108 75.78v151.56a77.144 75.788 0 0 1-77.108 75.78 77.144 75.788 0 0 1-77.108-75.78v-151.56a77.144 75.788 0 0 1 77.108-75.78zm-180 227.34h51.408a128.57 126.32 0 0 0 128.59 126.33 128.57 126.32 0 0 0 128.59-126.33h51.408c0 89.18-67.124 162.7-154.3 175.08v77.58h-51.408v-77.58c-87.172-12.379-154.3-85.9-154.3-175.08zm180 12.656m0-400c-55.333 0-107.35 10.484-156.02 31.484-48.667 21-90.953 49.547-126.95 85.547s-64.547 78.287-85.547 126.95c-21 48.667-31.484 100.68-31.484 156.02s10.484 107.35 31.484 156.02c21 48.667 49.547 90.953 85.547 126.95s78.287 64.547 126.95 85.547c48.667 21 100.68 31.484 156.02 31.484s107.35-10.484 156.02-31.484c48.667-21 90.953-49.547 126.95-85.547s64.547-78.287 85.547-126.95c21-48.667 31.484-100.68 31.484-156.02s-10.484-107.35-31.484-156.02c-21-48.667-49.547-90.953-85.547-126.95s-78.287-64.547-126.95-85.547c-48.667-21-100.68-31.484-156.02-31.484zm0 80c89.333 0 165.03 30.969 227.03 92.969s92.969 137.7 92.969 227.03-30.969 165.03-92.969 227.03-137.7 92.969-227.03 92.969-165.03-30.969-227.03-92.969-92.969-137.7-92.969-227.03 30.969-165.03 92.969-227.03 137.7-92.969 227.03-92.969z" fill="#000"/>
</svg>
