<?xml version="1.0" encoding="UTF-8"?>
<svg id="svg4" width="24" height="24" version="1.1" viewBox="0 -960 960 960" xmlns="http://www.w3.org/2000/svg">
 <path id="path1730" d="m322.42-700h96.252v39.297h-55v137.58c0 32.75-27.438 58.908-61.796 58.908-34.358 0-61.876-26.156-61.876-58.908s27.517-58.984 61.876-58.984c6.8716 0 13.675 1.2104 20.547 3.4375v-121.33zm321.33 46.952c5.898 0 11.7 2.1487 15.938 6.4064l53.592 51.016c8.9332 8.0764 8.9332 22.344 0 30.859l-42.108 39.922-85.936-81.876 42.188-39.922c4.4664-4.2576 10.43-6.4064 16.328-6.4064zm-82.736 69.452 85.86 81.876-253.36 241.72h-85.86v-81.876zm-81.012 103.6m0-400c-55.333 0-107.35 10.484-156.02 31.484-48.667 21-90.953 49.547-126.95 85.547s-64.547 78.287-85.547 126.95c-21 48.667-31.484 100.68-31.484 156.02s10.484 107.35 31.484 156.02c21 48.667 49.547 90.953 85.547 126.95s78.287 64.547 126.95 85.547c48.667 21 100.68 31.484 156.02 31.484s107.35-10.484 156.02-31.484c48.667-21 90.953-49.547 126.95-85.547s64.547-78.287 85.547-126.95c21-48.667 31.484-100.68 31.484-156.02s-10.484-107.35-31.484-156.02c-21-48.667-49.547-90.953-85.547-126.95s-78.287-64.547-126.95-85.547c-48.667-21-100.68-31.484-156.02-31.484zm0 80c89.333 0 165.03 30.969 227.03 92.969s92.969 137.7 92.969 227.03-30.969 165.03-92.969 227.03-137.7 92.969-227.03 92.969-165.03-30.969-227.03-92.969-92.969-137.7-92.969-227.03 30.969-165.03 92.969-227.03 137.7-92.969 227.03-92.969z" fill="#000"/>
</svg>
