<?xml version="1.0" encoding="UTF-8"?>
<svg id="svg4" width="24" height="24" version="1.1" viewBox="0 -960 960 960" xmlns="http://www.w3.org/2000/svg">
 <path id="path1681" d="m480-660c-50 0-92.5 17.5-127.5 52.5-35 35-52.5 77.5-52.5 127.5s17.5 92.5 52.5 127.5 77.5 52.5 127.5 52.5 92.5-17.5 127.5-52.5 52.5-77.5 52.5-127.5-17.5-92.5-52.5-127.5c-35-35-77.5-52.5-127.5-52.5zm0 140c11.333 0 20.849 3.8177 28.516 11.484 7.6667 7.6666 11.484 17.182 11.484 28.516s-3.8177 20.849-11.484 28.516c-7.6666 7.6667-17.182 11.484-28.516 11.484s-20.849-3.8177-28.516-11.484c-7.6667-7.6666-11.484-17.182-11.484-28.516s3.8177-20.849 11.484-28.516c7.6666-7.6667 17.182-11.484 28.516-11.484zm-254.07 351.16c59.497 48.643 133.47 80.804 213.87 88.844v-81.206c-58.693-7.2362-112.16-30.553-156.78-65.126m237.19 65.126v81.206c80.402-8.0402 154.37-40.201 213.87-88.844l-57.487-57.487c-44.221 34.573-97.688 57.889-156.38 65.126m213.47-121.81 57.487 57.487c48.643-59.497 80.804-133.87 88.844-214.27h-81.206c-7.2362 58.693-30.553 112.16-65.126 156.78m-572.46-156.78h-81.206c8.0402 80.402 40.201 154.37 88.844 213.87l57.487-57.487c-34.573-44.221-57.889-97.688-65.126-156.38m65.126-237.19-57.487-57.085c-48.643 59.498-80.804 133.47-88.844 213.87h81.206c7.2362-58.693 30.553-112.16 65.126-156.78m572.46 156.78h81.206c-8.0402-80.402-40.201-154.37-88.844-213.87l-57.487 57.085c34.573 44.623 57.889 98.09 65.126 156.78m-64.724-270.95c-59.497-48.643-133.47-80.804-213.87-88.844v81.206c58.693 7.2362 112.16 30.553 156.78 65.126m-237.19-65.126v-81.206c-80.402 8.0402-154.37 40.201-213.87 88.844l57.085 57.488c44.623-34.573 98.09-57.89 156.78-65.126z" fill="#000"/>
</svg>
