<?xml version="1.0" encoding="UTF-8"?>
<svg id="svg4" width="24" height="24" version="1.1" viewBox="0 -960 960 960" xmlns="http://www.w3.org/2000/svg">
 <path id="path179" d="m528.72-501.82v-76.364l80.005-48.218c29.093-17.236 34.548-44.727 14.183-66.109-16.365-17.236-46.185-27.491-77.823-27.491-7.6369 0-16.365 0.65454-23.274 1.9636-39.275 6.3273-65.823 28.145-65.823 52.582v70.691l-114.19 69.164c-60.368 36.873-78.551 92.073-45.458 140.29 28.002 41.455 89.097 70.036 159.65 77.455v13.309c0 5.6727-8.3642 10.909-18.183 10.909h-54.549v43.636h54.549c49.094 0 90.915-24.218 90.915-54.545v-10.909c73.823 0 151.28-41.891 151.28-103.64 0-50.182-69.823-92.727-151.28-92.727m0-163.64c0-5.0182 4.0003-8.9455 11.637-10.255 8.0005-1.3091 16.365 0.65455 20.365 5.0182 4.3639 4.3636 2.9093 9.8182-2.9093 13.309l-29.093 18.764v-26.836m-72.732 174.55c-35.275 13.964-61.822 37.964-71.278 60.218l71.278 11.345v66.545c-41.094-6.5454-76.369-24.436-93.461-49.309-21.456-31.855-9.8188-68.073 30.184-92.509l63.277-39.927v43.636m72.732 141.82v-110.4c42.548 0 79.278 24 79.278 50.4 0 38.182-46.185 60-79.278 60zm-48.717-530.91c-55.333 0-107.35 10.484-156.02 31.484-48.667 21-90.959 49.547-126.95 85.547s-64.547 78.293-85.547 126.95c-21 48.667-31.484 100.68-31.484 156.02s10.484 107.35 31.484 156.02c21 48.667 49.547 90.959 85.547 126.95s78.293 64.547 126.95 85.547c48.667 21 100.68 31.484 156.02 31.484s107.35-10.484 156.02-31.484c48.667-21 90.959-49.547 126.95-85.547s64.547-78.293 85.547-126.95c21-48.667 31.484-100.68 31.484-156.02s-10.484-107.35-31.484-156.02c-21-48.667-49.547-90.959-85.547-126.95s-78.293-64.547-126.95-85.547c-48.667-21-100.68-31.484-156.02-31.484zm0 80c89.333 0 165.03 30.969 227.03 92.969s92.969 137.7 92.969 227.03-30.969 165.03-92.969 227.03-137.7 92.969-227.03 92.969-165.03-30.969-227.03-92.969-92.969-137.7-92.969-227.03 30.969-165.03 92.969-227.03 137.7-92.969 227.03-92.969z" stroke-width="28.168" fill="#000"/>
</svg>
