<?xml version="1.0" encoding="UTF-8"?>
<svg id="svg450" version="1.1" viewBox="0 0 24 24" xmlns="http://www.w3.org/2000/svg">
 <path id="path577" d="m12 2a10 10 0 0 0-10 10 10 10 0 0 0 10 10 10 10 0 0 0 10-10 10 10 0 0 0-10-10zm-3.9395 4.5h2.4063v0.98242h-1.375v3.4395c0 0.81874-0.68596 1.4727-1.5449 1.4727-0.85896 0-1.5469-0.65391-1.5469-1.4727s0.68792-1.4746 1.5469-1.4746c0.17179 0 0.34188 0.03026 0.51367 0.085938v-3.0332zm8.0332 1.1738c0.14745 0 0.2925 0.053717 0.39844 0.16016l1.3398 1.2754c0.22333 0.20191 0.22333 0.55861 0 0.77148l-1.0527 0.99805-2.1484-2.0469 1.0547-0.99805c0.11166-0.10644 0.26075-0.16016 0.4082-0.16016zm-2.0684 1.7363 2.1465 2.0469-6.334 6.043h-2.1465v-2.0469l6.334-6.043z" fill="#000"/>
</svg>
