<?xml version="1.0" encoding="UTF-8"?>
<svg id="svg4" width="24" height="24" version="1.1" viewBox="0 -960 960 960" xmlns="http://www.w3.org/2000/svg">
 <path id="path485" d="m628.42-260-148.42-94.154-148.42 94.154 39.298-177.6-130.88-119.26 172.63-15.508 67.368-167.63 67.368 167.26 172.63 15.508-130.88 119.26 39.298 177.97m-148.42-220m0-400c-55.333 0-107.35 10.484-156.02 31.484-48.667 21-90.953 49.547-126.95 85.547s-64.547 78.287-85.547 126.95c-21 48.667-31.484 100.68-31.484 156.02s10.484 107.35 31.484 156.02c21 48.667 49.547 90.953 85.547 126.95s78.287 64.547 126.95 85.547c48.667 21 100.68 31.484 156.02 31.484s107.35-10.484 156.02-31.484c48.667-21 90.953-49.547 126.95-85.547s64.547-78.287 85.547-126.95c21-48.667 31.484-100.68 31.484-156.02s-10.484-107.35-31.484-156.02c-21-48.667-49.547-90.953-85.547-126.95s-78.287-64.547-126.95-85.547c-48.667-21-100.68-31.484-156.02-31.484zm0 80c89.333 0 165.03 30.969 227.03 92.969s92.969 137.7 92.969 227.03-30.969 165.03-92.969 227.03-137.7 92.969-227.03 92.969-165.03-30.969-227.03-92.969-92.969-137.7-92.969-227.03 30.969-165.03 92.969-227.03 137.7-92.969 227.03-92.969z" fill="#000"/>
</svg>
