<?xml version="1.0" encoding="UTF-8"?>
<svg id="svg4" width="24" height="24" version="1.1" viewBox="0 -960 960 960" xmlns="http://www.w3.org/2000/svg">
 <path id="path179" d="m523.85-501.82v-76.364l72.005-48.218c26.184-17.236 31.093-44.727 12.764-66.109-14.728-17.236-41.566-27.491-70.041-27.491-6.8732 0-14.728 0.65454-20.947 1.9636-35.348 6.3273-59.24 28.145-59.24 52.582v70.691l-102.77 69.164c-54.331 36.873-70.696 92.073-40.912 140.29 25.202 41.455 80.187 70.036 143.68 77.455v13.309c0 5.6727-7.5278 10.909-16.365 10.909h-49.094v43.636h49.094c44.185 0 81.824-24.218 81.824-54.545v-10.909c66.441 0 136.15-41.891 136.15-103.64 0-50.182-62.841-92.727-136.15-92.727m0-163.64c0-5.0182 3.6002-8.9455 10.473-10.255 7.2005-1.3091 14.728 0.65455 18.328 5.0182 3.9276 4.3636 2.6184 9.8182-2.6183 13.309l-26.184 18.764v-26.836m-65.459 174.55c-31.748 13.964-55.64 37.964-64.15 60.218l64.15 11.345v66.545c-36.984-6.5454-68.732-24.436-84.115-49.309-19.31-31.855-8.837-68.073 27.165-92.509l56.949-39.927v43.636m65.459 141.82v-110.4c38.293 0 71.35 24 71.35 50.4 0 38.182-41.566 60-71.35 60zm-43.845-530.91c-55.333 0-107.35 10.484-156.02 31.484-48.667 21-90.959 49.547-126.95 85.547s-64.547 78.293-85.547 126.95c-21 48.667-31.484 100.68-31.484 156.02s10.484 107.35 31.484 156.02c21 48.667 49.547 90.959 85.547 126.95s78.293 64.547 126.95 85.547c48.667 21 100.68 31.484 156.02 31.484s107.35-10.484 156.02-31.484c48.667-21 90.959-49.547 126.95-85.547s64.547-78.293 85.547-126.95c21-48.667 31.484-100.68 31.484-156.02s-10.484-107.35-31.484-156.02c-21-48.667-49.547-90.959-85.547-126.95s-78.293-64.547-126.95-85.547c-48.667-21-100.68-31.484-156.02-31.484zm0 80c89.333 0 165.03 30.969 227.03 92.969s92.969 137.7 92.969 227.03-30.969 165.03-92.969 227.03-137.7 92.969-227.03 92.969-165.03-30.969-227.03-92.969-92.969-137.7-92.969-227.03 30.969-165.03 92.969-227.03 137.7-92.969 227.03-92.969z" stroke-width="26.723" fill="#000"/>
</svg>
