<?xml version="1.0" encoding="UTF-8"?>
<svg id="svg4" width="24" height="24" version="1.1" viewBox="0 -960 960 960" xmlns="http://www.w3.org/2000/svg">
 <path id="path1620" d="m480-720c-7.778 0-15.15 2.1625-22.188 6.5625l-155.62 96.641c-7.0368 4.4-12.439 10.222-16.328 17.422-3.8887 7.2-5.8594 15.184-5.8594 23.984v190.78c0 8.8 1.9705 16.784 5.8594 23.984 3.8888 7.2 9.2909 13.022 16.328 17.422l155.62 96.641c7.0372 4.4 14.41 6.5625 22.188 6.5625s15.15-2.1624 22.188-6.5625l155.62-96.641c7.0368-4.4 12.439-10.222 16.328-17.422s5.8594-15.184 5.8594-23.984v-190.78c0-8.8-1.9706-16.784-5.8594-23.984s-9.291-13.022-16.328-17.422l-155.62-96.641c-7.0372-4.3999-14.41-6.5625-22.188-6.5625zm0 47.969 131.64 82.266-42.734 26.328-132.27-81.562zm-88.359 55.234 131.72 82.188-43.359 27.031-131.64-82.188zm-67.188 67.188 133.36 83.437v164.38l-133.36-83.437zm311.09 0v164.38l-133.36 83.437v-164.38zm-155.55 69.609m0-400c-55.333 0-107.35 10.484-156.02 31.484-48.667 21-90.953 49.547-126.95 85.547s-64.547 78.287-85.547 126.95c-21 48.667-31.484 100.68-31.484 156.02s10.484 107.35 31.484 156.02c21 48.667 49.547 90.953 85.547 126.95s78.287 64.547 126.95 85.547c48.667 21 100.68 31.484 156.02 31.484s107.35-10.484 156.02-31.484c48.667-21 90.953-49.547 126.95-85.547s64.547-78.287 85.547-126.95c21-48.667 31.484-100.68 31.484-156.02s-10.484-107.35-31.484-156.02c-21-48.667-49.547-90.953-85.547-126.95s-78.287-64.547-126.95-85.547c-48.667-21-100.68-31.484-156.02-31.484zm0 80c89.333 0 165.03 30.969 227.03 92.969s92.969 137.7 92.969 227.03-30.969 165.03-92.969 227.03-137.7 92.969-227.03 92.969-165.03-30.969-227.03-92.969-92.969-137.7-92.969-227.03 30.969-165.03 92.969-227.03 137.7-92.969 227.03-92.969z" fill="#000"/>
</svg>
