<?xml version="1.0" encoding="UTF-8"?>
<svg id="svg4" width="24" height="24" version="1.1" viewBox="0 -960 960 960" xmlns="http://www.w3.org/2000/svg">
 <path id="path129" d="m453.33-740a26.667 26 0 0 0-26.667 26v156a13.333 13 0 0 0 13.333 13h40a13.333 13 0 0 1 13.333 13 13.333 13 0 0 1-13.333 13h-40c-20.533 0-40-18.98-40-39v-99.84c-46.133 11.44-80 51.22-80 99.84v39a66.667 65 0 0 1 66.667 65 66.667 65 0 0 1-66.667 65v39c0 72.02 59.467 130 133.33 130h53.333c73.867 0 133.33-57.98 133.33-130v-39a66.667 65 0 0 1-66.667-65 66.667 65 0 0 1 66.667-65v-39c0-57.72-47.467-104-106.67-104v-52a26.667 26 0 0 0-26.667-26h-53.333m-6.6667 377h66.667l-13.333 91h-40zm33.333-517c-55.333 0-107.35 10.484-156.02 31.484-48.667 21-90.956 49.547-126.95 85.547s-64.547 78.29-85.547 126.95c-21 48.667-31.484 100.68-31.484 156.02s10.484 107.35 31.484 156.02c21 48.667 49.547 90.956 85.547 126.95s78.29 64.547 126.95 85.547c48.667 21 100.68 31.484 156.02 31.484s107.35-10.484 156.02-31.484c48.667-21 90.956-49.547 126.95-85.547s64.547-78.29 85.547-126.95c21-48.667 31.484-100.68 31.484-156.02s-10.484-107.35-31.484-156.02c-21-48.667-49.547-90.956-85.547-126.95s-78.29-64.547-126.95-85.547c-48.667-21-100.68-31.484-156.02-31.484zm0 80c89.333 0 165.03 30.969 227.03 92.969s92.969 137.7 92.969 227.03-30.969 165.03-92.969 227.03-137.7 92.969-227.03 92.969-165.03-30.969-227.03-92.969-92.969-137.7-92.969-227.03 30.969-165.03 92.969-227.03 137.7-92.969 227.03-92.969z" fill="#000"/>
</svg>
