<?xml version="1.0" encoding="UTF-8"?>
<svg id="svg4" width="24" height="24" version="1.1" viewBox="0 -960 960 960" xmlns="http://www.w3.org/2000/svg">
 <path id="path1555" d="m480.01-720c21.428 0 39.61 7.3724 54.608 22.109 15 14.737 22.5 32.619 22.5 53.672v151.56c0 21.053-7.5 38.935-22.5 53.672s-33.181 22.109-54.608 22.109c-21.428 0-39.61-7.3724-54.608-22.109-15-14.737-22.5-32.619-22.5-53.672v-151.56c0-21.053 7.5-38.935 22.5-53.672s33.181-22.109 54.608-22.109zm0 50.548c-7.2856 0-13.431 2.4235-18.359 7.2656-4.9284 4.842-7.3436 10.811-7.3436 17.969v151.56c0 7.158 2.4152 13.205 7.3436 18.047s11.074 7.2656 18.359 7.2656 13.431-2.4236 18.359-7.2656 7.3436-10.889 7.3436-18.047v-151.56c0-7.158-2.4152-13.127-7.3436-17.969s-11.074-7.2656-18.359-7.2656zm-180 176.8h51.408c0 34.947 12.585 64.744 37.656 89.376 25.071 24.632 55.368 36.953 90.936 36.953 35.571 0 65.868-12.322 90.936-36.953 25.071-24.632 37.656-54.428 37.656-89.376h51.408c0 44.212-14.607 82.884-43.752 115.94s-65.976 52.544-110.55 58.436v78.28h-51.408v-78.28c-44.572-5.8948-81.404-25.385-110.55-58.436-29.143-33.053-43.752-71.728-43.752-115.94zm179.99 12.656m0-400c-55.333 0-107.35 10.484-156.02 31.484-48.667 21-90.953 49.547-126.95 85.547s-64.547 78.287-85.547 126.95c-21 48.667-31.484 100.68-31.484 156.02s10.484 107.35 31.484 156.02c21 48.667 49.547 90.953 85.547 126.95s78.287 64.547 126.95 85.547c48.667 21 100.68 31.484 156.02 31.484s107.35-10.484 156.02-31.484c48.667-21 90.953-49.547 126.95-85.547s64.547-78.287 85.547-126.95c21-48.667 31.484-100.68 31.484-156.02s-10.484-107.35-31.484-156.02c-21-48.667-49.547-90.953-85.547-126.95s-78.287-64.547-126.95-85.547c-48.667-21-100.68-31.484-156.02-31.484zm0 80c89.333 0 165.03 30.969 227.03 92.969s92.969 137.7 92.969 227.03-30.969 165.03-92.969 227.03-137.7 92.969-227.03 92.969-165.03-30.969-227.03-92.969-92.969-137.7-92.969-227.03 30.969-165.03 92.969-227.03 137.7-92.969 227.03-92.969z" fill="#000"/>
</svg>
