<?xml version="1.0" encoding="UTF-8"?>
<svg id="svg4" width="24" height="24" version="1.1" viewBox="0 -960 960 960" xmlns="http://www.w3.org/2000/svg">
 <path id="path131" d="m628.66-410.88v-79.744a22.835 22.784 0 0 0-22.835-22.784h-22.835c51.15-36.682 63.024-107.77 26.26-159.49-36.764-50.581-108.01-62.428-159.39-25.746-15.299 10.936-27.63 25.746-35.851 42.378-53.662-33.037-123.99-16.632-157.1 37.366-32.882 53.543-16.441 123.72 37.449 156.75 4.7953 2.7341 9.5906 5.696 14.614 7.5187v191.84a22.835 22.784 0 0 0 22.835 22.784h274.02a22.835 22.784 0 0 0 22.835-22.784v-79.744l91.339 91.136v-250.62l-91.339 91.136m-114.17-239.23a45.67 45.568 0 0 1 45.67 45.568 45.67 45.568 0 0 1-45.67 45.568 45.67 45.568 0 0 1-45.67-45.568 45.67 45.568 0 0 1 45.67-45.568m-159.84 45.568a45.67 45.568 0 0 1 45.67 45.568 45.67 45.568 0 0 1-45.67 45.568 45.67 45.568 0 0 1-45.67-45.568 45.67 45.568 0 0 1 45.67-45.568zm125.36-275.46c-55.333 0-107.35 10.484-156.02 31.484-48.667 21-90.959 49.547-126.95 85.547s-64.547 78.293-85.547 126.95c-21 48.667-31.484 100.68-31.484 156.02s10.484 107.35 31.484 156.02c21 48.667 49.547 90.959 85.547 126.95s78.293 64.547 126.95 85.547c48.667 21 100.68 31.484 156.02 31.484s107.35-10.484 156.02-31.484c48.667-21 90.959-49.547 126.95-85.547s64.547-78.293 85.547-126.95c21-48.667 31.484-100.68 31.484-156.02s-10.484-107.35-31.484-156.02c-21-48.667-49.547-90.959-85.547-126.95s-78.293-64.547-126.95-85.547c-48.667-21-100.68-31.484-156.02-31.484zm0 80c89.333 0 165.03 30.969 227.03 92.969s92.969 137.7 92.969 227.03-30.969 165.03-92.969 227.03-137.7 92.969-227.03 92.969-165.03-30.969-227.03-92.969-92.969-137.7-92.969-227.03 30.969-165.03 92.969-227.03 137.7-92.969 227.03-92.969z" fill="#000"/>
</svg>
