<?xml version="1.0" encoding="UTF-8"?>
<svg id="svg4" width="24" height="24" version="1.1" viewBox="0 -960 960 960" xmlns="http://www.w3.org/2000/svg">
 <path id="path803" d="m679.88-280c0-36.533 2.117-85.067-11.761-108-22.346-54.667-86.563-63.733-131.49-77.333-21.406-1.3333-44.928-28-49.162-54.667h-66.334c-6.8216 0-11.761-5.8667-11.761-13.333 0-7.4667 4.9398-13.333 11.761-13.333h58.807v-26.667h-58.807c-6.8216 0-11.761-5.8667-11.761-13.333 0-7.4667 4.9398-13.333 11.761-13.333h58.807v-80h-199.94v400zm-199.88-600c-55.333 0-107.35 10.484-156.02 31.484-48.667 21-90.959 49.547-126.95 85.547s-64.547 78.293-85.547 126.95c-21 48.667-31.484 100.68-31.484 156.02s10.484 107.35 31.484 156.02c21 48.667 49.547 90.959 85.547 126.95s78.293 64.547 126.95 85.547c48.667 21 100.68 31.484 156.02 31.484s107.35-10.484 156.02-31.484c48.667-21 90.959-49.547 126.95-85.547s64.547-78.293 85.547-126.95c21-48.667 31.484-100.68 31.484-156.02s-10.484-107.35-31.484-156.02c-21-48.667-49.547-90.959-85.547-126.95s-78.293-64.547-126.95-85.547c-48.667-21-100.68-31.484-156.02-31.484zm0 80c89.333 0 165.03 30.969 227.03 92.969s92.969 137.7 92.969 227.03-30.969 165.03-92.969 227.03-137.7 92.969-227.03 92.969-165.03-30.969-227.03-92.969-92.969-137.7-92.969-227.03 30.969-165.03 92.969-227.03 137.7-92.969 227.03-92.969z" fill="#000"/>
</svg>
