<?xml version="1.0" encoding="UTF-8"?>
<svg id="svg4" width="24" height="24" version="1.1" viewBox="0 -960 960 960" xmlns="http://www.w3.org/2000/svg">
 <path id="path129" d="m600-480c0-33 27-60 60-60s60 27 60 60-27 60-60 60-60-27-60-60m-180 0c0-33 27-60 60-60s60 27 60 60-27 60-60 60-60-27-60-60m-180 0c0-33 27-60 60-60s60 27 60 60-27 60-60 60-60-27-60-60m270 180c0-33 27-60 60-60s60 27 60 60-27 60-60 60-60-27-60-60m-180 0c0-33 27-60 60-60s60 27 60 60-27 60-60 60-60-27-60-60m180-360c0-33 27-60 60-60s60 27 60 60-27 60-60 60-60-27-60-60m-180 0c0-33 27-60 60-60s60 27 60 60-27 60-60 60-60-27-60-60m150-220c-55.333 0-107.35 10.484-156.02 31.484-48.667 21-90.956 49.547-126.95 85.547s-64.547 78.29-85.547 126.95c-21 48.667-31.484 100.68-31.484 156.02s10.484 107.35 31.484 156.02c21 48.667 49.547 90.956 85.547 126.95s78.29 64.547 126.95 85.547c48.667 21 100.68 31.484 156.02 31.484s107.35-10.484 156.02-31.484c48.667-21 90.956-49.547 126.95-85.547s64.547-78.29 85.547-126.95c21-48.667 31.484-100.68 31.484-156.02s-10.484-107.35-31.484-156.02c-21-48.667-49.547-90.956-85.547-126.95s-78.29-64.547-126.95-85.547c-48.667-21-100.68-31.484-156.02-31.484zm0 80c89.333 0 165.03 30.969 227.03 92.969s92.969 137.7 92.969 227.03-30.969 165.03-92.969 227.03-137.7 92.969-227.03 92.969-165.03-30.969-227.03-92.969-92.969-137.7-92.969-227.03 30.969-165.03 92.969-227.03 137.7-92.969 227.03-92.969z" fill="#000"/>
</svg>
