<?xml version="1.0" encoding="UTF-8"?>
<svg id="svg4" width="24" height="24" version="1.1" viewBox="0 -960 960 960" xmlns="http://www.w3.org/2000/svg">
 <path id="path1673" d="m480-720a240 240 0 0 1 240 240c0 77.52-36.942 146.63-94.064 190.55l-17.266-47.968c39.36-34.56 63.36-85.94 63.36-142.58a192 192 0 0 0-192.03-192.03 192 192 0 0 0-192.03 192.03c0 56.64 24 108.02 63.36 142.58l-17.266 47.968c-57.12-43.92-94.064-113.03-94.064-190.55a240 240 0 0 1 240-240zm0 96.016a144 144 0 0 1 143.98 143.98c0 35.28-12.714 67.456-33.594 92.656l-21.094-57.58c4.32-11.04 6.7188-23.078 6.7188-35.078a96 96 0 0 0-96.016-96.016 96 96 0 0 0-96.016 96.016c0 12 2.3988 24.038 6.7188 35.078l-21.094 57.58c-20.88-25.2-33.594-57.376-33.594-92.656a144 144 0 0 1 143.98-143.98zm0 96.016a48 48 0 0 1 47.968 47.968c0 12-4.29 22.538-11.25 30.938l76.092 209.06h-51.092l-61.72-169.69-61.72 169.69h-51.092l76.092-209.06c-6.96-8.4-11.25-18.938-11.25-30.938a48 48 0 0 1 47.968-47.968zm-0.0032 47.968m0-400c-55.333 0-107.35 10.484-156.02 31.484-48.667 21-90.953 49.547-126.95 85.547s-64.547 78.287-85.547 126.95c-21 48.667-31.484 100.68-31.484 156.02s10.484 107.35 31.484 156.02c21 48.667 49.547 90.953 85.547 126.95s78.287 64.547 126.95 85.547c48.667 21 100.68 31.484 156.02 31.484s107.35-10.484 156.02-31.484c48.667-21 90.953-49.547 126.95-85.547s64.547-78.287 85.547-126.95c21-48.667 31.484-100.68 31.484-156.02s-10.484-107.35-31.484-156.02c-21-48.667-49.547-90.953-85.547-126.95s-78.287-64.547-126.95-85.547c-48.667-21-100.68-31.484-156.02-31.484zm0 80c89.333 0 165.03 30.969 227.03 92.969s92.969 137.7 92.969 227.03-30.969 165.03-92.969 227.03-137.7 92.969-227.03 92.969-165.03-30.969-227.03-92.969-92.969-137.7-92.969-227.03 30.969-165.03 92.969-227.03 137.7-92.969 227.03-92.969z" fill="#000"/>
</svg>
