<?xml version="1.0" encoding="UTF-8"?>
<svg id="svg4" width="24" height="24" version="1.1" viewBox="0 -960 960 960" xmlns="http://www.w3.org/2000/svg">
 <path id="path2" d="m462.1-450c25.262 0 51.79 3.9997 80.842 11-20.463 21.75-30.317 47.25-30.317 76.499 0 22.25 6.3158 43.251 19.705 62.499h-272.33v-50c0-29.75 22.989-53.75 69.221-71.999 46.231-18.5 90.694-28 132.88-28m0-50c-27.283 0-50.527-9.75-71.244-29.251-20.211-19.5-29.81-42.999-29.81-70.749 0-27 9.6-50 29.81-70.5 20.716-20 43.958-29.501 71.244-29.501 28.042 0 51.79 9.4999 71.496 29.501 19.705 20.5 29.558 43.5 29.558 70.5 0 27.75-9.8527 51.249-29.558 70.749-19.705 19.5-43.452 29.251-71.496 29.251m189.48-50h88.421v50h-50.527v137.5a63.158 62.499 0 0 1-63.158 62.499 63.158 62.499 0 0 1-63.158-62.499 63.158 62.499 0 0 1 63.158-62.499c9.0948 0 17.432 1.7496 25.262 5.2501zm-171.58-330c-55.333 0-107.35 10.484-156.02 31.484-48.667 21-90.956 49.547-126.95 85.547s-64.547 78.29-85.547 126.95c-21 48.667-31.484 100.68-31.484 156.02s10.484 107.35 31.484 156.02c21 48.667 49.547 90.956 85.547 126.95s78.29 64.547 126.95 85.547c48.667 21 100.68 31.484 156.02 31.484s107.35-10.484 156.02-31.484c48.667-21 90.956-49.547 126.95-85.547s64.547-78.29 85.547-126.95c21-48.667 31.484-100.68 31.484-156.02s-10.484-107.35-31.484-156.02c-21-48.667-49.547-90.956-85.547-126.95s-78.29-64.547-126.95-85.547c-48.667-21-100.68-31.484-156.02-31.484zm0 80c89.333 0 165.03 30.969 227.03 92.969s92.969 137.7 92.969 227.03-30.969 165.03-92.969 227.03-137.7 92.969-227.03 92.969-165.03-30.969-227.03-92.969-92.969-137.7-92.969-227.03 30.969-165.03 92.969-227.03 137.7-92.969 227.03-92.969z" fill="#000"/>
</svg>
