<?xml version="1.0" encoding="UTF-8"?>
<svg id="svg4" width="24" height="24" version="1.1" viewBox="0 -960 960 960" xmlns="http://www.w3.org/2000/svg">
 <path id="path660" d="m480-880c-55.333 0-107.35 10.484-156.02 31.484-48.667 21-90.956 49.547-126.95 85.547s-64.547 78.29-85.547 126.95c-21 48.667-31.484 100.68-31.484 156.02s10.484 107.35 31.484 156.02c21 48.667 49.547 90.956 85.547 126.95s78.29 64.547 126.95 85.547c48.667 21 100.68 31.484 156.02 31.484s107.35-10.484 156.02-31.484c48.667-21 90.956-49.547 126.95-85.547s64.547-78.29 85.547-126.95c21-48.667 31.484-100.68 31.484-156.02s-10.484-107.35-31.484-156.02c-21-48.667-49.547-90.956-85.547-126.95s-78.29-64.547-126.95-85.547c-48.667-21-100.68-31.484-156.02-31.484zm0 80c89.333 0 165.03 30.969 227.03 92.969s92.969 137.7 92.969 227.03-30.969 165.03-92.969 227.03-137.7 92.969-227.03 92.969-165.03-30.969-227.03-92.969-92.969-137.7-92.969-227.03 30.969-165.03 92.969-227.03 137.7-92.969 227.03-92.969zm0 80a240 240 0 0 0-240 240 240 240 0 0 0 240 240 240 240 0 0 0 240-240 240 240 0 0 0-240-240zm0 47.969a60 60 0 0 1 60 60 60 60 0 0 1-60 60 60 60 0 0 1-60-60 60 60 0 0 1 60-60zm-106.8 94.141c31.44 10.32 48.679 44.107 38.359 75.547-10.08 31.68-43.867 48.752-75.547 38.672-31.44-10.32-48.757-44.185-38.438-75.625 10.08-31.68 44.185-48.674 75.625-38.594zm213.83 0c31.44-10.08 65.305 6.9306 75.625 37.891 10.08 31.92-7.2319 66.014-38.672 76.094-31.44 10.32-65.227-6.9975-75.547-38.438-10.32-31.68 6.9138-65.467 38.594-75.547zm-107.03 61.875a36 36 0 0 1 36.016 36.016 36 36 0 0 1-36.016 36.016 36 36 0 0 1-36.016-36.016 36 36 0 0 1 36.016-36.016zm87.031 83.203c15.18 2.4 29.499 10.623 39.219 24.062 19.44 26.88 13.442 64.388-13.438 83.828-26.64 19.44-64.79 13.677-83.75-13.203-19.44-26.88-13.442-64.388 13.438-83.828 13.32-9.84 29.351-13.259 44.531-10.859zm-173.83 0.23438c15.18-2.4 31.211 0.905 44.531 10.625 26.88 19.44 32.877 56.948 13.438 83.828-19.2 26.88-57.11 32.883-83.75 13.203-26.88-19.44-32.877-56.948-13.438-83.828 9.72-13.32 24.039-21.428 39.219-23.828z" fill="#000"/>
</svg>
