<?xml version="1.0" encoding="UTF-8"?>
<svg id="svg4" width="24" height="24" version="1.1" viewBox="0 -960 960 960" xmlns="http://www.w3.org/2000/svg">
 <path id="path2" d="m604.01-706.15-25.193 18.214 62.823 88.25-27.488 32.583c-7.4894 9.4668-22.78 12.277-32.765 5.1773-8.6289-6.1354-18.273-15.236-39.788-17.75-3.0426-1.1094-6.3973-1.4792-10.142-1.4792h-24.965l-24.965 165.67-24.965-165.67h-24.965c-3.7448 0-7.0993 0.36978-10.142 1.4792-21.515 2.515-31.159 11.615-39.788 17.75-9.9859 7.1002-21.366-2.5747-28.855-12.042l-42.869-57.205-48.421 33.745 48.561 66.017c14.979 18.934 33.658 35.948 56.126 35.948 10.653 0 19.239-5.4177 31.975-10.842l-26.313 158.88 47.24 2.9386 15.421-52.222-8.8197 168.59 114.56 1.9629-10.79-171.55 14.453 53.213h50.176l-21.461-163.79c12.738 5.4243 25.264 7.9034 35.916 7.9034 22.468 0 47.029-15.033 62.007-33.966l37.797-48.385-47.418-43.552-0.78012 0.73961zm-122.97 2.7306c-30.004 0-54.327 23.609-54.327 52.732 0 29.124 24.323 52.732 54.327 52.732 30.004 0 54.327-23.609 54.327-52.732 0-29.124-24.323-52.732-54.327-52.732zm-1.0431-176.58c-55.333 0-107.35 10.484-156.02 31.484-48.667 21-90.956 49.547-126.95 85.547s-64.547 78.29-85.547 126.95c-21 48.667-31.484 100.68-31.484 156.02s10.484 107.35 31.484 156.02c21 48.667 49.547 90.956 85.547 126.95s78.29 64.547 126.95 85.547c48.667 21 100.68 31.484 156.02 31.484s107.35-10.484 156.02-31.484c48.667-21 90.956-49.547 126.95-85.547s64.547-78.29 85.547-126.95c21-48.667 31.484-100.68 31.484-156.02s-10.484-107.35-31.484-156.02c-21-48.667-49.547-90.956-85.547-126.95s-78.29-64.547-126.95-85.547c-48.667-21-100.68-31.484-156.02-31.484zm0 80c89.333 0 165.03 30.969 227.03 92.969s92.969 137.7 92.969 227.03-30.969 165.03-92.969 227.03-137.7 92.969-227.03 92.969-165.03-30.969-227.03-92.969-92.969-137.7-92.969-227.03 30.969-165.03 92.969-227.03 137.7-92.969 227.03-92.969z" fill="#000"/>
</svg>
