<?xml version="1.0" encoding="UTF-8"?>
<svg id="svg450" version="1.1" viewBox="0 0 24 24" xmlns="http://www.w3.org/2000/svg">
 <path id="path577" d="m12 2a10 10 0 0 0-10 10 10 10 0 0 0 10 10 10 10 0 0 0 10-10 10 10 0 0 0-10-10zm0 4a1.9286 1.8947 0 0 1 1.9277 1.8945v3.7891a1.9286 1.8947 0 0 1-1.9277 1.8945 1.9286 1.8947 0 0 1-1.9277-1.8945v-3.7891a1.9286 1.8947 0 0 1 1.9277-1.8945zm-4.5 5.6836h1.2852a3.2143 3.1579 0 0 0 3.2148 3.1582 3.2143 3.1579 0 0 0 3.2148-3.1582h1.2852c0 2.2295-1.6781 4.0675-3.8574 4.377v1.9395h-1.2852v-1.9395c-2.1793-0.30947-3.8574-2.1475-3.8574-4.377z" fill="#000"/>
</svg>
