<?xml version="1.0" encoding="UTF-8"?>
<svg id="svg4" width="24" height="24" version="1.1" viewBox="0 -960 960 960" xmlns="http://www.w3.org/2000/svg">
 <path id="path917" d="m386.59-300.23c-52.082-19.302-93.364-64.422-105.61-123.05l-39.842-188.44c-5.7603-26.058 10.801-51.634 36.722-57.183l234.49-49.945 0.72003-0.2413c25.681-5.0669 50.882 11.581 56.163 37.157l8.4004 40.294 104.4 22.439h0.72004c25.201 5.7907 41.522 31.366 36.242 56.942l-39.842 188.68c-19.201 90.963-108.49 149.35-199.21 129.81-37.922-7.9622-70.083-28.471-93.364-56.459m285.37-271.92-234.49-50.186-39.842 188.68v0.72384c-13.681 64.663 27.841 128.36 92.404 142.11 64.563 13.753 128.41-27.747 142.09-92.651l39.842-188.68m-96.005 200.74c-15.121 25.817-45.362 40.052-76.084 33.538-30.481-6.5146-52.323-31.849-55.923-61.526l132.01 27.988m-180.73-273.37-107.29 23.163 39.842 188.44 0.24002 0.72384c3.6002 17.131 10.801 32.573 20.641 45.843-2.4001-18.579-1.9201-37.881 2.1601-57.183l10.32-48.256c-10.801-1.9302-20.161-7.9622-25.201-16.648 1.4401-14.718 13.441-27.747 30.001-31.608h6.0003l18.721-91.928c0.96005-4.5844 2.4001-8.6861 4.5602-12.547m157.45 170.34c7.6804-12.788 24.001-19.544 40.562-15.924 16.561 3.3779 28.561 16.166 30.721 31.125-7.9204 12.547-24.001 19.302-40.802 15.442-16.561-3.1366-28.561-15.924-30.481-30.643m-117.13-25.093c7.6804-12.788 23.761-19.544 40.322-15.924 16.081 3.3779 28.801 16.407 30.721 31.125-7.9204 12.547-24.001 19.544-40.562 16.407-16.561-4.1018-28.561-16.89-30.481-31.608m43.682-163.11 47.042 10.134-3.8402-19.302zm0.76415-217.37c-55.333 0-107.35 10.484-156.02 31.484-48.667 21-90.956 49.547-126.95 85.547s-64.547 78.29-85.547 126.95c-21 48.667-31.484 100.68-31.484 156.02s10.484 107.35 31.484 156.02c21 48.667 49.547 90.956 85.547 126.95s78.29 64.547 126.95 85.547c48.667 21 100.68 31.484 156.02 31.484s107.35-10.484 156.02-31.484c48.667-21 90.956-49.547 126.95-85.547s64.547-78.29 85.547-126.95c21-48.667 31.484-100.68 31.484-156.02s-10.484-107.35-31.484-156.02c-21-48.667-49.547-90.956-85.547-126.95s-78.29-64.547-126.95-85.547c-48.667-21-100.68-31.484-156.02-31.484zm0 80c89.333 0 165.03 30.969 227.03 92.969s92.969 137.7 92.969 227.03-30.969 165.03-92.969 227.03-137.7 92.969-227.03 92.969-165.03-30.969-227.03-92.969-92.969-137.7-92.969-227.03 30.969-165.03 92.969-227.03 137.7-92.969 227.03-92.969z" stroke-width="24.064" fill="#000"/>
</svg>
