<?xml version="1.0" encoding="UTF-8"?>
<svg id="svg4" width="24" height="24" version="1.1" viewBox="0 -960 960 960" xmlns="http://www.w3.org/2000/svg">
 <path id="path181" d="m357.78-700h-48.889v146.67h48.889v-146.67m293.33 0h-48.889v244.44h48.889v-244.44m-391.11 244.44h48.889v195.56h48.889v-195.56h48.889v-48.889h-146.67v48.889m293.33-146.67h-48.889v-97.778h-48.889v97.778h-48.889v48.889h146.67v-48.889m-97.778 342.22h48.889v-244.44h-48.889v244.44m97.778-146.67v48.889h48.889v97.778h48.889v-97.778h48.889v-48.889zm-73.333-473.33c-55.333 0-107.35 10.484-156.02 31.484-48.667 21-90.962 49.547-126.95 85.547s-64.547 78.296-85.547 126.95c-21 48.667-31.484 100.68-31.484 156.02s10.484 107.35 31.484 156.02c21 48.667 49.547 90.962 85.547 126.95s78.296 64.547 126.95 85.547c48.667 21 100.68 31.484 156.02 31.484s107.35-10.484 156.02-31.484c48.667-21 90.962-49.547 126.95-85.547s64.547-78.296 85.547-126.95c21-48.667 31.484-100.68 31.484-156.02s-10.484-107.35-31.484-156.02c-21-48.667-49.547-90.962-85.547-126.95s-78.296-64.547-126.95-85.547c-48.667-21-100.68-31.484-156.02-31.484zm0 80c89.333 0 165.03 30.969 227.03 92.969s92.969 137.7 92.969 227.03-30.969 165.03-92.969 227.03-137.7 92.969-227.03 92.969-165.03-30.969-227.03-92.969-92.969-137.7-92.969-227.03 30.969-165.03 92.969-227.03 137.7-92.969 227.03-92.969z" stroke-width="24.444" fill="#000"/>
</svg>
