<?xml version="1.0" encoding="UTF-8"?>
<svg id="svg450" version="1.1" viewBox="0 0 24 24" xmlns="http://www.w3.org/2000/svg">
 <path id="path577" d="m12 2a10 10 0 0 0-10 10 10 10 0 0 0 10 10 10 10 0 0 0 10-10 10 10 0 0 0-10-10zm0 4a6 6 0 0 1 6 6c0 1.938-0.92356 3.6657-2.3516 4.7637l-0.43164-1.1992c0.984-0.864 1.584-2.1485 1.584-3.5645a4.8 4.8 0 0 0-4.8008-4.8008 4.8 4.8 0 0 0-4.8008 4.8008c0 1.416 0.59999 2.7005 1.584 3.5645l-0.43164 1.1992c-1.428-1.098-2.3516-2.8257-2.3516-4.7637a6 6 0 0 1 6-6zm0 2.4004a3.6 3.6 0 0 1 3.5996 3.5996c0 0.882-0.31784 1.6864-0.83984 2.3164l-0.52734-1.4395c0.108-0.276 0.16797-0.57695 0.16797-0.87695a2.4 2.4 0 0 0-2.4004-2.4004 2.4 2.4 0 0 0-2.4004 2.4004c0 0.3 0.059969 0.60095 0.16797 0.87695l-0.52734 1.4395c-0.522-0.63-0.83984-1.4344-0.83984-2.3164a3.6 3.6 0 0 1 3.5996-3.5996zm0 2.4004a1.2 1.2 0 0 1 1.1992 1.1992c0 0.3-0.10725 0.56344-0.28125 0.77344l1.9023 5.2266h-1.2773l-1.543-4.2422-1.543 4.2422h-1.2773l1.9023-5.2266c-0.174-0.21-0.28125-0.47344-0.28125-0.77344a1.2 1.2 0 0 1 1.1992-1.1992z" fill="#000"/>
</svg>
