<?xml version="1.0" encoding="UTF-8"?>
<svg id="svg4" width="24" height="24" version="1.1" viewBox="0 -960 960 960" xmlns="http://www.w3.org/2000/svg">
 <path id="path1210" d="m288-640a48 45.714 0 0 0-48 45.714v228.57a48 45.714 0 0 0 48 45.714h48l24-45.714h240l24 45.714h48a48 45.714 0 0 0 48-45.714v-228.57a48 45.714 0 0 0-48-45.714h-384m60 114.29a36 34.286 0 0 1 36 34.286 36 34.286 0 0 1-36 34.286 36 34.286 0 0 1-36-34.286 36 34.286 0 0 1 36-34.286m60 0h144v68.571h-144v-68.571m204 0a36 34.286 0 0 1 36 34.286 36 34.286 0 0 1-36 34.286 36 34.286 0 0 1-36-34.286 36 34.286 0 0 1 36-34.286zm-132-354.29c-55.333 0-107.35 10.484-156.02 31.484-48.667 21-90.956 49.547-126.95 85.547s-64.547 78.29-85.547 126.95c-21 48.667-31.484 100.68-31.484 156.02s10.484 107.35 31.484 156.02c21 48.667 49.547 90.956 85.547 126.95s78.29 64.547 126.95 85.547c48.667 21 100.68 31.484 156.02 31.484s107.35-10.484 156.02-31.484c48.667-21 90.956-49.547 126.95-85.547s64.547-78.29 85.547-126.95c21-48.667 31.484-100.68 31.484-156.02s-10.484-107.35-31.484-156.02c-21-48.667-49.547-90.956-85.547-126.95s-78.29-64.547-126.95-85.547c-48.667-21-100.68-31.484-156.02-31.484zm0 80c89.333 0 165.03 30.969 227.03 92.969s92.969 137.7 92.969 227.03-30.969 165.03-92.969 227.03-137.7 92.969-227.03 92.969-165.03-30.969-227.03-92.969-92.969-137.7-92.969-227.03 30.969-165.03 92.969-227.03 137.7-92.969 227.03-92.969z" stroke-width="23.422" fill="#000"/>
</svg>
