<?xml version="1.0" encoding="UTF-8"?>
<svg id="svg450" version="1.1" viewBox="0 0 24 24" xmlns="http://www.w3.org/2000/svg">
 <path id="path577" d="m12 2a10 10 0 0 0-10 10 10 10 0 0 0 10 10 10 10 0 0 0 10-10 10 10 0 0 0-10-10zm0 4c0.53571 0 0.99024 0.18431 1.3652 0.55273 0.375 0.36842 0.5625 0.81548 0.5625 1.3418v3.7891c0 0.52632-0.1875 0.97338-0.5625 1.3418-0.375 0.36842-0.82952 0.55273-1.3652 0.55273-0.53571 0-0.99024-0.18431-1.3652-0.55273-0.375-0.36842-0.5625-0.81548-0.5625-1.3418v-3.7891c0-0.52632 0.1875-0.97338 0.5625-1.3418 0.375-0.36842 0.82952-0.55273 1.3652-0.55273zm0 1.2637c-0.18214 0-0.33577 0.060588-0.45898 0.18164-0.12321 0.12105-0.18359 0.27027-0.18359 0.44922v3.7891c0 0.17895 0.06038 0.33012 0.18359 0.45117 0.12321 0.12105 0.27684 0.18164 0.45898 0.18164s0.33577-0.060588 0.45898-0.18164c0.12321-0.12105 0.18359-0.27222 0.18359-0.45117v-3.7891c0-0.17895-0.06038-0.32817-0.18359-0.44922-0.12321-0.12105-0.27684-0.18164-0.45898-0.18164zm-4.5 4.4199h1.2852c0 0.87368 0.31462 1.6186 0.94141 2.2344 0.62678 0.61579 1.3842 0.92383 2.2734 0.92383 0.88928 0 1.6467-0.30804 2.2734-0.92383 0.62678-0.61579 0.94141-1.3607 0.94141-2.2344h1.2852c0 1.1053-0.36518 2.0721-1.0938 2.8984s-1.6494 1.3136-2.7637 1.4609v1.957h-1.2852v-1.957c-1.1143-0.14737-2.0351-0.63462-2.7637-1.4609-0.72857-0.82632-1.0938-1.7932-1.0938-2.8984z" fill="#000"/>
</svg>
