<?xml version="1.0" encoding="UTF-8"?>
<svg id="svg4" width="24" height="24" version="1.1" viewBox="0 -960 960 960" xmlns="http://www.w3.org/2000/svg">
 <path id="path667" d="m434.5-636.84a87.248 84.211 0 0 1 87.248 84.211 87.248 84.211 0 0 1-87.248 84.211 87.248 84.211 0 0 1-87.248-84.211 87.248 84.211 0 0 1 87.248-84.211m0 210.53c58.238 0 174.5 28.211 174.5 84.211v42.105h-348.99v-42.105c0-56 116.26-84.211 174.5-84.211m169.26-202.95c44.06 46.316 44.06 110.53 0 153.05l-36.644-35.579c18.322-24.842 18.322-57.053 0-81.895l36.644-35.579m72.198-70.737c85.721 85.263 85.067 212.84 0 294.74l-35.554-34.316c60.419-66.947 60.419-162.53 0-226.11zm-175.95-180c-58.1 0-112.71 10.484-163.82 31.484-51.1 21-95.504 49.547-133.3 85.547s-67.774 78.29-89.824 126.95c-22.05 48.667-33.059 100.68-33.059 156.02s11.009 107.35 33.059 156.02c22.05 48.667 52.024 90.956 89.824 126.95s82.205 64.547 133.3 85.547c51.1 21 105.71 31.484 163.82 31.484s112.71-10.484 163.82-31.484c51.1-21 95.504-49.547 133.3-85.547s67.774-78.29 89.824-126.95c22.05-48.667 33.059-100.68 33.059-156.02s-11.009-107.35-33.059-156.02c-22.05-48.667-52.024-90.956-89.824-126.95s-82.205-64.547-133.3-85.547c-51.1-21-105.71-31.484-163.82-31.484zm0 80c93.8 0 173.28 30.969 238.38 92.969 65.1 62 97.617 137.7 97.617 227.03s-32.517 165.03-97.617 227.03c-65.1 62-144.59 92.969-238.38 92.969s-173.28-30.969-238.38-92.969c-65.1-62-97.617-137.7-97.617-227.03s32.517-165.03 97.617-227.03c65.1-62 144.59-92.969 238.38-92.969z" stroke-width="21.429" fill="#000"/>
</svg>
