<svg id="svg4" width="24" height="24" version="1.1" viewBox="0 0 24 24" xmlns="http://www.w3.org/2000/svg">
 <path id="path2-3" d="m7 2v8.7917c-0.49167-0.28333-1.0583-0.45833-1.6667-0.45833-1.8417 0-3.3333 1.4917-3.3333 3.3333s1.4917 3.3333 3.3333 3.3333c1.8417 0 3.3333-1.4917 3.3333-3.3333v-8.3333h3.3333v-3.3333zm6.0871 7.7731-1.1119 1.0434 4.7749 4.7426v0.23242c-0.49169-0.28333-1.0597-0.45898-1.668-0.45898-1.8417 0-3.3322 1.4923-3.3322 3.334 0 1.8417 1.4904 3.334 3.3322 3.334 1.8417 0 3.3341-1.4923 3.3341-3.334v-1.4414l3.0438 3.0496 0.91588-0.98047zm5.3293 0.56021h3.3335v-3.3333h-5.0002v4.3167l1.6667 1.6667z" stroke-width=".83333" fill="#000"/>
</svg>
