<?xml version="1.0" encoding="UTF-8"?>
<svg id="svg2994" width="24" height="24" version="1.1" viewBox="0 0 24 24" xmlns="http://www.w3.org/2000/svg">
 <path id="path183" d="m21 13.619a1 1.0476 0 0 1 1 1.0476v6.2857a1 1.0476 0 0 1-1 1.0476h-8a1 1.0476 0 0 1-1-1.0476v-6.2857c0-0.44524 0.265-0.82762 0.64-0.97952l6.215-2.6871 0.38 0.95857-3.82 1.6605h5.585m0 1.0476h-8v2.0952h6v-1.0476h1v1.0476h1v-2.0952m-6.5 3.1429a1.5 1.5714 0 0 0-1.5 1.5714 1.5 1.5714 0 0 0 1.5 1.5714 1.5 1.5714 0 0 0 1.5-1.5714 1.5 1.5714 0 0 0-1.5-1.5714zm2.3437-15.81h2.1563v1.7847h-1.4226l-4.7332 4.7206-1.2616-1.2404 5.2611-5.2649m-6.7911 5.3542c0.23263 0 0.44737 0.089236 0.63526 0.26771l1.7895 1.7847c0.16105 0.17847 0.25947 0.38371 0.25947 0.62465l-0.08947 0.35694-3.5789 7.1389c-0.17 0.31232-0.48316 0.47295-0.80526 0.47295-0.31316 0-0.63527-0.16062-0.79632-0.47295l-1.6642-3.3017-3.3105-1.6062c-0.33105-0.17847-0.49211-0.4908-0.49211-0.80312s0.16105-0.62465 0.49211-0.80312l7.1579-3.5694c0.12526-0.089236 0.25947-0.089236 0.40263-0.089236m-2.3711 2.5165-0.62632 0.6068 2.55 2.5432 0.60842-0.62465-2.5321-2.5254m-1.2616 1.2582-0.63526 0.63358 2.5321 2.5254 0.63526-0.63358z" fill="#000"/>
</svg>
