<svg id="svg4" version="1" viewBox="0 0 24 24" xmlns="http://www.w3.org/2000/svg">
 <path id="path2" d="m16.844 2-0.80213 0.5547 2.4064 3.6364-1.2032 1.6025c-0.29617 0.39445-0.90085 0.51156-1.2957 0.21572-0.34123-0.25564-0.7226-0.63481-1.5734-0.7396-0.12032-0.046225-0.25298-0.061633-0.40106-0.061633h-0.98723l-0.98723 6.9029-0.98723-6.9029h-0.98723c-0.14809 0-0.28074 0.015408-0.40106 0.061633-0.8508 0.10479-1.2322 0.48396-1.5734 0.7396-0.39489 0.29584-0.99957 0.17874-1.2957-0.21572l-1.8511-2.4653-1.6043 1.2018 1.8819 2.4653c0.59234 0.78891 1.487 1.171 2.3755 1.171 0.42128 0 0.91543-0.14379 1.4191-0.3698l-0.92553 7.2727h1.4809l0.49362-1.9723v6.9029h3.9489v-6.9029l0.49362 1.9723h1.4808l-0.92553-7.2727c0.50372 0.22601 0.99787 0.3698 1.4191 0.3698 0.88851 0 1.7832-0.38213 2.3755-1.171l1.8819-2.4653-1.6043-1.2018-0.030853 0.030817zm-4.8436 0.27735c-1.0905 0-1.9745 0.88301-1.9745 1.9723s0.884 1.9723 1.9745 1.9723 1.9745-0.88301 1.9745-1.9723-0.884-1.9723-1.9745-1.9723z" stroke-width=".98668" fill="#000"/>
</svg>
