<?xml version="1.0" encoding="UTF-8"?>
<svg id="svg4" version="1.1" viewBox="0 0 24 24" xmlns="http://www.w3.org/2000/svg">
 <path id="path676-1" d="m6.3134 15.778a0.94863 1.059 48.232 0 1-1.4184 0.33471 0.94863 1.059 48.232 0 1-0.18548-1.3727 0.94863 1.059 48.232 0 1 1.4184-0.33471 0.94863 1.059 48.232 0 1 0.18548 1.3727zm0.93051-0.34064 1.3038 0.51875-0.33376 0.75183-1.3038-0.51875zm0.72985-3.8882a0.94863 1.059 48.232 0 1-1.4184 0.33471 0.94863 1.059 48.232 0 1-0.18548-1.3727 0.94863 1.059 48.232 0 1 1.4184-0.33471 0.94863 1.059 48.232 0 1 0.18548 1.3727zm0.93051-0.34064 1.3038 0.51875-0.33376 0.75183-1.3038-0.51875zm0.71358-3.7312a0.94863 1.059 48.232 0 1-1.4184 0.33471 0.94863 1.059 48.232 0 1-0.18548-1.3727 0.94863 1.059 48.232 0 1 1.4184-0.33471 0.94863 1.059 48.232 0 1 0.18548 1.3727zm0.93051-0.34064 1.3038 0.51875-0.33376 0.75183-1.3038-0.51875zm0.78028-3.6184a0.94863 1.059 48.232 0 1-1.4184 0.33471 0.94863 1.059 48.232 0 1-0.18548-1.3727 0.94863 1.059 48.232 0 1 1.4184-0.33471 0.94863 1.059 48.232 0 1 0.18548 1.3727zm0.93051-0.34064 1.3038 0.51875-0.33376 0.75183-1.3038-0.51875zm4.8199-0.65539-1e-6 0.00193-0.10627 2.2e-6c-0.34032 0.012725-0.70301 0.089822-1.0709 0.24379-0.97496 0.41015-2.0064 1.385-2.7468 3.2118l-4.7312 11.808-0.00407 0.0097-8e-6 0.0077c0.041394 0.02121 0.16552 0.08119 0.36787 0.17026 0.45069 0.2036 1.1031 0.66481 1.1997 1.6446l2e-6 0.02129-0.047007 2.3586h4.4431c-0.0046-0.74652 0.06383-1.4634 0.37195-2.1844 0.53807-1.247 1.8079-2.3286 4.4615-3.266-3.9e-5 -0.0085-5.17e-4 -4.44e-4 0.0041-0.01741 0.01379-0.08483 0.0184-0.25422 3e-6 -0.46629-0.045976-0.42839-0.18291-1.0559-0.39446-1.7897-0.4231-1.4718-1.1403-3.4016-1.9497-5.2976l-0.11036-0.26316 0.23912-0.178c1.6602-1.1961 2.3488-2.392 2.4729-3.3743 0.12417-0.97809-0.29832-1.7605-0.97895-2.2173-0.40017-0.26764-0.88693-0.42245-1.4204-0.42373zm-1.5594 1.5363c0.01247-6.016e-4 0.02414 2.3e-6 0.03678-2.1e-6 0.4047-2e-7 0.73574 0.30417 0.73574 0.67912 0 0.37495-0.33105 0.67912-0.73574 0.67912-0.4047-2e-7 -0.73574-0.30417-0.73574-0.67912-1e-6 -0.36323 0.3116-0.66096 0.69896-0.67912zm-1.5144 4.0302c0.01247-6.016e-4 0.02619 1.3e-6 0.03883 3.3e-6 0.4047-4e-7 0.73574 0.30394 0.73574 0.67719 0 0.37325-0.33104 0.67912-0.73574 0.67912-0.4047-3.5e-6 -0.73575-0.30587-0.73575-0.67913 0-0.36159 0.30956-0.65892 0.69691-0.67719zm-1.8578 4.0457c0.01247-6.01e-4 0.02618 2e-6 0.03883 3e-6 0.4047 0 0.73574 0.30587 0.73574 0.67912 0 0.37325-0.33105 0.67719-0.73574 0.67719-0.40471-3e-6 -0.73575-0.30394-0.73575-0.67719 0-0.36159 0.30956-0.66086 0.69691-0.67912zm-1.7372 4.1734c0.4047 0 0.73574 0.30587 0.73574 0.67912 0 0.37325-0.33104 0.67912-0.73574 0.67912-0.4047 0-0.73574-0.30587-0.73574-0.67912 0-0.37325 0.33105-0.67912 0.73574-0.67912z" stroke-linecap="square" stroke-width=".61938" fill="#000" strok="#000"/>
</svg>
