<?xml version="1.0" encoding="UTF-8"?>
<svg id="svg4" width="24" height="24" version="1.1" viewBox="0 0 24 24" xmlns="http://www.w3.org/2000/svg">
 <path id="path2238" d="m10.5 11.884c-0.39918-0.46332-0.55885-1.0811-0.479-1.6988 0.07975-0.61775 0.39918-1.1583 0.8782-1.5444 0.479-0.3861 1.1177-0.54055 1.7564-0.46332 0.63868 0.07725 1.1975 0.3861 1.5967 0.84942l5.5885 6.8726c0.79835-1.39 1.3572-2.9344 1.3572-4.6332 0-5.0965-4.3111-9.2664-9.5802-9.2664-5.2691 0-9.5802 4.0927-9.5802 9.1892 0 1.8533 0.55885 3.5521 1.5169 5.0193l2.8741-4.0154c0.39918-0.54055 0.87818-0.84942 1.5169-0.92665 0.63868-0.07725 1.2774 0 1.7564 0.3861 0.55885 0.3861 0.8782 0.84942 0.95802 1.4672 0.07975 0.61775 0 1.2355-0.39918 1.6988l-3.2732 4.556c1.437 0.69498 3.0337 1.0811 4.6304 1.0811 1.7564 0 3.4329-0.46332 4.87-1.3128zm-7.6642 10.116c-0.15975 0-0.31935-0.07725-0.479-0.1545-0.39918-0.23175-0.479-0.69498-0.15975-1.0811l5.5885-7.722c0.2395-0.3861 0.71852-0.46332 1.1177-0.1545 0.39918 0.30888 0.479 0.69498 0.15975 1.0811l-5.5885 7.7221c-0.15975 0.23166-0.39918 0.30888-0.6387 0.30888zm18.362 0c-0.2395 0-0.479-0.07725-0.63868-0.30888l-8.7819-10.811c-0.2395-0.30888-0.2395-0.84942 0.15975-1.0811 0.31935-0.23175 0.87818-0.23175 1.1177 0.1545l8.7819 10.811c0.2395 0.30888 0.2395 0.84942-0.15975 1.0811-0.15975 0.07716-0.31935 0.15438-0.47902 0.15438z" fill="#000"/>
</svg>
