<?xml version="1.0" encoding="UTF-8"?>
<svg id="svg4" width="24" height="24" version="1.1" viewBox="0 0 24 24" xmlns="http://www.w3.org/2000/svg">
 <path id="path179" d="m21.889 10.933-2.1474-2.4953v-3.0247c0.0049-0.029855 0.0083-0.060159 0.0083-0.091157v-2.6529c0-0.36916-0.36313-0.66844-0.81105-0.66844-0.44802 0-0.8111 0.29928-0.8111 0.66844v0.24206h-0.0051v0.4312h-12.246v-0.43124h-0.00153v-0.24206c-3.3e-6 -0.36916-0.36314-0.66844-0.81105-0.66844-0.44802 0-0.8111 0.29928-0.8111 0.66844v2.6529c0 0.00882 0.00119 0.017357 0.00159 0.026097v3.0938l-2.144 2.4913c-0.072061 0.083724-0.11076 0.18382-0.11076 0.2865v3.5574c0 0.27347 0.26898 0.4952 0.60079 0.4952h1.442c0.027609 0.01601 0.056142 0.03124 0.086673 0.04464l6.1036 2.6948-6.1036 2.6948c-0.40624 0.17933-0.55916 0.5962-0.34157 0.93089 0.15044 0.23149 0.43855 0.36312 0.73627 0.36312 0.133 0 0.26789-0.02627 0.39331-0.08152l7.0825-3.1271 7.0826 3.127c0.12543 0.05535 0.26026 0.0816 0.39331 0.0816 0.29777 0 0.58578-0.1317 0.73622-0.36312 0.21769-0.33477 0.06482-0.75164-0.34153-0.93097l-6.1036-2.6948 6.1036-2.6948c0.03048-0.01348 0.05898-0.02863 0.08662-0.04468h1.442c0.33181 0 0.60079-0.22177 0.60079-0.4952v-3.5574c0-0.10263-0.0387-0.20273-0.11076-0.28646zm-17.635 0.28728-1.0037 3.0614h-0.049463v-2.9044l1.0531-1.2238zm7.7453 6.0111-5.3901-2.3798h10.78zm6.1695-8.3289h-12.339v-2.0072h12.339zm2.629 5.3792h-0.05277l-1.0037-3.0614v-1.0708l1.0564 1.2277z" fill="#000"/>
</svg>
