<?xml version="1.0" encoding="UTF-8"?>
<svg id="svg4" width="24" height="24" version="1.1" viewBox="0 0 24 24" xmlns="http://www.w3.org/2000/svg">
 <path id="path1918" d="m18.436 8.5454-3.0545-3.0545c-0.29091-0.29091-0.72727-0.29091-1.0182 0l-7.0545 7.1273c-0.2909 0.2909-0.2909 0.72728 0 1.0182l3.0545 3.0545c0.1455 0.1455 0.36362 0.21825 0.5091 0.21825 0.1455 0 0.36362-0.07275 0.5091-0.21825l7.1273-7.1273c0.21825-0.21825 0.21825-0.72728-0.07275-1.0182zm-6.4 4.3636c-0.07275 0.07275-0.07275 0.1455-0.1455 0.21825-0.1455 0.1455-0.36365 0.21825-0.5091 0.21825-0.07275 0-0.21825 0-0.2909-0.07275-0.07275 0-0.1455-0.07275-0.21825-0.1455s-0.1455-0.1455-0.1455-0.21825-0.07275-0.21825-0.07275-0.2909c0-0.07275 0-0.21825 0.07275-0.2909 0-0.07275 0.07275-0.1455 0.1455-0.21825 0.21825-0.21825 0.5091-0.2909 0.8-0.1455 0.07275 0 0.1455 0.07275 0.21825 0.1455s0.1455 0.1455 0.1455 0.21825 0.07275 0.21825 0.07275 0.2909c0 0.07275-0.07275 0.21825-0.07275 0.2909zm1.5273-1.5273c0 0.07275-0.07275 0.1455-0.1455 0.21825-0.07275 0.07275-0.1455 0.1455-0.21825 0.1455s-0.21825 0.07275-0.2909 0.07275c-0.07275 0-0.21825 0-0.2909-0.07275-0.07275 0-0.1455-0.07275-0.21825-0.1455-0.1455-0.1455-0.21825-0.2909-0.21825-0.5091 0-0.07275 0-0.21825 0.07275-0.2909 0.07275-0.07275 0.07275-0.1455 0.1455-0.21825 0.1455-0.1455 0.43635-0.21825 0.65455-0.21825 0.07275 0 0.07275 0 0.1455 0.07275 0.07275 0 0.07275 0 0.1455 0.07275 0.07275 0 0.07275 0.07275 0.1455 0.07275 0.07275 0.07275 0.1455 0.1455 0.1455 0.21825s0.07275 0.21825 0.07275 0.2909c0 0.07275-0.1455 0.21825-0.1455 0.2909zm1.4546-1.5273c0 0.07275-0.07275 0.1455-0.1455 0.21825s-0.1455 0.1455-0.21825 0.1455-0.21825 0.07275-0.2909 0.07275c-0.07275 0-0.21825 0-0.2909-0.07275-0.07275 0-0.1455-0.07275-0.21825-0.1455s-0.1455-0.1455-0.1455-0.21825c-0.07275-0.07275-0.07275-0.21825-0.07275-0.2909 0-0.21825 0.07275-0.36362 0.21825-0.5091 0.1455-0.1455 0.43638-0.21825 0.65455-0.21825 0.07275 0 0.07275 0 0.1455 0.07275 0.07275 0 0.07275 0 0.1455 0.07275 0 0 0.07275 0.07275 0.1455 0.07275 0.1455 0.1455 0.21825 0.36365 0.21825 0.5091-0.07275 0.1455-0.07275 0.21825-0.1455 0.2909zm-7.2 12.145c-0.21825 0-0.36365-0.07275-0.5091-0.21825l-5.0909-5.0908c-0.14545-0.14546-0.21818-0.29091-0.21818-0.50909 0-0.21825 0.07275-0.36363 0.21825-0.5091l0.5091-0.5091c1.3818-1.3818 3.7091-1.3818 5.1636 0l0.94545 0.94545c1.3818 1.3818 1.3818 3.7091 0 5.1636l-0.5091 0.5091c-0.1455 0.14547-0.36362 0.2182-0.5091 0.2182zm11.636-13.673c-0.21825 0-0.36362-0.07275-0.5091-0.21825l-3.0545-3.0545c-0.2909-0.2909-0.2909-0.72728 0-1.0182 1.1636-1.1636 2.4727-1.8909 3.6364-2.0364 0.21825 0 0.43638 0.07275 0.58182 0.21825l1.6727 1.6727c0.14545 0.14537 0.21818 0.36355 0.21818 0.58173-0.1455 1.1636-0.94545 2.4727-2.0364 3.6364-0.1455 0.1455-0.36365 0.21825-0.5091 0.21825z" fill="#000"/>
</svg>
