<svg id="svg3747" width="24" height="24" version="1.1" viewBox="0 0 24 24" xmlns="http://www.w3.org/2000/svg">
 <path id="path3735" d="m5.4358 2.5001v5.2384c-0.28632-0.096171-0.57265-0.14709-0.85897-0.14709-1.4316 0-2.5769 1.1314-2.5769 2.5456 0 1.4142 1.1453 2.5456 2.5769 2.5456 1.4316 0 2.5769-1.1314 2.5769-2.5456v-5.9399h2.2906v-1.6971zm16.285 5.838c0.37222-0.3677 0.37222-0.98055 0-1.3293l-2.2333-2.2063c-0.35314-0.3677-0.9735-0.3677-1.3457 0l-1.7561 1.7254 3.579 3.5356m-15.146 7.901v3.5356h3.579l10.556-10.437-3.579-3.5356z" stroke-width="1.175" fill="#000"/>
</svg>
