<?xml version="1.0" encoding="UTF-8"?>
<svg id="svg185" version="1.1" viewBox="0 0 24 24" xmlns="http://www.w3.org/2000/svg">
 <path id="path2" d="m13.7 13a1.3 1.2857 0 0 1 1.3 1.2857v6.4286a1.3 1.2857 0 0 1-1.3 1.2857h-1.3l-0.65-1.2857h-6.5l-0.65 1.2857h-1.3a1.3 1.2857 0 0 1-1.3-1.2857v-6.4286a1.3 1.2857 0 0 1 1.3-1.2857h10.4m-1.625 3.2143a0.975 0.96429 0 0 0-0.975 0.96428 0.975 0.96429 0 0 0 0.975 0.96429 0.975 0.96429 0 0 0 0.975-0.96429 0.975 0.96429 0 0 0-0.975-0.96428m-1.625 0h-3.9v1.9286h3.9v-1.9286m-5.525 0a0.975 0.96429 0 0 0-0.975 0.96428 0.975 0.96429 0 0 0 0.975 0.96429 0.975 0.96429 0 0 0 0.975-0.96429 0.975 0.96429 0 0 0-0.975-0.96428zm10.575-8.3643a0.65 0.65 0 0 1 0.65 0.65 0.65 0.65 0 0 1-0.65 0.65 0.65 0.65 0 0 1-0.65-0.65 0.65 0.65 0 0 1 0.65-0.65m0 3.575c1.625 0 2.925-1.3 2.925-2.925s-1.3-2.925-2.925-2.925-2.925 1.3-2.925 2.925 1.3 2.925 2.925 2.925m0-9.425a6.5 6.5 0 0 1 6.5 6.5 6.5 6.5 0 0 1-6.5 6.5 6.5 6.5 0 0 1-6.5-6.5 6.5 6.5 0 0 1 6.5-6.5z" stroke-width=".64642" fill="#000"/>
</svg>
