<?xml version="1.0" encoding="UTF-8"?>
<svg id="svg4" width="24" height="24" version="1.1" viewBox="0 0 24 24" xmlns="http://www.w3.org/2000/svg">
 <path id="path1429" d="m21.556 5.5174c-0.28655-0.06825-0.64472 0.06825-0.78798 0.34165-1.0029 1.5716-2.5072 2.3915-4.4414 2.3915h-6.089c-2.8654 0-5.1577 2.1182-5.3726 4.7831h-2.149c-0.42981 0-0.71635 0.27332-0.71635 0.68329 0 0.40997 0.28655 0.6833 0.71635 0.6833h2.2923c0.50145 2.3232 2.6505 4.0998 5.301 4.0998h6.0173c1.576 0 2.8654-1.2299 2.8654-2.7332 0-1.5033-1.2894-2.7332-2.8654-2.7332h-5.7308c-0.4298 0-0.71635 0.27332-0.71635 0.6833 0 0.40997 0.28655 0.6833 0.71635 0.6833h5.7308c0.50145 0 1.0029 0.27332 1.2178 0.6833h-7.6649c-0.78798 0-1.4327-0.61497-1.4327-1.3666s0.6447-1.3666 1.4327-1.3666h6.4471c1.9341 0 3.4385 0.81996 4.3697 2.3915 0.14325 0.27333 0.50145 0.40997 0.78797 0.34165 0.28655-0.06825 0.50145-0.34165 0.50145-0.6833v-8.1995c0.071635-0.34165-0.14327-0.54664-0.42981-0.6833z" fill="#000"/>
 <path id="path1483-7" d="m17.779 6.75a0.52873 0.52873 0 0 1-0.52873 0.52873 0.52873 0.52873 0 0 1-0.52873-0.52873 0.52873 0.52873 0 0 1 0.52873-0.52873 0.52873 0.52873 0 0 1 0.52873 0.52873zm-5 0a0.52873 0.52873 0 0 1-0.52873 0.52873 0.52873 0.52873 0 0 1-0.52873-0.52873 0.52873 0.52873 0 0 1 0.52873-0.52873 0.52873 0.52873 0 0 1 0.52873 0.52873zm2.5 0a0.52873 0.52873 0 0 1-0.52873 0.52873 0.52873 0.52873 0 0 1-0.52873-0.52873 0.52873 0.52873 0 0 1 0.52873-0.52873 0.52873 0.52873 0 0 1 0.52873 0.52873zm-5 0a0.52873 0.52873 0 0 1-0.52873 0.52873 0.52873 0.52873 0 0 1-0.52873-0.52873 0.52873 0.52873 0 0 1 0.52873-0.52873 0.52873 0.52873 0 0 1 0.52873 0.52873z" stroke="#000" stroke-width=".44254" fill="#000"/>
</svg>
