<?xml version="1.0" encoding="UTF-8"?>
<svg width="24" height="24" viewBox="0 0 13.853 13.853" xmlns="http://www.w3.org/2000/svg">
<path d="m12.691 5.3528c0-4.75e-4 -7.8e-5 -9.25e-4 -7.8e-5 -0.0014-0.0044-0.54995-0.47249-0.99693-1.0449-0.99693h-5.72e-4 -2.6e-4 -2.364c-0.57331 0-1.0421 0.44842-1.045 0.99833l-0.0085 1.0186c-0.0011 0.13162 0.06384 0.26658 0.19102 0.35298 3.9e-4 2.5e-4 7.8e-4 5.25e-4 0.0012 8e-4 1.6184 1.0987 1.5173 1.0311 1.5433 1.0458-0.0802-0.15638-0.10721-0.33248-0.07583-0.5076 0.02933-0.16372 0.10695-0.31188 0.22314-0.4298l-0.9978-0.6774 0.0075-0.7965v-2e-4 -0.0011c2.6e-4 -0.04625 0.03937-0.08355 0.08742-0.08343 0.04808 1.25e-4 0.08696 0.03763 0.08696 0.08385v0.4219l1.1686 0.79338 1.1703-0.7945 8.06e-4 -5.5e-4v-0.4189c0-0.04577 0.03854-0.08292 0.08615-0.08305 0.04761-1.25e-4 0.08636 0.03683 0.08662 0.08263v0c0.0038 0.4622 7.54e-4 0.089 0.0067 0.7965l-1.3281 0.90165c-0.19922 0.13525-0.2467 0.40015-0.10602 0.59165 0.14068 0.19155 0.41624 0.23715 0.61541 0.10192 3.64e-4 -2.5e-4 1.5124-1.0268 1.5128-1.027 0.12552-0.08517 0.19204-0.21652 0.19095-0.35292zm-2.2222-1.2788c0.50411 0 0.91516-0.39345 0.91516-0.87982 0-0.48592-0.40974-0.87982-0.91516-0.87982-0.50544 0-0.91516 0.39392-0.91516 0.87982 0 0.48612 0.41076 0.87982 0.91516 0.87982zm1.1655 3.7422c-0.0013 9e-4 -0.39347 0.26712-0.39477 0.268-0.22168 0.15052-0.50731 0.1957-0.77632 0.10808-0.25629 0.08347-0.54379 0.0498-0.77629-0.10808l-0.39235-0.26635 2.08e-4 4.3712c0 0.28135 0.23723 0.50942 0.52988 0.50942 1.56e-4 0 3.12e-4 -2.5e-5 4.68e-4 -2.5e-5 1.3e-4 0 2.34e-4 2.5e-5 3.38e-4 2.5e-5 0.29265 0 0.52988-0.22808 0.52988-0.50942v-3.6568c0-0.06043 0.05094-0.1094 0.11379-0.1094 0.06285 0 0.11379 0.04898 0.11379 0.1094v3.6568c0 0.28135 0.23723 0.50942 0.52988 0.50942 1.56e-4 0 3.12e-4 -2.5e-5 4.68e-4 -2.5e-5 1.3e-4 0 2.34e-4 2.5e-5 3.38e-4 2.5e-5 0.29265 0 0.52988-0.22808 0.52988-0.50942 2.6e-5 -4.5261-0.0092-4.3729-0.0092-4.3729zm-6.0172-2.4634c0-4.5e-4 -7.8e-5 -9e-4 -7.8e-5 -0.0014-0.0026-0.32652-0.16866-0.61675-0.42301-0.79868-2.08e-4 -1.5e-4 -4.42e-4 -3e-4 -6.5e-4 -4.5e-4 -0.18023-0.1287-0.39724-0.19782-0.62123-0.19782h-2.364c-0.57331 0-1.0421 0.44842-1.045 0.99833l-0.0085 1.0186c-0.0012 0.14545 0.07796 0.2791 0.1922 0.35378 1.6185 1.0988 1.5173 1.0311 1.5433 1.0458-0.0802-0.15638-0.10722-0.33245-0.07583-0.5076 0.02933-0.16372 0.10695-0.31188 0.22314-0.4298l-0.9978-0.6774c0.0044-0.5261 0.0033-0.39648 0.0067-0.7965v-2.75e-4 -1e-3c2.34e-4 -0.04645 0.03953-0.08393 0.08784-0.0838 0.04829 1.25e-4 0.08737 0.0378 0.08737 0.08423v0.4219l1.1686 0.79338 1.1703-0.7945v-0.4195c0-0.046 0.03872-0.0833 0.08654-0.08343 0.04782-1.25e-4 0.08678 0.03697 0.08704 0.083v0l0.0067 0.7965-1.3281 0.90165c-0.19922 0.13525-0.2467 0.40015-0.10602 0.59165 0.14068 0.19152 0.41622 0.23715 0.61541 0.10192l1.5114-1.0261c0.11931-0.0784 0.19336-0.21358 0.19225-0.3538-0.0037-0.44115-0.0057-0.6774-0.0085-1.0186zm-2.2213-1.2788c0.50406 0 0.91516-0.39342 0.91516-0.87982 0-0.48592-0.40974-0.87982-0.91516-0.87982-0.50544 0-0.91516 0.39392-0.91516 0.87982 0 0.48612 0.41076 0.87982 0.91516 0.87982zm1.1647 3.7427-0.39396 0.26745c-0.22168 0.15052-0.50728 0.1957-0.77632 0.10808-0.2563 0.08347-0.54379 0.0498-0.7763-0.10808l-0.39235-0.26632 2.08e-4 4.3712c0 0.28135 0.23723 0.50942 0.52988 0.50942s0.52988-0.22808 0.52988-0.50942v-3.6564c0-0.06062 0.05112-0.1098 0.11421-0.1098 0.06309 0 0.11421 0.04915 0.11421 0.1098v3.6564c0 0.28135 0.23723 0.50942 0.52988 0.50942s0.52988-0.22808 0.52988-0.50942c-2.6e-5 -4.5287-0.0092-4.3723-0.0092-4.3723zm3.5369-3.6036c0-0.045975 0.03867-0.0833 0.08649-0.0835s0.0868 0.036825 0.08719 0.0828c0.22714-0.18535 0.51095-0.31052 0.82336-0.34672-0.1437-0.3903-0.53165-0.67118-0.98532-0.67118h-2.364c-0.4539 0-0.84201 0.2812-0.98552 0.67118 0.29486 0.034225 0.58257 0.15052 0.82357 0.3474 3.9e-4 -0.04645 0.03976-0.083825 0.08805-0.0836 0.04829 2e-4 0.0873 0.0379 0.0873 0.0843v0.16662c0.11143 0.12452 0.202 0.26665 0.26662 0.42128l0.90202 0.61238 0.90163-0.6121c0.06496-0.15578 0.15623-0.29878 0.26865-0.42395v-0.1649zm-1.1479 1.6847c-0.19922 0.13525-0.2467 0.40015-0.10602 0.59165 0.08605 0.11715 0.22252 0.1797 0.36109 0.1797 0.08805 0 0.17693-0.02522 0.25432-0.07777l0.25115-0.1705c-1e-3 -0.01827-0.0017-0.03613-0.0015-0.05353l0.0083-0.99045zm-0.37508-0.22425-0.43697-0.29665c0.0091 1.0862 0.0092 1.0003 0.0068 1.044 0.26415 0.17932 0.25687 0.17542 0.2829 0.19008-0.16208-0.31602-0.0953-0.69112 0.14731-0.9374zm1.2735-3.6393a0.91516 0.87983 0 0 1-0.91516 0.87982 0.91516 0.87983 0 0 1-0.91516-0.87982 0.91516 0.87983 0 0 1 0.91516-0.87982 0.91516 0.87983 0 0 1 0.91516 0.87982zm-0.01168 4.7999-0.13283 0.09018c-0.22166 0.15048-0.50726 0.19568-0.7763 0.10805-0.25689 0.08365-0.54426 0.04948-0.7763-0.10805l-0.13283-0.09018c-0.06745 0.11325-0.15155 0.20425-0.25952 0.28195 0 0 2.08e-4 3.4952 2.08e-4 3.913 0 0.28135 0.23723 0.50942 0.52988 0.50942s0.52988-0.22808 0.52988-0.50942v-3.6612c0-0.05803 0.04891-0.10505 0.10927-0.10505 0.06579 0 0.11912 0.05128 0.11912 0.11452v3.6517c0 0.28135 0.23723 0.50942 0.52988 0.50942s0.52988-0.22808 0.52988-0.50942v-3.905c-0.02738-0.02137-0.16135-0.10712-0.27036-0.28995z" stroke-width=".025497" fill="#000"/></svg>
