<?xml version="1.0" encoding="UTF-8"?>
<svg id="svg4" width="24" height="24" version="1.1" viewBox="0 0 24 24" xmlns="http://www.w3.org/2000/svg">
 <path id="path2394" d="m21.951 4.0572-1.9769-1.9645c-0.066-0.065475-0.19775-0.13098-0.2636-0.065475-0.13175 0-0.19775 0.065475-0.2636 0.19645l-0.59308 1.2442-0.59308-0.58936c-0.2636-0.26194-0.65898-0.26194-0.92258 0s-0.2636 0.65485 0 0.91679l0.72488 0.72033-0.59307 0.52388c0-0.065475-0.066-0.13098-0.13175-0.19645l-0.98848-0.98227c-0.2636-0.26194-0.65897-0.26194-0.92258 0-0.2636 0.26194-0.2636 0.65485 0 0.91679l0.98848 0.98227c0.066 0.065475 0.066 0.065475 0.13175 0.065475l-3.2949 3.0778c-1.8452-0.98227-4.2175-0.72033-5.7331 0.78582l-0.066 0.065475c-0.19775 0.19645-0.2636 0.52388-0.13175 0.72033 0.2636 0.52388 0.13175 1.1787-0.2636 1.6371-0.52718 0.52388-1.4498 0.52388-1.9769 0-0.2636-0.19645-0.59308-0.26194-0.85668-0.06547-0.19775 0.13098-0.39538 0.32742-0.59307 0.52388-2.1746 2.161-2.1746 5.6317 0 7.7927 0.98847 1.1132 2.3723 1.6371 3.8221 1.6371 1.4498 0 2.8336-0.52388 3.888-1.6371 0.19775-0.1965 0.32948-0.3929 0.52718-0.58938 0.19775-0.26192 0.19775-0.58935-0.066-0.8513-0.52718-0.52388-0.52718-1.4407 0-1.9646 0.39538-0.3929 1.0544-0.52388 1.6474-0.26195 0.2636 0.131 0.52718 0.0655 0.72488-0.131l0.066-0.0655c1.5156-1.5062 1.8452-3.7981 0.79078-5.6972l3.0973-3.2742c0 0.065475 0.066 0.065475 0.066 0.13097l0.98848 0.98227c0.13175 0.13097 0.3295 0.19645 0.46128 0.19645 0.13175 0 0.3295-0.065475 0.46128-0.19645 0.2636-0.26194 0.2636-0.65485 0-0.91679l-0.98848-0.98228c-0.066-0.065475-0.13175-0.13098-0.19775-0.13098l0.52718-0.58936 0.72488 0.72033c0.13175 0.13098 0.3295 0.19645 0.46128 0.19645 0.13175 0 0.32948-0.065475 0.46128-0.19645 0.2636-0.26194 0.2636-0.65485 0-0.91679l-0.59308-0.58936 1.252-0.58936c0.066-0.065475 0.13175-0.13098 0.19775-0.26194 0.066-0.13098 0.066-0.26194 0-0.32742zm-13.18 14.014-2.4382 1.4407c-0.13175 0.0655-0.19775 0.0655-0.3295 0.0655-0.19775 0-0.3295-0.0655-0.46128-0.1965l-0.98848-0.98228c-0.19775-0.1965-0.2636-0.52388-0.13175-0.78582l1.4498-2.4229c0.13175-0.19645 0.2636-0.26194 0.46128-0.32742 0.19775 0 0.39538 0.06547 0.52718 0.19645l1.9769 1.9645c0.13175 0.131 0.19775 0.32742 0.19775 0.52388 0 0.1965-0.13175 0.3929-0.2636 0.52388z" fill="#000"/>
</svg>
