<svg id="svg4" width="24" height="24" version="1.1" viewBox="0 0 24 24" xmlns="http://www.w3.org/2000/svg">
 <path id="path2" d="m20 2.0001a1 1 0 0 1 1 1 1 1 0 0 1-1 1 3 3 0 0 0-3 3v8.5c0 3.6-2.9 6.5-6.5 6.5-3.6 0-6.5-2.9-6.5-6.5v-2.5a1 1 0 0 1-0.99999-0.99999 1 1 0 0 1 0.99999-1h6a1 1 0 0 1 0.99999 1 1 1 0 0 1-0.99999 0.99999v2a1 1 0 0 0 0.99999 0.99999 1 1 0 0 0 0.99999-0.99999v-4a1 1 0 0 1-0.99999-0.99999 1 1 0 0 1 0.99999-1v-1a1 1 0 0 1-0.99999-1 1 1 0 0 1 0.99999-0.99999v-0.49999a3.5 3.5 0 0 1 3.5-3.5z" fill="#000"/>
</svg>
