<svg id="svg4" width="24" height="24" version="1.1" viewBox="0 0 24 24" xmlns="http://www.w3.org/2000/svg">
 <path id="path2" d="m5.4254 3.9322a0.79831 0.79831 0 0 0-0.79831 0.79831 0.79831 0.79831 0 0 0 0.79831 0.79831 2.3949 2.3949 0 0 1 2.3949 2.3949v6.7856c0 2.8739 2.3151 5.189 5.189 5.189 2.8739 0 5.189-2.3151 5.189-5.189v-1.9958a0.79831 0.79831 0 0 0 0.7983-0.7983 0.79831 0.79831 0 0 0-0.7983-0.79831h-4.7898a0.79831 0.79831 0 0 0-0.7983 0.79831 0.79831 0.79831 0 0 0 0.7983 0.7983v1.5966a0.79831 0.79831 0 0 1-0.7983 0.7983 0.79831 0.79831 0 0 1-0.7983-0.7983v-3.1932a0.79831 0.79831 0 0 0 0.7983-0.7983 0.79831 0.79831 0 0 0-0.7983-0.79831v-0.79831a0.79831 0.79831 0 0 0 0.7983-0.79831 0.79831 0.79831 0 0 0-0.7983-0.7983v-0.39915a2.7941 2.7941 0 0 0-2.7941-2.7941z" stroke-width=".79831" fill="#000"/>
</svg>
