<?xml version="1.0" encoding="UTF-8"?>
<svg id="svg1111" width="24" height="24" version="1.1" viewBox="0 0 24 24" xmlns="http://www.w3.org/2000/svg">
 <path id="path1484" d="m7.5 4v11.377c-0.54083-0.30222-1.1648-0.48828-1.834-0.48828-2.0258 0-3.666 1.5922-3.666 3.5566 0 1.9644 1.6402 3.5547 3.666 3.5547 2.0258 0 3.668-1.5902 3.668-3.5547v-10.889h5.666v-3.5566h-7.5zm7.9961 7c-1.1512 0.0025-2.3008 0.44422-3.1758 1.3242-1.76 1.76-1.76 4.6094 0 6.3594 1.49 1.48 3.7903 1.7409 5.5703 0.63086l3.1094 3.0703 1.3906-1.3906-3.0898-3.1094c1.13-1.77 0.86888-4.0903-0.62109-5.5703-0.87999-0.88-2.0324-1.317-3.1836-1.3145zm0.005859 1.9961c0.63874 0 1.2776 0.24352 1.7676 0.72852 0.96998 0.98 0.96998 2.5591 0 3.5391-0.97998 0.98-2.5591 0.97-3.5391 0-0.96998-0.98-0.97025-2.5591 0.009765-3.5391 0.48499-0.485 1.123-0.72852 1.7617-0.72852z" stroke-width=".90267" fill="#000"/>
</svg>
