<?xml version="1.0" encoding="UTF-8"?>
<svg id="svg135" version="1.1" viewBox="0 0 24 24" xmlns="http://www.w3.org/2000/svg">
 <path id="path1699" d="m14 5.5c-2.5 0-4.5 2-4.5 4.5s2 4.5 4.5 4.5c0.87 0 1.6909-0.24969 2.3809-0.67969l3.1191 3.0703 1.3906-1.3906-3.0801-3.0996c0.44-0.69 0.68945-1.5204 0.68945-2.4004 0-2.5-2-4.5-4.5-4.5zm0 2a2.5 2.5 0 0 1 2.5 2.5 2.5 2.5 0 0 1-2.5 2.5 2.5 2.5 0 0 1-2.5-2.5 2.5 2.5 0 0 1 2.5-2.5zm-6-5.5a2 2 0 0 0-2 2v12a2 2 0 0 0 2 2h12a2 2 0 0 0 2-2v-12a2 2 0 0 0-2-2zm0 2h12v12h-12zm-6 2v14a2 2 0 0 0 2 2h14v-2h-14v-14z" fill="#000"/>
</svg>
