<svg id="svg12" width="24" height="24" version="1.1" viewBox="0 0 24 24" xmlns="http://www.w3.org/2000/svg">
 <path id="path1380" d="m18.041 16.8c0.65536 0 1.196 0.528 1.196 1.232 0 0.64-0.54067 1.168-1.196 1.168-0.72089 0-1.2616-0.528-1.2616-1.168 0-0.704 0.54067-1.232 1.2616-1.232zm-0.85196-2.8c-0.13107 0-0.19661 0.064-0.19661 0.192l-0.21299 1.008c-0.18022 0.144-0.44237 0.272-0.63897 0.4l-1.0486-0.4c-0.06553 0-0.19661 0-0.26214 0.08l-0.78643 1.408c-0.06553 0.064-0.06553 0.192 0.06553 0.256l0.85196 0.656v0.8l-0.85196 0.656c-0.06553 0.064-0.13107 0.192-0.06553 0.256l0.78643 1.408c0.06553 0.08 0.19661 0.08 0.26214 0.08l1.0486-0.4c0.19661 0.128 0.45875 0.256 0.63897 0.4l0.21299 1.008c0 0.128 0.06553 0.192 0.19661 0.192h1.6384c0.06553 0 0.19661-0.064 0.19661-0.192l0.13107-1.008c0.26214-0.144 0.52429-0.272 0.72089-0.4l0.99942 0.4c0.11469 0 0.24576 0 0.24576-0.08l0.85196-1.408c0.06553-0.064 0-0.192-0.06553-0.256l-0.85197-0.656v-0.8l0.85196-0.656c0.06553-0.064 0.13107-0.192 0.06553-0.256l-0.85196-1.408c0-0.08-0.13107-0.08-0.24576-0.08l-0.99942 0.4c-0.19661-0.128-0.45875-0.256-0.72089-0.4l-0.13107-1.008c0-0.128-0.13107-0.192-0.19661-0.192h-1.6384m2.811-1.92v-3.08c0 2.21-3.58 4-8 4s-8-1.79-8-4v3c0 2.21 3.58 4 8 4h0.69c1.13-2.37 3.53-4 6.31-4 0.34 0 0.67 0.03 1 0.08m-7.92 5.92h-0.08c-4.42 0-8-1.79-8-4v3c0 2.21 3.58 4 8 4h0.29c-0.18-0.64-0.29-1.31-0.29-2 0-0.34 0.03-0.67 0.08-1m-8.08-11c0-2.21 3.58-4 8-4s8 1.79 8 4-3.58 4-8 4-8-1.79-8-4" fill="#000"/>
</svg>
