<svg width="24" height="24" version="1.1" viewBox="0 0 24 24" xmlns="http://www.w3.org/2000/svg">
 <path d="m4 7c0-2.21 3.58-4 8-4s8 1.79 8 4-3.58 4-8 4-8-1.79-8-4m8.08 11h-0.08c-4.42 0-8-1.79-8-4v3c0 2.21 3.58 4 8 4h0.29c-0.18-0.64-0.29-1.31-0.29-2 0-0.34 0.03-0.67 0.08-1m7.92-5.92v-0.08-3c0 2.21-3.58 4-8 4s-8-1.79-8-4v3c0 2.21 3.58 4 8 4h0.69c1.13-2.37 3.53-4 6.31-4 0.34 0 0.67 0.03 1 0.08m3.8 8.32c0.1 0 0.1 0.1 0 0.2l-1 1.7c-0.1 0.1-0.2 0.1-0.3 0.1l-1.2-0.4c-0.3 0.2-0.5 0.3-0.8 0.5l-0.2 1.3c0 0.1-0.1 0.2-0.2 0.2h-2c-0.1 0-0.2-0.1-0.3-0.2l-0.2-1.3c-0.3-0.1-0.6-0.3-0.8-0.5l-1.2 0.5c-0.1 0-0.2 0-0.3-0.1l-1-1.7c-0.1-0.1 0-0.2 0.1-0.3l1.1-0.8v-1l-1.1-0.8c-0.1-0.1-0.1-0.2-0.1-0.3l1-1.7c0.1-0.1 0.2-0.1 0.3-0.1l1.2 0.5c0.3-0.2 0.5-0.3 0.8-0.5l0.2-1.3c0-0.1 0.1-0.2 0.3-0.2h2c0.1 0 0.2 0.1 0.2 0.2l0.2 1.3c0.3 0.1 0.6 0.3 0.9 0.5l1.2-0.5c0.1 0 0.3 0 0.3 0.1l1 1.7c0.1 0.1 0 0.2-0.1 0.3l-1.1 0.8v1l1.1 0.8m-3.3-1.4c0-0.8-0.7-1.5-1.5-1.5s-1.5 0.7-1.5 1.5 0.7 1.5 1.5 1.5 1.5-0.7 1.5-1.5z" fill="#000"/>
</svg>
