<svg width="24" height="24" version="1.1" viewBox="0 0 32 32" xmlns="http://www.w3.org/2000/svg">
 <polygon id="polygon4" transform="matrix(.98338 0 0 .61522 -210.18 -225.63)" points="242.66 387.88 242.66 385 222.19 396.83 222.19 400.76 226.1 400.76 217.35 409.68 217.35 413.54 217.35 413.54 238.75 399.73 238.75 395.84 235.87 394.82" clip-rule="evenodd" fill-rule="evenodd" stroke-linecap="round" stroke-linejoin="round" stroke-miterlimit="2.6131" stroke-width="1.8067" fill="#000" stroke="#000"/>
 <path id="path1552" d="m18.226 11.03c-0.09352-0.61487-0.53542-1.1965-1.1093-1.4641-1.2537-0.5814-2.6903 0.17154-2.8813 1.5101-0.18279 1.305 0.96906 2.4346 2.2865 2.2337 1.1134-0.17154 1.8743-1.1839 1.7043-2.2798zm1.4959-3.3046c-0.051011-0.20084-0.11052-0.28452-0.42065-0.57303-1.6532-1.531-4.526-1.5226-6.1625 0.025104-0.33157 0.30962-0.40384 0.43914-0.40384 0.71529 0 0.25942 0.09777 0.45587 0.28056 0.56466 0.22105 0.13389 0.35708 0.10878 0.73947-0.14226 0.4079-0.2636 0.84574-0.45188 1.3599-0.57721 0.31882-0.079498 0.48867-0.096237 1.139-0.096237 0.6672 0 0.81599 0.012552 1.1475 0.10042 0.46316 0.11716 0.96906 0.3431 1.3599 0.6065 0.32307 0.21758 0.47166 0.2385 0.68846 0.10878 0.2168-0.1297 0.34008-0.45606 0.27206-0.73203zm1.8275-2.5189c-0.021255-0.075314-0.063764-0.17992-0.10202-0.2385-0.11052-0.16318-0.74372-0.71947-1.1561-1.0082-0.43359-0.30962-1.4109-0.80315-1.8955-0.95794-2.4435-0.77805-5.07-0.18391-6.9953 1.5855-0.34433 0.31799-0.40364 0.38912-0.45891 0.58558-0.11052 0.36402 0.017 0.70273 0.30607 0.83663 0.24655 0.11716 0.43359 0.066946 0.81174-0.22176 0.99453-0.75713 2.0018-1.2048 3.1322-1.3971 0.65446-0.10878 1.734-0.087863 2.3459 0.046024 1.0498 0.23012 2.0908 0.72784 2.9749 1.4264 0.27206 0.21758 0.50566 0.25942 0.73097 0.13389 0.24231-0.1297 0.37834-0.49372 0.30607-0.7906z" fill="#000"/>
</svg>
