<?xml version="1.0" encoding="UTF-8"?>
<svg id="vector" version="1.1" viewBox="0 0 24 24" xmlns="http://www.w3.org/2000/svg">
 <path id="path_2" d="m8.135 16.889c0 0.321-0.128 0.629-0.354 0.856-0.227 0.226-0.535 0.354-0.856 0.354s-0.628-0.128-0.855-0.354c-0.227-0.227-0.355-0.535-0.355-0.856 0-0.212 0.056-0.421 0.162-0.605 0.107-0.183 0.259-0.336 0.443-0.442 0.184-0.107 0.393-0.162 0.605-0.162s0.421 0.055 0.605 0.162c0.184 0.106 0.337 0.259 0.443 0.442 0.106 0.184 0.162 0.393 0.162 0.605zm-1.193-4.206c-2.337 0-4.242 1.905-4.242 4.243 0 2.337 1.905 4.242 4.242 4.242h0.043l-0.01-1h-0.033c-1.797 0-3.242-1.446-3.242-3.242 0-1.797 1.445-3.243 3.242-3.243h0.033l0.012-1h-0.045zm0.045 0-0.012 1c1.783 0.019 3.209 1.459 3.209 3.243 0 1.783-1.425 3.224-3.209 3.242l0.01 1c2.32-0.024 4.199-1.922 4.199-4.242 0-2.321-1.877-4.219-4.197-4.243zm-1.577-8.683-1.41 1.41 5.17 5.17 1.42-1.41zm9.09 0 2.039 2.039-6.01 6.016c0.56 0.375 1.041 0.856 1.414 1.418l6.018-6.012 2.039 2.039v-5.5zm0.33 9.41-1.41 1.41 3.131 3.129-2.051 2.051h5.5v-5.5l-2.039 2.039z" fill="#000"/>
</svg>
