<?xml version="1.0" encoding="UTF-8"?>
<svg id="svg2" width="24" height="24" version="1.1" viewBox="0 0 24 24" xmlns="http://www.w3.org/2000/svg">
 <path id="path293" d="m11.156 21.999c-2.7546-0.079737-5.7919-0.6304-7.7015-2.7567-0.94216-1.0786-1.4377-2.5057-1.4547-3.9207 2.1983 0.0041 4.3971-0.0097 6.5951 0.0092-0.48357 1.4244-0.97166 2.8473-1.4529 4.2724 1.6042-1.1054 3.2032-2.2181 4.8067-3.3245 1.6095 1.1019 3.2079 2.2194 4.8145 3.3254-0.44872-1.2646-0.82564-2.5606-1.3296-3.8019-0.9278-0.9176-2.348-0.99537-3.5674-1.2709-2.6474-0.51049-5.5393-0.84335-7.6777-2.6143-2.3395-1.9904-2.051-6.0251 0.33222-7.8696 2.299-1.8055 5.4038-2.1401 8.2485-2.0281 2.5786 0.12408 5.4564 0.62036 7.2008 2.6761 0.79812 0.96744 1.2125 2.2126 1.2539 3.4502-2.4779-6.152e-4 -4.9558 0.00171-7.4337-0.00235-0.61095-1.7973-1.2239-3.5939-1.8389-5.3899-0.62002 1.7954-1.2286 3.5947-1.8423 5.3922-1.9858 8.776e-4 -3.9717 0.0017564-5.9575 0.0026346 1.1081 0.76048 2.2163 1.5209 3.3244 2.2814 2.4288-0.86706 5.0946-0.90325 7.6361-0.6144 2.1775 0.31387 4.5846 0.87418 5.9756 2.7084 1.6949 2.3213 0.91772 5.88-1.4215 7.4995-2.4355 1.7337-5.5966 1.9963-8.5102 1.9758z" stroke-width=".0052909" fill="#000"/>
</svg>
