<svg width="24" height="24" version="1.1" viewBox="0 0 24 24" xmlns="http://www.w3.org/2000/svg">
 <path d="m11.56 8.87v8.13h8.76c1.85-0.13 2.68-1.27 2.68-2.67 0-1.48-1.12-2.67-2.62-2.67-0.38 0-0.7 0.08-1.03 0.22-0.24-2.34-2.23-4.17-4.68-4.17-1.17 0-2.28 0.44-3.11 1.16m-0.88 1.02c-0.3-0.18-0.62-0.32-0.97-0.39v7.5h1.39v-7.66c-0.15 0.16-0.29 0.36-0.42 0.55m-2.35-0.54v7.65h0.92v-7.62c-0.19-0.03-0.38-0.04-0.58-0.04-0.12 0-0.23 0-0.34 0.01m-1.83 0.65v7h0.91v-7.46c-0.33 0.11-0.64 0.27-0.91 0.46m-1.67 2.5c-0.06 0-0.12-0.06-0.19-0.09v4.59h0.92v-6.14c-0.37 0.48-0.62 1.05-0.73 1.64m-2.04-0.28v4.69c0.21 0.06 0.45 0.09 0.71 0.09h0.22v-4.86c-0.08-0.01-0.16-0.02-0.22-0.02-0.26 0-0.5 0.04-0.71 0.1m-1.79 2.34c0 0.75 0.34 1.41 0.87 1.86v-3.71c-0.53 0.44-0.87 1.11-0.87 1.85z" fill="#000"/>
</svg>
