<?xml version="1.0" encoding="UTF-8"?>
<svg id="svg4" version="1.1" viewBox="0 0 24 24" xmlns="http://www.w3.org/2000/svg">
 <path id="path430" d="m8 0c-1.11 0-2 0.89-2 2v16c0 1.11 0.89 2 2 2h7.5391c-0.54-0.63-0.99976-1.3695-1.2598-2.1895-0.41 0.11-0.8293 0.18945-1.2793 0.18945-2.76 0-5-2.24-5-5s2.24-5 5-5c1.89 0 3.4991 1.0594 4.3691 2.6094 0.79-0.38 1.6909-0.60938 2.6309-0.60938v-8c0-1.11-0.9-2-2-2zm5 2c1.11 0 2 0.89 2 2s-0.89 2-2 2-2-0.9-2-2c0-1.11 0.89-2 2-2zm0 8c-1.66 0-3 1.34-3 3s1.34 3 3 3c0.36 0 0.69-0.06945 1-0.18945 0.06-1.57 0.70024-2.9913 1.7402-4.0312-0.47-1.05-1.5202-1.7793-2.7402-1.7793zm-9 12h12v2h-12a2 2 0 0 1-2-2v-18h2" fill="#000"/>
 <path id="path12" d="m23.547 16.507h-3.0403v3.0403h-1.0134v-3.0403h-3.0403v-1.0134h3.0403v-3.0403h1.0134v3.0403h3.0403z" stroke="#000" stroke-width=".90603" fill="#000"/>
</svg>
