<?xml version="1.0" encoding="UTF-8"?>
<svg id="svg1" width="24" height="24" version="1.1" viewBox="0 0 24 24" xmlns="http://www.w3.org/2000/svg">
 <path id="path4" d="m10.222 13.14q-0.10556-0.055-0.16389-0.145-0.058333-0.089999-0.058333-0.2v-1.59q0-0.11 0.05834-0.2 0.05833-0.09 0.16389-0.145l1.5556-0.805q0.10556-0.055 0.22222-0.055 0.11667 0 0.22222 0.055l1.5556 0.805q0.10556 0.055 0.16389 0.145 0.058325 0.09 0.058325 0.2v1.59q0 0.11-0.05832 0.2-0.05832 0.09-0.16389 0.145l-1.5556 0.805q-0.10556 0.055-0.22222 0.055-0.11667 0-0.22222-0.055zm1.7778-11.89c-1.69 0-2.9297 1.8291-3.6797 4.3691-2.58-0.62-4.7909-0.46-5.6309 1-0.84 1.47 0.12117 3.4609 1.9512 5.3809-1.83 1.92-2.7912 3.9091-1.9512 5.3691 0.84 1.47 3.0509 1.6317 5.6309 1.0117 0.75 2.54 1.9897 4.3691 3.6797 4.3691s2.9297-1.8291 3.6797-4.3691c2.58 0.62 4.7909 0.45828 5.6309-1.0117 0.84-1.46-0.12117-3.4491-1.9512-5.3691 1.83-1.92 2.7912-3.9109 1.9512-5.3809-0.84-1.46-3.0509-1.62-5.6309-1-0.75-2.54-1.9897-4.3691-3.6797-4.3691zm0 1.5c0.73 0 1.6298 1.1793 2.2598 3.2793-0.76 0.25-1.5098 0.55062-2.2598 0.89062-0.75-0.34-1.4998-0.64062-2.2598-0.89062 0.63-2.1 1.5298-3.2793 2.2598-3.2793zm-6.1406 4.0176c0.59033 0.00809 1.2991 0.10172 2.1016 0.29297-0.16 0.77-0.28133 1.5804-0.36133 2.4004-0.67 0.48-1.3104 0.98977-1.9004 1.5098-1.5-1.59-2.0792-2.9716-1.6992-3.6016 0.21875-0.39375 0.87549-0.61504 1.8594-0.60156zm12.281 0c0.98389-0.013476 1.6406 0.20781 1.8594 0.60156 0.38 0.63-0.19922 2.0116-1.6992 3.6016-0.59-0.52-1.2304-1.0298-1.9004-1.5098-0.08-0.82-0.20133-1.6304-0.36133-2.4004 0.8025-0.19125 1.5112-0.28488 2.1016-0.29297zm-8.75 0.73242c0.28 0.07 0.56938 0.17906 0.85938 0.28906l-0.50977 0.29102-0.50977 0.30078c0.05-0.31 0.10016-0.61086 0.16016-0.88086zm5.2188 0c0.06 0.27 0.11016 0.57086 0.16016 0.88086l-0.50976-0.30078-0.50977-0.29102c0.29-0.11 0.57938-0.21906 0.85938-0.28906zm-2.6094 1.0703 1.5 0.81055c0.53 0.3 1.0007 0.6182 1.4707 0.9082 0.03 0.54 0.029297 1.1109 0.029297 1.7109s7.03e-4 1.1709-0.0293 1.7109c-0.47 0.29-0.9407 0.6082-1.4707 0.9082l-1.5 0.81055-1.5-0.81055c-0.53-0.3-1.0007-0.6182-1.4707-0.9082-0.03-0.54-0.029297-1.1109-0.029297-1.7109s-7.031e-4 -1.1709 0.029297-1.7109c0.47-0.29 0.9407-0.6082 1.4707-0.9082zm-4.5 2.8398v1.1797c-0.27-0.2-0.5007-0.39984-0.7207-0.58984 0.22-0.19 0.4507-0.38984 0.7207-0.58984zm9 0c0.27 0.2 0.5007 0.39984 0.7207 0.58984-0.22 0.19-0.4507 0.38984-0.7207 0.58984v-0.58984zm-10.801 1.6191c0.59 0.52 1.2304 1.0298 1.9004 1.5098 0.08 0.82 0.20133 1.6304 0.36133 2.4004-2.14 0.51-3.6109 0.31969-3.9609-0.32031-0.38-0.62 0.19922-1.9998 1.6992-3.5898zm12.602 0c1.5 1.59 2.0792 2.9698 1.6992 3.5898-0.35 0.64-1.8209 0.83031-3.9609 0.32031 0.16-0.77 0.28133-1.5804 0.36133-2.4004 0.67-0.48 1.3104-0.98976 1.9004-1.5098zm-9.0703 2.5898 0.50977 0.30078 0.50977 0.29102c-0.29 0.11-0.57938 0.21906-0.85938 0.28906-0.06-0.27-0.11016-0.57086-0.16016-0.88086zm5.5391 0c-0.05 0.31-0.10016 0.61086-0.16016 0.88086-0.28-0.07-0.56938-0.17906-0.85938-0.28906l0.50977-0.29102zm-2.7695 1.4609c0.75 0.34 1.4998 0.64062 2.2598 0.89062-0.63 2.1-1.5298 3.2793-2.2598 3.2793s-1.6298-1.1793-2.2598-3.2793c0.76-0.25 1.5098-0.55062 2.2598-0.89062z" stroke-width=".0052705" fill="#000"/>
</svg>
