<svg width="24" height="24" version="1.1" viewBox="0 0 24 24" xmlns="http://www.w3.org/2000/svg">
 <path d="m12 10.11c1.03 0 1.87 0.84 1.87 1.89 0 1-0.84 1.85-1.87 1.85s-1.87-0.85-1.87-1.85c0-1.05 0.84-1.89 1.87-1.89m-4.63 9.89c0.63 0.38 2.01-0.2 3.6-1.7-0.52-0.59-1.03-1.23-1.51-1.9-0.82-0.08-1.63-0.2-2.4-0.36-0.51 2.14-0.32 3.61 0.31 3.96m0.71-5.74-0.29-0.51c-0.11 0.29-0.22 0.58-0.29 0.86 0.27 0.06 0.57 0.11 0.88 0.16l-0.3-0.51m6.54-0.76 0.81-1.5-0.81-1.5c-0.3-0.53-0.62-1-0.91-1.47-0.54-0.03-1.11-0.03-1.71-0.03s-1.17 0-1.71 0.03c-0.29 0.47-0.61 0.94-0.91 1.47l-0.81 1.5 0.81 1.5c0.3 0.53 0.62 1 0.91 1.47 0.54 0.03 1.11 0.03 1.71 0.03s1.17 0 1.71-0.03c0.29-0.47 0.61-0.94 0.91-1.47m-2.62-6.72c-0.19 0.22-0.39 0.45-0.59 0.72h0.59 0.59c-0.2-0.27-0.4-0.5-0.59-0.72m0 10.44c0.19-0.22 0.39-0.45 0.59-0.72h-0.59-0.59c0.2 0.27 0.4 0.5 0.59 0.72m4.62-13.22c-0.62-0.38-2 0.2-3.59 1.7 0.52 0.59 1.03 1.23 1.51 1.9 0.82 0.08 1.63 0.2 2.4 0.36 0.51-2.14 0.32-3.61-0.32-3.96m-0.7 5.74 0.29 0.51c0.11-0.29 0.22-0.58 0.29-0.86-0.27-0.06-0.57-0.11-0.88-0.16l0.3 0.51m1.45-7.05c1.47 0.84 1.63 3.05 1.01 5.63 2.54 0.75 4.37 1.99 4.37 3.68s-1.83 2.93-4.37 3.68c0.62 2.58 0.46 4.79-1.01 5.63-1.46 0.84-3.45-0.12-5.37-1.95-1.92 1.83-3.91 2.79-5.38 1.95-1.46-0.84-1.62-3.05-1-5.63-2.54-0.75-4.37-1.99-4.37-3.68s1.83-2.93 4.37-3.68c-0.62-2.58-0.46-4.79 1-5.63 1.47-0.84 3.46 0.12 5.38 1.95 1.92-1.83 3.91-2.79 5.37-1.95m-0.29 9.31c0.34 0.75 0.64 1.5 0.89 2.26 2.1-0.63 3.28-1.53 3.28-2.26s-1.18-1.63-3.28-2.26c-0.25 0.76-0.55 1.51-0.89 2.26m-10.16 0c-0.34-0.75-0.64-1.5-0.89-2.26-2.1 0.63-3.28 1.53-3.28 2.26s1.18 1.63 3.28 2.26c0.25-0.76 0.55-1.51 0.89-2.26m9 2.26-0.3 0.51c0.31-0.05 0.61-0.1 0.88-0.16-0.07-0.28-0.18-0.57-0.29-0.86l-0.29 0.51m-2.89 4.04c1.59 1.5 2.97 2.08 3.59 1.7 0.64-0.35 0.83-1.82 0.32-3.96-0.77 0.16-1.58 0.28-2.4 0.36-0.48 0.67-0.99 1.31-1.51 1.9m-4.95-8.56 0.3-0.51c-0.31 0.05-0.61 0.1-0.88 0.16 0.07 0.28 0.18 0.57 0.29 0.86l0.29-0.51m2.89-4.04c-1.59-1.5-2.97-2.08-3.6-1.7-0.63 0.35-0.82 1.82-0.31 3.96 0.77-0.16 1.58-0.28 2.4-0.36 0.48-0.67 0.99-1.31 1.51-1.9z" fill="#000"/>
</svg>
