<svg id="svg81" width="24" height="24" version="1.1" viewBox="0 0 24 24" xmlns="http://www.w3.org/2000/svg">
 <path id="path6" d="m17.409 9.0089c-4.214-1.9475-10.132-1.0834-10.382-1.0457-0.44229 0.066874-0.74662 0.47946-0.67996 0.92175 0.066657 0.44229 0.47967 0.74749 0.92163 0.68062 0.056501-0.00854 5.6924-0.82722 9.4608 0.9143 0.10998 0.05089 0.22568 0.07498 0.33944 0.07498 0.30617 0 0.59915-0.17437 0.73603-0.47049 0.18776-0.40632 0.01059-0.88772-0.39562-1.0755zm-0.63481 3.0484c-3.815-1.763-9.1648-0.98171-9.3907-0.94768-0.44229 0.06688-0.74662 0.47946-0.67996 0.92175 0.066549 0.4424 0.47945 0.74717 0.92163 0.68073 0.05056-0.0077 5.0998-0.74079 8.4692 0.81631 0.11019 0.05089 0.22568 0.07498 0.33944 0.07498 0.30617-1.08e-4 0.59915-0.17437 0.73614-0.4706 0.18765-0.40621 0.01048-0.88772-0.39573-1.0755zm-0.9441 2.9179c-3.3592-1.5525-8.061-0.86579-8.2595-0.83586-0.44251 0.066877-0.74705 0.47967-0.68018 0.92218 0.066873 0.44251 0.47999 0.74674 0.92217 0.68019 0.043862-0.0067 4.415-0.64626 7.3376 0.70449 0.10998 0.05089 0.22568 0.07498 0.33944 0.07498 0.30617-1.08e-4 0.59915-0.17437 0.73603-0.47049 0.18765-0.40621 0.01059-0.88772-0.39562-1.0755z" stroke="#000" stroke-width=".30985" fill="#000"/>
 <path id="path8" d="m12 1.9072c-5.5652 0-10.093 4.5275-10.093 10.092 0 5.5653 4.5276 10.093 10.093 10.093 5.5651 0 10.093-4.5277 10.093-10.093 0-5.565-4.5276-10.092-10.093-10.092zm0 18.565c-4.6717 0-8.4723-3.8007-8.4723-8.4725 0-4.6715 3.8006-8.4721 8.4723-8.4721 4.6716 0 8.4722 3.8006 8.4722 8.4721 0 4.6718-3.8006 8.4725-8.4722 8.4725z" stroke="#000" stroke-width=".81449" fill="#000"/>
</svg>
