<?xml version="1.0" encoding="UTF-8"?>
<svg id="svg1" version="1.1" viewBox="0 0 24 24" xmlns="http://www.w3.org/2000/svg">
 <path id="path4" d="m7 2c-1.11 0-2 0.89-2 2v16a2 2 0 0 0 2 2h10a2 2 0 0 0 2-2v-16c0-1.11-0.9-2-2-2h-10zm5.4277 1h0.85742v6h-0.85742v-3-3zm-3.4277 0.75h0.85742v4.5h-0.85742v-2.25-2.25zm1.7148 0.5625h0.85742v3.375h-0.85742v-1.6875-1.6875zm3.4277 0.375h0.85742v2.625h-0.85742v-1.3125-1.3125zm-2.1426 5.3125a5 5 0 0 1 5 5 5 5 0 0 1-5 5 5 5 0 0 1-5-5 5 5 0 0 1 5-5zm0 2a3 3 0 0 0-3 3 3 3 0 0 0 3 3 3 3 0 0 0 3-3 3 3 0 0 0-3-3z" fill="#000"/>
</svg>
