<?xml version="1.0" encoding="UTF-8"?>
<svg id="svg1" version="1.1" viewBox="0 0 24 24" xmlns="http://www.w3.org/2000/svg">
 <path id="path6" d="m12 2a10 10 0 0 0-10 10 10 10 0 0 0 10 10 10 10 0 0 0 10-10 10 10 0 0 0-10-10zm0.10156 2.1016c4.2717 0 7.7461 3.4744 7.7461 7.7461h-1.291c0-3.5577-2.8974-6.4551-6.4551-6.4551v-1.291zm-0.080078 3.4668 1.082 2.8555 2.918 0.17188-2.2695 1.9434 0.75586 3.0293-2.4863-2.1719-2.4863 2.1719 0.75781-2.9727-2.2715-2 2.9199-0.17188 1.0801-2.8555zm-7.7695 4.6836h1.291c-1e-7 3.5577 2.8974 6.4551 6.4551 6.4551v1.291c-4.2717 0-7.7461-3.4744-7.7461-7.7461z" fill="#000"/>
</svg>
