<svg width="24" height="24" version="1.1" viewBox="0 0 24 24" xmlns="http://www.w3.org/2000/svg">
<path id="path1506" d="m6.4473 3.0078c-0.25784 0.04095-0.46222 0.23295-0.53711 0.61328-0.06947 0.35277-0.096397 0.77034-0.10547 1.1328-0.0046 0.1841 0.034014 0.44919-0.0097656 0.63281-0.03607 0.15135-0.24582 0.32369-0.34375 0.45312-0.13394 0.17705-0.27849 0.33899-0.4082 0.52148-0.13531 0.19036-0.27066 0.3806-0.39453 0.58398-0.11056 0.18152-0.28353 0.4176-0.22656 0.67188 0.10076 0.44969 1.0339 0.29944 1.2988 0.25391 0 0.5359-0.032734 1.0686-0.021484 1.6055 0.0050999 0.24202 0.099453 0.77575-0.029297 0.93164-0.0988 0.11961-0.30291 0.17359-0.42578 0.26172-0.32211 0.23102-0.62982 0.51201-0.91797 0.80859-0.26473 0.27248-0.56432 0.62148-0.73438 1.002-0.09951-0.41296-0.24067-0.82889-0.39844-1.2109-0.13498-0.32687-0.44376-0.82968-0.77148-0.71875-0.37431 0.12668-0.43652 0.75086-0.38281 1.1719 0.06066 0.47548 0.30504 0.98483 0.5293 1.3574 0.10893 0.18095 0.23368 0.34466 0.36914 0.49219 0.08013 0.0873 0.19929 0.16648 0.22266 0.2832 0.01229 0.06174 0.012001 0.34075-0.011719 0.4043-0.01706 0.0459-0.14693 0.14325-0.18164 0.17969-0.15336 0.16106-0.29282 0.33147-0.42188 0.52539-0.28002 0.42093-0.54456 0.96525-0.54492 1.541-2.71e-4 0.42142 0.13276 1.1999 0.43555 1.4277 0.35811 0.26948 0.68247-0.30564 0.77734-0.6875 0.09964-0.40105 0.24281-0.84601 0.27539-1.2676 0.18471 0.38442 0.40443 0.69587 0.65625 1.0059 0.13126 0.16156 0.26988 0.31526 0.41406 0.45703 0.05944 0.05841 0.12184 0.1141 0.18359 0.16797 0.07294 0.06363 0.25603 0.12686 0.30859 0.21289 0.06207 0.1016 0.013331 0.68416 0.019531 0.84961 9e-3 0.23809 0.024161 0.47913 0.050781 0.71484 0.061 0.54014 0.24253 1.0718 0.62695 1.3379 0.61011 0.4224 1.3626 0.27865 2.0156 0.097657 0.39316-0.10898 0.78384-0.24428 1.1641-0.41406 0.18156-0.08109 0.35975-0.17263 0.53906-0.26172 0.16564-0.08226 0.34605-0.21712 0.51758-0.25976 0.1146-0.02844 0.22924 0.014816 0.34766 0.035156 0.18522 0.03177 0.37221 0.036075 0.55859 0.046875 0.33433 0.01935 0.66652 0.055201 1.002 0.056641 0.93002 0.0045 1.8603-0.12786 2.7871-0.16406 0.34162-0.01332 0.72091-0.10879 1.0547-0.21289 0.31311-0.09764 0.62992-0.16229 0.94336-0.25781 0.3562-0.10857 0.7101-0.27092 1.0684-0.35547 0.48904-0.11539 0.98595-0.3211 1.4453-0.57031 0.6922-0.37554 1.3471-0.94501 1.8613-1.6562 0.28498-0.39416 0.51709-0.85245 0.70312-1.334 0.19369-0.50138 0.22132-0.95646 0.24414-1.5059-0.12076-1.2133-0.87979-2.1056-1.5566-2.7773-0.75942-0.7537-1.6498-1.1916-2.5566-1.5469-1.4901-0.58373-3.0549-0.77621-4.6055-0.8418-0.38686-0.01638-0.7771-0.024418-1.1641-0.017578-0.25527 0.0045001-0.50706 0.027858-0.76172 0.048828-0.14734 0.01215-0.35678 0.078969-0.5 0.042969-0.10994-0.02763-0.092681-0.025884-0.11133-0.1582-0.0752-0.53382-0.1224-1.055-0.22656-1.5859-0.10754-0.54814-0.24763-1.0826-0.40625-1.6094-0.16765-0.55686-0.429-1.1107-0.82422-1.4355-0.38711-0.31816-0.88022-0.51448-1.3145-0.69141-0.40445-0.16478-0.83205-0.30053-1.252-0.38086-0.094891-0.018158-0.18749-0.021462-0.27344-0.0078125zm0.39062 9.4102c0.59051 1.8e-5 1.084 0.64328 1.084 1.4121 0 0.76879-0.49357 1.4121-1.084 1.4121-0.59036 0-1.084-0.64338-1.084-1.4121 0-0.76871 0.4936-1.4121 1.084-1.4121zm4.2461 0.21094c0.59049 1.8e-5 1.084 0.64137 1.084 1.4102 0 0.7688-0.49358 1.4121-1.084 1.4121-0.59036 0-1.084-0.64338-1.084-1.4121 0-0.7687 0.4936-1.4102 1.084-1.4102zm3.8535 0.078125c0.59049 0 1.084 0.64133 1.084 1.4102 0 0.76882-0.49356 1.4121-1.084 1.4121-0.59038 0-1.084-0.64334-1.084-1.4121 0-0.76871 0.4936-1.4102 1.084-1.4102z" stroke-width=".020748" fill="#000"/>
</svg>
