<?xml version="1.0" encoding="UTF-8"?>
<svg id="svg3570" width="24" height="24" version="1.1" viewBox="0 0 24 24" xmlns="http://www.w3.org/2000/svg">
 <path id="path4141" d="m11.186 5c-1.2348 0.048739-3.1731 0.35395-5.7025 2.4022l-0.088183 0.077638c-1.5145 1.2453-2.5576 2.7842-3.1113 4.5875-0.22753 0.74482-0.40616 2.0491-0.17863 3.2425 0.1076 0.56362 0.29614 1.1189 0.56301 1.6213 0.60532 1.1472 1.6203 1.9237 2.711 2.0506 0.12419 0.014369 0.25089 0.018274 0.37082 0.018274 0.82954 0 1.5454-0.35019 2.0734-0.97504 0.41098-0.7417 0.57437-1.5774 0.47483-2.4022l-0.20802-0.85859a2.855 3.7635 0 0 0-1.0514-1.5619c-0.60912-0.49051-1.3599-0.10014-1.6732 0.17354-0.28678 0.25119-0.44875 0.6193-0.44543 1.0367 0.00758 0.7567 0.52341 1.0915 0.7846 1.0915 0.365 0 0.38475-0.24487 0.38665-0.27173 0.013273-0.34429 0.24267-0.60622 0.50196-0.58685 0.26071 0.01999 0.46013 0.30131 0.44543 0.64622-0.023701 0.58299-0.39927 1.4637-1.334 1.4637-0.82574 0-1.7211-0.93616-1.732-2.3246-0.00758-0.8448 0.30176-1.6039 0.85921-2.0894 0.70345-0.61236 1.8204-0.91393 2.711-0.1941 0.87741 0.72296 1.4973 1.9199 1.6732 3.2014 0.029868 0.21495 0.039538 0.42899 0.045222 0.64394l0.88861 0.5663c0.09054 0.0731 0.22036 0.11317 0.3256 0.09818 0.21852-0.02688 0.39785-0.30067 0.42961-0.58685 9e-3 -0.0731-0.01849-0.19863-0.02939-0.27173a2.6308 3.4679 0 0 1-0.03166-0.37221c-0.06067-1.0248 0.12838-1.3594 0.20802-1.4637 0.10571-0.13747 0.26245-0.26229 0.35725-0.29228 0.46122-0.14622 1.3468-0.2078 2.1616 1.0344 0.39438 0.60298 0.6642 0.98084 0.81399 1.1714l0.03165 0.03881c0.0128 0.01687 0.02827 0.04499 0.04296 0.05937l0.04522 0.03881c0.01516 0.01437 0.0422 0.02695 0.05879 0.03882 0.02039 0.015 0.03922 0.03442 1.4968 0.91796 0.09812 0.06123 0.24928 0.07506 0.35499 0.03882 0.20525-0.06873 0.34741-0.36526 0.35499-0.64394a0.4489 0.59174 0 0 0-0.10401-0.39047c-0.20335-0.34367-0.755-1.5224-0.65119-2.3428 0.04266-0.3343 0.04601-0.42586 1.0514-0.27402 0.28726 0.04374 0.6096 0.10459 0.96322 0.11646 0.9907-0.0069 2.0152-0.24201 2.6816-0.62567 0.43515-0.25119 0.71162-0.41462 0.90217-0.64394 0.15548-0.16871 0.21248-0.38814 0.25324-0.52748l0.01357-0.05709c0.03176-0.10748 0.08504-0.33737 0.104-0.44984 0.02181-0.12372 0.01849-0.24168 0-0.35166a3.1698 4.1784 0 0 1-0.2962 0.2352c-0.33513 0.29056-0.97165 0.5663-1.6732 0.5663-0.07442 0-0.148-0.01305-0.22385-0.02055-0.84802-0.07312-2.1083-0.63424-3.0208-1.7377a0.4721 0.62232 0 1 1 0.63762-0.91796c0.739 0.89354 1.783 1.3504 2.4442 1.4066 0.63282 0.05874 1.1703-0.21481 1.3182-0.35166 0.02086-0.019995 0.05234-0.044375 0.07461-0.05937 0.23891-0.15371 0.53458-0.46539 0.65119-0.72158-0.16827-0.71794-0.44281-1.6625-0.7258-2.0505l-0.02939-0.057087c-0.081531-0.11247-0.18329-0.25363-0.35726-0.39047-1.231-0.94728-4.0601-1.4793-4.088-1.4843-0.06636-0.012497-0.15712 0.014449-0.22159 0.038819a0.48018 0.63298 0 0 0-0.2962 0.35166c-0.0237 0.070609-0.04142 0.15481-0.04522 0.23291-0.81295-0.30743-2.2458-0.77658-3.629-0.84032l-0.47257-0.018268zm8.2665 2.7927c0.05214-0.01 0.0934-0.00249 0.14697 0a0.79161 1.0435 0 0 1 0.77103 1.0732 0.81437 1.0735 0 0 1-0.25098 0.74213c-0.15548 0.18996-0.366 0.28401-0.57884 0.27402-0.43705-0.02187-0.77037-0.51517-0.7552-1.0938 0.0071-0.28056 0.09787-0.53328 0.25098-0.72386 0.11708-0.14372 0.26246-0.23987 0.41604-0.27173zm0.28038 0.52748c-0.19435 0-0.35499 0.1217-0.35499 0.29228s0.16064 0.31284 0.35499 0.31284c0.19435 0 0.35725-0.14225 0.35725-0.31284 0-0.17059-0.1629-0.29229-0.35725-0.29228z" stroke-width=".54424" fill="#000"/>
</svg>
