<svg id="svg1408" width="24" height="24" version="1.1" viewBox="0 0 24 24" xmlns="http://www.w3.org/2000/svg">
 <path id="path837-3" d="m4.3972 2-0.10244 0.33398c-0.12806 0.4179-0.36901 3.5804-0.27258 3.5781 0.038961-9.112e-4 0.91879-0.67778 1.955-1.5039 1.6519-1.317 1.9948-1.5238 2.7883-1.6797 0.49776-0.0978 1.0236-0.14123 1.1685-0.095703 0.22733 0.07145 0.2639 0.90587 0.2639 6.0977v6.0137l-1.3282 0.50195c-0.7299 0.27621-1.3265 0.5409-1.3265 0.58594s1.9908 0.08008 4.4238 0.08008c2.433 0 4.4238-0.03273 4.4238-0.07422s-0.53759-0.28883-1.1945-0.54883l-1.1945-0.47266-0.046877-6.1191c-0.051768-6.8625-0.18583-6.2614 1.3403-5.9473 0.69614 0.14329 1.1375 0.41773 2.7328 1.6914 1.0466 0.83561 1.9284 1.4919 1.9602 1.459 0.07406-0.07654-0.22283-3.4779-0.32467-3.7187-0.059677-0.14115-1.755-0.18164-7.6722-0.18164zm7.608 15.154c-0.09639 0.01209-0.18687 0.06064-0.29168 0.14648-0.22832 0.187-0.27779 0.62458-0.27779 2.4629v2.2363h1.2396v-2.3145c0-2.1377-0.02642-2.3245-0.34203-2.4629-0.12893-0.05652-0.23175-0.08045-0.32814-0.06836zm-1.731 0.9707c-0.34775 0.05171-0.43058 0.60941-0.43058 2.082v1.793h1.2379v-1.8066c0-1.6768-0.02561-1.8182-0.3646-1.9668-0.18151-0.07956-0.32681-0.1188-0.44273-0.10156zm-3.4064 0.12891c-0.091666 0.0061-0.18143 0.04424-0.283 0.11328-0.22692 0.15425-0.27953 0.5183-0.27953 1.9121v1.7207h1.2483l-0.048613-1.7598c-0.041095-1.4556-0.10165-1.7864-0.3455-1.9121-0.10685-0.055098-0.20002-0.080351-0.29168-0.074219zm8.8355 0.29102c-0.23229-0.0269-0.49045 0.03792-0.57294 0.14453-0.0825 0.10661-0.15136 0.89507-0.15278 1.752l-0.0035 1.5586h1.2501l-0.04861-1.7031c-0.04892-1.6712-0.05775-1.704-0.47224-1.752zm-1.823 0.43359c-0.09169-0.0062-0.18488 0.01919-0.29168 0.07422-0.23549 0.12133-0.30505 0.43245-0.3455 1.5488l-0.05035 1.3984h1.2518v-1.3594c0-1.0632-0.06202-1.3998-0.28126-1.5488-0.10152-0.06901-0.19131-0.10713-0.283-0.11328zm3.5384 0c-0.09169-0.0062-0.18489 0.01919-0.29168 0.07422-0.23549 0.12133-0.30505 0.43245-0.3455 1.5488l-0.05035 1.3984h1.2518v-1.3594c0-1.0632-0.06028-1.3998-0.27953-1.5488-0.10152-0.06901-0.19305-0.10713-0.28474-0.11328zm-8.8008 0.56836c-0.35927-0.045462-0.54343 0.42237-0.54343 1.3945v1.0586h1.2379v-1.0039c0-0.71962-0.07852-1.0692-0.27779-1.2324-0.15843-0.12976-0.29693-0.20164-0.41669-0.2168zm-3.3404 0.43945c-0.10531-0.01399-0.2254 0.01118-0.35939 0.08008-0.21185 0.10893-0.30938 0.40292-0.34724 1.043l-0.052086 0.89062h1.2553v-0.85156c0-0.71482-0.18062-1.1202-0.49655-1.1621zm13.869 0.58008c-0.10443-0.01802-0.2202-0.0095-0.34377 0.0293-0.20906 0.06571-0.28821 0.27374-0.28821 0.74805 0 0.656-2.37e-4 0.65625 0.6285 0.65625 0.62892 0 0.63076-9.15e-4 0.57642-0.60156-0.04345-0.48004-0.25964-0.77798-0.57294-0.83203z" stroke-width=".16014" fill="#000"/>
</svg>
