<svg id="svg4" width="24" height="24" version="1.1" viewBox="0 0 24 24" xmlns="http://www.w3.org/2000/svg">
 <path id="path2" d="m13.949 11.091v-3.1818l3.2002-2.0091c1.1637-0.71818 1.3819-1.8636 0.56731-2.7545-0.65459-0.71818-1.8474-1.1455-3.1129-1.1455-0.30548 0-0.65459 0.027273-0.93097 0.081818-1.571 0.26364-2.6329 1.1727-2.6329 2.1909v2.9455l-4.5676 2.8818c-2.4147 1.5364-3.142 3.8364-1.8183 5.8455 1.1201 1.7273 3.5639 2.9182 6.3859 3.2273v0.55455c0 0.23636-0.33457 0.45454-0.72732 0.45454h-2.182v1.8182h2.182c1.9638 0 3.6366-1.0091 3.6366-2.2727v-0.45455c2.9529 0 6.0513-1.7455 6.0513-4.3182 0-2.0909-2.7929-3.8636-6.0513-3.8636m0-6.8182c0-0.20909 0.16001-0.37273 0.46548-0.42727 0.32002-0.054545 0.65459 0.027273 0.8146 0.20909 0.17456 0.18182 0.11637 0.40909-0.11637 0.55455l-1.1637 0.78182v-1.1182m-2.9093 7.2727c-1.411 0.58182-2.4729 1.5818-2.8511 2.5091l2.8511 0.47273v2.7727c-1.6437-0.27273-3.0548-1.0182-3.7384-2.0545-0.85824-1.3273-0.39275-2.8364 1.2074-3.8545l2.5311-1.6636v1.8182m2.9093 5.9091v-4.6c1.7019 0 3.1711 1 3.1711 2.1 0 1.5909-1.8474 2.5-3.1711 2.5z" stroke-width="1.15" fill="#000"/>
</svg>
