<svg width="175" height="175" xmlns="http://www.w3.org/2000/svg"><path fill="none" d="M-1-1h177v177H-1z"/><g><path stroke-width="1.15" d="M97.893 79.924V53.409l17.068-16.743c6.206-5.985 7.37-15.53 3.025-22.954a19.222 19.222 0 00-16.602-9.546c-1.63 0-3.491.228-4.965.682-8.379 2.197-14.042 9.773-14.042 18.258V47.65l-24.36 24.015c-12.879 12.804-16.758 31.97-9.698 48.713 5.974 14.394 19.007 24.318 34.058 26.894v4.621c0 1.97-1.784 3.788-3.88 3.788H66.862v15.152h11.637c10.473 0 19.395-8.41 19.395-18.94v-3.787c15.749 0 32.274-14.546 32.274-35.985 0-17.424-14.896-32.197-32.274-32.197m0-56.818c0-1.743.853-3.106 2.483-3.56 1.706-.455 3.49.226 4.344 1.742.931 1.515.62 3.409-.62 4.62l-6.207 6.516v-9.318M82.377 83.712c-7.526 4.849-13.189 13.182-15.206 20.91l15.206 3.939v23.106c-8.767-2.273-16.292-8.485-19.938-17.121-4.578-11.06-2.095-23.637 6.44-32.12l13.498-13.864v15.152m15.517 49.242V94.623c9.076 0 16.912 8.333 16.912 17.5 0 13.257-9.853 20.833-16.912 20.833z" stroke="null" fill="#000"/></g></svg>