<svg width="24" height="24" version="1.1" viewBox="0 0 24 24" xmlns="http://www.w3.org/2000/svg">
 <path d="m22 6c-1 5-7 5-7 5h-11c-1 0-2-1-2-1h-1v4h1s1-1 2-1h0.3c-0.2 0.3-0.3 0.6-0.3 1v2c0 1.1 0.9 2 2 2h1v1h2v-1h1v1h2v-1h1v1h2v-1h1c1.1 0 2-0.9 2-2v-2c0-0.1 0-0.3-0.1-0.4 1.7 0.6 3.5 1.8 4.1 4.4h1v-12h-1m-16 10.5c-0.3 0-0.5-0.2-0.5-0.5v-2c0-0.3 0.2-0.5 0.5-0.5h1v3h-1m3 0v-3h1v3h-1m3 0v-3h1v3h-1m4.5-0.5c0 0.3-0.2 0.5-0.5 0.5h-1v-3h1c0.3 0 0.5 0.2 0.5 0.5v2m-7.5-6h-2v-1h2v1m3 0h-2v-1h2v1m3 0h-2v-1h2v1z" fill="#000"/>
</svg>
