<svg id="svg14" width="24" height="24" version="1.1" viewBox="0 0 24 24" xml:space="preserve" xmlns="http://www.w3.org/2000/svg"><path id="path8" d="m15.643 12.49v2.6261c0.0098 0.16414 0.09783 0.25103 0.2642 0.25584h3.0141c1.4483-0.26547 2.3046-1.1103 2.5786-2.5343v-2.9688c-0.0098-0.16896-0.09788-0.25584-0.25932-0.26066h-2.6716c-0.84648 0.067583-1.5168 0.3331-2.0013 0.79169-0.50396 0.48271-0.8171 1.1827-0.92474 2.0902m-0.81248 2.6213v-2.6212c-0.21526-1.7861-1.189-2.7467-2.9309-2.8819h-9.1403c-0.1615 0.0048624-0.24957 0.091748-0.25937 0.25589v2.9688c0.26913 1.4289 1.1254 2.2688 2.5738 2.5391h9.4923c0.16638-0.0048 0.25445-0.09651 0.2642-0.26066m-5.5775 1.1247c-0.16638 0.0049-0.24957 0.09175-0.2642 0.26071v5.2426c0.014636 0.16414 0.097826 0.25103 0.2642 0.2607h2.9847c1.4386-0.26552 2.2997-1.1103 2.5737-2.5344v-2.9688c-0.0098-0.16896-0.09783-0.25584-0.2642-0.2607h-5.294m5.0837-13.266c-0.66058-0.6469-1.4483-0.97033-2.3829-0.97033s-1.7321 0.32343-2.3878 0.97033c-0.65566 0.6469-0.98836 1.4337-0.98836 2.3509 0 0.91237 0.33271 1.6993 0.98836 2.3461 0.65565 0.6468 1.4532 0.97033 2.3878 0.97033s1.7223-0.32343 2.3829-0.97033c0.66058-0.6469 0.98836-1.4337 0.98836-2.3461 0-0.91714-0.32783-1.704-0.98836-2.3509" stroke-width=".049449" fill="#000"/></svg>
