<svg id="svg16" width="24" height="24" version="1.1" viewBox="0 0 .2304 .2304" xmlns="http://www.w3.org/2000/svg">
 <path id="path14" d="m0.035166 0.094181-0.0072758 0.0072758-0.0016168 0.001617-0.0040421 0.004042c-0.0040421 0.004042-0.0040421 0.01051 0 0.014552l0.0040421 0.004042 0.0016168 0.001617 0.044463 0.044463h0.0024253v-0.037188l-0.016977-0.016977c-0.0024253-0.002425-0.0024253-0.005659 0-0.007276l0.016977-0.016168zm0.059015 0.10105 0.012935 0.012935c0.004042 0.004042 0.01051 0.004042 0.014552 0l0.050122-0.050122v-0.002425h-0.037187l-0.016977 0.016977c-0.002425 0.002425-0.005659 0.002425-0.007276 0l-0.016168-0.016977zm0.10105-0.059015 0.012935-0.012935c0.004042-0.004042 0.004042-0.01051 0-0.014552l-0.050122-0.050122h-0.002425v0.037187l0.016977 0.016977c0.002425 0.002425 0.002425 0.005659 0 0.007276l-0.016977 0.016168v8.0842e-4h0.039613zm-0.059015-0.10105-0.007276-0.0072758-0.001617-0.0016168-0.004042-0.0040421c-0.004042-0.0040421-0.01051-0.0040421-0.014552 0l-0.004042 0.0040421-0.001617 0.0016168-0.04608 0.044463v0.0024253h0.037187l0.016977-0.016977c0.002425-0.0024253 0.005659-0.0024253 0.007276 0l0.017785 0.016977h8.0842e-4v-0.039613zm0.008893 0.084076-0.02587 0.02587c-0.002425 0.002425-0.005659 0.002425-0.007276 0l-0.025869-0.02587c-0.0024253-0.002425-0.0024253-0.005659 0-0.007276l0.025869-0.025869c0.002425-0.0024253 0.005659-0.0024253 0.007276 0l0.02587 0.025869c0.002425 0.001617 0.002425 0.004851 0 0.007276z" stroke-width=".0080842" fill="#000"/>
</svg>
