<svg width="24" height="24" version="1.1" viewBox="0 0 24 24" xml:space="preserve" xmlns="http://www.w3.org/2000/svg">
<g id="g1642" transform="matrix(.041628 0 0 .040533 .72988 2)">
</g><g id="g1652" transform="matrix(.041628 0 0 .040533 .72988 2)">
</g><g id="g1662" transform="matrix(.041628 0 0 .040533 .72988 2)">
</g><g id="g1666" transform="matrix(.041628 0 0 .040533 .72988 2)">
<path id="path1664" d="m448.37 51.601c0 28.492-23.038 51.592-51.561 51.592-28.491 0-51.592-23.1-51.592-51.592-1e-3 -28.494 23.1-51.601 51.591-51.601 28.523 0 51.562 23.107 51.562 51.601zm-10.16 58.549c-11.677 8.269-25.968 13.163-41.399 13.163-39.637 0-71.73-32.102-71.73-71.715 0-2.104 0.094-4.139 0.25-6.181-12.05-2.307-24.503-3.491-37.222-3.491-31.859 0-61.988 7.498-88.689 20.777l39.607 69.75c14.979-6.748 31.593-10.544 49.082-10.544 61.177 0 111.6 46.074 118.49 105.41l80.147-2.447c-3.539-43.758-21.261-83.506-48.537-114.73zm12.86 331.7c0 28.478-23.084 51.576-51.577 51.576s-51.594-23.098-51.594-51.576c0-28.5 23.101-51.592 51.594-51.592s51.577 23.092 51.577 51.592zm-51.58-71.72c12.002 0 23.301 2.936 33.23 8.149 30.924-32.591 50.906-75.595 54.211-123.23l-80.148-1.551c-6.171 60.111-56.954 106.94-118.68 106.94-17.084 0-33.388-3.594-48.101-10.093l-39.841 69.704c26.56 13.069 56.376 20.411 87.941 20.411 13.622 0 26.981-1.379 39.854-4.006 2.746-37.072 33.717-66.327 71.531-66.327zm-289.79-124.76c0 28.484-23.132 51.592-51.609 51.592-28.491 0-51.606-23.107-51.606-51.592 0-28.47 23.115-51.577 51.606-51.577 28.477 0 51.609 23.107 51.609 51.577zm59.14-4.17c0-38.117 17.894-72.05 45.685-93.896l-42.536-68.082c-35.648 25.603-62.472 62.66-75.127 105.8 19.811 12.751 32.949 35.031 32.949 60.353 0 24.424-12.143 45.957-30.783 58.918 13.606 40.86 40.12 75.838 74.706 100.11l39.559-70.358c-27.105-21.838-44.453-55.318-44.453-92.844z" fill="#000"/>
</g>
</svg>
