<?xml version="1.0" encoding="UTF-8"?>
<svg id="svg16" width="24" height="24" version="1.1" viewBox="0 0 24 24" xmlns="http://www.w3.org/2000/svg">
 <path id="path12-3" d="m15.952 3a2.7057 2.6596 0 0 1 2.7038 2.6609 2.7057 2.6596 0 0 1-2.7038 2.6577 2.7057 2.6596 0 0 1-2.707-2.6577 2.7057 2.6596 0 0 1 2.707-2.6609zm-3.9284 0.27898a8.8845 8.7332 0 0 1 0.83292 0.02481 3.7396 3.6759 0 0 0-0.74142 1.5475 5.1853 5.097 0 0 0-0.08203 0.59544 6.5584 6.4467 0 0 0-5.3131 2.7943 3.9092 3.8426 0 0 0-1.2305-0.4993 3.7557 3.6917 0 0 0-0.80769-0.080632h-0.20192a8.8845 8.7332 0 0 1 7.5436-4.3821zm7.521 3.9045a8.8845 8.7332 0 0 1-0.44486 10.188 3.6992 3.6362 0 0 0-1.2936-1.9692 6.5261 6.4149 0 0 0 0.8487-2.0655 6.6392 6.5261 0 0 0-0.62785-4.4037 3.9173 3.8505 0 0 0 1.5176-1.7492zm-14.837 1.6437a2.7057 2.6596 0 0 1 2.707 2.6609 2.7057 2.6596 0 0 1-2.707 2.6609 2.7057 2.6596 0 0 1-2.707-2.6609 2.7057 2.6596 0 0 1 2.707-2.6609zm1.6154 6.1158a6.5261 6.4149 0 0 0 4.4833 3.3742 2.3342 2.2944 0 0 0 0.66256 0.10234 3.8042 3.7394 0 0 0 0.80768 2.2236 8.8845 8.7332 0 0 1-1.915-0.19848 8.7795 8.63 0 0 1-6.3416-5.2256 3.9011 3.8347 0 0 0 2.3032-0.27602zm9.0238 0.73835a2.7057 2.6596 0 0 1 2.7038 2.6577 2.7057 2.6596 0 0 1-2.7038 2.6609 2.7057 2.6596 0 0 1-2.707-2.6609 2.7057 2.6596 0 0 1 2.707-2.6577z" stroke-width="1.6015" fill="#000"/>
</svg>
