<svg id="svg4" width="24" height="24" version="1.1" viewBox="0 0 24 24" xmlns="http://www.w3.org/2000/svg">
 <path id="path12" d="m21.7 18.6v-1l1.1-0.8c0.1-0.1 0.2-0.2 0.1-0.3l-1-1.7c0-0.1-0.2-0.1-0.3-0.1l-1.2 0.5c-0.3-0.2-0.6-0.4-0.9-0.5l-0.2-1.3c0-0.1-0.1-0.2-0.2-0.2h-2c-0.2 0-0.3 0.1-0.3 0.2l-0.2 1.3c-0.3 0.2-0.5 0.3-0.8 0.5l-1.2-0.5c-0.1 0-0.2 0-0.3 0.1l-1 1.7c0 0.1 0 0.2 0.1 0.3l1.1 0.8v1l-1.1 0.8c-0.1 0.1-0.2 0.2-0.1 0.3l1 1.7c0.1 0.1 0.2 0.1 0.3 0.1l1.2-0.5c0.2 0.2 0.5 0.4 0.8 0.5l0.2 1.3c0.1 0.1 0.2 0.2 0.3 0.2h2c0.1 0 0.2-0.1 0.2-0.2l0.2-1.3c0.3-0.2 0.5-0.3 0.8-0.5l1.2 0.4c0.1 0 0.2 0 0.3-0.1l1-1.7c0.1-0.1 0.1-0.2 0-0.2l-1.1-0.8m-3.7 0.9c-0.8 0-1.5-0.7-1.5-1.5s0.7-1.5 1.5-1.5 1.5 0.7 1.5 1.5-0.7 1.5-1.5 1.5m-2.306-9c-0.7824 0-1.4167-0.63426-1.4167-1.4167 0-0.7824 0.63426-1.4167 1.4167-1.4167 0.7824-2e-7 1.4167 0.63426 1.4167 1.4167 0 0.7824-0.63426 1.4167-1.4167 1.4167m-2.8333-3.7778c-0.7824 2e-7 -1.4167-0.63426-1.4167-1.4167s0.63426-1.4167 1.4167-1.4167c0.7824-2e-7 1.4167 0.63426 1.4167 1.4167s-0.63426 1.4167-1.4167 1.4167m-4.7222 0c-0.7824 0-1.4167-0.63426-1.4167-1.4167 0-0.7824 0.63426-1.4167 1.4167-1.4167 0.7824-2e-7 1.4167 0.63426 1.4167 1.4167-1e-7 0.7824-0.63426 1.4167-1.4167 1.4167m-2.8333 3.7778c-0.7824 0-1.4167-0.63426-1.4167-1.4167 2e-7 -0.7824 0.63426-1.4167 1.4167-1.4167 0.7824 1e-7 1.4167 0.63426 1.4167 1.4167 2e-7 0.7824-0.63426 1.4167-1.4167 1.4167m5.1944-8.5c-4.6944 0-8.5 3.8056-8.5 8.5 0 4.6944 3.8056 8.5 8.5 8.5 0.7824 0 0.88937-1.4322 0.88937-2.2146 0.28107-1.4032 0.47434-1.4033 1.0266-2.3655l1.5387-1.5643c2.0134-2.0469 5.0452-0.69196 5.0452-3.3 0-4.1744-3.8061-7.5556-8.5-7.5556z" fill="#000"/>
</svg>
