<?xml version="1.0" encoding="UTF-8"?>
<svg id="svg4" version="1.1" viewBox="0 0 24 24" xmlns="http://www.w3.org/2000/svg">
 <path id="path2" d="m8.5996 1.5391-1.8887 3.1816-3.6113 0.80859 0.33984 3.6816-2.4395 2.7891 2.4395 2.7793-0.33984 3.6914 3.6113 0.81836 1.8887 3.1816 3.4004-1.4707 3.4004 1.4609 1.8887-3.1816 3.6113-0.81836-0.33984-3.6816 2.4395-2.7793-2.4395-2.7793 0.33984-3.6816-3.6113-0.81836-1.8887-3.1816-3.4004 1.4609-3.4004-1.4609zm6.4414 5.4609c0.1414 0 0.27686 0.05671 0.38086 0.16211l1.2754 1.2773c0.2147 0.2133 0.2147 0.56023 0 0.76953l-1 1-2.0469-2.0469 1-1c0.1093-0.1054 0.25062-0.16211 0.39062-0.16211zm-1.9785 1.7402 2.0469 2.0527-6.0469 6.0664h-2.0625v-2.0625l6.0625-6.0566z" fill="#000"/>
</svg>
