<?xml version="1.0" encoding="UTF-8"?>
<svg id="svg1" version="1.1" viewBox="0 0 24 24" xmlns="http://www.w3.org/2000/svg">
 <path id="path3" d="m8 2a2 2 0 0 0-2 2v12a2 2 0 0 0 2 2h12a2 2 0 0 0 2-2v-12a2 2 0 0 0-2-2h-12zm6 2a6 6 0 0 1 6 6 6 6 0 0 1-6 6 6 6 0 0 1-6-6 6 6 0 0 1 6-6zm0.060547 1.2617v0.77344c2.1346 0 3.873 1.7383 3.873 3.873h0.77539c0-2.563-2.0853-4.6465-4.6484-4.6465zm-12.061 0.73828v14a2 2 0 0 0 2 2h14v-2h-14v-14h-2zm12 1.3008c-1.5 1e-7 -2.6992 1.1992-2.6992 2.6992s1.1992 2.6992 2.6992 2.6992 2.6992-1.1992 2.6992-2.6992-1.1992-2.6992-2.6992-2.6992zm0 2.0996a0.6 0.6 0 0 1 0.59961 0.59961 0.6 0.6 0 0 1-0.59961 0.59961 0.6 0.6 0 0 1-0.59961-0.59961 0.6 0.6 0 0 1 0.59961-0.59961zm-4.6484 0.75c0 2.563 2.0834 4.6484 4.6465 4.6484v-0.77539c-2.1346 0-3.873-1.7383-3.873-3.873h-0.77344z" fill="#000"/>
</svg>
