<?xml version="1.0" encoding="UTF-8"?>
<svg id="svg318" width="24" height="24" version="1.1" viewBox="0 0 24 24" xmlns="http://www.w3.org/2000/svg">
 <path id="path1967-3" d="m12 20c3.0198 0 5.6282-1.64 6.8405-4h2.3595c-1.3638 3.5-4.968 6-9.2 6s-7.8362-2.5-9.2-6h2.3595c1.2122 2.36 3.8207 4 6.8405 4m0-16c3.0198 0 5.6282 1.64 6.8405 4h2.3595c-1.3638-3.5-4.968-6-9.2-6s-7.8362 2.5-9.2 6h2.3595c1.2122-2.36 3.8207-4 6.8405-4m-9.4431 10.984c-0.26246-0.044348-0.45925-0.20824-0.53234-0.44335-0.01728-0.055583-0.034504-1.6113-0.017839-1.6113 0.00256 0 0.013545 0.0097 0.024395 0.02146 0.27647 0.30071 0.88769 0.34958 1.2483 0.09981 0.028204-0.01953 0.052989-0.03552 0.05508-0.03552 0.00209 0 0.1907-0.15675 0.41913-0.34833 1.3164-1.104 1.2081-1.0139 1.253-1.0434 0.21044-0.13828 0.54969-0.15497 0.78257-0.03851 0.075208 0.03761 0.17258 0.11608 0.77292 0.62282 0.045088 0.03805 0.23305 0.19556 0.41769 0.35001 0.18464 0.15445 0.37822 0.31717 0.43017 0.3616 0.14451 0.12359 0.19415 0.15782 0.29879 0.20605 0.36597 0.16867 0.81778 0.09476 1.1041-0.18061 0.053396-0.05137 0.070744 1.4758 0.018411 1.6208-0.14841 0.41128-0.69193 0.56071-1.0572 0.29066-0.047945-0.035443-0.69872-0.57808-1.1885-0.99098-0.045087-0.03801-0.15049-0.12646-0.23422-0.19654-0.083733-0.070088-0.18738-0.15697-0.23032-0.19308-0.45896-0.38596-0.68696-0.5749-0.69182-0.57328-0.00321 0.0011-0.20715 0.17076-0.45319 0.37707-0.24604 0.20632-0.51417 0.4311-0.59585 0.49951-0.081676 0.06841-0.18539 0.1555-0.23048 0.19352-0.4253 0.3587-1.0291 0.86141-1.0706 0.89138-0.13825 0.09985-0.35154 0.1489-0.52213 0.12007zm13.116 9.7e-5c-0.25266-0.04902-0.44085-0.20408-0.5165-0.42558-0.0289-0.08462-0.0289-3.1165 0-3.2011 0.20473-0.59945 1.1589-0.56518 1.2929 0.04645 0.02328 0.10621 0.01425 3.0831-0.0095 3.1534-0.10115 0.29846-0.44422 0.4894-0.76685 0.42681zm5.5549 0.0055c-0.29965-0.06097-0.47607-0.2051-0.55298-0.4518-0.02235-0.07169-0.0313-2.9684-0.0095-3.1013 0.10855-0.66438 1.1668-0.68487 1.3114-0.02539 0.0232 0.10573 0.01454 3.06-0.0093 3.1364-0.08996 0.28959-0.44537 0.50204-0.73968 0.44216zm-10.602-0.0069c-0.27136-0.03915-0.49526-0.23847-0.54726-0.48718-0.01638-0.07836-0.01638-3.2466 0-3.3249 0.13233-0.63298 1.1207-0.6587 1.3027-0.03393 0.02761 0.09476 0.02765 3.2973 7.6e-5 3.3934-0.08734 0.30387-0.41711 0.50145-0.75547 0.45264zm2.5218-0.0025c-0.24355-0.04011-0.44293-0.2044-0.52023-0.4287-0.02876-0.08344-0.02926-3.342-5.39e-4 -3.4328 0.1891-0.59767 1.1423-0.57527 1.2928 0.03039 0.01921 0.0773 0.01921 3.2907 0 3.368-0.07789 0.31343-0.42323 0.52058-0.77207 0.46314zm-10.59-1.9155c-0.27372-0.04477-0.48829-0.2354-0.54235-0.48182-0.023196-0.10573-0.014531-3.06 0.0092-3.1364 0.18958-0.61022 1.1592-0.58119 1.2991 0.038884 0.015519 0.068786 0.015519 3.0323 0 3.101-0.071409 0.31651-0.42087 0.53471-0.76598 0.47825zm5.5155-0.0023c-0.26878-0.047405-0.47822-0.23391-0.53049-0.47237-0.023279-0.10621-0.014245-3.0831 0.00956-3.1534 0.19581-0.5778 1.0861-0.57865 1.2834-0.00123 0.0289 0.084623 0.0289 3.1165 0 3.2011-0.10195 0.29856-0.43379 0.48395-0.76243 0.42597zm10.388-0.58064c-0.21546-0.02961-0.27497-0.06128-0.55042-0.29285-0.10735-0.09023-0.42882-0.35978-0.71437-0.59898-0.28555-0.2392-0.55607-0.46608-0.60116-0.50418-0.16738-0.14144-0.21528-0.17253-0.34479-0.2238-0.38503-0.15244-0.78093-0.09215-1.0666 0.16242-0.0566 0.05043-0.07748-1.4432-0.02231-1.5961 0.14594-0.40454 0.67548-0.55733 1.0434-0.30105 0.04064 0.028301 0.53152 0.43713 1.2062 1.0046 0.04295 0.03611 0.14658 0.12306 0.23032 0.1932 0.08374 0.07015 0.18738 0.1571 0.23032 0.19322 0.42057 0.35379 0.68731 0.57478 0.69189 0.57322 0.0039-0.0015 0.94234-0.78596 1.0876-0.90934 0.29293-0.24878 1.2207-1.022 1.2624-1.0521 0.37104-0.26789 0.92483-0.098126 1.0546 0.32329 0.06516 0.21151 0.02324 1.6417-0.04625 1.5778-0.35731-0.32846-0.92826-0.33822-1.3039-0.02227-0.03341 0.02811-0.09762 0.08218-0.14271 0.12018-0.09194 0.07749-1.2786 1.0722-1.3844 1.1605-0.1896 0.15818-0.40339 0.22346-0.62987 0.19233zm-7.8346-2.2923c-0.60289-0.10122-0.76316-0.78569-0.25537-1.0906 0.43487-0.26116 1.025 0.024861 1.0265 0.4975 0.0012 0.37119-0.37407 0.65981-0.77117 0.59314zm2.5335-1.66e-4c-0.49516-0.07751-0.72082-0.59305-0.41758-0.95398 0.27095-0.3225 0.8284-0.30773 1.0786 0.028582 0.32341 0.43467-0.09089 1.0147-0.66104 0.9254z" fill="#000"/>
</svg>
