<?xml version="1.0" encoding="UTF-8"?>
<svg id="svg390" width="24" height="24" version="1.1" viewBox="0 0 6.35 6.35" xmlns="http://www.w3.org/2000/svg">
 <path id="path1536" d="m3.175 0.26458c-1.0953 0-2.0283 0.60634-2.3812 1.4552h0.61082c0.31375-0.57238 0.98883-0.96997 1.7704-0.96997s1.4567 0.39759 1.7704 0.96997h0.61082c-0.35299-0.84887-1.2859-1.4552-2.3812-1.4552zm-2.9104 1.8257v2.1167h0.41806l0.0025838 0.0025838 0.0025838-0.0025838h0.10594v-0.10594l0.26562-0.26562 0.26355 0.26355v0.13436h0.52917v-2.1167h-0.52917v1.234l-0.26355-0.26355-0.26562 0.26562v-1.2625h-0.52917zm2.1167 0.026355v0.52917h0.52917v-0.52917h-0.52917zm1.0583 0v0.52917h0.52917v-0.52917h-0.52917zm1.0583 0v2.1167h0.52917v-1.2361l0.26562 0.26562 0.26355-0.26355v1.234h0.52917v-2.1167h-0.52917v0.13436l-0.26355 0.26355-0.26562-0.26562v-0.13229h-0.52917zm-2.1167 0.79375v1.3229h0.52917v-1.3229h-0.52917zm1.0583 0v1.3229h0.52917v-1.3229h-0.52917zm-2.6458 1.7198c0.35299 0.84887 1.2859 1.4552 2.3812 1.4552 1.0953 0 2.0283-0.60634 2.3812-1.4552h-0.61082c-0.31377 0.57238-0.98884 0.96997-1.7704 0.96997-0.7816 0-1.4567-0.39759-1.7704-0.96997h-0.61082z" fill="#000"/>
</svg>
