<?xml version="1.0" encoding="UTF-8"?>
<svg id="svg2" version="1.1" viewBox="0 0 128 128" xmlns="http://www.w3.org/2000/svg">
 <path id="path46" d="m128 64.094a63.906 63.906 0 1 0-127.81 0 63.906 63.906 0 0 0 127.81 0" fill="#456ac8"/>
 <g id="g4574" transform="translate(1.6765 -1.6765)" stroke-width="2.632">
  <path id="path4393" d="m93.057 26.134c-1.1826-0.01037-2.7548 0.13502-4.8468 0.38281l-33.535 4.1954c-8.4042 1.4106-8.3753 1.8493-8.4037 7.4459v45.41c-0.35051-0.19352-0.69623-0.38812-1.0586-0.57955v0.0016c-2.6701-1.4104-5.5158-2.4141-9.3382-2.4141-4.7878 0-7.643 1.445-9.3714 3.3484-1.7284 1.9033-2.3017 4.3024-2.3017 6.157 0 2.2363 0.96869 4.623 3.0701 6.4419 2.1014 1.8188 5.3322 3.0925 9.9775 3.0925 5.2456 0 8.9355-1.1546 11.021-3.4094 1.6423-1.7753 2.5505-4.1472 2.8746-7.0728v-8e-3c0.04539-0.35494 0.07831-0.71952 0.10697-1.0951 0.044-0.5783 0.03443-1.6601 0.03443-1.6601v-34.769c0-4.9671-3.09e-4 -5.2636 8.4062-6.3963l23.48-3.0605c8.4217-0.86852 8.4234-0.25952 8.4234 3.4658v31.909c-0.3411-0.18838-0.6779-0.37788-1.0303-0.56404v2e-3c-2.6701-1.4104-5.5146-2.4141-9.337-2.4141-4.7878 0-7.6442 1.4451-9.3726 3.3484-1.7284 1.9033-2.3017 4.3024-2.3017 6.157 0 2.2363 0.96992 4.6231 3.0713 6.4419 2.1014 1.8188 5.3322 3.0934 9.9775 3.0935 5.2456 0 8.9355-1.1555 11.021-3.4104 1.6423-1.7753 2.5493-4.1462 2.8734-7.0718v-0.0088c0.04541-0.35494 0.07833-0.71855 0.10697-1.0942 0.04399-0.57831 0.03567-1.6611 0.03567-1.6611v-48.373c0-4.3564-0.03629-5.7992-3.584-5.8304z" enable-background="new" fill="#404040" fill-opacity=".25098" stroke="#404040" stroke-opacity=".25098"/>
  <path id="path4393-3" d="m90.19 23.676c-1.1826-0.01037-2.7548 0.13502-4.8468 0.38281l-33.535 4.1954c-8.4042 1.4106-8.3753 1.8493-8.4037 7.4459v45.41c-0.35051-0.19352-0.69623-0.38812-1.0586-0.57955v0.0016c-2.6701-1.4104-5.5158-2.4141-9.3382-2.4141-4.7878 0-7.643 1.445-9.3714 3.3484-1.7284 1.9033-2.3017 4.3024-2.3017 6.157 0 2.2363 0.96869 4.623 3.0701 6.4419 2.1014 1.8188 5.3322 3.0925 9.9775 3.0925 5.2456 0 8.9355-1.1546 11.021-3.4094 1.6423-1.7753 2.5505-4.1472 2.8746-7.0728v-8e-3c0.04539-0.35494 0.07831-0.71952 0.10697-1.0951 0.044-0.5783 0.03443-1.6601 0.03443-1.6601v-34.769c0-4.9671-3.09e-4 -5.2636 8.4062-6.3963l23.48-3.0605c8.4216-0.86852 8.4234-0.25952 8.4234 3.4658v31.909c-0.34109-0.18838-0.6779-0.37788-1.0303-0.56404v2e-3c-2.6701-1.4104-5.5146-2.4141-9.337-2.4141-4.7878 0-7.6442 1.4451-9.3726 3.3484-1.7284 1.9033-2.3017 4.3024-2.3017 6.157 0 2.2363 0.96992 4.6231 3.0713 6.4419 2.1014 1.8188 5.3322 3.0934 9.9775 3.0935 5.2456 0 8.9355-1.1555 11.021-3.4104 1.6423-1.7753 2.5493-4.1462 2.8734-7.0718v-0.0088c0.0454-0.35494 0.0783-0.71855 0.10698-1.0942 0.044-0.57831 0.0357-1.6611 0.0357-1.6611v-48.373c0-4.3564-0.0363-5.7992-3.584-5.8304z" enable-background="new" fill="#f4f4f4" stroke="#f4f4f4"/>
 </g>
</svg>
